<svg version="1.2" xmlns="http://www.w3.org/2000/svg" viewBox="0 0 480 480" width="480" height="480">
	<title>Flower</title>
	<style>
		.s0 { fill: none;stroke: #34aa63;stroke-miterlimit:10;stroke-width: 13 } 
		.s1 { fill: #ffe9e9 } 
		.s2 { fill: #ffe2e2 } 
		.s3 { fill: #fff1f1 } 
		.s4 { fill: #ffdfdf } 
		.s5 { fill: #ffe0e0 } 
		.s6 { fill: #ffd0d0 } 
		.s7 { fill: #ffefef } 
		.s8 { fill: #ffd8d8 } 
		.s9 { fill: #ffb0b0 } 
		.s10 { fill: #ffcaca } 
		.s11 { fill: #ffdddd } 
		.s12 { fill: #ff7e7e } 
		.s13 { fill: #34aa63 } 
	</style>
	<g id="&lt;Group&gt;">
		<path id="&lt;Path&gt;" class="s0" d="m233.7 203.1l-35.8 218.9"/>
		<g id="&lt;Group&gt;">
			<path id="&lt;Path&gt;" class="s1" d="m294 119.4c14.7-10.2 33-11 51.9-1.7 18.9 9.4 25 30.9-1.2 55.3-26.3 24.4-63.2 39.5-80.5 6.5-17.4-33.1 15.8-50.4 29.8-60.1z"/>
			<path id="&lt;Path&gt;" class="s2" d="m254.7 85.5c3.6-8.6 9.5-22.2 30.8-19.2 21.4 3.1 33.4-5.6 40.9 13.3 7.5 19-22.3 36.6-18.8 54.9 3.4 18.3-83.8 23.6-52.9-49z"/>
			<path id="&lt;Path&gt;" class="s3" d="m192.7 169c-14.7-42.9 4-79.7 25.7-100.6 21.7-20.8 29-35.7 39.6-5.6 10.5 30.2 15 75.9-7.5 98.6-22.5 22.8-49.9 30.7-57.8 7.6z"/>
			<path id="&lt;Path&gt;" class="s4" d="m163.6 201c-20.6-15.1-23.6-47.4-41.2-73.7-17.6-26.4 9.4-21.8 35.5-9.1 26 12.8 69.6 74.1 46.3 86.6-23.4 12.6-28.4 5.2-40.6-3.8z"/>
			<path id="&lt;Path&gt;" class="s3" d="m211.1 252.5c-9.4 2-38.6 4.4-49.5 8.2-10.8 3.9-37-23.6-44-29.4-7.1-5.7 1.6-24.1 27.7-30.9 26.1-6.7 72.4-22.6 79.4 9.7 6.9 32.4-2.6 40.1-13.6 42.4z"/>
			<path id="&lt;Path&gt;" class="s5" d="m280.4 272.1c-7.1 9.6-34.7 13.7-50.6 17.3-16 3.5-24.1-21.1-28.3-35.4-4.1-14.3 6.5-37.7 30.5-33.7 24 3.9 68.9 24.1 48.4 51.8z"/>
			<path id="&lt;Path&gt;" class="s1" d="m249.6 235.8c16 19.8 22.7 42 21.5 57.8-1.1 15.8 20.2 31.2 39.2 36.8 19 5.6 36.1 14.3 24.4-8.7-11.6-23 15.3-50-9.7-75.5-25-25.4-62.3-38.7-70.7-28.2-8.3 10.4-9.6 14.2-4.7 17.8z"/>
			<path id="&lt;Path&gt;" class="s6" d="m296.4 153.1c-5.8 22.4-32.7 53.6-54.4 47.9-21.6-5.7-54.1-23.7-31.4-69.4 23.7-47.5 49-50.3 61.9-46.9 12.9 3.4 29.8 46 23.9 68.4z"/>
			<path id="&lt;Path&gt;" class="s7" d="m292.6 177.9c14.8-21 43 1.4 53.2 4.9 10.2 3.5 20.9 34.8 20.2 46.4-0.7 11.7-13.5 11.6-35.3 14.1-21.7 2.5-51.7-7.2-60.2-32.3-8.5-25.1 8.7-14 22.1-33.1z"/>
			<path id="&lt;Path&gt;" class="s8" d="m314.3 196.1c-10.9 28.5-67.1 31.1-77 18.6-10-12.4-1.5-44.8 26-57.7 34.9-16.4 61.3-36.8 68.5-18.7 9.4 23.7-2.7 19.3-17.5 57.8z"/>
			<path id="&lt;Path&gt;" class="s6" d="m298.9 163.9c-13.5 23-34.2 35.9-46.3 28.8-12.1-7.1-11-31.4 2.4-54.4 13.4-23 41.9-31.3 46.2-28.8 4.4 2.6 11.1 31.5-2.3 54.4z"/>
			<path id="&lt;Path&gt;" class="s9" d="m261.2 136.3c-4.5 18.4-16.4 31.2-26.5 28.7-10.1-2.4-14.7-19.3-10.2-37.7 4.5-18.4 20.3-30.3 26.5-28.7 6.3 1.5 14.7 19.4 10.2 37.7z"/>
			<path id="&lt;Path&gt;" class="s9" d="m281.2 136.4c-6.1 17.9-19.1 29.7-29 26.3-9.8-3.4-12.9-20.7-6.7-38.5 6.1-17.9 22.9-28.4 29-26.3 6 2.1 12.9 20.7 6.7 38.5z"/>
			<path id="&lt;Path&gt;" class="s5" d="m210.9 135.9c3 33 17.2 58.8 2.3 60.1-14.9 1.3-42.4-25.4-45.3-58.4-2.9-33.1 28.6-60.5 34.8-61.3 11.8-1.5 5.3 26.5 8.2 59.6z"/>
			<path id="&lt;Path&gt;" class="s10" d="m286.6 195.3c-10.1 29.5-35.4 47.5-56.6 40.2-21.1-7.2-30-37-19.9-66.5 10.1-29.4 29.4-39.7 56.6-40.2 22.2-0.4 30.1 37.1 19.9 66.5z"/>
			<path id="&lt;Path&gt;" class="s11" d="m279.7 230c-8.2 23.9-28.5 20.2-52.3 12.1-23.8-8.2-37.1-32.4-33.9-41.7 3.2-9.2 23.6-16.9 52.3-12 23.4 4 42.1 17.8 33.9 41.6z"/>
			<path id="&lt;Path&gt;" class="s12" d="m263.7 118.4c-4-7.8-0.9-8.3 7-6.8 6.5 1.1 7 4.7 2.4 8.1-6.8 5.1-7.5 2.4-9.4-1.3z"/>
		</g>
		<path id="&lt;Path&gt;" class="s13" d="m209.7 331l-19-25.8 29.2 13.3z"/>
		<path id="&lt;Path&gt;" class="s13" d="m206.9 354.1l31.7 4.8-30 11.2z"/>
	</g>
</svg>