<svg version="1.2" xmlns="http://www.w3.org/2000/svg" viewBox="0 0 480 480" width="480" height="480">
	<title>Flower</title>
	<style>
		.s0 { fill: #31b33c } 
		.s1 { fill: #ff6dab } 
		.s2 { fill: #f73b8d } 
		.s3 { fill: #f5006b } 
		.s4 { fill: #ffca60 } 
	</style>
	<g id="&lt;Group&gt;">
		<g id="&lt;Group&gt;">
			<path id="&lt;Path&gt;" class="s0" d="m245.6 418.4l-13-0.3c0.3-9.5 0.7-16.6 1.1-24.2 1.4-25.3 3.1-56.7-1.1-199.6l13-0.4c4.2 143.4 2.5 175.2 1 200.7-0.4 7.5-0.8 14.5-1 23.8z"/>
		</g>
		<g id="&lt;Group&gt;">
			<g id="&lt;Group&gt;">
				<path id="&lt;Path&gt;" class="s1" d="m275.4 138.4c0 46.8-18.1 55.7-36.3 55.7-18.1 0-36.3-8.9-36.3-55.7 0-46.8 36.3-76.7 36.3-76.7 0 0 36.3 29.9 36.3 76.7z"/>
			</g>
			<g id="&lt;Group&gt;">
				<path id="&lt;Path&gt;" class="s1" d="m209.1 134.8c40.5 23.4 39.1 43.6 30 59.3-9 15.7-25.8 27-66.3 3.6-40.5-23.4-48.3-69.8-48.3-69.8 0 0 44.1-16.5 84.6 6.9z"/>
			</g>
			<g id="&lt;Group&gt;">
				<path id="&lt;Path&gt;" class="s1" d="m172.8 190.5c40.5-23.4 57.3-12.1 66.3 3.6 9.1 15.7 10.5 35.9-30 59.3-40.5 23.4-84.6 6.9-84.6 6.9 0 0 7.8-46.4 48.3-69.8z"/>
			</g>
			<g id="&lt;Group&gt;">
				<path id="&lt;Path&gt;" class="s1" d="m202.8 249.8c0-46.8 18.2-55.7 36.3-55.7 18.2 0 36.3 8.9 36.3 55.7 0 46.7-36.3 76.7-36.3 76.7 0 0-36.3-30-36.3-76.7z"/>
			</g>
			<g id="&lt;Group&gt;">
				<path id="&lt;Path&gt;" class="s1" d="m269.2 253.4c-40.5-23.4-39.1-43.6-30.1-59.3 9.1-15.7 25.9-27 66.4-3.6 40.5 23.4 48.3 69.8 48.3 69.8 0 0-44.1 16.5-84.6-6.9z"/>
			</g>
			<g id="&lt;Group&gt;">
				<path id="&lt;Path&gt;" class="s1" d="m305.5 197.7c-40.5 23.4-57.3 12.1-66.4-3.6-9-15.7-10.4-35.9 30.1-59.3 40.5-23.4 84.6-6.9 84.6-6.9 0 0-7.8 46.4-48.3 69.8z"/>
			</g>
		</g>
		<g id="&lt;Group&gt;">
			<path id="&lt;Path&gt;" class="s2" d="m270.5 194.1c0 17.3-14 31.4-31.4 31.4-17.3 0-31.3-14.1-31.3-31.4 0-17.3 14-31.4 31.3-31.4 17.4 0 31.4 14.1 31.4 31.4z"/>
		</g>
		<g id="&lt;Group&gt;">
			<path id="&lt;Path&gt;" class="s3" d="m253.4 194.1c0 7.9-6.4 14.2-14.3 14.2-7.8 0-14.2-6.3-14.2-14.2 0-7.9 6.4-14.3 14.2-14.3 7.9 0 14.3 6.4 14.3 14.3z"/>
		</g>
		<g id="&lt;Group&gt;">
			<path id="&lt;Path&gt;" class="s4" d="m223.4 223.1c0 5.8-1.4 10.5-3.1 10.5-1.7 0-3.1-4.7-3.1-10.5 0-5.7 1.4-10.4 3.1-10.4 1.7 0 3.1 4.7 3.1 10.4z"/>
		</g>
		<g id="&lt;Group&gt;">
			<path id="&lt;Path&gt;" class="s0" d="m207.4 308.3c33.3 52.3 31.4 105.8 27.8 105.1-3.9 0.5-8-49.4-39.2-97.9-30.3-49-73.5-74.2-71.4-77.6 1-3.4 50.1 17.9 82.8 70.4z"/>
		</g>
		<g id="&lt;Group&gt;">
			<path id="&lt;Path&gt;" class="s4" d="m255 223.1c0 5.8 1.4 10.5 3.1 10.5 1.7 0 3-4.7 3-10.5 0-5.7-1.3-10.4-3-10.4-1.7 0-3.1 4.7-3.1 10.4z"/>
		</g>
		<g id="&lt;Group&gt;">
			<path id="&lt;Path&gt;" class="s4" d="m242.2 228.9c0 5.8-1.4 10.4-3.1 10.4-1.7 0-3-4.6-3-10.4 0-5.8 1.3-10.4 3-10.4 1.7 0 3.1 4.6 3.1 10.4z"/>
		</g>
	</g>
</svg>