<svg version="1.2" xmlns="http://www.w3.org/2000/svg" viewBox="0 0 480 480" width="480" height="480">
	<title>Flower</title>
	<style>
		.s0 { fill: #59aa4c } 
		.s1 { fill: none;stroke: #59aa4c;stroke-miterlimit:10;stroke-width: 11 } 
		.s2 { fill: #d2c4ec } 
		.s3 { fill: #ffe451 } 
		.s4 { fill: #ffba51 } 
		.s5 { fill: #bdd66d } 
	</style>
	<g id="&lt;Group&gt;">
		<path id="&lt;Path&gt;" class="s0" d="m305.2 197.4c-16.5-0.1-25.9 2.6-26.9 0.4-1-1.6 7.3-9.6 26.7-12.5 20.3-3.3 37.5 12.2 36.7 12.5-0.5 0-20.6-0.4-36.5-0.4z"/>
		<path id="&lt;Path&gt;" class="s0" d="m282.9 291.4c-11.4 13-12 23.9-14.6 23.7-1.4 0.8-7.4-11.7 5.4-31.6 14.9-21.7 41.9-14.7 40-13.6-0.5-0.2-20.3 8.4-30.8 21.5z"/>
		<path id="&lt;Path&gt;" class="s0" d="m239.2 365.7c-13-11.4-23.8-12-23.7-14.6-0.8-1.4 11.7-7.3 31.6 5.4 21.7 14.9 14.7 41.9 13.6 40 0.3-0.5-8.4-20.2-21.5-30.8z"/>
		<path id="&lt;Path&gt;" class="s0" d="m238.1 278.7c-0.1 16.4 2.6 25.9 0.4 26.9-1.6 0.9-9.6-7.4-12.5-26.8-3.4-20.2 12.1-37.5 12.5-36.6-0.1 0.4-0.4 20.5-0.4 36.5z"/>
		<path id="&lt;Path&gt;" class="s0" d="m264 180.5c9.5 9.3 13 16.6 15.1 15.6 1.7-0.6 2.6-11-6.4-24.1-9.2-13.9-30-12.8-29.8-12.1 0.3 0.2 12 11.4 21.1 20.6z"/>
		<path id="&lt;Path&gt;" class="s0" d="m210.7 304.2c13.3-0.1 20.9 2.5 21.7 0.3 0.8-1.6-6-9.6-21.6-12.4-16.4-3.4-30.3 12.1-29.6 12.4 0.3 0 16.6-0.4 29.5-0.3z"/>
		<path id="&lt;Path&gt;" class="s1" d="m191.3 247.5c19.4 15.4 72.9 96.2 71.8 128.2"/>
		<path id="&lt;Path&gt;" class="s1" d="m302.8 125.7c-16.1 39.5-29.5 101.4-37.9 194-3 33.2-2.3 115.8-2.3 115.8"/>
		<g id="&lt;Group&gt;">
			<path id="&lt;Path&gt;" class="s2" d="m181.4 187.9c0-15.6-1.2-24.2-2.8-24.2-1.5 0-2.8 8.6-2.8 24.2 0 15.7 1.3 47.4 2.8 47.4 1.6 0 2.8-31.7 2.8-47.4z"/>
			<path id="&lt;Path&gt;" class="s2" d="m186.7 188.9c2.2-15.5 2.1-24.2 0.6-24.4-1.5-0.2-4 8.2-6.1 23.6-2.2 15.5-5.4 47.1-3.9 47.3 1.6 0.3 7.2-31 9.4-46.5z"/>
			<path id="&lt;Path&gt;" class="s2" d="m161.9 190.6c-5.8-14.5-10.2-22-11.7-21.5-1.4 0.6 0.7 9.1 6.5 23.6 5.9 14.4 18.9 43.4 20.3 42.8 1.5-0.5-9.2-30.4-15.1-44.9z"/>
			<path id="&lt;Path&gt;" class="s2" d="m141.3 204.4c-12.4-9.6-19.9-13.9-20.9-12.7-0.9 1.2 5.1 7.5 17.4 17.1 12.3 9.6 38.1 28.2 39.1 27 0.9-1.2-23.3-21.8-35.6-31.4z"/>
			<path id="&lt;Path&gt;" class="s2" d="m130.3 226.7c-15.5-2.2-24.2-2.1-24.4-0.6-0.2 1.5 8.1 3.9 23.6 6.1 15.5 2.2 47.1 5.4 47.3 3.9 0.2-1.6-31-7.2-46.5-9.4z"/>
			<path id="&lt;Path&gt;" class="s2" d="m131.9 251.5c-14.5 5.8-22 10.2-21.4 11.7 0.6 1.4 9-0.7 23.5-6.5 14.5-5.9 43.5-18.9 42.9-20.4-0.6-1.4-30.5 9.3-45 15.2z"/>
			<path id="&lt;Path&gt;" class="s2" d="m145.8 272.1c-9.7 12.4-14 19.9-12.8 20.9 1.3 0.9 7.5-5.1 17.2-17.4 9.6-12.3 28.2-38.1 26.9-39.1-1.2-0.9-21.7 23.3-31.3 35.6z"/>
			<path id="&lt;Path&gt;" class="s2" d="m168.1 283.1c-2.2 15.5-2.2 24.2-0.6 24.4 1.5 0.2 3.9-8.1 6.1-23.6 2.2-15.5 5.4-47.1 3.8-47.3-1.5-0.2-7.2 31-9.3 46.5z"/>
			<path id="&lt;Path&gt;" class="s2" d="m192.9 281.5c5.8 14.5 10.2 22 11.6 21.4 1.5-0.6-0.6-9-6.5-23.5-5.8-14.5-18.9-43.5-20.3-42.9-1.4 0.6 9.3 30.5 15.2 45z"/>
			<path id="&lt;Path&gt;" class="s2" d="m213.5 267.6c12.3 9.7 19.9 14 20.8 12.8 1-1.3-5-7.5-17.3-17.2-12.4-9.6-38.1-28.2-39.1-27-0.9 1.3 23.3 21.8 35.6 31.4z"/>
			<path id="&lt;Path&gt;" class="s2" d="m224.5 245.3c15.5 2.2 24.1 2.2 24.4 0.6 0.2-1.5-8.2-3.9-23.6-6.1-15.5-2.2-47.1-5.4-47.4-3.8-0.2 1.5 31.1 7.2 46.6 9.3z"/>
			<path id="&lt;Path&gt;" class="s2" d="m222.8 220.5c14.5-5.8 22-10.2 21.5-11.6-0.6-1.5-9.1 0.6-23.6 6.5-14.5 5.8-43.4 18.9-42.9 20.3 0.6 1.4 30.5-9.3 45-15.2z"/>
			<path id="&lt;Path&gt;" class="s2" d="m209 199.9c9.6-12.3 13.9-19.9 12.7-20.8-1.2-1-7.5 5-17.1 17.3-9.6 12.4-28.2 38.1-27 39.1 1.2 0.9 21.8-23.3 31.4-35.6z"/>
			<path id="&lt;Path&gt;" class="s2" d="m174.5 188.4c-1.7-15.6-3.9-24-5.4-23.8-1.5 0.2-1.9 8.8-0.2 24.4 1.7 15.5 6.3 47 7.9 46.8 1.5-0.2-0.6-31.9-2.3-47.4z"/>
			<path id="&lt;Path&gt;" class="s2" d="m170 190.3c-3.4-15.3-6.5-23.4-8-23.1-1.5 0.4-0.9 9 2.5 24.3 3.4 15.3 11.5 46 13 45.7 1.5-0.4-4.1-31.7-7.5-46.9z"/>
			<path id="&lt;Path&gt;" class="s2" d="m148 200c-10.6-11.5-17.3-17-18.5-15.9-1.1 1 3.8 8.2 14.4 19.7 10.5 11.5 32.9 34.1 34 33.1 1.2-1.1-19.4-25.3-29.9-36.9z"/>
			<path id="&lt;Path&gt;" class="s2" d="m133.8 219.5c-14.9-4.7-23.5-6.1-24-4.7-0.4 1.5 7.4 5.3 22.3 10 14.9 4.7 45.6 13.1 46 11.6 0.5-1.5-29.4-12.2-44.3-16.9z"/>
			<path id="&lt;Path&gt;" class="s2" d="m131.2 243.4c-15.3 3.4-23.4 6.5-23 8 0.3 1.5 9 0.8 24.2-2.5 15.3-3.4 46-11.5 45.7-13-0.4-1.5-31.6 4.1-46.9 7.5z"/>
			<path id="&lt;Path&gt;" class="s2" d="m140.9 265.4c-11.5 10.6-17 17.3-15.9 18.5 1 1.1 8.2-3.8 19.7-14.4 11.5-10.5 34.1-32.9 33.1-34-1.1-1.2-25.3 19.4-36.9 29.9z"/>
			<path id="&lt;Path&gt;" class="s2" d="m160.4 279.6c-4.7 14.9-6.1 23.5-4.6 24 1.4 0.4 5.2-7.4 9.9-22.3 4.7-14.9 13.1-45.6 11.6-46-1.5-0.5-12.2 29.4-16.9 44.3z"/>
			<path id="&lt;Path&gt;" class="s2" d="m184.3 282.2c3.4 15.2 6.5 23.4 8 23 1.5-0.3 0.9-9-2.5-24.2-3.4-15.3-11.5-46-13-45.7-1.5 0.4 4.1 31.6 7.5 46.9z"/>
			<path id="&lt;Path&gt;" class="s2" d="m206.3 272.4c10.6 11.6 17.3 17.1 18.5 16 1.1-1-3.8-8.2-14.3-19.7-10.6-11.5-33-34.1-34.1-33.1-1.2 1.1 19.4 25.3 29.9 36.8z"/>
			<path id="&lt;Path&gt;" class="s2" d="m220.5 253c14.9 4.7 23.5 6.1 24 4.6 0.4-1.4-7.4-5.2-22.3-9.9-14.9-4.7-45.6-13.1-46-11.6-0.5 1.5 29.4 12.2 44.3 16.9z"/>
			<path id="&lt;Path&gt;" class="s2" d="m223.1 229.1c15.3-3.4 23.4-6.5 23.1-8-0.4-1.5-9-0.9-24.3 2.5-15.3 3.4-46 11.5-45.7 13 0.4 1.5 31.6-4.1 46.9-7.5z"/>
			<path id="&lt;Path&gt;" class="s2" d="m213.4 207.1c11.5-10.6 17-17.3 15.9-18.5-1-1.1-8.2 3.8-19.7 14.3-11.5 10.6-34.1 33-33.1 34.1 1.1 1.1 25.3-19.4 36.9-29.9z"/>
			<path id="&lt;Path&gt;" class="s2" d="m193.9 192.9c4.7-14.9 6.1-23.5 4.6-24-1.4-0.5-5.2 7.4-9.9 22.3-4.7 14.9-13.1 45.5-11.6 46 1.5 0.5 12.2-29.4 16.9-44.3z"/>
			<path id="&lt;Path&gt;" class="s2" d="m150.6 196.5c-9.2-12.7-15.3-18.9-16.5-18-1.3 0.9 2.8 8.6 12 21.2 9.2 12.7 29 37.6 30.2 36.7 1.3-0.9-16.5-27.3-25.7-39.9z"/>
			<path id="&lt;Path&gt;" class="s2" d="m134 215.4c-14.3-6.4-22.7-8.7-23.3-7.3-0.6 1.4 6.8 6.1 21 12.4 14.3 6.3 43.9 18 44.5 16.6 0.6-1.4-27.9-15.4-42.2-21.7z"/>
			<path id="&lt;Path&gt;" class="s2" d="m129.1 240.1c-15.6 1.6-24 3.8-23.8 5.3 0.1 1.6 8.8 1.9 24.4 0.2 15.5-1.7 46.9-6.3 46.8-7.8-0.2-1.6-31.9 0.6-47.4 2.3z"/>
			<path id="&lt;Path&gt;" class="s2" d="m137.1 263.9c-12.6 9.2-18.8 15.3-17.9 16.6 0.9 1.2 8.6-2.9 21.2-12.1 12.7-9.2 37.6-29 36.6-30.2-0.9-1.2-27.2 16.5-39.9 25.7z"/>
			<path id="&lt;Path&gt;" class="s2" d="m156.1 280.5c-6.4 14.3-8.7 22.7-7.3 23.3 1.4 0.6 6-6.7 12.4-21 6.3-14.3 18-43.9 16.6-44.5-1.4-0.6-15.4 27.9-21.7 42.2z"/>
			<path id="&lt;Path&gt;" class="s2" d="m180.7 285.5c1.7 15.5 3.9 23.9 5.4 23.8 1.6-0.2 1.9-8.9 0.2-24.4-1.7-15.6-6.3-47-7.9-46.8-1.5 0.1 0.7 31.8 2.3 47.4z"/>
			<path id="&lt;Path&gt;" class="s2" d="m204.6 277.4c9.2 12.6 15.3 18.8 16.5 17.9 1.3-0.9-2.8-8.6-12-21.2-9.2-12.6-29-37.5-30.2-36.6-1.3 0.9 16.5 27.3 25.7 39.9z"/>
			<path id="&lt;Path&gt;" class="s2" d="m221.2 258.5c14.3 6.3 22.7 8.6 23.3 7.2 0.6-1.4-6.7-6-21-12.3-14.3-6.4-43.9-18-44.5-16.6-0.6 1.4 27.9 15.4 42.2 21.7z"/>
			<path id="&lt;Path&gt;" class="s2" d="m226.1 233.8c15.6-1.7 24-3.9 23.8-5.4-0.1-1.5-8.8-1.8-24.4-0.2-15.5 1.7-46.9 6.4-46.8 7.9 0.2 1.5 31.9-0.6 47.4-2.3z"/>
			<path id="&lt;Path&gt;" class="s2" d="m218.1 209.9c12.6-9.2 18.8-15.3 17.9-16.5-0.9-1.3-8.6 2.8-21.2 12-12.6 9.2-37.5 29-36.6 30.2 0.9 1.3 27.3-16.4 39.9-25.7z"/>
			<path id="&lt;Path&gt;" class="s2" d="m199.2 193.3c6.3-14.3 8.6-22.6 7.2-23.3-1.4-0.6-6 6.8-12.3 21.1-6.4 14.3-18.1 43.8-16.6 44.4 1.4 0.7 15.3-27.9 21.7-42.2z"/>
			<path id="&lt;Path&gt;" class="s2" d="m156.7 192.4c-7.8-13.6-13.2-20.4-14.5-19.6-1.3 0.8 1.9 8.8 9.7 22.4 7.8 13.5 24.8 40.4 26.1 39.6 1.3-0.8-13.5-28.9-21.3-42.4z"/>
			<path id="&lt;Path&gt;" class="s2" d="m137.6 208.6c-13.6-7.8-21.6-11-22.4-9.7-0.8 1.3 6 6.7 19.6 14.5 13.5 7.8 41.6 22.6 42.4 21.3 0.8-1.3-26.1-18.3-39.6-26.1z"/>
			<path id="&lt;Path&gt;" class="s2" d="m129.1 232.2c-15.7 0-24.3 1.2-24.3 2.8 0 1.5 8.6 2.8 24.3 2.8 15.6 0 47.4-1.3 47.4-2.8 0-1.6-31.8-2.8-47.4-2.8z"/>
			<path id="&lt;Path&gt;" class="s2" d="m133.5 256.9c-13.5 7.8-20.3 13.2-19.6 14.5 0.8 1.4 8.9-1.9 22.4-9.7 13.6-7.8 40.4-24.7 39.7-26.1-0.8-1.3-28.9 13.5-42.5 21.3z"/>
			<path id="&lt;Path&gt;" class="s2" d="m149.7 276c-7.8 13.6-11 21.7-9.7 22.4 1.4 0.8 6.8-6 14.6-19.6 7.8-13.5 22.6-41.6 21.2-42.4-1.3-0.8-18.3 26.1-26.1 39.6z"/>
			<path id="&lt;Path&gt;" class="s2" d="m173.3 284.5c0 15.7 1.3 24.3 2.8 24.3 1.6 0 2.8-8.6 2.8-24.3 0-15.6-1.2-47.3-2.8-47.3-1.5 0-2.8 31.7-2.8 47.3z"/>
			<path id="&lt;Path&gt;" class="s2" d="m198 280.1c7.8 13.5 13.2 20.4 14.6 19.6 1.3-0.8-1.9-8.9-9.7-22.4-7.8-13.5-24.8-40.4-26.1-39.6-1.4 0.7 13.4 28.9 21.2 42.4z"/>
			<path id="&lt;Path&gt;" class="s2" d="m217.2 263.9c13.5 7.8 21.6 11 22.4 9.7 0.7-1.3-6.1-6.7-19.6-14.5-13.5-7.9-41.7-22.7-42.4-21.3-0.8 1.3 26.1 18.3 39.6 26.1z"/>
			<path id="&lt;Path&gt;" class="s2" d="m225.7 240.3c15.6 0 24.2-1.3 24.2-2.8 0-1.6-8.6-2.8-24.2-2.8-15.6 0-47.4 1.2-47.4 2.8 0 1.5 31.8 2.8 47.4 2.8z"/>
			<path id="&lt;Path&gt;" class="s2" d="m221.2 215.6c13.6-7.8 20.4-13.2 19.6-14.5-0.7-1.4-8.8 1.8-22.4 9.6-13.5 7.9-40.4 24.8-39.6 26.2 0.8 1.3 28.9-13.5 42.4-21.3z"/>
			<path id="&lt;Path&gt;" class="s2" d="m205 196.4c7.9-13.5 11.1-21.6 9.7-22.4-1.3-0.7-6.7 6.1-14.5 19.6-7.8 13.6-22.6 41.7-21.3 42.5 1.4 0.7 18.3-26.1 26.1-39.7z"/>
			<g id="&lt;Group&gt;">
				<path id="&lt;Path&gt;" class="s3" d="m205.4 236.3c0 15.3-12.4 27.7-27.7 27.7-15.4 0-27.8-12.4-27.8-27.7 0-15.4 12.4-27.8 27.8-27.8 15.3 0 27.7 12.4 27.7 27.8z"/>
				<path id="&lt;Path&gt;" class="s4" d="m168.7 219.6c0 1.7-1.4 3.1-3.1 3.1-1.6 0-3-1.4-3-3.1 0-1.7 1.4-3 3-3 1.7 0 3.1 1.3 3.1 3z"/>
				<path id="&lt;Path&gt;" class="s4" d="m177.2 216.1c0 1.7-1.4 3.1-3.1 3.1-1.7 0-3-1.4-3-3.1 0-1.7 1.3-3 3-3 1.7 0 3.1 1.3 3.1 3z"/>
				<path id="&lt;Path&gt;" class="s4" d="m186.6 216.8c0 1.7-1.4 3.1-3.1 3.1-1.7 0-3.1-1.4-3.1-3.1 0-1.6 1.4-3 3.1-3 1.7 0 3.1 1.4 3.1 3z"/>
				<path id="&lt;Path&gt;" class="s4" d="m194.9 220.4c0 1.7-1.4 3-3.1 3-1.7 0-3-1.3-3-3 0-1.7 1.3-3.1 3-3.1 1.7 0 3.1 1.4 3.1 3.1z"/>
				<path id="&lt;Path&gt;" class="s4" d="m199.3 228.9c0 1.7-1.3 3.1-3 3.1-1.7 0-3.1-1.4-3.1-3.1 0-1.7 1.4-3.1 3.1-3.1 1.7 0 3 1.4 3 3.1z"/>
				<path id="&lt;Path&gt;" class="s4" d="m201 238.1c0 1.7-1.4 3.1-3.1 3.1-1.6 0-3-1.4-3-3.1 0-1.7 1.4-3 3-3 1.7 0 3.1 1.3 3.1 3z"/>
				<path id="&lt;Path&gt;" class="s4" d="m199.1 247.5c0 1.7-1.3 3.1-3 3.1-1.7 0-3.1-1.4-3.1-3.1 0-1.7 1.4-3.1 3.1-3.1 1.7 0 3 1.4 3 3.1z"/>
				<path id="&lt;Path&gt;" class="s4" d="m191.3 254.4c0 1.7-1.3 3.1-3 3.1-1.7 0-3.1-1.4-3.1-3.1 0-1.7 1.4-3 3.1-3 1.7 0 3 1.3 3 3z"/>
				<path id="&lt;Path&gt;" class="s4" d="m182 257.5c0 1.7-1.4 3-3.1 3-1.7 0-3.1-1.3-3.1-3 0-1.7 1.4-3.1 3.1-3.1 1.7 0 3.1 1.4 3.1 3.1z"/>
				<path id="&lt;Path&gt;" class="s4" d="m172.7 256.1c0 1.6-1.3 3-3 3-1.7 0-3.1-1.4-3.1-3 0-1.7 1.4-3.1 3.1-3.1 1.7 0 3 1.4 3 3.1z"/>
				<path id="&lt;Path&gt;" class="s4" d="m164.6 251.1c0 1.7-1.4 3.1-3.1 3.1-1.7 0-3-1.4-3-3.1 0-1.7 1.3-3.1 3-3.1 1.7 0 3.1 1.4 3.1 3.1z"/>
				<path id="&lt;Path&gt;" class="s4" d="m160.7 242.8c0 1.7-1.4 3-3.1 3-1.7 0-3-1.3-3-3 0-1.7 1.3-3.1 3-3.1 1.7 0 3.1 1.4 3.1 3.1z"/>
				<path id="&lt;Path&gt;" class="s4" d="m159.8 235.1c0 1.6-1.4 3-3.1 3-1.6 0-3-1.4-3-3 0-1.7 1.4-3.1 3-3.1 1.7 0 3.1 1.4 3.1 3.1z"/>
				<path id="&lt;Path&gt;" class="s4" d="m162.1 226.5c0 1.7-1.4 3.1-3.1 3.1-1.7 0-3.1-1.4-3.1-3.1 0-1.7 1.4-3.1 3.1-3.1 1.7 0 3.1 1.4 3.1 3.1z"/>
				<path id="&lt;Path&gt;" class="s5" d="m186.6 236.3c0 4.9-4 8.9-8.9 8.9-5 0-9-4-9-8.9 0-5 4-9 9-9 4.9 0 8.9 4 8.9 9z"/>
			</g>
		</g>
		<g id="&lt;Group&gt;">
			<path id="&lt;Path&gt;" class="s2" d="m306.6 68.5c0-15.7-1.3-24.3-2.8-24.3-1.5 0-2.8 8.6-2.8 24.3 0 15.6 1.3 47.3 2.8 47.3 1.5 0 2.8-31.7 2.8-47.3z"/>
			<path id="&lt;Path&gt;" class="s2" d="m311.9 69.4c2.1-15.4 2.1-24.1 0.6-24.4-1.5-0.2-4 8.2-6.2 23.7-2.1 15.4-5.3 47-3.8 47.3 1.5 0.2 7.2-31.1 9.4-46.6z"/>
			<path id="&lt;Path&gt;" class="s2" d="m287.1 71.1c-5.9-14.5-10.3-22-11.7-21.4-1.4 0.5 0.6 9 6.5 23.5 5.8 14.5 18.9 43.4 20.3 42.9 1.5-0.6-9.3-30.5-15.1-45z"/>
			<path id="&lt;Path&gt;" class="s2" d="m266.4 84.9c-12.3-9.6-19.8-13.9-20.8-12.7-0.9 1.2 5.1 7.5 17.4 17.1 12.3 9.6 38.1 28.2 39 27 1-1.2-23.3-21.8-35.6-31.4z"/>
			<path id="&lt;Path&gt;" class="s2" d="m255.5 107.2c-15.5-2.2-24.2-2.1-24.4-0.6-0.2 1.5 8.1 4 23.6 6.1 15.4 2.2 47.1 5.4 47.3 3.9 0.2-1.5-31.1-7.2-46.5-9.4z"/>
			<path id="&lt;Path&gt;" class="s2" d="m257.1 132c-14.5 5.9-22 10.2-21.4 11.7 0.6 1.4 9-0.7 23.5-6.5 14.5-5.9 43.5-18.9 42.9-20.3-0.6-1.5-30.5 9.3-45 15.1z"/>
			<path id="&lt;Path&gt;" class="s2" d="m270.9 152.7c-9.6 12.3-13.9 19.8-12.7 20.8 1.2 0.9 7.5-5.1 17.1-17.4 9.7-12.3 28.2-38.1 27-39.1-1.2-0.9-21.7 23.3-31.4 35.7z"/>
			<path id="&lt;Path&gt;" class="s2" d="m293.2 163.6c-2.1 15.5-2.1 24.2-0.6 24.4 1.5 0.2 4-8.1 6.2-23.6 2.1-15.5 5.3-47.1 3.8-47.3-1.5-0.2-7.2 31.1-9.4 46.5z"/>
			<path id="&lt;Path&gt;" class="s2" d="m318 162c5.9 14.5 10.3 22 11.7 21.4 1.4-0.6-0.6-9-6.5-23.5-5.8-14.5-18.9-43.5-20.3-42.9-1.4 0.6 9.3 30.5 15.1 45z"/>
			<path id="&lt;Path&gt;" class="s2" d="m338.7 148.1c12.3 9.7 19.8 14 20.8 12.8 0.9-1.2-5.1-7.5-17.4-17.2-12.3-9.6-38.1-28.2-39-26.9-1 1.2 23.3 21.7 35.6 31.3z"/>
			<path id="&lt;Path&gt;" class="s2" d="m349.6 125.8c15.5 2.2 24.2 2.2 24.4 0.7 0.2-1.6-8.1-4-23.6-6.2-15.4-2.2-47.1-5.4-47.3-3.8-0.2 1.5 31.1 7.2 46.5 9.3z"/>
			<path id="&lt;Path&gt;" class="s2" d="m348 101c14.5-5.8 22-10.2 21.4-11.6-0.6-1.4-9 0.6-23.5 6.5-14.5 5.8-43.5 18.9-42.9 20.3 0.6 1.4 30.5-9.3 45-15.2z"/>
			<path id="&lt;Path&gt;" class="s2" d="m334.2 80.4c9.6-12.3 13.9-19.9 12.7-20.8-1.2-1-7.5 5-17.1 17.4-9.7 12.3-28.2 38.1-27 39 1.2 1 21.7-23.3 31.4-35.6z"/>
			<path id="&lt;Path&gt;" class="s2" d="m299.6 68.9c-1.6-15.5-3.8-24-5.3-23.8-1.6 0.2-1.9 8.9-0.2 24.4 1.7 15.5 6.3 47 7.8 46.8 1.6-0.2-0.6-31.9-2.3-47.4z"/>
			<path id="&lt;Path&gt;" class="s2" d="m295.2 70.8c-3.4-15.3-6.5-23.4-8-23-1.5 0.3-0.9 9 2.5 24.2 3.4 15.3 11.5 46 13 45.7 1.5-0.4-4.2-31.6-7.5-46.9z"/>
			<path id="&lt;Path&gt;" class="s2" d="m273.1 80.5c-10.5-11.5-17.3-17-18.4-15.9-1.1 1 3.8 8.2 14.3 19.7 10.6 11.5 33 34.1 34.1 33.1 1.1-1.1-19.4-25.3-30-36.9z"/>
			<path id="&lt;Path&gt;" class="s2" d="m258.9 100c-14.9-4.7-23.4-6.1-23.9-4.6-0.5 1.4 7.4 5.2 22.3 9.9 14.9 4.7 45.5 13.1 46 11.6 0.5-1.5-29.4-12.2-44.4-16.9z"/>
			<path id="&lt;Path&gt;" class="s2" d="m256.4 123.9c-15.3 3.4-23.4 6.5-23.1 8 0.4 1.5 9 0.9 24.3-2.5 15.2-3.4 46-11.5 45.6-13-0.3-1.5-31.6 4.1-46.8 7.5z"/>
			<path id="&lt;Path&gt;" class="s2" d="m266.1 145.9c-11.5 10.6-17 17.3-16 18.5 1.1 1.1 8.3-3.8 19.8-14.3 11.5-10.6 34.1-33 33-34.1-1-1.2-25.3 19.4-36.8 29.9z"/>
			<path id="&lt;Path&gt;" class="s2" d="m285.6 160.1c-4.7 14.9-6.1 23.5-4.7 24 1.5 0.4 5.3-7.4 10-22.3 4.7-14.9 13-45.6 11.6-46-1.5-0.5-12.2 29.4-16.9 44.3z"/>
			<path id="&lt;Path&gt;" class="s2" d="m309.5 162.7c3.4 15.3 6.5 23.4 8 23.1 1.5-0.4 0.8-9-2.6-24.3-3.3-15.3-11.4-46-12.9-45.7-1.5 0.4 4.1 31.6 7.5 46.9z"/>
			<path id="&lt;Path&gt;" class="s2" d="m331.5 153c10.6 11.5 17.3 17 18.4 15.9 1.2-1-3.7-8.2-14.3-19.7-10.5-11.5-32.9-34.1-34-33.1-1.2 1.1 19.3 25.3 29.9 36.9z"/>
			<path id="&lt;Path&gt;" class="s2" d="m345.7 133.5c14.9 4.7 23.5 6.1 23.9 4.6 0.5-1.4-7.3-5.2-22.2-9.9-14.9-4.7-45.6-13.1-46.1-11.6-0.4 1.5 29.5 12.2 44.4 16.9z"/>
			<path id="&lt;Path&gt;" class="s2" d="m348.3 109.6c15.2-3.4 23.4-6.5 23-8-0.3-1.5-9-0.8-24.2 2.5-15.3 3.4-46 11.5-45.7 13 0.3 1.5 31.6-4.1 46.9-7.5z"/>
			<path id="&lt;Path&gt;" class="s2" d="m338.5 87.6c11.6-10.6 17.1-17.3 16-18.5-1-1.1-8.2 3.8-19.7 14.4-11.6 10.5-34.1 32.9-33.1 34 1.1 1.2 25.3-19.4 36.8-29.9z"/>
			<path id="&lt;Path&gt;" class="s2" d="m319.1 73.4c4.7-14.9 6.1-23.5 4.6-24-1.5-0.4-5.2 7.4-9.9 22.3-4.7 14.9-13.1 45.6-11.6 46 1.4 0.5 12.2-29.4 16.9-44.3z"/>
			<path id="&lt;Path&gt;" class="s2" d="m275.8 77c-9.2-12.6-15.3-18.9-16.6-17.9-1.2 0.9 2.9 8.5 12.1 21.2 9.2 12.6 28.9 37.5 30.2 36.6 1.2-0.9-16.5-27.3-25.7-39.9z"/>
			<path id="&lt;Path&gt;" class="s2" d="m259.2 95.9c-14.3-6.3-22.7-8.7-23.3-7.3-0.6 1.5 6.7 6.1 21 12.4 14.3 6.3 43.9 18 44.5 16.6 0.6-1.4-27.9-15.4-42.2-21.7z"/>
			<path id="&lt;Path&gt;" class="s2" d="m254.2 120.6c-15.5 1.6-23.9 3.8-23.8 5.3 0.2 1.6 8.9 1.9 24.4 0.2 15.6-1.6 47-6.3 46.8-7.8-0.1-1.6-31.8 0.6-47.4 2.3z"/>
			<path id="&lt;Path&gt;" class="s2" d="m262.3 144.4c-12.6 9.2-18.8 15.3-17.9 16.6 0.9 1.2 8.6-2.8 21.2-12.1 12.6-9.2 37.5-28.9 36.6-30.2-0.9-1.2-27.3 16.5-39.9 25.7z"/>
			<path id="&lt;Path&gt;" class="s2" d="m281.2 161c-6.3 14.3-8.6 22.7-7.2 23.3 1.4 0.7 6-6.7 12.3-21 6.3-14.3 18-43.8 16.6-44.5-1.4-0.6-15.4 27.9-21.7 42.2z"/>
			<path id="&lt;Path&gt;" class="s2" d="m305.9 166c1.7 15.5 3.9 23.9 5.4 23.8 1.5-0.2 1.8-8.9 0.2-24.4-1.7-15.6-6.4-47-7.9-46.8-1.5 0.1 0.6 31.8 2.3 47.4z"/>
			<path id="&lt;Path&gt;" class="s2" d="m329.8 157.9c9.2 12.6 15.3 18.8 16.5 17.9 1.3-0.9-2.8-8.6-12-21.2-9.2-12.6-29-37.5-30.2-36.6-1.3 0.9 16.4 27.3 25.7 39.9z"/>
			<path id="&lt;Path&gt;" class="s2" d="m346.4 139c14.3 6.3 22.6 8.6 23.3 7.2 0.6-1.4-6.8-6-21.1-12.3-14.3-6.3-43.8-18-44.4-16.6-0.7 1.4 27.9 15.4 42.2 21.7z"/>
			<path id="&lt;Path&gt;" class="s2" d="m351.3 114.3c15.6-1.7 24-3.8 23.8-5.4-0.2-1.5-8.8-1.8-24.4-0.1-15.5 1.6-47 6.3-46.8 7.8 0.2 1.5 31.9-0.6 47.4-2.3z"/>
			<path id="&lt;Path&gt;" class="s2" d="m343.2 90.5c12.7-9.3 18.9-15.3 18-16.6-0.9-1.2-8.6 2.8-21.2 12-12.7 9.3-37.6 29-36.7 30.3 0.9 1.2 27.3-16.5 39.9-25.7z"/>
			<path id="&lt;Path&gt;" class="s2" d="m324.3 73.8c6.4-14.3 8.7-22.6 7.3-23.3-1.4-0.6-6.1 6.8-12.4 21.1-6.3 14.3-18 43.8-16.6 44.4 1.4 0.7 15.4-27.9 21.7-42.2z"/>
			<path id="&lt;Path&gt;" class="s2" d="m281.9 72.9c-7.8-13.5-13.2-20.4-14.5-19.6-1.4 0.8 1.8 8.9 9.7 22.4 7.8 13.5 24.7 40.4 26.1 39.6 1.3-0.7-13.5-28.9-21.3-42.4z"/>
			<path id="&lt;Path&gt;" class="s2" d="m262.7 89.1c-13.5-7.8-21.6-11-22.3-9.7-0.8 1.3 6 6.7 19.5 14.5 13.6 7.9 41.7 22.7 42.5 21.3 0.8-1.3-26.1-18.3-39.7-26.1z"/>
			<path id="&lt;Path&gt;" class="s2" d="m254.2 112.7c-15.6 0-24.2 1.3-24.2 2.8 0 1.6 8.6 2.8 24.2 2.8 15.7 0 47.4-1.2 47.4-2.8 0-1.5-31.7-2.8-47.4-2.8z"/>
			<path id="&lt;Path&gt;" class="s2" d="m258.7 137.4c-13.5 7.8-20.4 13.2-19.6 14.5 0.8 1.4 8.9-1.8 22.4-9.7 13.5-7.8 40.4-24.7 39.6-26.1-0.7-1.3-28.9 13.5-42.4 21.3z"/>
			<path id="&lt;Path&gt;" class="s2" d="m274.9 156.6c-7.8 13.5-11 21.6-9.7 22.3 1.3 0.8 6.7-6 14.5-19.5 7.8-13.6 22.6-41.7 21.3-42.5-1.3-0.7-18.3 26.1-26.1 39.7z"/>
			<path id="&lt;Path&gt;" class="s2" d="m298.5 165.1c0 15.6 1.3 24.2 2.8 24.2 1.5 0 2.8-8.6 2.8-24.2 0-15.7-1.3-47.4-2.8-47.4-1.5 0-2.8 31.7-2.8 47.4z"/>
			<path id="&lt;Path&gt;" class="s2" d="m323.2 160.6c7.8 13.5 13.2 20.4 14.5 19.6 1.4-0.8-1.8-8.8-9.7-22.4-7.8-13.5-24.7-40.4-26.1-39.6-1.3 0.7 13.5 28.9 21.3 42.4z"/>
			<path id="&lt;Path&gt;" class="s2" d="m342.4 144.4c13.5 7.8 21.6 11 22.3 9.7 0.8-1.3-6-6.7-19.5-14.5-13.6-7.8-41.7-22.6-42.5-21.3-0.7 1.3 26.1 18.3 39.7 26.1z"/>
			<path id="&lt;Path&gt;" class="s2" d="m350.9 120.8c15.6 0 24.2-1.3 24.2-2.8 0-1.5-8.6-2.8-24.2-2.8-15.7 0-47.4 1.3-47.4 2.8 0 1.5 31.7 2.8 47.4 2.8z"/>
			<path id="&lt;Path&gt;" class="s2" d="m346.4 96.1c13.5-7.8 20.4-13.2 19.6-14.5-0.8-1.4-8.9 1.9-22.4 9.7-13.5 7.8-40.4 24.7-39.6 26.1 0.7 1.3 28.9-13.5 42.4-21.3z"/>
			<path id="&lt;Path&gt;" class="s2" d="m330.2 76.9c7.8-13.5 11-21.6 9.7-22.3-1.3-0.8-6.7 6-14.5 19.6-7.8 13.5-22.6 41.6-21.3 42.4 1.3 0.8 18.3-26.1 26.1-39.7z"/>
			<g id="&lt;Group&gt;">
				<path id="&lt;Path&gt;" class="s3" d="m330.6 116.8c0 15.3-12.5 27.7-27.8 27.7-15.3 0-27.7-12.4-27.7-27.7 0-15.3 12.4-27.8 27.7-27.8 15.3 0 27.8 12.5 27.8 27.8z"/>
				<path id="&lt;Path&gt;" class="s4" d="m293.9 100.2c0 1.6-1.4 3-3.1 3-1.7 0-3-1.4-3-3 0-1.7 1.3-3.1 3-3.1 1.7 0 3.1 1.4 3.1 3.1z"/>
				<path id="&lt;Path&gt;" class="s4" d="m302.3 96.7c0 1.6-1.3 3-3 3-1.7 0-3.1-1.4-3.1-3 0-1.7 1.4-3.1 3.1-3.1 1.7 0 3 1.4 3 3.1z"/>
				<path id="&lt;Path&gt;" class="s4" d="m311.7 97.4c0 1.7-1.3 3-3 3-1.7 0-3.1-1.3-3.1-3 0-1.7 1.4-3.1 3.1-3.1 1.7 0 3 1.4 3 3.1z"/>
				<path id="&lt;Path&gt;" class="s4" d="m320.1 100.9c0 1.7-1.4 3.1-3.1 3.1-1.7 0-3.1-1.4-3.1-3.1 0-1.7 1.4-3 3.1-3 1.7 0 3.1 1.3 3.1 3z"/>
				<path id="&lt;Path&gt;" class="s4" d="m324.5 109.4c0 1.7-1.4 3.1-3.1 3.1-1.7 0-3-1.4-3-3.1 0-1.7 1.3-3 3-3 1.7 0 3.1 1.3 3.1 3z"/>
				<path id="&lt;Path&gt;" class="s4" d="m326.2 118.6c0 1.7-1.4 3.1-3.1 3.1-1.7 0-3-1.4-3-3.1 0-1.7 1.3-3 3-3 1.7 0 3.1 1.3 3.1 3z"/>
				<path id="&lt;Path&gt;" class="s4" d="m324.3 128c0 1.7-1.4 3.1-3 3.1-1.7 0-3.1-1.4-3.1-3.1 0-1.7 1.4-3 3.1-3 1.6 0 3 1.3 3 3z"/>
				<path id="&lt;Path&gt;" class="s4" d="m316.5 134.9c0 1.7-1.4 3.1-3 3.1-1.7 0-3.1-1.4-3.1-3.1 0-1.7 1.4-3 3.1-3 1.6 0 3 1.3 3 3z"/>
				<path id="&lt;Path&gt;" class="s4" d="m307.1 138c0 1.7-1.3 3-3 3-1.7 0-3.1-1.3-3.1-3 0-1.7 1.4-3.1 3.1-3.1 1.7 0 3 1.4 3 3.1z"/>
				<path id="&lt;Path&gt;" class="s4" d="m297.9 136.6c0 1.7-1.4 3-3.1 3-1.6 0-3-1.3-3-3 0-1.7 1.4-3.1 3-3.1 1.7 0 3.1 1.4 3.1 3.1z"/>
				<path id="&lt;Path&gt;" class="s4" d="m289.8 131.6c0 1.7-1.4 3.1-3.1 3.1-1.7 0-3.1-1.4-3.1-3.1 0-1.7 1.4-3 3.1-3 1.7 0 3.1 1.3 3.1 3z"/>
				<path id="&lt;Path&gt;" class="s4" d="m285.9 123.3c0 1.7-1.4 3-3.1 3-1.7 0-3.1-1.3-3.1-3 0-1.7 1.4-3.1 3.1-3.1 1.7 0 3.1 1.4 3.1 3.1z"/>
				<path id="&lt;Path&gt;" class="s4" d="m285 115.6c0 1.7-1.4 3-3.1 3-1.7 0-3-1.3-3-3 0-1.7 1.3-3.1 3-3.1 1.7 0 3.1 1.4 3.1 3.1z"/>
				<path id="&lt;Path&gt;" class="s4" d="m287.2 107c0 1.7-1.3 3.1-3 3.1-1.7 0-3.1-1.4-3.1-3.1 0-1.7 1.4-3 3.1-3 1.7 0 3 1.3 3 3z"/>
				<path id="&lt;Path&gt;" class="s5" d="m311.8 116.8c0 4.9-4 8.9-9 8.9-4.9 0-8.9-4-8.9-8.9 0-5 4-9 8.9-9 5 0 9 4 9 9z"/>
			</g>
		</g>
		<path id="&lt;Path&gt;" class="s0" d="m288 347.1c-8 8-14.3 10.3-16.8 7.8-2.5-2.5-0.2-8.8 7.7-16.8 8-7.9 21.2-12.1 21.2-12.1 0 0-4.2 13.2-12.1 21.1z"/>
		<path id="&lt;Path&gt;" class="s0" d="m285.1 358c-10.2 0-15.7-2.8-15.7-6.4 0-3.5 5.5-6.3 15.7-6.3 10.2 0 21.2 6.3 21.2 6.3 0 0-11 6.4-21.2 6.4z"/>
		<path id="&lt;Path&gt;" class="s0" d="m278.1 340c0 10.2-2.8 15.7-6.3 15.7-3.6 0-6.4-5.5-6.4-15.7 0-10.2 6.4-21.3 6.4-21.3 0 0 6.3 11.1 6.3 21.3z"/>
		<path id="&lt;Path&gt;" class="s0" d="m293.8 237.2c-11.3 0-17.4-2.8-17.4-6.3 0-3.6 6.1-6.4 17.4-6.4 11.2 0 23.4 6.4 23.4 6.4 0 0-12.2 6.3-23.4 6.3z"/>
		<path id="&lt;Path&gt;" class="s0" d="m284 242.9c-7.2-7.2-9.1-13.1-6.6-15.6 2.5-2.5 8.4-0.6 15.6 6.6 7.2 7.2 10.6 19.5 10.6 19.5 0 0-12.4-3.3-19.6-10.5z"/>
		<path id="&lt;Path&gt;" class="s0" d="m291.9 225.2c-7.3 7.3-13.2 9.1-15.6 6.6-2.5-2.5-0.7-8.4 6.5-15.6 7.2-7.2 19.6-10.5 19.6-10.5 0 0-3.3 12.3-10.5 19.5z"/>
	</g>
</svg>