<svg version="1.2" xmlns="http://www.w3.org/2000/svg" viewBox="0 0 480 480" width="480" height="480">
	<title>Flower</title>
	<style>
		.s0 { fill: #86b31d } 
		.s1 { fill: #ffd554 } 
		.s2 { fill: #f4b800 } 
		.s3 { fill: #b6d100 } 
	</style>
	<g id="&lt;Group&gt;">
		<g id="&lt;Group&gt;">
			<path id="&lt;Path&gt;" class="s0" d="m267.9 381.4c-34.8-38.9-34.1-103.2-33.5-150.1q0.1-3.2 0.1-6.3l11 0.1q0 3.1-0.1 6.3c-0.5 45.2-1.3 107 30.7 142.7z"/>
		</g>
		<g id="&lt;Group&gt;">
			<path id="&lt;Path&gt;" class="s1" d="m273.7 136.7c0 26.7-29.4 45.9-33.9 67.3-5-21-34-40.6-34-67.3 0-26.6 22.6-37.2 34-37.2 11.3 0 33.9 10.6 33.9 37.2z"/>
		</g>
		<g id="&lt;Group&gt;">
			<path id="&lt;Path&gt;" class="s1" d="m186.3 150.9c25.3 8.2 34.6 42.2 53.5 53.1-21.5-1.8-49.1 19.7-74.5 11.5-25.3-8.3-28.4-33.1-24.9-43.8 3.5-10.8 20.6-29 45.9-20.8z"/>
		</g>
		<g id="&lt;Group&gt;">
			<path id="&lt;Path&gt;" class="s1" d="m172.8 238.4c15.6-21.5 50.8-19.9 67-34.4-8.4 19.9 3.6 52.7-12.1 74.3-15.7 21.6-40.2 16.9-49.4 10.2-9.1-6.7-21.2-28.5-5.5-50.1z"/>
		</g>
		<g id="&lt;Group&gt;">
			<path id="&lt;Path&gt;" class="s1" d="m251.8 278.3c-15.6-21.5-3.2-54.4-12-74.3 16.3 14 51.3 12.9 66.9 34.4 15.7 21.6 3.6 43.4-5.5 50.1-9.2 6.7-33.7 11.4-49.4-10.2z"/>
		</g>
		<g id="&lt;Group&gt;">
			<path id="&lt;Path&gt;" class="s1" d="m314.2 215.5c-25.3 8.2-52.8-13.8-74.4-11.5 18.4-11.2 28.1-44.8 53.4-53.1 25.4-8.2 42.4 10 45.9 20.8 3.5 10.8 0.4 35.5-24.9 43.8z"/>
		</g>
		<g id="&lt;Group&gt;">
			<path id="&lt;Path&gt;" class="s2" d="m277.3 204.1c0 20.7-16.8 37.5-37.5 37.5-20.8 0-37.6-16.8-37.6-37.5 0-20.8 16.8-37.6 37.6-37.6 20.7 0 37.5 16.8 37.5 37.6z"/>
		</g>
		<g id="&lt;Group&gt;">
			<path id="&lt;Path&gt;" class="s3" d="m261.7 204.1c0 12.1-9.8 21.9-21.9 21.9-12.1 0-21.9-9.8-21.9-21.9 0-12.1 9.8-21.9 21.9-21.9 12.1 0 21.9 9.8 21.9 21.9z"/>
		</g>
	</g>
</svg>