<svg version="1.2" xmlns="http://www.w3.org/2000/svg" viewBox="0 0 480 480" width="480" height="480">
	<title>Flower</title>
	<style>
		.s0 { fill: #279245 } 
		.s1 { fill: #ffef72 } 
		.s2 { fill: #9cc000 } 
		.s3 { fill: #ffd600 } 
		.s4 { fill: #74c000 } 
	</style>
	<g id="&lt;Group&gt;">
		<g id="&lt;Group&gt;">
			<path id="&lt;Path&gt;" class="s0" d="m246.5 241.3l-7.9-1.1c8.5-59.9 24-92.7 47.4-100.2l2.5 7.6c-20 6.4-34.1 37.9-42 93.7z"/>
		</g>
		<g id="&lt;Group&gt;">
			<path id="&lt;Path&gt;" class="s0" d="m256.1 394h-8c0-93.5-5.4-197.1-45.9-257.1l6.7-4.5c41.6 61.8 47.2 166.9 47.2 261.6z"/>
		</g>
		<g id="&lt;Group&gt;">
			<path id="&lt;Path&gt;" class="s0" d="m246.8 343.9c-13-77.5-47.8-101.1-66.2-102.8l0.7-7.9c13.9 1.2 28.8 10.8 41 26.3 15.5 19.7 26.4 47.6 32.4 83.1z"/>
		</g>
		<g id="&lt;Group&gt;">
			<g id="&lt;Group&gt;">
				<path id="&lt;Path&gt;" class="s1" d="m189.9 222.3c0 6.5-15.2 21.1-15.5 21.8-0.4-0.7-15.6-15.3-15.6-21.8 0-15.2 10.2-19.5 15.6-19.5 5.4 0 15.5 4.3 15.5 19.5z"/>
			</g>
			<g id="&lt;Group&gt;">
				<path id="&lt;Path&gt;" class="s1" d="m152.6 228.5c6.4 0 21 15.2 21.8 15.6-0.8 0.3-15.4 15.5-21.8 15.5-15.2 0-19.5-10.1-19.5-15.5 0-5.4 4.3-15.6 19.5-15.6z"/>
			</g>
			<g id="&lt;Group&gt;">
				<path id="&lt;Path&gt;" class="s1" d="m158.7 265.8c0-6.4 15.3-21 15.6-21.8 0.3 0.8 15.6 15.4 15.6 21.8 0 15.2-10.2 19.6-15.6 19.6-5.4 0-15.6-4.4-15.6-19.6z"/>
			</g>
			<g id="&lt;Group&gt;">
				<path id="&lt;Path&gt;" class="s1" d="m196.1 259.7c-6.4 0-21.1-15.3-21.8-15.6 0.7-0.3 15.4-15.6 21.8-15.6 15.2 0 19.5 10.2 19.5 15.6 0 5.4-4.3 15.6-19.5 15.6z"/>
			</g>
			<g id="&lt;Group&gt;">
				<path id="&lt;Path&gt;" class="s2" d="m179.3 244.1c0 2.8-2.2 5-4.9 5-2.8 0-5-2.2-5-5 0-2.7 2.2-4.9 5-4.9 2.7 0 4.9 2.2 4.9 4.9z"/>
			</g>
			<g id="&lt;Group&gt;">
				<path id="&lt;Path&gt;" class="s3" d="m164.7 243.4c0 1.1-0.9 1.9-2 1.9-1 0-1.9-0.8-1.9-1.9 0-1.1 0.9-1.9 1.9-1.9 1.1 0 2 0.8 2 1.9z"/>
			</g>
			<g id="&lt;Group&gt;">
				<path id="&lt;Path&gt;" class="s3" d="m167 250.5c0.8 0.7 0.8 1.9 0 2.7-0.7 0.7-2 0.7-2.7 0-0.8-0.8-0.8-2 0-2.7 0.7-0.8 2-0.8 2.7 0z"/>
			</g>
			<g id="&lt;Group&gt;">
				<path id="&lt;Path&gt;" class="s3" d="m173.7 253.8c1 0 1.9 0.8 1.9 1.9 0 1.1-0.9 1.9-1.9 1.9-1.1 0-2-0.8-2-1.9 0-1.1 0.9-1.9 2-1.9z"/>
			</g>
			<g id="&lt;Group&gt;">
				<path id="&lt;Path&gt;" class="s3" d="m180.7 251.4c0.8-0.7 2-0.7 2.7 0 0.8 0.8 0.8 2 0 2.7-0.7 0.8-1.9 0.8-2.7 0-0.7-0.7-0.7-1.9 0-2.7z"/>
			</g>
			<g id="&lt;Group&gt;">
				<path id="&lt;Path&gt;" class="s3" d="m184 244.8c0-1.1 0.9-1.9 1.9-1.9 1.1 0 2 0.8 2 1.9 0 1-0.9 1.9-2 1.9-1 0-1.9-0.9-1.9-1.9z"/>
			</g>
			<g id="&lt;Group&gt;">
				<path id="&lt;Path&gt;" class="s3" d="m181.7 237.7c-0.8-0.7-0.8-1.9 0-2.7 0.7-0.7 1.9-0.7 2.7 0 0.7 0.8 0.7 2 0 2.7-0.8 0.8-2 0.8-2.7 0z"/>
			</g>
			<g id="&lt;Group&gt;">
				<path id="&lt;Path&gt;" class="s3" d="m175 234.4c-1 0-1.9-0.8-1.9-1.9 0-1.1 0.9-1.9 1.9-1.9 1.1 0 2 0.8 2 1.9 0 1.1-0.9 1.9-2 1.9z"/>
			</g>
			<g id="&lt;Group&gt;">
				<path id="&lt;Path&gt;" class="s3" d="m168 236.8c-0.8 0.7-2 0.7-2.7 0-0.8-0.8-0.8-2 0-2.8 0.7-0.7 1.9-0.7 2.7 0 0.7 0.8 0.7 2 0 2.8z"/>
			</g>
		</g>
		<g id="&lt;Group&gt;">
			<g id="&lt;Group&gt;">
				<path id="&lt;Path&gt;" class="s1" d="m212.1 105.6c0 6.4-15.3 21-15.6 21.8-0.3-0.7-15.6-15.4-15.6-21.8 0-15.2 10.2-19.5 15.6-19.5 5.4 0 15.6 4.3 15.6 19.5z"/>
			</g>
			<g id="&lt;Group&gt;">
				<path id="&lt;Path&gt;" class="s1" d="m174.7 111.7c6.4 0 21.1 15.3 21.8 15.6-0.7 0.3-15.4 15.6-21.8 15.6-15.2 0-19.5-10.2-19.5-15.6 0-5.4 4.3-15.6 19.5-15.6z"/>
			</g>
			<g id="&lt;Group&gt;">
				<path id="&lt;Path&gt;" class="s1" d="m180.9 149.1c0-6.4 15.2-21.1 15.5-21.8 0.3 0.7 15.6 15.4 15.6 21.8 0 15.2-10.2 19.5-15.6 19.5-5.4 0-15.5-4.3-15.5-19.5z"/>
			</g>
			<g id="&lt;Group&gt;">
				<path id="&lt;Path&gt;" class="s1" d="m218.2 142.9c-6.4 0-21.1-15.2-21.8-15.5 0.7-0.4 15.4-15.6 21.8-15.6 15.2 0 19.5 10.2 19.5 15.6 0 5.4-4.3 15.5-19.5 15.5z"/>
			</g>
			<g id="&lt;Group&gt;">
				<path id="&lt;Path&gt;" class="s2" d="m201.4 127.4c0 2.7-2.2 4.9-4.9 4.9-2.7 0-5-2.2-5-4.9 0-2.7 2.3-5 5-5 2.7 0 4.9 2.3 4.9 5z"/>
			</g>
			<g id="&lt;Group&gt;">
				<path id="&lt;Path&gt;" class="s3" d="m186.8 126.7c0 1-0.9 1.9-1.9 1.9-1.1 0-1.9-0.9-1.9-1.9 0-1.1 0.8-2 1.9-2 1 0 1.9 0.9 1.9 2z"/>
			</g>
			<g id="&lt;Group&gt;">
				<path id="&lt;Path&gt;" class="s3" d="m189.1 133.7c0.8 0.8 0.8 2 0 2.7-0.7 0.8-1.9 0.8-2.7 0-0.7-0.7-0.7-1.9 0-2.7 0.8-0.7 2-0.7 2.7 0z"/>
			</g>
			<g id="&lt;Group&gt;">
				<path id="&lt;Path&gt;" class="s3" d="m195.8 137c1.1 0 1.9 0.9 1.9 2 0 1-0.8 1.9-1.9 1.9-1.1 0-1.9-0.9-1.9-1.9 0-1.1 0.8-2 1.9-2z"/>
			</g>
			<g id="&lt;Group&gt;">
				<path id="&lt;Path&gt;" class="s3" d="m202.8 134.7c0.8-0.8 2-0.8 2.8 0 0.7 0.7 0.7 1.9 0 2.7-0.8 0.7-2 0.7-2.8 0-0.7-0.8-0.7-2 0-2.7z"/>
			</g>
			<g id="&lt;Group&gt;">
				<path id="&lt;Path&gt;" class="s3" d="m206.2 128c0-1 0.8-1.9 1.9-1.9 1 0 1.9 0.9 1.9 1.9 0 1.1-0.9 2-1.9 2-1.1 0-1.9-0.9-1.9-2z"/>
			</g>
			<g id="&lt;Group&gt;">
				<path id="&lt;Path&gt;" class="s3" d="m203.8 121c-0.7-0.8-0.7-2 0-2.7 0.8-0.8 2-0.8 2.7 0 0.8 0.7 0.8 1.9 0 2.7-0.7 0.7-1.9 0.7-2.7 0z"/>
			</g>
			<g id="&lt;Group&gt;">
				<path id="&lt;Path&gt;" class="s3" d="m197.2 117.7c-1.1 0-2-0.9-2-2 0-1 0.9-1.9 2-1.9 1 0 1.9 0.9 1.9 1.9 0 1.1-0.9 2-1.9 2z"/>
			</g>
			<g id="&lt;Group&gt;">
				<path id="&lt;Path&gt;" class="s3" d="m190.1 120c-0.7 0.8-2 0.8-2.7 0-0.8-0.7-0.8-1.9 0-2.7 0.7-0.7 2-0.8 2.7 0 0.8 0.8 0.8 2 0 2.7z"/>
			</g>
		</g>
		<g id="&lt;Group&gt;">
			<path id="&lt;Path&gt;" class="s4" d="m346.7 235.6c0.9 5-7.9 19.1-9.2 19.4-1.4 0.2-15-9.4-15.9-14.4-1-4.9 5.2-25.9 7.7-26.4 2.5-0.5 16.4 16.5 17.4 21.4z"/>
		</g>
		<g id="&lt;Group&gt;">
			<path id="&lt;Path&gt;" class="s0" d="m256.1 392.2l-8-0.7c1-11 1.9-22.7 2.8-35.1 3.4-45.1 7.2-96.3 18.6-130.1 7.6-22.3 21.3-35.2 36.7-34.5 13.1 0.6 24.3 11 27.9 25.9l-7.8 1.9c-2.7-11.4-10.9-19.3-20.4-19.8-11.7-0.5-22.4 10.3-28.8 29-11.1 32.9-14.9 83.5-18.2 128.2-0.9 12.4-1.8 24.2-2.8 35.2z"/>
		</g>
		<g id="&lt;Group&gt;">
			<g id="&lt;Group&gt;">
				<path id="&lt;Path&gt;" class="s1" d="m254.8 286.9c0 6.4-15.2 21.1-15.5 21.8-0.4-0.7-15.6-15.4-15.6-21.8 0-15.2 10.2-19.5 15.6-19.5 5.4 0 15.5 4.3 15.5 19.5z"/>
			</g>
			<g id="&lt;Group&gt;">
				<path id="&lt;Path&gt;" class="s1" d="m217.5 293c6.4 0 21 15.3 21.8 15.6-0.7 0.3-15.4 15.6-21.8 15.6-15.2 0-19.5-10.2-19.5-15.6 0-5.4 4.3-15.6 19.5-15.6z"/>
			</g>
			<g id="&lt;Group&gt;">
				<path id="&lt;Path&gt;" class="s1" d="m223.6 330.4c0-6.4 15.3-21.1 15.6-21.8 0.3 0.7 15.6 15.4 15.6 21.8 0 15.2-10.2 19.5-15.6 19.5-5.4 0-15.6-4.3-15.6-19.5z"/>
			</g>
			<g id="&lt;Group&gt;">
				<path id="&lt;Path&gt;" class="s1" d="m261 324.2c-6.4 0-21.1-15.2-21.8-15.5 0.7-0.4 15.4-15.6 21.8-15.6 15.2 0 19.5 10.2 19.5 15.6 0 5.4-4.3 15.5-19.5 15.5z"/>
			</g>
			<g id="&lt;Group&gt;">
				<path id="&lt;Path&gt;" class="s2" d="m244.2 308.7c0 2.7-2.2 4.9-4.9 4.9-2.8 0-5-2.2-5-4.9 0-2.7 2.2-5 5-5 2.7 0 4.9 2.3 4.9 5z"/>
			</g>
			<g id="&lt;Group&gt;">
				<path id="&lt;Path&gt;" class="s3" d="m229.6 308c0 1-0.9 1.9-2 1.9-1 0-1.9-0.9-1.9-1.9 0-1.1 0.9-2 1.9-2 1.1 0 2 0.9 2 2z"/>
			</g>
			<g id="&lt;Group&gt;">
				<path id="&lt;Path&gt;" class="s3" d="m231.9 315c0.8 0.8 0.8 2 0 2.7-0.7 0.8-1.9 0.8-2.7 0-0.7-0.7-0.7-1.9 0-2.7 0.8-0.7 2-0.7 2.7 0z"/>
			</g>
			<g id="&lt;Group&gt;">
				<path id="&lt;Path&gt;" class="s3" d="m238.6 318.3c1 0 1.9 0.9 1.9 2 0 1-0.9 1.9-1.9 1.9-1.1 0-2-0.9-2-1.9 0-1.1 0.9-2 2-2z"/>
			</g>
			<g id="&lt;Group&gt;">
				<path id="&lt;Path&gt;" class="s3" d="m245.6 316c0.8-0.8 2-0.8 2.7 0 0.8 0.7 0.8 1.9 0 2.7-0.7 0.7-1.9 0.7-2.7 0-0.7-0.8-0.7-2 0-2.7z"/>
			</g>
			<g id="&lt;Group&gt;">
				<path id="&lt;Path&gt;" class="s3" d="m248.9 309.3c0-1 0.9-1.9 2-1.9 1 0 1.9 0.9 1.9 1.9 0 1.1-0.9 2-1.9 2-1.1 0-2-0.9-2-2z"/>
			</g>
			<g id="&lt;Group&gt;">
				<path id="&lt;Path&gt;" class="s3" d="m246.6 302.3c-0.8-0.8-0.8-2 0-2.7 0.7-0.8 1.9-0.8 2.7 0 0.7 0.7 0.7 1.9 0 2.7-0.8 0.7-2 0.7-2.7 0z"/>
			</g>
			<g id="&lt;Group&gt;">
				<path id="&lt;Path&gt;" class="s3" d="m239.9 299c-1 0-1.9-0.9-1.9-2 0-1 0.9-1.9 1.9-1.9 1.1 0 2 0.9 2 1.9 0 1.1-0.9 2-2 2z"/>
			</g>
			<g id="&lt;Group&gt;">
				<path id="&lt;Path&gt;" class="s3" d="m232.9 301.3c-0.8 0.8-2 0.8-2.7 0-0.8-0.7-0.8-1.9 0-2.7 0.7-0.7 1.9-0.7 2.7 0 0.7 0.8 0.7 2 0 2.7z"/>
			</g>
		</g>
		<g id="&lt;Group&gt;">
			<g id="&lt;Group&gt;">
				<path id="&lt;Path&gt;" class="s1" d="m307.7 141.4c-1.5 2-17-2.9-17.5-2.9 0-0.4-8.7-14.1-7.2-16.1 3.5-4.6 12.6 0.3 16.9 3.6 4.3 3.3 11.3 10.8 7.8 15.4z"/>
			</g>
			<g id="&lt;Group&gt;">
				<path id="&lt;Path&gt;" class="s1" d="m276.6 120.5c5.1 3.9 13.2 17.5 13.7 18-0.7-0.3-15.8-4.6-20.9-8.5-12.1-9.3-13.1-15-11.9-16.7 1.3-1.6 7.1-2 19.1 7.2z"/>
			</g>
			<g id="&lt;Group&gt;">
				<path id="&lt;Path&gt;" class="s1" d="m272.8 135.6c1.5-1.9 17 2.9 17.4 2.9 0.1 0.4 8.8 14.1 7.3 16.1-3.6 4.6-12.6-0.3-16.9-3.6-4.3-3.3-11.4-10.8-7.8-15.4z"/>
			</g>
			<g id="&lt;Group&gt;">
				<path id="&lt;Path&gt;" class="s1" d="m303.8 156.5c-5.1-3.9-13.1-17.5-13.6-18 0.6 0.3 15.8 4.6 20.9 8.6 12 9.2 13.1 14.9 11.8 16.6-1.2 1.6-7 2.1-19.1-7.2z"/>
			</g>
			<g id="&lt;Group&gt;">
				<path id="&lt;Path&gt;" class="s2" d="m294.2 141.6c-0.7 0.8-2.9 0.1-5.1-1.6-2.2-1.6-3.4-3.6-2.8-4.5 0.7-0.8 2.9-0.1 5.1 1.5 2.2 1.7 3.4 3.7 2.8 4.6z"/>
			</g>
			<g id="&lt;Group&gt;">
				<path id="&lt;Path&gt;" class="s3" d="m295.4 116.3c-0.6 0.9-1.8 1-2.6 0.4-0.9-0.7-1-1.9-0.4-2.7 0.6-0.8 1.9-1 2.7-0.4 0.8 0.7 1 1.9 0.3 2.7z"/>
			</g>
			<g id="&lt;Group&gt;">
				<path id="&lt;Path&gt;" class="s3" d="m285.4 116.4c0.1 1-0.6 2-1.7 2.1-1 0.2-2-0.6-2.1-1.6-0.2-1.1 0.6-2 1.6-2.2 1.1-0.1 2.1 0.6 2.2 1.7z"/>
			</g>
			<g id="&lt;Group&gt;">
				<path id="&lt;Path&gt;" class="s3" d="m296.8 120.5c0.8 0.7 1 1.9 0.3 2.7-0.6 0.9-1.8 1-2.7 0.4-0.8-0.7-1-1.9-0.3-2.7 0.6-0.9 1.8-1 2.7-0.4z"/>
			</g>
			<g id="&lt;Group&gt;">
				<path id="&lt;Path&gt;" class="s3" d="m309.7 123.2c1.1-0.2 2 0.6 2.2 1.6 0.1 1.1-0.6 2-1.7 2.2-1.1 0.1-2-0.6-2.2-1.7-0.1-1 0.6-2 1.7-2.1z"/>
			</g>
			<g id="&lt;Group&gt;">
				<path id="&lt;Path&gt;" class="s3" d="m312.6 132.4c0.7-0.9 1.9-1 2.7-0.4 0.9 0.7 1 1.9 0.4 2.7-0.7 0.8-1.9 1-2.7 0.4-0.9-0.7-1-1.9-0.4-2.7z"/>
			</g>
			<g id="&lt;Group&gt;">
				<path id="&lt;Path&gt;" class="s3" d="m297.4 128.2c-0.2-1 0.6-2 1.6-2.1 1.1-0.2 2.1 0.6 2.2 1.6 0.1 1.1-0.6 2-1.7 2.2-1 0.1-2-0.6-2.1-1.7z"/>
			</g>
			<g id="&lt;Group&gt;">
				<path id="&lt;Path&gt;" class="s3" d="m309.2 140.9c-0.1-1.1 0.6-2 1.7-2.2 1-0.1 2 0.6 2.1 1.7 0.2 1-0.6 2-1.6 2.1-1.1 0.2-2-0.6-2.2-1.6z"/>
			</g>
			<g id="&lt;Group&gt;">
				<path id="&lt;Path&gt;" class="s3" d="m304.3 133.6c-0.8-0.6-1-1.8-0.3-2.7 0.6-0.8 1.8-1 2.7-0.3 0.8 0.6 1 1.8 0.3 2.7-0.6 0.8-1.8 1-2.7 0.3z"/>
			</g>
			<g id="&lt;Group&gt;">
				<path id="&lt;Path&gt;" class="s3" d="m303.2 120.7c-1.1 0.1-2-0.6-2.2-1.6-0.1-1.1 0.6-2.1 1.7-2.2 1-0.1 2 0.6 2.1 1.7 0.2 1-0.6 2-1.6 2.1z"/>
			</g>
		</g>
	</g>
</svg>