<svg version="1.2" xmlns="http://www.w3.org/2000/svg" viewBox="0 0 480 480" width="480" height="480">
	<title>Flower</title>
	<style>
		.s0 { fill: #279245 } 
		.s1 { fill: #f0efff } 
		.s2 { fill: #ffb600 } 
	</style>
	<g id="&lt;Group&gt;">
		<g id="&lt;Group&gt;">
			<path id="&lt;Path&gt;" class="s0" d="m251 375l-8.9-0.7c9.3-128.4 50.3-192.4 77.4-234.7l2.4-3.7 7.6 4.8-2.4 3.8c-28.2 44-66.9 104.3-76.1 230.5z"/>
		</g>
		<g id="&lt;Group&gt;">
			<path id="&lt;Path&gt;" class="s0" d="m251 408.8l-9-0.3c4.9-142.4-44.1-279.6-46.2-285.3l8.4-3.1c2.1 5.8 51.8 144.6 46.8 288.7z"/>
		</g>
		<g id="&lt;Group&gt;">
			<g id="&lt;Group&gt;">
				<path id="&lt;Path&gt;" class="s1" d="m197.5 69.9c-0.7 0.2-1.4 2.3-1.4 2.3 0 0-0.4-2.7-1.1-2.7-0.7 0-1.1 2.7-1.1 2.7 0 0-0.7-2.1-1.4-2.3-2.7-1-5.9 1.9-5.9 12 0 12.9 8.4 21.4 8.4 21.4 0 0 8.4-8.5 8.4-21.4 0-10-3.2-13-5.9-12z"/>
			</g>
			<g id="&lt;Group&gt;">
				<path id="&lt;Path&gt;" class="s1" d="m173.1 74.7c-0.4 0.5-0.1 2.6-0.1 2.6 0 0-1.6-2.1-2.2-1.8-0.7 0.3 0.2 2.8 0.2 2.8 0 0-1.6-1.4-2.2-1.3-2.9 0.4-4.4 4.5 0.3 13.4 6 11.4 17.4 15 17.4 15 0 0 3.5-11.4-2.5-22.9-4.7-8.9-8.9-10-10.9-7.8z"/>
			</g>
			<g id="&lt;Group&gt;">
				<path id="&lt;Path&gt;" class="s1" d="m153.8 90.2c-0.2 0.6 1.2 2.4 1.2 2.4 0 0-2.5-1.2-2.9-0.6-0.4 0.6 1.6 2.4 1.6 2.4 0 0-2.2-0.5-2.7-0.1-2.3 1.7-1.8 6 6.5 11.7 10.7 7.4 22.4 5.2 22.4 5.2 0 0-2.2-11.7-12.8-19.1-8.3-5.7-12.5-4.7-13.3-1.9z"/>
			</g>
			<g id="&lt;Group&gt;">
				<path id="&lt;Path&gt;" class="s1" d="m143.9 112.9c0.2 0.7 2.2 1.7 2.2 1.7 0 0-2.7 0.1-2.8 0.8-0.1 0.7 2.5 1.4 2.5 1.4 0 0-2.2 0.5-2.5 1.1-1.2 2.6 1.3 6.1 11.3 7.3 12.8 1.6 22.2-5.8 22.2-5.8 0 0-7.4-9.4-20.2-10.9-10-1.2-13.3 1.6-12.7 4.4z"/>
			</g>
			<g id="&lt;Group&gt;">
				<path id="&lt;Path&gt;" class="s1" d="m145.8 137.7c0.4 0.5 2.6 0.4 2.6 0.4 0 0-2.4 1.4-2.1 2 0.3 0.7 2.9 0.1 2.9 0.1 0 0-1.7 1.4-1.7 2.1 0.1 2.9 4 4.9 13.4 1.3 12.1-4.6 17-15.5 17-15.5 0 0-10.9-4.8-23-0.3-9.4 3.6-11 7.7-9.1 9.9z"/>
			</g>
			<g id="&lt;Group&gt;">
				<path id="&lt;Path&gt;" class="s1" d="m158.9 158.7c0.6 0.3 2.5-0.8 2.5-0.8 0 0-1.5 2.3-0.9 2.8 0.5 0.4 2.6-1.3 2.6-1.3 0 0-0.9 2-0.5 2.6 1.4 2.5 5.7 2.5 12.4-5 8.6-9.7 7.9-21.6 7.9-21.6 0 0-12 0.7-20.5 10.4-6.7 7.5-6.2 11.8-3.5 12.9z"/>
			</g>
			<g id="&lt;Group&gt;">
				<path id="&lt;Path&gt;" class="s1" d="m180.3 171.3c0.6-0.1 1.8-1.9 1.8-1.9 0 0-0.2 2.7 0.5 2.8 0.7 0.2 1.7-2.3 1.7-2.3 0 0 0.2 2.2 0.8 2.6 2.4 1.5 6.2-0.5 8.6-10.3 3.1-12.6-3.1-22.8-3.1-22.8 0 0-10.2 6.2-13.3 18.8-2.4 9.7 0.1 13.4 3 13.1z"/>
			</g>
			<g id="&lt;Group&gt;">
				<path id="&lt;Path&gt;" class="s1" d="m205 172.4c0.6-0.3 0.8-2.5 0.8-2.5 0 0 1 2.5 1.7 2.3 0.7-0.2 0.4-2.8 0.4-2.8 0 0 1.3 1.8 1.9 1.9 2.9 0.2 5.3-3.4 2.9-13.1-3.1-12.6-13.3-18.8-13.3-18.8 0 0-6.1 10.2-3 22.8 2.4 9.8 6.2 11.8 8.6 10.2z"/>
			</g>
			<g id="&lt;Group&gt;">
				<path id="&lt;Path&gt;" class="s1" d="m227.5 162c0.3-0.6-0.5-2.7-0.5-2.7 0 0 2.1 1.8 2.6 1.3 0.5-0.5-0.9-2.7-0.9-2.7 0 0 1.9 1 2.5 0.8 2.7-1.1 3.2-5.4-3.5-13-8.6-9.6-20.5-10.4-20.5-10.4 0 0-0.7 11.9 7.9 21.6 6.6 7.5 11 7.6 12.4 5.1z"/>
			</g>
			<g id="&lt;Group&gt;">
				<path id="&lt;Path&gt;" class="s1" d="m242.5 142.2c0-0.6-1.7-2.1-1.7-2.1 0 0 2.7 0.6 2.9-0.1 0.3-0.6-2-1.9-2-1.9 0 0 2.1 0 2.6-0.5 1.8-2.2 0.2-6.3-9.2-9.8-12.1-4.6-22.9 0.3-22.9 0.3 0 0 4.9 10.9 17 15.4 9.4 3.6 13.3 1.6 13.3-1.3z"/>
			</g>
			<g id="&lt;Group&gt;">
				<path id="&lt;Path&gt;" class="s1" d="m246.7 117.8c-0.3-0.6-2.5-1.1-2.5-1.1 0 0 2.6-0.7 2.5-1.4-0.1-0.7-2.7-0.8-2.7-0.8 0 0 1.9-1 2.1-1.6 0.6-2.9-2.7-5.7-12.7-4.5-12.8 1.6-20.2 11-20.2 11 0 0 9.4 7.3 22.3 5.7 9.9-1.2 12.4-4.7 11.2-7.3z"/>
			</g>
			<g id="&lt;Group&gt;">
				<path id="&lt;Path&gt;" class="s1" d="m238.9 94.2c-0.5-0.4-2.6 0.2-2.6 0.2 0 0 1.9-1.9 1.5-2.4-0.4-0.6-2.8 0.6-2.8 0.6 0 0 1.3-1.8 1.1-2.5-0.7-2.8-5-3.7-13.2 2-10.7 7.3-12.8 19.1-12.8 19.1 0 0 11.7 2.1 22.4-5.3 8.2-5.7 8.8-10 6.4-11.7z"/>
			</g>
			<g id="&lt;Group&gt;">
				<path id="&lt;Path&gt;" class="s1" d="m221.2 76.9c-0.7-0.1-2.3 1.4-2.3 1.4 0 0 0.9-2.5 0.2-2.9-0.6-0.3-2.2 1.9-2.2 1.9 0 0 0.3-2.2-0.1-2.7-2-2.1-6.2-1-10.9 7.9-6 11.5-2.4 22.9-2.4 22.9 0 0 11.4-3.6 17.4-15.1 4.6-8.9 3.1-13 0.3-13.4z"/>
			</g>
			<g id="&lt;Group&gt;">
				<path id="&lt;Path&gt;" class="s2" d="m216 121.6c0 11.6-9.4 21-21 21-11.6 0-21-9.4-21-21 0-11.6 9.4-21 21-21 11.6 0 21 9.4 21 21z"/>
			</g>
			<g id="&lt;Group&gt;">
				<path id="&lt;Path&gt;" class="s2" d="m213.6 111.9c5.4 10.2 1.4 22.9-8.8 28.3-10.3 5.4-23 1.5-28.4-8.8-5.4-10.3-1.4-23 8.8-28.4 10.3-5.4 23-1.4 28.4 8.9z"/>
			</g>
		</g>
		<g id="&lt;Group&gt;">
			<g id="&lt;Group&gt;">
				<path id="&lt;Path&gt;" class="s1" d="m229.6 189.8c-0.6 0.2-1.3 2.3-1.3 2.3 0 0-0.4-2.7-1.2-2.7-0.7 0-1.1 2.7-1.1 2.7 0 0-0.7-2.1-1.3-2.3-2.8-1-6 2-6 12 0 13 8.4 21.4 8.4 21.4 0 0 8.5-8.4 8.5-21.4 0-10-3.2-13-6-12z"/>
			</g>
			<g id="&lt;Group&gt;">
				<path id="&lt;Path&gt;" class="s1" d="m205.3 194.6c-0.5 0.5-0.1 2.7-0.1 2.7 0 0-1.6-2.2-2.3-1.9-0.6 0.4 0.3 2.9 0.3 2.9 0 0-1.6-1.5-2.3-1.4-2.9 0.4-4.4 4.5 0.3 13.4 6 11.4 17.4 15 17.4 15 0 0 3.6-11.4-2.5-22.8-4.6-8.9-8.8-10-10.8-7.9z"/>
			</g>
			<g id="&lt;Group&gt;">
				<path id="&lt;Path&gt;" class="s1" d="m186 210.1c-0.2 0.7 1.1 2.4 1.1 2.4 0 0-2.4-1.1-2.9-0.5-0.4 0.6 1.6 2.4 1.6 2.4 0 0-2.1-0.6-2.6-0.2-2.4 1.7-1.8 6 6.5 11.7 10.6 7.4 22.4 5.2 22.4 5.2 0 0-2.2-11.7-12.9-19.1-8.2-5.7-12.5-4.7-13.2-1.9z"/>
			</g>
			<g id="&lt;Group&gt;">
				<path id="&lt;Path&gt;" class="s1" d="m176.1 232.9c0.1 0.6 2.1 1.6 2.1 1.6 0 0-2.7 0.1-2.8 0.8-0.1 0.7 2.5 1.4 2.5 1.4 0 0-2.1 0.5-2.4 1.1-1.3 2.6 1.2 6.1 11.2 7.3 12.8 1.6 22.2-5.8 22.2-5.8 0 0-7.3-9.3-20.2-10.9-9.9-1.2-13.3 1.6-12.6 4.5z"/>
			</g>
			<g id="&lt;Group&gt;">
				<path id="&lt;Path&gt;" class="s1" d="m177.9 257.6c0.4 0.5 2.6 0.4 2.6 0.4 0 0-2.3 1.4-2.1 2.1 0.3 0.6 2.9 0 2.9 0 0 0-1.7 1.5-1.6 2.1 0 2.9 3.9 4.9 13.3 1.3 12.1-4.6 17-15.4 17-15.4 0 0-10.9-4.9-23-0.3-9.4 3.5-11 7.6-9.1 9.8z"/>
			</g>
			<g id="&lt;Group&gt;">
				<path id="&lt;Path&gt;" class="s1" d="m191 278.6c0.6 0.3 2.5-0.8 2.5-0.8 0 0-1.4 2.3-0.9 2.8 0.6 0.4 2.6-1.3 2.6-1.3 0 0-0.8 2-0.5 2.6 1.4 2.6 5.8 2.5 12.4-5 8.6-9.7 7.9-21.6 7.9-21.6 0 0-11.9 0.7-20.5 10.4-6.6 7.5-6.2 11.9-3.5 12.9z"/>
			</g>
			<g id="&lt;Group&gt;">
				<path id="&lt;Path&gt;" class="s1" d="m212.4 291.2c0.7-0.1 1.9-1.9 1.9-1.9 0 0-0.3 2.7 0.4 2.8 0.7 0.2 1.7-2.3 1.7-2.3 0 0 0.2 2.2 0.8 2.6 2.4 1.6 6.3-0.5 8.7-10.3 3-12.5-3.1-22.8-3.1-22.8 0 0-10.2 6.2-13.3 18.8-2.4 9.8 0 13.4 2.9 13.1z"/>
			</g>
			<g id="&lt;Group&gt;">
				<path id="&lt;Path&gt;" class="s1" d="m237.2 292.4c0.5-0.4 0.7-2.6 0.7-2.6 0 0 1.1 2.5 1.8 2.3 0.7-0.2 0.4-2.8 0.4-2.8 0 0 1.2 1.8 1.9 1.9 2.9 0.3 5.3-3.4 2.9-13.1-3.1-12.6-13.4-18.8-13.4-18.8 0 0-6.1 10.3-3 22.8 2.4 9.8 6.3 11.9 8.7 10.3z"/>
			</g>
			<g id="&lt;Group&gt;">
				<path id="&lt;Path&gt;" class="s1" d="m259.6 281.9c0.4-0.6-0.5-2.6-0.5-2.6 0 0 2.1 1.7 2.6 1.2 0.6-0.5-0.9-2.7-0.9-2.7 0 0 1.9 1 2.5 0.8 2.7-1.1 3.2-5.4-3.5-13-8.6-9.6-20.5-10.3-20.5-10.3 0 0-0.7 11.9 7.9 21.5 6.7 7.5 11 7.6 12.4 5.1z"/>
			</g>
			<g id="&lt;Group&gt;">
				<path id="&lt;Path&gt;" class="s1" d="m274.7 262.1c0-0.6-1.7-2-1.7-2 0 0 2.6 0.5 2.9-0.2 0.2-0.6-2.1-1.9-2.1-1.9 0 0 2.2 0 2.6-0.5 1.9-2.2 0.3-6.3-9.1-9.8-12.1-4.6-23 0.3-23 0.3 0 0 4.9 10.9 17 15.5 9.4 3.5 13.3 1.5 13.4-1.4z"/>
			</g>
			<g id="&lt;Group&gt;">
				<path id="&lt;Path&gt;" class="s1" d="m278.8 237.7c-0.3-0.6-2.5-1.1-2.5-1.1 0 0 2.7-0.7 2.6-1.4-0.1-0.7-2.8-0.8-2.8-0.8 0 0 2-1 2.1-1.6 0.6-2.8-2.7-5.7-12.7-4.5-12.8 1.6-20.2 11-20.2 11 0 0 9.5 7.3 22.3 5.8 10-1.3 12.5-4.8 11.2-7.4z"/>
			</g>
			<g id="&lt;Group&gt;">
				<path id="&lt;Path&gt;" class="s1" d="m271.1 214.1c-0.6-0.4-2.7 0.2-2.7 0.2 0 0 2-1.8 1.6-2.4-0.4-0.6-2.8 0.6-2.8 0.6 0 0 1.3-1.8 1.1-2.4-0.8-2.8-5-3.8-13.3 1.9-10.6 7.4-12.8 19.1-12.8 19.1 0 0 11.8 2.1 22.4-5.2 8.3-5.8 8.8-10.1 6.5-11.8z"/>
			</g>
			<g id="&lt;Group&gt;">
				<path id="&lt;Path&gt;" class="s1" d="m253.3 196.8c-0.7-0.1-2.3 1.5-2.3 1.5 0 0 0.9-2.6 0.3-2.9-0.7-0.4-2.2 1.8-2.2 1.8 0 0 0.3-2.2-0.2-2.7-1.9-2.1-6.2-1-10.8 7.9-6 11.5-2.5 22.9-2.5 22.9 0 0 11.4-3.6 17.4-15.1 4.7-8.9 3.2-13 0.3-13.4z"/>
			</g>
			<g id="&lt;Group&gt;">
				<path id="&lt;Path&gt;" class="s2" d="m248.1 241.5c0 11.6-9.4 21-21 21-11.6 0-21-9.4-21-21 0-11.6 9.4-21 21-21 11.6 0 21 9.4 21 21z"/>
			</g>
			<g id="&lt;Group&gt;">
				<path id="&lt;Path&gt;" class="s2" d="m245.7 231.8c5.4 10.2 1.5 22.9-8.8 28.3-10.3 5.4-23 1.5-28.3-8.8-5.4-10.3-1.5-23 8.8-28.4 10.3-5.3 22.9-1.4 28.3 8.9z"/>
			</g>
		</g>
		<g id="&lt;Group&gt;">
			<g id="&lt;Group&gt;">
				<path id="&lt;Path&gt;" class="s1" d="m307.6 154.7c0.6 0.3 2.6-0.7 2.6-0.7 0 0-1.6 2.2-1.1 2.7 0.5 0.5 2.6-1.1 2.6-1.1 0 0-0.9 2-0.6 2.6 1.2 2.6 5.6 2.8 12.7-4.3 9.2-9.2 9.2-21.1 9.2-21.1 0 0-12 0-21.1 9.2-7.1 7.1-6.9 11.4-4.3 12.7z"/>
			</g>
			<g id="&lt;Group&gt;">
				<path id="&lt;Path&gt;" class="s1" d="m325.2 166.4c0.6 0 1.9-1.8 1.9-1.8 0 0-0.4 2.7 0.3 2.9 0.7 0.2 1.9-2.2 1.9-2.2 0 0 0 2.2 0.6 2.6 2.3 1.7 6.3-0.1 9.2-9.7 3.9-12.4-1.6-23-1.6-23 0 0-10.6 5.6-14.5 17.9-2.9 9.6-0.7 13.4 2.2 13.3z"/>
			</g>
			<g id="&lt;Group&gt;">
				<path id="&lt;Path&gt;" class="s1" d="m345.4 169.3c0.6-0.3 1-2.5 1-2.5 0 0 0.8 2.6 1.6 2.4 0.7-0.1 0.5-2.8 0.5-2.8 0 0 1.1 1.9 1.8 2 2.9 0.5 5.5-3 3.7-12.9-2.3-12.7-12.1-19.5-12.1-19.5 0 0-6.8 9.8-4.5 22.6 1.8 9.8 5.5 12.2 8 10.7z"/>
			</g>
			<g id="&lt;Group&gt;">
				<path id="&lt;Path&gt;" class="s1" d="m299.4 140.6c0-0.6 1.8-2 1.8-2 0 0-2.7 0.4-2.9-0.3-0.2-0.6 2.2-1.8 2.2-1.8 0 0-2.2-0.1-2.6-0.6-1.7-2.3 0.1-6.3 9.7-9.3 12.4-3.8 22.9 1.7 22.9 1.7 0 0-5.5 10.6-17.9 14.4-9.6 3-13.3 0.8-13.2-2.1z"/>
			</g>
			<g id="&lt;Group&gt;">
				<path id="&lt;Path&gt;" class="s1" d="m296.5 120.3c0.3-0.5 2.5-0.9 2.5-0.9 0 0-2.6-0.9-2.4-1.6 0.1-0.7 2.8-0.6 2.8-0.6 0 0-1.9-1.1-2.1-1.7-0.4-2.9 3.1-5.5 12.9-3.7 12.8 2.3 19.6 12.1 19.6 12.1 0 0-9.9 6.8-22.6 4.5-9.9-1.9-12.2-5.6-10.7-8.1z"/>
			</g>
			<g id="&lt;Group&gt;">
				<path id="&lt;Path&gt;" class="s2" d="m349.6 143.4c-3.9 3.9-11.3-0.9-18.8-8.4-7.5-7.5-12.3-15-8.4-18.8 3.8-3.9 21.7-9.6 29.2-2.1 7.5 7.6 1.9 25.4-2 29.3z"/>
			</g>
		</g>
		<g id="&lt;Group&gt;">
			<path id="&lt;Path&gt;" class="s0" d="m248.8 357.4l-5.8-1.5c12.3-48 49.8-85.5 97.8-97.8l1.5 5.8c-45.9 11.8-81.8 47.6-93.5 93.5z"/>
		</g>
		<g id="&lt;Group&gt;">
			<path id="&lt;Path&gt;" class="s0" d="m244 383.8c-11.8-45.9-47.6-81.8-93.5-93.6l1.4-5.8c48.1 12.4 85.6 49.9 97.9 97.9z"/>
		</g>
		<g id="&lt;Group&gt;">
			<path id="&lt;Path&gt;" class="s0" d="m292.8 266.7l-1.3-5.9c7.2-1.4 12.7-7 14.2-14.1l5.9 1.2c-2 9.5-9.4 16.9-18.8 18.8z"/>
		</g>
		<g id="&lt;Group&gt;">
			<path id="&lt;Path&gt;" class="s0" d="m305.5 192c-4.6 0-9.2-1.4-13.3-4l3.3-5c6.1 4 14 4 20.1 0l3.3 5c-4.1 2.6-8.7 4-13.4 4z"/>
		</g>
		<g id="&lt;Group&gt;">
			<path id="&lt;Path&gt;" class="s0" d="m285.7 309.5c-4.7 0-9.3-1.3-13.3-4l3.3-5c6 4 13.9 4 20 0l3.3 5c-4.1 2.7-8.7 4-13.3 4z"/>
		</g>
		<g id="&lt;Group&gt;">
			<path id="&lt;Path&gt;" class="s0" d="m278.3 216.7c-5.3-8-5.3-18.5 0-26.6l5.1 3.3c-4 6.1-4 14 0 20z"/>
		</g>
		<g id="&lt;Group&gt;">
			<path id="&lt;Path&gt;" class="s0" d="m220.9 184.1l-1.2-5.9c7.1-1.4 12.7-7 14.2-14.1l5.8 1.2c-1.9 9.5-9.3 16.9-18.8 18.8z"/>
		</g>
		<g id="&lt;Group&gt;">
			<path id="&lt;Path&gt;" class="s0" d="m216.6 193.9c-9.5-2-16.9-9.4-18.8-18.9l5.8-1.2c1.5 7.1 7.1 12.7 14.2 14.2z"/>
		</g>
		<g id="&lt;Group&gt;">
			<path id="&lt;Path&gt;" class="s0" d="m338.5 273.5c-4.6 0-9.3-1.3-13.3-4l3.3-5c6.1 4 13.9 4 20 0l3.3 5c-4 2.7-8.7 4-13.3 4z"/>
		</g>
		<g id="&lt;Group&gt;">
			<path id="&lt;Path&gt;" class="s0" d="m148.2 309.6c-6.1-4-14-4-20.1 0l-3.3-5c8.1-5.4 18.6-5.4 26.7 0z"/>
		</g>
		<g id="&lt;Group&gt;">
			<path id="&lt;Path&gt;" class="s0" d="m198 335.4c-1.5-7.1-7-12.7-14.1-14.2l1.2-5.9c9.4 2 16.8 9.4 18.8 18.9z"/>
		</g>
		<g id="&lt;Group&gt;">
			<path id="&lt;Path&gt;" class="s0" d="m170.7 295.1l-5-3.3c4-6.1 4-13.9 0-20l5-3.3c5.3 8.1 5.3 18.5 0 26.6z"/>
		</g>
		<g id="&lt;Group&gt;">
			<path id="&lt;Path&gt;" class="s0" d="m336.9 289.7c-9.9-9.5-24.3-11.9-36.8-6.1l-2.5-5.5c14.7-6.8 31.8-3.9 43.5 7.2z"/>
		</g>
		<g id="&lt;Group&gt;">
			<path id="&lt;Path&gt;" class="s0" d="m286.8 293.1l-4.3-4.2c9.4-9.9 11.8-24.3 6.1-36.8l5.4-2.5c6.8 14.7 4 31.8-7.2 43.5z"/>
		</g>
		<g id="&lt;Group&gt;">
			<path id="&lt;Path&gt;" class="s0" d="m147.8 321.7l-5.7-2.1c5.6-15.2 19.7-25.2 35.8-25.6l0.2 6c-13.7 0.3-25.6 8.8-30.3 21.7z"/>
		</g>
		<g id="&lt;Group&gt;">
			<path id="&lt;Path&gt;" class="s0" d="m217.4 332c-6.8-14.7-4-31.7 7.1-43.4l4.4 4.1c-9.4 9.9-11.8 24.4-6.1 36.8z"/>
		</g>
		<g id="&lt;Group&gt;">
			<path id="&lt;Path&gt;" class="s0" d="m229.6 348.8c-9.9-9.4-24.3-11.8-36.8-6.1l-2.5-5.4c14.7-6.8 31.8-4 43.5 7.2z"/>
		</g>
	</g>
</svg>