<svg version="1.2" xmlns="http://www.w3.org/2000/svg" viewBox="0 0 480 480" width="480" height="480">
	<title>Flower</title>
	<style>
		.s0 { fill: #369f88 } 
		.s1 { fill: none;stroke: #369f88;stroke-miterlimit:10;stroke-width: 17.2 } 
		.s2 { fill: #d8d0dd } 
		.s3 { fill: #f7defd } 
		.s4 { fill: #fcf2fe } 
	</style>
	<g id="&lt;Group&gt;">
		<path id="&lt;Path&gt;" class="s0" d="m211.4 235.3c26.9 150.8 16 195.7 17.3 195.4-1.3 0.1-10.5-44.4-36.8-191.4-29.7-146.4-38-190.8-36.8-191.2-1.3 0.2 25.8 37.2 56.3 187.2z"/>
		<path id="&lt;Path&gt;" class="s1" d="m240 141.7l-6.3 291"/>
		<g id="&lt;Group&gt;">
			<g id="&lt;Group&gt;">
				<path id="&lt;Path&gt;" class="s2" d="m244.4 135.4c0 27.3-2 49.4-4.4 49.4-2.4 0-4.3-22.1-4.3-49.4 0-27.4 4.3-49.5 4.3-49.5 0 0 4.4 22.1 4.4 49.5z"/>
				<path id="&lt;Path&gt;" class="s2" d="m227.2 136.8c9.4 25.7 15.1 47.2 12.8 48-2.2 0.9-11.6-19.3-21-45-9.3-25.6-12.8-48-12.8-48 0 0 11.7 19.4 21 45z"/>
				<path id="&lt;Path&gt;" class="s2" d="m211.6 144.1c17.5 21 30.3 39.2 28.4 40.7-1.8 1.6-17.5-14.1-35.1-35.1-17.6-20.9-28.5-40.7-28.5-40.7 0 0 17.6 14.2 35.2 35.1z"/>
				<path id="&lt;Path&gt;" class="s2" d="m199.4 156.3c23.6 13.7 41.8 26.5 40.6 28.5-1.2 2.1-21.3-7.3-45-20.9-23.7-13.7-40.7-28.5-40.7-28.5 0 0 21.4 7.3 45.1 20.9z"/>
				<path id="&lt;Path&gt;" class="s2" d="m192.1 171.9c26.9 4.8 48.4 10.6 47.9 12.9-0.4 2.4-22.5 0.5-49.5-4.3-26.9-4.7-47.9-12.8-47.9-12.8 0 0 22.5-0.5 49.5 4.2z"/>
				<path id="&lt;Path&gt;" class="s2" d="m190.5 189.1c27-4.7 49.1-6.6 49.5-4.3 0.5 2.4-21 8.2-47.9 12.9-27 4.8-49.5 4.3-49.5 4.3 0 0 21-8.1 47.9-12.9z"/>
				<path id="&lt;Path&gt;" class="s2" d="m195 205.8c23.7-13.7 43.8-23 45-21 1.2 2.1-17 14.9-40.6 28.6-23.7 13.6-45.1 20.9-45.1 20.9 0 0 17-14.8 40.7-28.5z"/>
				<path id="&lt;Path&gt;" class="s2" d="m280.7 213.4c-23.7-13.7-41.9-26.5-40.7-28.6 1.2-2.1 21.4 7.3 45.1 21 23.6 13.7 40.6 28.5 40.6 28.5 0 0-21.3-7.3-45-20.9z"/>
				<path id="&lt;Path&gt;" class="s2" d="m288 197.7c-26.9-4.7-48.4-10.5-48-12.9 0.5-2.3 22.6-0.4 49.5 4.3 26.9 4.8 48 12.9 48 12.9 0 0-22.6 0.5-49.5-4.3z"/>
				<path id="&lt;Path&gt;" class="s2" d="m289.5 180.5c-26.9 4.8-49 6.7-49.5 4.3-0.4-2.3 21.1-8.1 48-12.9 26.9-4.7 49.5-4.2 49.5-4.2 0 0-21.1 8.1-48 12.8z"/>
				<path id="&lt;Path&gt;" class="s2" d="m285.1 163.9c-23.7 13.6-43.9 23-45.1 20.9-1.2-2 17-14.8 40.7-28.5 23.7-13.6 45-20.9 45-20.9 0 0-17 14.8-40.6 28.5z"/>
				<path id="&lt;Path&gt;" class="s2" d="m275.2 149.7c-17.6 21-33.3 36.7-35.2 35.1-1.8-1.5 10.9-19.7 28.5-40.7 17.6-20.9 35.2-35.1 35.2-35.1 0 0-10.9 19.8-28.5 40.7z"/>
				<path id="&lt;Path&gt;" class="s2" d="m261.1 139.8c-9.4 25.7-18.8 45.9-21.1 45-2.2-0.8 3.5-22.3 12.9-48 9.3-25.6 21-45 21-45 0 0-3.5 22.4-12.8 48z"/>
			</g>
			<g id="&lt;Group&gt;">
				<path id="&lt;Path&gt;" class="s3" d="m203.6 203.7c19.3-10.2 36.2-17.6 37.7-16.4 1.6 1.1-12.8 10.4-32 20.6-19.3 10.3-37.7 16.5-37.7 16.5 0 0 12.8-10.4 32-20.7z"/>
				<path id="&lt;Path&gt;" class="s3" d="m214.7 210.9c12.5-13.8 24.4-24.4 26.5-23.7 2.1 0.8-6.4 12.6-19 26.4-12.5 13.8-26.5 23.6-26.5 23.6 0 0 6.4-12.5 19-26.3z"/>
				<path id="&lt;Path&gt;" class="s3" d="m228.9 215.2c4.4-15.7 9.8-28.2 12.2-27.9 2.4 0.2 0.8 13.2-3.6 28.9-4.3 15.6-12.2 27.9-12.2 27.9 0 0-0.7-13.2 3.6-28.9z"/>
				<path id="&lt;Path&gt;" class="s3" d="m244.6 216.2c-4.4-15.7-6-28.6-3.6-28.9 2.4-0.3 7.8 12.2 12.2 27.9 4.4 15.7 3.7 28.9 3.7 28.9 0 0-7.9-12.2-12.3-27.9z"/>
				<path id="&lt;Path&gt;" class="s3" d="m259.9 213.7c-12.6-13.8-21.1-25.6-19-26.4 2.1-0.7 14 9.8 26.6 23.6 12.6 13.8 19 26.4 19 26.4 0 0-14-9.8-26.6-23.6z"/>
				<path id="&lt;Path&gt;" class="s3" d="m273 208.1c-19.3-10.3-33.7-19.5-32.1-20.7 1.5-1.2 18.4 6.2 37.7 16.4 19.2 10.2 32 20.7 32 20.7 0 0-18.4-6.2-37.6-16.4z"/>
			</g>
			<g id="&lt;Group&gt;">
				<path id="&lt;Path&gt;" class="s3" d="m237.1 140.6c4.4 24.7 6 45.1 3.6 45.6-2.4 0.4-7.8-19.4-12.2-44.1-4.4-24.8-3.6-45.6-3.6-45.6 0 0 7.8 19.3 12.2 44.1z"/>
				<path id="&lt;Path&gt;" class="s3" d="m221.8 144.5c12.6 21.7 21.1 40.4 19 41.6-2.1 1.2-14-15.5-26.6-37.2-12.6-21.8-19-41.6-19-41.6 0 0 14 15.4 26.6 37.2z"/>
				<path id="&lt;Path&gt;" class="s3" d="m208.8 153.4c19.2 16.1 33.6 30.7 32 32.6-1.5 1.8-18.4-9.8-37.7-25.9-19.2-16.2-32-32.6-32-32.6 0 0 18.4 9.7 37.7 25.9z"/>
				<path id="&lt;Path&gt;" class="s3" d="m199.6 166.2c23.6 8.6 42.1 17.4 41.2 19.7-0.8 2.2-20.6-2.9-44.2-11.5-23.7-8.6-41.3-19.6-41.3-19.6 0 0 20.6 2.8 44.3 11.4z"/>
				<path id="&lt;Path&gt;" class="s3" d="m195.3 181.4c25.1 0 45.5 2 45.5 4.4 0 2.4-20.4 4.3-45.5 4.4-25.1 0-45.5-4.4-45.5-4.4 0 0 20.4-4.4 45.5-4.4z"/>
				<path id="&lt;Path&gt;" class="s3" d="m196.5 197.2c23.6-8.6 43.4-13.8 44.2-11.5 0.9 2.2-17.6 11.1-41.2 19.7-23.6 8.6-44.3 11.5-44.3 11.5 0 0 17.7-11.1 41.3-19.7z"/>
				<path id="&lt;Path&gt;" class="s3" d="m281.5 205.6c-23.6-8.6-42.1-17.4-41.3-19.7 0.8-2.2 20.7 2.9 44.3 11.5 23.6 8.6 41.3 19.6 41.3 19.6 0 0-20.7-2.8-44.3-11.4z"/>
				<path id="&lt;Path&gt;" class="s3" d="m285.8 190.4c-25.2 0-45.5-1.9-45.5-4.4 0-2.4 20.3-4.3 45.5-4.3 25.1-0.1 45.5 4.3 45.5 4.3 0 0-20.4 4.4-45.5 4.4z"/>
				<path id="&lt;Path&gt;" class="s3" d="m284.6 174.6c-23.6 8.7-43.5 13.8-44.3 11.5-0.8-2.2 17.7-11.1 41.3-19.7 23.6-8.6 44.2-11.5 44.2-11.5 0 0-17.6 11.1-41.2 19.7z"/>
				<path id="&lt;Path&gt;" class="s3" d="m278.1 160.3c-19.3 16.1-36.1 27.7-37.7 25.9-1.5-1.9 12.8-16.5 32.1-32.6 19.2-16.2 37.6-26 37.6-26 0 0-12.8 16.5-32 32.7z"/>
				<path id="&lt;Path&gt;" class="s3" d="m267 149c-12.5 21.7-24.4 38.4-26.5 37.2-2.1-1.2 6.4-19.8 19-41.6 12.5-21.8 26.5-37.2 26.5-37.2 0 0-6.4 19.8-19 41.6z"/>
				<path id="&lt;Path&gt;" class="s3" d="m252.8 142.1c-4.4 24.8-9.8 44.5-12.2 44.1-2.4-0.4-0.8-20.8 3.6-45.6 4.3-24.7 12.2-44.1 12.2-44.1 0 0 0.7 20.9-3.6 45.6z"/>
			</g>
			<g id="&lt;Group&gt;">
				<path id="&lt;Path&gt;" class="s4" d="m276.1 164.3c-17.6 13.6-33.3 23.8-35.2 22.8-1.8-1 10.9-12.9 28.5-26.5 17.6-13.6 35.2-22.8 35.2-22.8 0 0-10.9 12.8-28.5 26.5z"/>
				<path id="&lt;Path&gt;" class="s4" d="m262 157.8c-9.4 16.7-18.8 29.9-21.1 29.3-2.2-0.5 3.5-14.5 12.9-31.2 9.3-16.7 21-29.3 21-29.3 0 0-3.5 14.5-12.8 31.2z"/>
				<path id="&lt;Path&gt;" class="s4" d="m245.3 154.9c0 17.8-1.9 32.2-4.4 32.2-2.4 0-4.3-14.4-4.3-32.2 0-17.8 4.3-32.2 4.3-32.2 0 0 4.4 14.4 4.4 32.2z"/>
				<path id="&lt;Path&gt;" class="s4" d="m228.1 155.9c9.4 16.7 15.1 30.7 12.8 31.2-2.2 0.6-11.6-12.6-21-29.3-9.3-16.7-12.8-31.2-12.8-31.2 0 0 11.7 12.6 21 29.3z"/>
				<path id="&lt;Path&gt;" class="s4" d="m212.5 160.6c17.6 13.7 30.3 25.5 28.4 26.5-1.8 1-17.5-9.2-35.1-22.8-17.6-13.7-28.5-26.5-28.5-26.5 0 0 17.6 9.2 35.2 22.8z"/>
			</g>
			<g id="&lt;Group&gt;">
				<path id="&lt;Path&gt;" class="s4" d="m205.5 193.1c17.5-8 33.3-14.1 35.1-13.5 1.9 0.6-10.9 7.6-28.5 15.7-17.5 8-35.1 13.4-35.1 13.4 0 0 10.9-7.6 28.5-15.6z"/>
				<path id="&lt;Path&gt;" class="s4" d="m219.6 196.9c9.3-9.9 18.7-17.6 21-17.3 2.3 0.3-3.5 8.6-12.8 18.4-9.4 9.9-21 17.3-21 17.3 0 0 3.4-8.5 12.8-18.4z"/>
				<path id="&lt;Path&gt;" class="s4" d="m236.2 198.6c0-10.5 2-19 4.4-19 2.4 0 4.4 8.5 4.4 19 0 10.5-4.4 19-4.4 19 0 0-4.4-8.5-4.4-19z"/>
				<path id="&lt;Path&gt;" class="s4" d="m253.4 198c-9.3-9.8-15.1-18.1-12.8-18.4 2.3-0.3 11.7 7.4 21 17.3 9.4 9.9 12.9 18.4 12.9 18.4 0 0-11.7-7.4-21.1-17.3z"/>
				<path id="&lt;Path&gt;" class="s4" d="m269.1 195.3c-17.6-8.1-30.3-15.1-28.5-15.7 1.9-0.6 17.6 5.5 35.2 13.5 17.5 8 28.4 15.6 28.4 15.6 0 0-17.6-5.4-35.1-13.4z"/>
			</g>
		</g>
	</g>
</svg>