<svg version="1.2" xmlns="http://www.w3.org/2000/svg" viewBox="0 0 480 480" width="480" height="480">
	<title>Flower</title>
	<style>
		.s0 { fill: #4fa987 } 
		.s1 { fill: #e2d6f3 } 
		.s2 { fill: #cebbeb } 
		.s3 { fill: #eee58e } 
	</style>
	<g id="&lt;Group&gt;">
		<g id="&lt;Group&gt;">
			<path id="&lt;Path&gt;" class="s0" d="m292.1 396.4c-47-60.6-55.5-113.8-56.4-140.1l13-0.5c0.8 24.8 8.9 75 53.7 132.6z"/>
		</g>
		<g id="&lt;Group&gt;">
			<path id="&lt;Path&gt;" class="s1" d="m273.6 162.4c0 33.2-22.3 70.8-33.5 70.8-11.1 0-33.4-37.6-33.4-70.8 0-33.1 33.4-79.5 33.4-79.5 0 0 33.5 46.4 33.5 79.5z"/>
		</g>
		<g id="&lt;Group&gt;">
			<path id="&lt;Path&gt;" class="s1" d="m192 170.9c28.7 16.6 50.2 54.7 44.6 64.4-5.6 9.7-49.3 10.1-78-6.5-28.7-16.5-52.2-68.7-52.2-68.7 0 0 56.9-5.7 85.6 10.8z"/>
		</g>
		<g id="&lt;Group&gt;">
			<path id="&lt;Path&gt;" class="s1" d="m158.6 245.8c28.7-16.5 72.4-16.1 78-6.4 5.6 9.7-15.9 47.8-44.6 64.3-28.7 16.6-85.6 10.8-85.6 10.8 0 0 23.5-52.1 52.2-68.7z"/>
		</g>
		<g id="&lt;Group&gt;">
			<path id="&lt;Path&gt;" class="s1" d="m206.7 312.2c0-33.1 22.3-70.8 33.4-70.8 11.2 0 33.5 37.7 33.5 70.8 0 33.1-33.5 79.5-33.5 79.5 0 0-33.4-46.4-33.4-79.5z"/>
		</g>
		<g id="&lt;Group&gt;">
			<path id="&lt;Path&gt;" class="s1" d="m288.3 303.7c-28.7-16.5-50.2-54.6-44.6-64.3 5.6-9.7 49.3-10.1 78 6.4 28.7 16.6 52.2 68.7 52.2 68.7 0 0-56.9 5.8-85.6-10.8z"/>
		</g>
		<g id="&lt;Group&gt;">
			<path id="&lt;Path&gt;" class="s1" d="m321.7 228.8c-28.7 16.6-72.4 16.2-78 6.5-5.6-9.7 15.9-47.8 44.6-64.4 28.7-16.5 85.6-10.8 85.6-10.8 0 0-23.5 52.2-52.2 68.7z"/>
		</g>
		<g id="&lt;Group&gt;">
			<path id="&lt;Path&gt;" class="s2" d="m280.1 237.3c0 0-6.4-4.5-13.2-7.1 4.6-5.7 7.8-12.8 7.8-12.8 0 0-7.8-0.8-15 0.4 1.2-7.2 0.4-15 0.4-15 0 0-7.1 3.2-12.8 7.8-2.6-6.8-7.2-13.2-7.2-13.2 0 0-4.5 6.4-7.1 13.2-5.7-4.6-12.8-7.9-12.8-7.9 0 0-0.8 7.9 0.4 15.1-7.2-1.2-15-0.4-15-0.4 0 0 3.2 7.1 7.8 12.8-6.8 2.6-13.2 7.1-13.2 7.1 0 0 6.4 4.6 13.2 7.2-4.6 5.6-7.8 12.8-7.8 12.8 0 0 7.8 0.8 15-0.4-1.2 7.2-0.4 15-0.4 15 0 0 7.1-3.2 12.8-7.9 2.6 6.9 7.1 13.3 7.1 13.3 0 0 4.6-6.4 7.2-13.3 5.7 4.7 12.8 7.9 12.8 7.9 0 0 0.8-7.8-0.4-15 7.2 1.2 15 0.4 15 0.4 0 0-3.2-7.2-7.8-12.8 6.8-2.6 13.2-7.2 13.2-7.2z"/>
		</g>
		<g id="&lt;Group&gt;">
			<path id="&lt;Path&gt;" class="s3" d="m253.6 237.3c0 7.5-6 13.5-13.5 13.5-7.4 0-13.4-6-13.4-13.5 0-7.4 6-13.4 13.4-13.4 7.5 0 13.5 6 13.5 13.4z"/>
		</g>
	</g>
</svg>