<svg version="1.2" xmlns="http://www.w3.org/2000/svg" viewBox="0 0 480 480" width="480" height="480">
	<title>Flower</title>
	<style>
		.s0 { fill: none;stroke: #34aa63;stroke-miterlimit:10;stroke-width: 13 } 
		.s1 { fill: #737ee3 } 
		.s2 { fill: #98a1ea } 
		.s3 { fill: #5865de } 
		.s4 { fill: #ffffff } 
		.s5 { fill: #ffe187 } 
		.s6 { fill: none;stroke: #34aa63;stroke-miterlimit:10;stroke-width: 4 } 
		.s7 { fill: #5e6adf } 
	</style>
	<path id="&lt;Path&gt;" class="s0" d="m161.6 167.7c8.4-36.2 60.6-53.4 73.1 17.4 12.7 72-15.4 74.6 11.2 144.7"/>
	<path id="&lt;Path&gt;" class="s0" d="m324.5 241.1c-22.2-20.2-57-16.5-73.5 5.9-14 19.1-16.7 52-2.8 89.3 9.2 25 4.9 72 4.9 72"/>
	<g id="&lt;Group&gt;">
		<path id="&lt;Path&gt;" class="s1" d="m147.9 181.8c0-18.5 19.2-40.4 19.2-40.4 0 0 19.2 21.9 19.2 40.4 0 18.4-19.2 43.5-19.2 43.5 0 0-19.2-25.1-19.2-43.5z"/>
		<path id="&lt;Path&gt;" class="s1" d="m200.9 170.9c-17.6-5.7-32.5-30.7-32.5-30.7 0 0 26.8-11.5 44.3-5.8 17.6 5.7 35.5 31.7 35.5 31.7 0 0-29.8 10.5-47.3 4.8z"/>
		<path id="&lt;Path&gt;" class="s1" d="m206.9 117.1c-10.9 15-39.3 21.4-39.3 21.4 0 0-2.6-29 8.3-43.9 10.8-15 41.1-23.9 41.1-23.9 0 0 0.8 31.5-10.1 46.4z"/>
		<path id="&lt;Path&gt;" class="s1" d="m157.6 94.8c10.9 14.9 8.3 44 8.3 44 0 0-28.4-6.5-39.3-21.5-10.9-14.9-10-46.4-10-46.4 0 0 30.2 9 41 23.9z"/>
		<path id="&lt;Path&gt;" class="s1" d="m121.2 134.7c17.5-5.7 44.3 5.8 44.3 5.8 0 0-14.9 25-32.5 30.7-17.5 5.7-47.3-4.8-47.3-4.8 0 0 17.9-25.9 35.5-31.7z"/>
		<g id="&lt;Group&gt;">
			<path id="&lt;Path&gt;" class="s2" d="m186.7 99.7c0 10.8-19.6 37.8-19.6 37.8 0 0-19.6-27-19.6-37.8 0-10.8 8.7-19.6 19.6-19.6 10.8 0 19.6 8.8 19.6 19.6z"/>
			<path id="&lt;Path&gt;" class="s3" d="m176.3 107.4c0 5.1-4.2 9.2-9.2 9.2-5.1 0-9.2-4.1-9.2-9.2 0-5.1 4.1-9.2 9.2-9.2 5 0 9.2 4.1 9.2 9.2z"/>
		</g>
		<g id="&lt;Group&gt;">
			<path id="&lt;Path&gt;" class="s2" d="m135.6 108.3c10.3 3.3 29.9 30.3 29.9 30.3 0 0-31.7 10.3-42 7-10.3-3.4-15.9-14.4-12.6-24.7 3.4-10.3 14.4-16 24.7-12.6z"/>
			<path id="&lt;Path&gt;" class="s3" d="m139.7 120.6c4.9 1.5 7.5 6.7 5.9 11.5-1.5 4.9-6.7 7.5-11.5 5.9-4.9-1.5-7.5-6.7-5.9-11.5 1.5-4.9 6.7-7.5 11.5-5.9z"/>
		</g>
		<g id="&lt;Group&gt;">
			<path id="&lt;Path&gt;" class="s2" d="m128.1 159.8c6.4-8.7 38.1-19 38.1-19 0 0 0 33.3-6.4 42.1-6.3 8.7-18.6 10.7-27.4 4.3-8.7-6.4-10.7-18.6-4.3-27.4z"/>
			<path id="&lt;Path&gt;" class="s3" d="m141.1 159.7c2.9-4.1 8.7-5 12.8-2 4.1 3 5 8.7 2 12.8-3 4.1-8.7 5-12.8 2.1-4.1-3-5-8.8-2-12.9z"/>
		</g>
		<g id="&lt;Group&gt;">
			<path id="&lt;Path&gt;" class="s2" d="m174.5 183.1c-6.4-8.8-6.4-42.1-6.4-42.1 0 0 31.7 10.3 38.1 19 6.4 8.8 4.4 21-4.3 27.4-8.8 6.4-21.1 4.4-27.4-4.3z"/>
			<path id="&lt;Path&gt;" class="s3" d="m178.4 170.7c-3-4.1-2.1-9.8 2-12.8 4.1-3 9.9-2.1 12.9 2 2.9 4.1 2 9.9-2.1 12.9-4.1 2.9-9.8 2-12.8-2.1z"/>
		</g>
		<g id="&lt;Group&gt;">
			<path id="&lt;Path&gt;" class="s2" d="m210.7 145.9c-10.3 3.4-42-7-42-7 0 0 19.6-26.9 29.9-30.3 10.3-3.3 21.3 2.3 24.7 12.6 3.3 10.3-2.3 21.4-12.6 24.7z"/>
			<path id="&lt;Path&gt;" class="s3" d="m200.1 138.4c-4.8 1.5-10-1.1-11.5-5.9-1.6-4.9 1-10 5.9-11.6 4.8-1.6 10 1.1 11.5 5.9 1.6 4.8-1 10-5.9 11.6z"/>
		</g>
		<path id="&lt;Path&gt;" class="s4" d="m173.1 139.4c0 3.4-2.7 6-6 6-3.3 0-6-2.6-6-6 0-3.3 2.7-5.9 6-5.9 3.3 0 6 2.6 6 5.9z"/>
		<path id="&lt;Path&gt;" class="s5" d="m171.3 139.4c0 2.4-1.9 4.3-4.2 4.3-2.4 0-4.3-1.9-4.3-4.3 0-2.3 1.9-4.2 4.3-4.2 2.3 0 4.2 1.9 4.2 4.2z"/>
	</g>
	<g id="&lt;Group&gt;">
		<path id="&lt;Path&gt;" class="s6" d="m328.9 318.7v-78.8"/>
		<path id="&lt;Path&gt;" class="s6" d="m339.5 311.9l-22.6-75.4"/>
		<path id="&lt;Path&gt;" class="s6" d="m317.5 311.9l22.6-75.4"/>
		<path id="&lt;Path&gt;" class="s2" d="m280.5 261.3c7-10.4 52.3-48.3 52.3-48.3 0 0-19.9 59.1-26.9 69.5-7 10.4-18.4 14.1-25.4 8.3-7-5.9-7.1-19.1 0-29.5z"/>
		<path id="&lt;Path&gt;" class="s2" d="m345.3 276.9c0-13-16.5-73.7-16.5-73.7 0 0-16.5 60.7-16.5 73.7 0 13 7.4 23.5 16.5 23.5 9.1 0 16.5-10.5 16.5-23.5z"/>
		<path id="&lt;Path&gt;" class="s2" d="m376.1 261.3c-7-10.4-52.3-48.3-52.3-48.3 0 0 19.9 59.1 26.9 69.5 7 10.4 18.4 14.1 25.4 8.3 7-5.9 7-19.1 0-29.5z"/>
		<path id="&lt;Path&gt;" class="s1" d="m321.3 175.7c-1.6-5.4-8.9-7.5-13.3-5-4.4 1.9-7.6 7.8-5.1 11.9 0.8 1.6 2.2 2.9 3.7 3.6-0.4 0.5-0.7 1.1-0.9 1.7-4.7-1.6-8.1-6.8-7.8-11.9 0.7-10.2 12.5-15.7 22.1-13.5q1.5 0.3 2.8 0.8c3.7 1.5 6.8 3.9 8.9 7q1.2 1.6 2 3.3 1 2.3 1.5 4.6l0.5 3.7 5.8 47.5h-26.8c0 0 8.6-47 6.6-53.7z"/>
		<path id="&lt;Path&gt;" class="s7" d="m286.2 238.4c12.5-9.9 35.2-11.8 35.2-11.8 0 0-6.8 21.8-19.2 31.7-12.5 10-37.3 13.5-37.3 13.5 0 0 8.9-23.5 21.3-33.4z"/>
		<path id="&lt;Path&gt;" class="s7" d="m351.9 244.1c0-9.8-23-21.5-23-21.5 0 0-23.1 11.7-23.1 21.5 0 9.8 23.1 23.1 23.1 23.1 0 0 23-13.3 23-23.1z"/>
		<path id="&lt;Path&gt;" class="s7" d="m370 235.9c-12.9-9.4-35.7-10.2-35.7-10.2 0 0 7.8 21.5 20.7 30.8 12.8 9.4 37.8 11.7 37.8 11.7 0 0-9.9-23-22.8-32.3z"/>
	</g>
</svg>