<svg version="1.2" xmlns="http://www.w3.org/2000/svg" viewBox="0 0 480 480" width="480" height="480">
	<title>Flower</title>
	<style>
		.s0 { fill: none;stroke: #67b956;stroke-miterlimit:10;stroke-width: 12.4 } 
		.s1 { fill: #f08ce0 } 
		.s2 { fill: #f0a0e0 } 
		.s3 { fill: #ef9bee } 
		.s4 { fill: #f0aae0 } 
		.s5 { fill: #f3bbe6 } 
		.s6 { fill: #67b956 } 
	</style>
	<g id="&lt;Group&gt;">
		<path id="&lt;Path&gt;" class="s0" d="m239.5 258.3c3.7 26.6 6.9 103.6 5.6 129.5"/>
		<g id="&lt;Group&gt;">
			<path id="&lt;Path&gt;" class="s1" d="m194.6 166.2c8.9 42.4 44.2 97.2 44.2 97.2 0 0 10.3-64.4 1.5-106.7-8.9-42.4-37-63-37-63 0 0-17.5 30.2-8.7 72.5z"/>
			<path id="&lt;Path&gt;" class="s2" d="m264.2 160.4c-0.8 43.2-25.2 103.7-25.2 103.7 0 0-22.2-61.3-21.5-104.5 0.8-43.3 24.6-68.8 24.6-68.8 0 0 22.8 26.3 22.1 69.6z"/>
			<path id="&lt;Path&gt;" class="s3" d="m286.8 167.9c-10.3 42-47.6 95.5-47.6 95.5 0 0-8-64.7 2.4-106.7 10.3-42 39.2-61.6 39.2-61.6 0 0 16.4 30.8 6 72.8z"/>
		</g>
		<path id="&lt;Path&gt;" class="s0" d="m255.9 385.5c-0.7-27 10.6-86.7 14.2-102.8"/>
		<path id="&lt;Path&gt;" class="s0" d="m210.7 268.2c17.5 37.8 24.8 99 26.2 118.7"/>
		<g id="&lt;Group&gt;">
			<path id="&lt;Path&gt;" class="s2" d="m198.7 176.9c15.9 40.2 16.7 105.5 16.7 105.5 0 0-44.1-48.1-60.1-88.3-15.9-40.2-3.8-72.9-3.8-72.9 0 0 31.2 15.5 47.2 55.7z"/>
			<path id="&lt;Path&gt;" class="s4" d="m222.5 175.1c6.6 42.7-7.1 106.5-7.1 106.5 0 0-32.4-56.6-39-99.4-6.6-42.7 12.5-72 12.5-72 0 0 27 22.1 33.6 64.9z"/>
			<path id="&lt;Path&gt;" class="s4" d="m136.8 209.1c24.4 35.6 78.1 72.7 78.1 72.7 0 0-15.2-63.4-39.7-99.1-24.5-35.7-58.4-43.9-58.4-43.9 0 0-4.5 34.6 20 70.3z"/>
		</g>
		<g id="&lt;Group&gt;">
			<path id="&lt;Path&gt;" class="s5" d="m337.9 216.6c-20.5 38-70 80.5-70 80.5 0 0 8.4-64.6 29-102.7 20.6-38 53.4-49.8 53.4-49.8 0 0 8.2 33.9-12.4 72z"/>
			<path id="&lt;Path&gt;" class="s4" d="m249.1 191.8c-2.1 43.2 18.3 105.2 18.3 105.2 0 0 26.2-59.7 28.3-102.9 2-43.2-20-70.3-20-70.3 0 0-24.5 24.8-26.6 68z"/>
			<path id="&lt;Path&gt;" class="s4" d="m317.8 203.6c-11.6 41.7-50.4 94.2-50.4 94.2 0 0-6.1-65 5.5-106.7 11.6-41.6 41.1-60.4 41.1-60.4 0 0 15.4 31.3 3.8 72.9z"/>
		</g>
		<path id="&lt;Path&gt;" class="s6" d="m297.2 309.7c-19.9 20.1-27.3 40.7-31.5 54.8-4 14.4-4.8 22.2-6.9 22.3-1.5-0.1-4.2-8.1-2.2-24.1 2.2-15.7 9.1-39.5 31.5-62.2 22.6-22.4 46.4-29.3 62.1-31.5 16.1-2 24.1 0.7 24.1 2.3-0.1 2.1-7.9 2.8-22.2 6.8-14.1 4.2-34.7 11.6-54.9 31.6z"/>
		<path id="&lt;Path&gt;" class="s6" d="m199.1 309.7c-20.2-20-40.7-27.4-54.8-31.6-14.4-4-22.2-4.7-22.3-6.8 0.1-1.6 8-4.3 24.1-2.3 15.7 2.2 39.5 9.1 62.2 31.5 22.4 22.7 29.3 46.5 31.5 62.2 2 16-0.7 24-2.3 24.1-2.1-0.1-2.8-7.9-6.8-22.3-4.2-14.1-11.7-34.7-31.6-54.8z"/>
	</g>
</svg>