<svg version="1.2" xmlns="http://www.w3.org/2000/svg" viewBox="0 0 480 480" width="480" height="480">
	<title>Flower</title>
	<style>
		.s0 { fill: #80b309 } 
		.s1 { fill: #ffed79 } 
		.s2 { fill: #ff6f27 } 
		.s3 { fill: #ffa97d } 
	</style>
	<g id="&lt;Group&gt;">
		<g id="&lt;Group&gt;">
			<path id="&lt;Path&gt;" class="s0" d="m272.5 396c-35.8-33.2-40.6-111.3-40.6-183.4h16c0 64.6 4 142.5 35.5 171.7z"/>
		</g>
		<g id="&lt;Group&gt;">
			<path id="&lt;Path&gt;" class="s1" d="m323.5 247.3c-72.5 0-82.2-15.6-82.2-40.7 0-25.2 9.7-40.8 82.2-40.8 37.9 0 57.1 40.8 57.1 40.8 0 0-18.8 40.7-57.1 40.7z"/>
		</g>
		<g id="&lt;Group&gt;">
			<path id="&lt;Path&gt;" class="s1" d="m316.9 154.5c-36.2 62.7-54.6 63.4-76.4 50.8-21.7-12.6-30.4-28.9 5.8-91.6 19-32.8 63.9-29.1 63.9-29.1 0 0 25.9 36.7 6.7 69.9z"/>
		</g>
		<g id="&lt;Group&gt;">
			<path id="&lt;Path&gt;" class="s1" d="m233.3 113.7c36.2 62.7 27.5 79 5.8 91.6-21.8 12.6-40.2 11.9-76.5-50.8-18.9-32.8 6.8-69.9 6.8-69.9 0 0 44.7-4.1 63.9 29.1z"/>
		</g>
		<g id="&lt;Group&gt;">
			<path id="&lt;Path&gt;" class="s1" d="m156.1 165.8c72.4 0 82.2 15.6 82.2 40.8 0 25.1-9.8 40.8-82.2 40.8-37.9 0-57.1-40.8-57.1-40.8 0 0 18.8-40.8 57.1-40.8z"/>
		</g>
		<g id="&lt;Group&gt;">
			<path id="&lt;Path&gt;" class="s1" d="m162.6 258.7c36.3-62.8 54.7-63.4 76.5-50.8 21.7 12.5 30.4 28.8-5.8 91.5-19 32.9-63.9 29.1-63.9 29.1 0 0-25.9-36.6-6.8-69.8z"/>
		</g>
		<g id="&lt;Group&gt;">
			<path id="&lt;Path&gt;" class="s1" d="m246.3 299.4c-36.2-62.7-27.5-79-5.8-91.5 21.8-12.6 40.2-12 76.4 50.8 19 32.8-6.7 69.8-6.7 69.8 0 0-44.7 4.1-63.9-29.1z"/>
		</g>
		<g id="&lt;Group&gt;">
			<path id="&lt;Path&gt;" class="s2" d="m239.9 246c-3.9 0-6.7-7.1-10.2-8.2-3.6-1.2-10 2.9-13 0.7-3.1-2.2-1.2-9.6-3.4-12.6-2.2-3.1-9.8-3.5-11-7.1-1.1-3.5 4.7-8.3 4.7-12.2 0-3.9-5.8-8.7-4.7-12.2 1.2-3.7 8.8-4.1 11-7.1 2.2-3.1 0.3-10.4 3.4-12.6 3-2.3 9.4 1.8 13 0.7 3.5-1.2 6.3-8.3 10.2-8.3 3.9 0 6.6 7.1 10.1 8.3 3.6 1.1 10-3 13-0.7 3.1 2.2 1.2 9.5 3.4 12.6 2.2 3 9.8 3.4 11 7.1 1.1 3.5-4.7 8.3-4.7 12.2 0 3.9 5.8 8.7 4.7 12.2-1.2 3.6-8.8 4-11 7.1-2.2 3-0.3 10.4-3.3 12.6-3.1 2.2-9.5-1.9-13.1-0.7-3.5 1.1-6.2 8.2-10.1 8.2z"/>
		</g>
		<g id="&lt;Group&gt;">
			<path id="&lt;Path&gt;" class="s3" d="m239.9 228.7c-12.3 0-22.2-9.9-22.2-22.1 0-12.2 9.9-22.1 22.2-22.1 12.2 0 22.1 9.9 22.1 22.1 0 12.2-9.9 22.1-22.1 22.1z"/>
		</g>
	</g>
</svg>