<svg version="1.2" xmlns="http://www.w3.org/2000/svg" viewBox="0 0 480 480" width="480" height="480">
	<title>Flower</title>
	<style>
		.s0 { fill: #59c100 } 
		.s1 { fill: #f5b2da } 
		.s2 { fill: #f9cbe7 } 
		.s3 { fill: #f298ce } 
		.s4 { fill: #ef7ec2 } 
		.s5 { fill: #ffe051 } 
	</style>
	<g id="&lt;Group&gt;">
		<g id="&lt;Group&gt;">
			<path id="&lt;Path&gt;" class="s0" d="m259.6 393.6c-16.5-26.2-27.6-81.6-27.6-116.9h13c0 32.8 10.5 86 25.6 110z"/>
		</g>
		<g id="&lt;Group&gt;">
			<path id="&lt;Path&gt;" class="s1" d="m249.2 125c2.5 22.8 0.8 83.1-9.1 84.2-9.8 1.1-24-57.5-26.6-80.3-2.5-22.8 7.4-42.6 13.3-43.3 6-0.6 19.9 16.6 22.4 39.4z"/>
		</g>
		<g id="&lt;Group&gt;">
			<path id="&lt;Path&gt;" class="s1" d="m218.1 127.1c10.2 20.6 29.2 77.8 20.3 82.2-8.9 4.4-42.3-45.8-52.4-66.3-10.2-20.6-7.7-42.6-2.4-45.3 5.4-2.6 24.4 8.8 34.5 29.4z"/>
		</g>
		<g id="&lt;Group&gt;">
			<path id="&lt;Path&gt;" class="s1" d="m189.7 139.7c16.6 15.8 54 63.2 47.1 70.3-6.8 7.2-55.3-28.5-71.9-44.4-16.6-15.9-21.8-37.4-17.7-41.7 4.2-4.3 25.9-0.1 42.5 15.8z"/>
		</g>
		<g id="&lt;Group&gt;">
			<path id="&lt;Path&gt;" class="s1" d="m167.2 161.2c21 9.3 72.4 40.9 68.4 50-4 9.1-61.8-7.9-82.8-17.1-21.1-9.3-33.3-27.7-30.9-33.2 2.4-5.5 24.3-8.9 45.3 0.3z"/>
		</g>
		<g id="&lt;Group&gt;">
			<path id="&lt;Path&gt;" class="s1" d="m153.5 189.2c22.9 1.5 82 13.7 81.4 23.5-0.7 9.9-60.8 13.8-83.7 12.3-23-1.5-40.8-14.6-40.4-20.6 0.4-6 19.8-16.7 42.7-15.2z"/>
		</g>
		<g id="&lt;Group&gt;">
			<path id="&lt;Path&gt;" class="s1" d="m150.1 220.1c22.1-6.4 81.8-15.2 84.6-5.7 2.7 9.6-52.5 33.7-74.5 40.2-22 6.4-43.3 0.2-44.9-5.6-1.7-5.7 12.8-22.4 34.8-28.9z"/>
		</g>
		<g id="&lt;Group&gt;">
			<path id="&lt;Path&gt;" class="s1" d="m157.6 250.4c18.5-13.6 71.6-42.3 77.5-34.3 5.8 8-37.8 49.6-56.3 63.2-18.5 13.6-40.6 15-44.1 10.1-3.6-4.8 4.4-25.4 22.9-39z"/>
		</g>
		<g id="&lt;Group&gt;">
			<path id="&lt;Path&gt;" class="s1" d="m174.9 276.2c12.8-19.1 52.9-64.2 61.1-58.7 8.3 5.5-18.5 59.5-31.2 78.6-12.8 19.1-33 28-38 24.7-5-3.4-4.6-25.5 8.1-44.6z"/>
		</g>
		<g id="&lt;Group&gt;">
			<path id="&lt;Path&gt;" class="s1" d="m200.1 294.6c5.4-22.3 27.7-78.4 37.3-76 9.6 2.3 3 62.2-2.5 84.5-5.4 22.3-21.4 37.6-27.3 36.1-5.8-1.4-13-22.3-7.5-44.6z"/>
		</g>
		<g id="&lt;Group&gt;">
			<path id="&lt;Path&gt;" class="s1" d="m230 303.3c-2.5-22.9-0.8-83.2 9.1-84.3 9.8-1 24 57.5 26.6 80.3 2.5 22.9-7.4 42.7-13.3 43.3-6 0.7-19.9-16.5-22.4-39.3z"/>
		</g>
		<g id="&lt;Group&gt;">
			<path id="&lt;Path&gt;" class="s1" d="m261.1 301.2c-10.2-20.6-29.2-77.9-20.3-82.3 8.9-4.4 42.3 45.8 52.4 66.4 10.2 20.6 7.7 42.6 2.3 45.2-5.3 2.7-24.3-8.7-34.4-29.3z"/>
		</g>
		<g id="&lt;Group&gt;">
			<path id="&lt;Path&gt;" class="s1" d="m289.5 288.6c-16.6-15.9-54-63.2-47.2-70.4 6.9-7.1 55.4 28.6 72 44.5 16.6 15.8 21.8 37.3 17.7 41.7-4.2 4.3-25.9 0.1-42.5-15.8z"/>
		</g>
		<g id="&lt;Group&gt;">
			<path id="&lt;Path&gt;" class="s1" d="m312 267c-21-9.2-72.4-40.9-68.4-50 4-9 61.8 7.9 82.8 17.2 21 9.2 33.3 27.6 30.9 33.1-2.4 5.5-24.3 9-45.3-0.3z"/>
		</g>
		<g id="&lt;Group&gt;">
			<path id="&lt;Path&gt;" class="s1" d="m325.7 239.1c-22.9-1.5-82-13.7-81.4-23.6 0.7-9.9 60.8-13.7 83.7-12.2 23 1.5 40.8 14.6 40.4 20.6-0.4 5.9-19.8 16.7-42.7 15.2z"/>
		</g>
		<g id="&lt;Group&gt;">
			<path id="&lt;Path&gt;" class="s1" d="m329.1 208.1c-22.1 6.4-81.8 15.2-84.6 5.7-2.7-9.5 52.5-33.7 74.5-40.1 22-6.5 43.3-0.2 44.9 5.5 1.7 5.8-12.8 22.5-34.8 28.9z"/>
		</g>
		<g id="&lt;Group&gt;">
			<path id="&lt;Path&gt;" class="s1" d="m321.6 177.9c-18.5 13.6-71.6 42.2-77.5 34.2-5.8-8 37.8-49.6 56.3-63.1 18.5-13.6 40.6-15 44.1-10.2 3.6 4.8-4.4 25.5-22.9 39.1z"/>
		</g>
		<g id="&lt;Group&gt;">
			<path id="&lt;Path&gt;" class="s1" d="m304.3 152c-12.8 19.1-52.9 64.2-61.1 58.7-8.3-5.5 18.5-59.5 31.2-78.6 12.8-19.1 33-28 38-24.6 5 3.3 4.6 25.4-8.1 44.5z"/>
		</g>
		<g id="&lt;Group&gt;">
			<path id="&lt;Path&gt;" class="s1" d="m279.1 133.6c-5.4 22.4-27.7 78.4-37.3 76.1-9.6-2.4-3-62.3 2.5-84.6 5.4-22.3 21.4-37.5 27.3-36.1 5.8 1.4 13 22.3 7.5 44.6z"/>
		</g>
		<g id="&lt;Group&gt;">
			<g id="&lt;Group&gt;">
				<path id="&lt;Path&gt;" class="s2" d="m237 141.1c8 26.3 9.5 58.9 0 61.8-9.5 2.9-26.4-25.1-34.4-51.4-7.9-26.3-3-51.1 2.8-52.9 5.7-1.7 23.6 16.1 31.6 42.5z"/>
			</g>
			<g id="&lt;Group&gt;">
				<path id="&lt;Path&gt;" class="s2" d="m206.2 149.8c18.7 20.1 34.4 48.8 27.1 55.5-7.2 6.8-34.7-11-53.4-31.1-18.7-20.2-25.1-44.6-20.8-48.7 4.4-4.1 28.4 4.1 47.1 24.3z"/>
			</g>
			<g id="&lt;Group&gt;">
				<path id="&lt;Path&gt;" class="s2" d="m182.3 171.1c25.7 9.9 52.3 28.8 48.8 38.1-3.6 9.2-36.1 5.3-61.7-4.6-25.7-10-42.2-29.1-40-34.7 2.2-5.6 27.3-8.7 52.9 1.2z"/>
			</g>
			<g id="&lt;Group&gt;">
				<path id="&lt;Path&gt;" class="s2" d="m170.2 200.7c27.4-2.3 59.7 3 60.5 12.9 0.9 9.8-30 20.5-57.4 22.9-27.4 2.3-50.7-7.7-51.2-13.7-0.5-5.9 20.7-19.7 48.1-22.1z"/>
			</g>
			<g id="&lt;Group&gt;">
				<path id="&lt;Path&gt;" class="s2" d="m172.3 232.7c23.6-14.2 54.9-23.5 60-15 5.1 8.5-18 31.6-41.6 45.8-23.6 14.1-48.8 15.3-51.9 10.1-3.1-5.1 9.9-26.8 33.5-40.9z"/>
			</g>
			<g id="&lt;Group&gt;">
				<path id="&lt;Path&gt;" class="s2" d="m188.2 260.4c15-23 39.1-45.1 47.4-39.7 8.3 5.4-2.3 36.3-17.3 59.3-15.1 23.1-37.3 35.2-42.3 32-5-3.3-2.8-28.5 12.2-51.6z"/>
			</g>
			<g id="&lt;Group&gt;">
				<path id="&lt;Path&gt;" class="s2" d="m214.7 278.4c3.4-27.3 15.3-57.7 25.1-56.5 9.9 1.3 13.9 33.7 10.5 61-3.4 27.3-18 47.9-24 47.2-5.9-0.8-15-24.4-11.6-51.7z"/>
			</g>
			<g id="&lt;Group&gt;">
				<path id="&lt;Path&gt;" class="s2" d="m246.4 283c-8.9-26-11.6-58.6-2.2-61.8 9.4-3.2 27.2 24.2 36.1 50.2 8.9 26 4.8 51-0.9 52.9-5.6 2-24.1-15.3-33-41.3z"/>
			</g>
			<g id="&lt;Group&gt;">
				<path id="&lt;Path&gt;" class="s2" d="m276.8 273.2c-19.4-19.4-36-47.6-29-54.6 7-7 35.1 9.8 54.5 29.3 19.4 19.5 26.6 43.7 22.4 48-4.3 4.2-28.5-3.2-47.9-22.7z"/>
			</g>
			<g id="&lt;Group&gt;">
				<path id="&lt;Path&gt;" class="s2" d="m299.9 251.1c-25.9-9-53.2-27-50-36.3 3.2-9.4 35.8-6.6 61.8 2.4 26 9 43.1 27.6 41.2 33.3-2 5.6-27 9.6-53 0.6z"/>
			</g>
			<g id="&lt;Group&gt;">
				<path id="&lt;Path&gt;" class="s2" d="m311 221.1c-27.3 3.3-59.7-0.9-60.9-10.8-1.2-9.8 29.3-21.6 56.6-24.9 27.3-3.2 50.9 5.9 51.6 11.9 0.7 5.9-20 20.5-47.3 23.8z"/>
			</g>
			<g id="&lt;Group&gt;">
				<path id="&lt;Path&gt;" class="s2" d="m307.8 189.2c-23.1 15-54.1 25.4-59.5 17.1-5.3-8.3 16.9-32.3 40-47.2 23.1-14.9 48.3-17 51.6-12 3.2 5.1-9 27.2-32.1 42.1z"/>
			</g>
			<g id="&lt;Group&gt;">
				<path id="&lt;Path&gt;" class="s2" d="m290.9 162c-14.2 23.6-37.4 46.5-45.9 41.4-8.5-5.1 1-36.4 15.2-59.9 14.2-23.6 36-36.5 41.1-33.4 5.1 3.1 3.8 28.4-10.4 51.9z"/>
			</g>
			<g id="&lt;Group&gt;">
				<path id="&lt;Path&gt;" class="s2" d="m263.9 144.9c-2.5 27.4-13.3 58.3-23.2 57.4-9.9-0.9-15-33.2-12.6-60.6 2.5-27.4 16.4-48.5 22.3-48 6 0.6 15.9 23.8 13.5 51.2z"/>
			</g>
		</g>
		<g id="&lt;Group&gt;">
			<path id="&lt;Path&gt;" class="s3" d="m225.1 152.2c11.6 19.8 18.1 46.7 9.6 51.7-8.6 5.1-28.9-13.7-40.6-33.4-11.6-19.8-10.8-41.9-5.6-45 5.2-3 24.9 7 36.6 26.7z"/>
		</g>
		<g id="&lt;Group&gt;">
			<path id="&lt;Path&gt;" class="s3" d="m194.3 170.3c20.6 10.2 40.7 29.2 36.3 38.1-4.5 8.8-31.7 4.2-52.3-6-20.5-10.3-31.9-29.3-29.2-34.6 2.7-5.4 24.7-7.8 45.2 2.5z"/>
		</g>
		<g id="&lt;Group&gt;">
			<path id="&lt;Path&gt;" class="s3" d="m178.4 202.1c22.8-2.6 50 2.4 51.1 12.2 1.1 9.9-24.3 20.8-47.1 23.4-22.8 2.6-42.6-7.1-43.3-13.1-0.7-5.9 16.5-19.9 39.3-22.5z"/>
		</g>
		<g id="&lt;Group&gt;">
			<path id="&lt;Path&gt;" class="s3" d="m182.3 237.5c17.7-14.6 43.3-25.2 49.6-17.6 6.3 7.6-9 30.7-26.8 45.3-17.7 14.6-39.6 17.2-43.5 12.6-3.8-4.6 3-25.7 20.7-40.3z"/>
		</g>
		<g id="&lt;Group&gt;">
			<path id="&lt;Path&gt;" class="s3" d="m204.9 265c6.9-21.9 22.5-44.7 32-41.7 9.4 3 9.1 30.6 2.2 52.5-6.9 21.9-23.9 36.1-29.6 34.3-5.7-1.8-11.5-23.2-4.6-45.1z"/>
		</g>
		<g id="&lt;Group&gt;">
			<path id="&lt;Path&gt;" class="s3" d="m238.9 275.8c-6.2-22.1-5.5-49.8 4-52.4 9.6-2.6 24.4 20.7 30.5 42.8 6.2 22.2-0.4 43.3-6.1 44.9-5.8 1.6-22.3-13.2-28.4-35.3z"/>
		</g>
		<g id="&lt;Group&gt;">
			<path id="&lt;Path&gt;" class="s3" d="m273.2 266.4c-17.2-15.2-31.7-38.8-25.1-46.2 6.6-7.4 31.7 4.1 48.9 19.3 17.2 15.2 23.2 36.5 19.2 41-3.9 4.5-25.8 1.1-43-14.1z"/>
		</g>
		<g id="&lt;Group&gt;">
			<path id="&lt;Path&gt;" class="s3" d="m296.9 239.7c-22.7-3.4-47.7-15.2-46.3-25 1.5-9.8 28.9-13.8 51.6-10.4 22.7 3.4 39.3 17.9 38.4 23.8-0.8 6-21 15-43.7 11.6z"/>
		</g>
		<g id="&lt;Group&gt;">
			<path id="&lt;Path&gt;" class="s3" d="m302.2 204.5c-20.9 9.6-48.3 13.2-52.4 4.2-4.1-9 16.6-27.3 37.5-36.8 20.9-9.5 42.8-6.4 45.3-0.9 2.5 5.4-9.5 24-30.4 33.5z"/>
		</g>
		<g id="&lt;Group&gt;">
			<path id="&lt;Path&gt;" class="s3" d="m287.5 172.1c-12.3 19.4-33.3 37.3-41.7 32-8.3-5.3-0.9-31.9 11.5-51.3 12.3-19.4 32.4-28.6 37.4-25.4 5.1 3.2 5.2 25.3-7.2 44.7z"/>
		</g>
		<g id="&lt;Group&gt;">
			<path id="&lt;Path&gt;" class="s3" d="m257.5 152.9c0.2 22.9-7.6 49.5-17.5 49.6-9.9 0-18.2-26.3-18.4-49.3-0.2-23 11.6-41.7 17.6-41.7 6-0.1 18.1 18.4 18.3 41.4z"/>
		</g>
		<g id="&lt;Group&gt;">
			<path id="&lt;Path&gt;" class="s4" d="m255.7 178.4c0 16.1-7 34.7-15.6 34.7-8.6 0-15.6-18.6-15.6-34.7 0-16.1 10.4-29.2 15.6-29.2 5.2 0 15.6 13.1 15.6 29.2z"/>
		</g>
		<g id="&lt;Group&gt;">
			<path id="&lt;Path&gt;" class="s4" d="m217.8 182.3c14 8 26.6 23.4 22.3 30.8-4.3 7.5-23.9 4.2-37.9-3.9-13.9-8-20.1-23.5-17.5-28.1 2.6-4.5 19.1-6.9 33.1 1.2z"/>
		</g>
		<g id="&lt;Group&gt;">
			<path id="&lt;Path&gt;" class="s4" d="m202.2 217c14-8.1 33.6-11.3 37.9-3.9 4.3 7.5-8.3 22.8-22.3 30.9-14 8-30.5 5.6-33.1 1.1-2.6-4.5 3.6-20 17.5-28.1z"/>
		</g>
		<g id="&lt;Group&gt;">
			<path id="&lt;Path&gt;" class="s4" d="m224.5 247.8c0-16.1 7-34.7 15.6-34.7 8.6 0 15.6 18.6 15.6 34.7 0 16.2-10.4 29.3-15.6 29.3-5.2 0-15.6-13.1-15.6-29.3z"/>
		</g>
		<g id="&lt;Group&gt;">
			<path id="&lt;Path&gt;" class="s4" d="m262.4 244c-14-8.1-26.6-23.4-22.3-30.9 4.3-7.4 23.9-4.2 37.9 3.9 13.9 8.1 20.1 23.6 17.5 28.1-2.6 4.5-19.1 6.9-33.1-1.1z"/>
		</g>
		<g id="&lt;Group&gt;">
			<path id="&lt;Path&gt;" class="s4" d="m278 209.2c-14 8.1-33.6 11.4-37.9 3.9-4.3-7.4 8.3-22.8 22.3-30.8 14-8.1 30.5-5.7 33.1-1.2 2.6 4.6-3.6 20.1-17.5 28.1z"/>
		</g>
		<g id="&lt;Group&gt;">
			<path id="&lt;Path&gt;" class="s5" d="m257.5 213.1c0 9.7-7.8 17.5-17.4 17.5-9.6 0-17.4-7.8-17.4-17.5 0-9.6 7.8-17.4 17.4-17.4 9.6 0 17.4 7.8 17.4 17.4z"/>
		</g>
	</g>
</svg>