<svg version="1.2" xmlns="http://www.w3.org/2000/svg" viewBox="0 0 480 480" width="480" height="480">
	<title>Flower</title>
	<style>
		.s0 { fill: #59a652 } 
		.s1 { fill: none;stroke: #59a652;stroke-miterlimit:10;stroke-width: 15 } 
		.s2 { fill: #ffd651 } 
		.s3 { fill: #ffe96a } 
		.s4 { fill: #fff36a } 
		.s5 { fill: #fff8a6 } 
	</style>
	<path id="&lt;Path&gt;" class="s0" d="m322.1 232.5c3.2 8.3 5.1 17.2 6.2 26.2 10.6-8.1 15.4-13.5 21.9-24.8 7.1-10.6 16-27.1 50.7-41.3-39.2-14-63.3-16.2-81.4-16.3-18.2 0.7-30.4 3.6-46.4 18 11 0.6 20.4 4.2 27.9 9.5-39.2 8.1-53.7 12.9-69 42.2 10.3-3.3 20.2-2.9 28.8 0-33.5 22.3-45.2 32.4-49.1 68.7 27.8-23.9 57.7-4.6 78.1 19.5 5.2-22.5-2.7-30.6-1.8-67.6 5.8 7.3 10.5 15.7 14.5 24.5 12.2-17.2 7.3-26.9 19.6-58.6z"/>
	<path id="&lt;Path&gt;" class="s0" d="m194.3 203.1c9.3 2.5 18.5 6.9 26.5 12.9 0.6-22.8-10.3-30.1-32.7-58.7 9.2 2.6 18.5 6.8 27.2 12.7-2.1-14.7-5.7-23-14.5-34.8-8-11.7-21.3-27-25.2-55.8-25.7 27.7-35.4 42.1-42.3 53.3-6.1 11.2-9.2 19.2-5.2 34.1 6.8-5.3 14.7-8.9 23.3-10.9-13.6 27.3-20.3 34-17.3 56.8 7.6-5.4 16-9.1 25-10.9-16.7 28.1-26 34.6-32.4 57.8 31.6-17.8 66.8-16.5 85.3 3.3 10.3-23.1 2.2-30.3-17.7-59.8z"/>
	<path id="&lt;Path&gt;" class="s1" d="m240 187c-13 24-24 168-21 214"/>
	<g id="&lt;Group&gt;">
		<g id="&lt;Group&gt;">
			<path id="&lt;Path&gt;" class="s2" d="m238.5 193.8l3.9 0.5-3.5 41.4-5.8-0.6z"/>
			<path id="&lt;Path&gt;" class="s2" d="m244.4 176.1l-3.9-0.4 5.4-58.7 5.8 0.6z"/>
			<path id="&lt;Path&gt;" class="s2" d="m230.2 195.9q1.6-1.1 3.3-2.2c9.8 10.1 13.9 23.8 11.9 40.5q-2.5 1.2-5.1 2.4c2.5-16.6-0.9-30.4-10.1-40.7z"/>
			<path id="&lt;Path&gt;" class="s2" d="m231.1 200.6q1.2-1.5 2.5-3.1c12.5 6.5 20.6 18.2 24 34.7q-2 2-4.1 3.9c-2.9-16.6-10.5-28.6-22.4-35.5z"/>
			<path id="&lt;Path&gt;" class="s2" d="m237.2 204.3q0.9-1.8 1.7-3.6c13.8 3.2 24.7 12.6 32.1 27.8q-1.5 2.4-3 4.7c-7-15.4-17.4-25.2-30.8-28.9z"/>
			<path id="&lt;Path&gt;" class="s2" d="m234.6 199.2q0.5-1.9 1-3.8c18.1 3.3 34.4 13.4 47.9 29.6q-1.2 2.5-2.4 5c-13-16.4-28.8-26.8-46.5-30.8z"/>
			<path id="&lt;Path&gt;" class="s2" d="m236.8 199.8q0.1-1.9 0.1-3.9c19-0.5 37.6 6 55 19q-0.7 2.7-1.3 5.5c-16.9-13.4-35.1-20.4-53.8-20.6z"/>
			<path id="&lt;Path&gt;" class="s2" d="m237.8 204.2q-2-0.2-4-0.3c1.3-30 13.7-58.3 35.6-81.4q2.3 1.5 4.6 3.1c-21.7 22-34.3 49.4-36.2 78.6z"/>
			<path id="&lt;Path&gt;" class="s2" d="m238.1 203.2q-1.9-0.4-3.8-0.9c6.2-28 22.9-52.9 48.3-71.4q2 1.8 4 3.7c-24.9 17.4-41.9 41.4-48.5 68.6z"/>
			<path id="&lt;Path&gt;" class="s2" d="m237.7 199.4q-1.7-0.9-3.4-1.7c11.5-24.2 32.4-43.3 60.2-54.6q1.6 2.1 3.2 4.2c-27.3 10.5-48.2 28.6-60 52.1z"/>
			<path id="&lt;Path&gt;" class="s2" d="m237.4 204.2q-1.6-1-3.2-2c14.1-22.8 37-39.4 65.9-47.5q1.4 2.2 2.7 4.5c-28.3 7.4-51.1 23-65.4 45z"/>
			<path id="&lt;Path&gt;" class="s2" d="m236.5 205.5q-1.4-1.3-2.8-2.6c18.3-19.6 44.1-31.4 74-33.7q0.9 2.5 1.7 5c-29.1 1.7-54.6 12.6-72.9 31.3z"/>
			<path id="&lt;Path&gt;" class="s2" d="m232.3 201.5q-0.9-1.7-1.9-3.3c23.2-13.5 51.3-17.3 80.6-10.9q0.1 2.6 0.2 5.3c-28.4-6.8-55.9-3.7-78.9 8.9z"/>
			<path id="&lt;Path&gt;" class="s2" d="m231.8 199.7q-0.6-1.8-1.1-3.6c25.6-8 53.8-5.5 80.9 7.2q-0.4 2.6-0.9 5.1c-26.2-12.8-53.7-15.9-79-8.7z"/>
			<path id="&lt;Path&gt;" class="s2" d="m227.7 199.2q-0.3-1.9-0.6-3.8c26.5-4.4 54.1 2 79.2 18.4q-0.8 2.5-1.7 5c-24.1-16.4-50.9-23.3-76.9-19.6z"/>
			<path id="&lt;Path&gt;" class="s2" d="m249.7 198q-1.4-1.4-2.7-2.8c-11.8 7.7-18.7 20.3-20.4 37q2.3 1.7 4.5 3.4c1.1-16.8 7.5-29.5 18.6-37.6z"/>
			<path id="&lt;Path&gt;" class="s2" d="m247.8 202.4q-0.9-1.7-1.7-3.5c-13.6 3.6-24.1 13.4-30.9 28.7q1.6 2.4 3.2 4.7c6.3-15.6 16.3-25.7 29.4-29.9z"/>
			<path id="&lt;Path&gt;" class="s2" d="m241 204.7q-0.4-1.9-0.8-3.9c-14.2 0.2-26.8 7.1-37.3 20.3q1 2.7 1.9 5.3c10.1-13.5 22.4-20.9 36.2-21.7z"/>
			<path id="&lt;Path&gt;" class="s2" d="m244.7 200.3q-0.1-2-0.2-4c-18.4-0.5-36.4 5.8-53.1 18.7q0.6 2.7 1.3 5.5c16.2-13.3 33.8-20.1 52-20.2z"/>
			<path id="&lt;Path&gt;" class="s2" d="m242.4 200.5q0.4-2 0.7-4c-18.4-4.5-38-2.2-57.7 6.9q0 2.8 0.1 5.6c19.3-9.5 38.6-12.4 56.9-8.5z"/>
			<path id="&lt;Path&gt;" class="s2" d="m240.5 204.5q2 0.3 3.9 0.5c5.2-29.5-0.8-59.9-17.3-87.1q-2.6 1-5.2 2.1c16.5 26.1 23 55.5 18.6 84.5z"/>
			<path id="&lt;Path&gt;" class="s2" d="m240.4 203.5q2-0.1 3.9-0.1c0-28.7-11.1-56.6-31.9-80q-2.3 1.3-4.7 2.6c20.6 22.4 32.1 49.4 32.7 77.5z"/>
			<path id="&lt;Path&gt;" class="s2" d="m241.6 199.8q1.9-0.5 3.7-0.9c-6-26.1-22.4-49.2-47.2-66.2q-2 1.7-3.9 3.4c24.3 16.1 40.9 38.3 47.4 63.7z"/>
			<path id="&lt;Path&gt;" class="s2" d="m240.9 204.6q1.8-0.7 3.6-1.3c-8.9-25.3-27.8-46.4-54.3-60.5q-1.8 1.9-3.6 3.8c26.1 13.3 45 33.5 54.3 58z"/>
			<path id="&lt;Path&gt;" class="s2" d="m241.5 206.1q1.7-1 3.3-2c-13.7-23.1-36.4-40.1-65.1-48.7q-1.4 2.2-2.8 4.4c28.1 8 50.7 24 64.6 46.3z"/>
			<path id="&lt;Path&gt;" class="s2" d="m246.4 203q1.3-1.4 2.6-2.8c-19.8-18.1-46.4-27.8-76.4-27.8q-0.7 2.5-1.3 5c29.2-0.5 55.4 8.4 75.1 25.6z"/>
			<path id="&lt;Path&gt;" class="s2" d="m247.4 201.4q0.9-1.6 1.8-3.3c-23.3-13.3-51.4-16.9-80.6-10.3q-0.1 2.6-0.2 5.3c28.3-7 55.9-4.1 79 8.3z"/>
			<path id="&lt;Path&gt;" class="s2" d="m251.5 201.7q0.6-1.7 1.3-3.5c-24.9-9.9-53.2-9.6-81.3 1.1q0.3 2.6 0.6 5.2c27.1-10.9 54.8-11.9 79.4-2.8z"/>
		</g>
		<g id="&lt;Group&gt;">
			<path id="&lt;Path&gt;" class="s3" d="m238.2 192.6h4l0.6 41.6h-5.8z"/>
			<path id="&lt;Path&gt;" class="s3" d="m242.3 174.4l-3.9-0.1-0.5-58.9h5.8z"/>
			<path id="&lt;Path&gt;" class="s3" d="m230.1 195.5q1.6-1.3 3.1-2.5c10.8 9 16.3 22.3 16 39.1q-2.5 1.4-4.9 2.8c0.8-16.8-4-30.2-14.2-39.4z"/>
			<path id="&lt;Path&gt;" class="s3" d="m231.5 200.1q1.1-1.7 2.2-3.4c13.1 5.2 22.4 16.1 27.4 32.2q-1.9 2.1-3.7 4.2c-4.5-16.2-13.3-27.4-25.9-33z"/>
			<path id="&lt;Path&gt;" class="s3" d="m238 203.1q0.7-1.9 1.3-3.8c14 1.8 25.8 10.1 34.7 24.5q-1.2 2.5-2.5 5c-8.5-14.6-19.8-23.3-33.5-25.7z"/>
			<path id="&lt;Path&gt;" class="s3" d="m234.9 198.3q0.3-1.9 0.6-3.9c18.4 1.5 35.5 9.9 50.7 24.6q-1 2.7-2 5.3c-14.6-15-31.3-23.8-49.3-26z"/>
			<path id="&lt;Path&gt;" class="s3" d="m237.1 198.7q-0.1-2-0.2-4c18.8-2.3 38 2.2 56.6 13.5q-0.4 2.8-0.8 5.6c-18.1-11.7-36.9-16.8-55.6-15.1z"/>
			<path id="&lt;Path&gt;" class="s3" d="m238.6 203q-2 0-4 0c-1.7-29.9 7.7-59.4 27.2-84.5q2.5 1.3 5 2.6c-19.4 24.1-29.3 52.6-28.2 81.9z"/>
			<path id="&lt;Path&gt;" class="s3" d="m238.8 202q-1.9-0.3-3.9-0.6c3.3-28.5 17.5-54.9 40.9-75.8q2.2 1.6 4.4 3.2c-23.1 19.9-37.5 45.4-41.4 73.2z"/>
			<path id="&lt;Path&gt;" class="s3" d="m238 198.2q-1.8-0.7-3.6-1.4c9-25.2 28-46.3 54.5-60.3q1.8 1.9 3.6 3.9c-26.1 13.1-45.1 33.3-54.5 57.8z"/>
			<path id="&lt;Path&gt;" class="s3" d="m238.2 203q-1.8-0.9-3.5-1.7c11.8-24.1 33-42.9 60.9-53.9q1.6 2.1 3.1 4.2c-27.3 10.2-48.5 28.1-60.5 51.4z"/>
			<path id="&lt;Path&gt;" class="s3" d="m237.4 204.4q-1.5-1.2-3-2.4c16.3-21.3 40.7-35.5 70.3-40.8q1.1 2.3 2.2 4.7c-28.9 4.6-53.1 18-69.5 38.5z"/>
			<path id="&lt;Path&gt;" class="s3" d="m232.8 200.8q-1.1-1.5-2.2-3.1c21.8-15.7 49.3-22.3 79.1-18.9q0.4 2.6 0.8 5.2c-29-3.9-56 1.9-77.7 16.8z"/>
			<path id="&lt;Path&gt;" class="s3" d="m232.1 199.1q-0.7-1.7-1.4-3.5c24.6-10.5 52.9-10.9 81.3-0.9q-0.3 2.6-0.5 5.2c-27.3-10.2-55-10.5-79.4-0.8z"/>
			<path id="&lt;Path&gt;" class="s3" d="m228 199q-0.5-1.9-0.9-3.8c25.9-6.9 53.9-3.3 80.6 10.5q-0.6 2.5-1.2 5.1c-25.6-13.9-53-18.1-78.5-11.8z"/>
			<path id="&lt;Path&gt;" class="s3" d="m249.8 195.6q-1.5-1.3-3-2.5c-11 8.8-16.6 22-16.5 38.8q2.4 1.5 4.8 3c-0.6-16.8 4.4-30.2 14.7-39.3z"/>
			<path id="&lt;Path&gt;" class="s3" d="m248.4 200.2q-1.1-1.7-2.1-3.4c-13.2 5-22.7 15.7-27.9 31.7q1.8 2.2 3.6 4.3c4.8-16.1 13.7-27.2 26.4-32.6z"/>
			<path id="&lt;Path&gt;" class="s3" d="m241.8 203.1q-0.6-1.9-1.2-3.7c-14 1.5-26 9.6-35.1 23.9q1.3 2.5 2.5 5c8.7-14.5 20.1-23 33.8-25.2z"/>
			<path id="&lt;Path&gt;" class="s3" d="m245 198.4q-0.3-2-0.5-3.9c-18.4 1.2-35.7 9.3-51 23.8q0.9 2.7 1.8 5.4c14.8-14.9 31.7-23.4 49.7-25.3z"/>
			<path id="&lt;Path&gt;" class="s3" d="m242.8 198.8q0.2-2 0.3-4c-18.8-2.7-38 1.6-56.8 12.6q0.4 2.8 0.7 5.6c18.3-11.4 37.2-16.2 55.8-14.2z"/>
			<path id="&lt;Path&gt;" class="s3" d="m241.3 203q2 0 4 0.1c2.1-29.9-6.9-59.5-26-84.9q-2.5 1.2-5 2.5c19.1 24.4 28.5 53 27 82.3z"/>
			<path id="&lt;Path&gt;" class="s3" d="m241.1 202q1.9-0.3 3.9-0.5c-2.9-28.6-16.7-55.2-39.7-76.4q-2.3 1.5-4.5 3.1c22.8 20.2 36.8 45.9 40.3 73.8z"/>
			<path id="&lt;Path&gt;" class="s3" d="m242 198.2q1.8-0.6 3.6-1.3c-8.7-25.4-27.3-46.7-53.7-61.1q-1.8 1.9-3.5 3.8c25.8 13.6 44.5 34 53.6 58.6z"/>
			<path id="&lt;Path&gt;" class="s3" d="m241.7 203q1.7-0.8 3.5-1.6c-11.5-24.3-32.4-43.4-60.1-54.8q-1.6 2.1-3.2 4.2c27.2 10.6 48.1 28.8 59.8 52.2z"/>
			<path id="&lt;Path&gt;" class="s3" d="m242.5 204.4q1.5-1.1 3-2.3c-16-21.5-40.2-36.2-69.7-41.9q-1.1 2.4-2.2 4.7c28.7 5.1 52.8 18.8 68.9 39.5z"/>
			<path id="&lt;Path&gt;" class="s3" d="m247.1 200.9q1.1-1.5 2.2-3.1c-21.5-16-48.9-23-78.8-20q-0.4 2.6-0.8 5.2c29-3.5 56 2.7 77.4 17.9z"/>
			<path id="&lt;Path&gt;" class="s3" d="m247.8 199.2q0.8-1.7 1.5-3.5c-24.5-10.8-52.8-11.6-81.3-2.1q0.2 2.6 0.4 5.2c27.5-9.8 55.2-9.7 79.4 0.4z"/>
			<path id="&lt;Path&gt;" class="s3" d="m251.9 199.1q0.5-1.8 1-3.7c-25.8-7.3-53.9-4.1-80.8 9.3q0.6 2.5 1.1 5.1c25.9-13.5 53.3-17.3 78.7-10.7z"/>
		</g>
		<g id="&lt;Group&gt;">
			<path id="&lt;Path&gt;" class="s4" d="m240.7 193.1h3.3l0.7 39.2h-4.8z"/>
			<path id="&lt;Path&gt;" class="s4" d="m244 175.9h-3.3l-0.8-55.5h4.8z"/>
			<path id="&lt;Path&gt;" class="s4" d="m233.9 195.9q1.3-1.2 2.6-2.4c9.1 8.4 13.7 20.9 13.5 36.7q-2 1.4-4 2.7c0.6-15.8-3.5-28.4-12.1-37z"/>
			<path id="&lt;Path&gt;" class="s4" d="m235.1 200.2q0.9-1.6 1.8-3.1c11 4.7 18.8 14.9 23 30q-1.5 2-3 4c-3.9-15.2-11.2-25.7-21.8-30.9z"/>
			<path id="&lt;Path&gt;" class="s4" d="m240.6 203q0.5-1.8 1-3.5c11.7 1.6 21.6 9.3 29.1 22.8q-1 2.3-2.1 4.7c-7.1-13.7-16.6-21.9-28-24z"/>
			<path id="&lt;Path&gt;" class="s4" d="m237.9 198.6q0.3-1.9 0.5-3.8c15.3 1.4 29.7 9.1 42.4 22.9q-0.8 2.5-1.6 5c-12.2-14.1-26.2-22.3-41.3-24.1z"/>
			<path id="&lt;Path&gt;" class="s4" d="m239.8 198.9q-0.1-1.9-0.3-3.7c15.7-2.4 31.8 1.8 47.3 12.2q-0.3 2.7-0.6 5.3c-15.1-10.8-30.9-15.5-46.4-13.8z"/>
			<path id="&lt;Path&gt;" class="s4" d="m241 202.9q-1.7 0-3.3 0.1c-1.6-28.2 6.1-56 22.2-79.8q2 1.2 4.1 2.4c-16 22.8-24.1 49.7-23 77.3z"/>
			<path id="&lt;Path&gt;" class="s4" d="m241.2 201.9q-1.6-0.2-3.3-0.5c2.6-26.8 14.3-51.8 33.6-71.6q1.9 1.5 3.7 3c-19.1 18.8-31 42.9-34 69.1z"/>
			<path id="&lt;Path&gt;" class="s4" d="m240.5 198.4q-1.5-0.6-3-1.3c7.4-23.8 23-43.7 45.1-57.1q1.5 1.8 3 3.6c-21.7 12.6-37.4 31.6-45.1 54.8z"/>
			<path id="&lt;Path&gt;" class="s4" d="m240.7 202.9q-1.5-0.8-2.9-1.6c9.7-22.7 27.2-40.6 50.5-51.1q1.3 2 2.6 3.9c-22.8 9.8-40.3 26.8-50.2 48.8z"/>
			<path id="&lt;Path&gt;" class="s4" d="m240 204.2q-1.2-1.1-2.5-2.2c13.4-20.1 33.8-33.7 58.4-38.9q0.9 2.2 1.8 4.4c-24 4.6-44.1 17.3-57.7 36.7z"/>
			<path id="&lt;Path&gt;" class="s4" d="m236.2 200.9q-0.9-1.5-1.8-2.9c18-14.9 40.9-21.4 65.8-18.3q0.3 2.4 0.7 4.8c-24.2-3.4-46.8 2.3-64.7 16.4z"/>
			<path id="&lt;Path&gt;" class="s4" d="m235.6 199.3q-0.6-1.6-1.2-3.3c20.5-10.1 44.1-10.6 67.8-1.4q-0.2 2.4-0.4 4.9c-22.9-9.4-45.9-9.5-66.2-0.2z"/>
			<path id="&lt;Path&gt;" class="s4" d="m232.2 199.2q-0.4-1.8-0.8-3.5c21.5-6.7 45-3.5 67.3 9.3q-0.5 2.4-1 4.8c-21.5-12.9-44.3-16.7-65.5-10.6z"/>
			<path id="&lt;Path&gt;" class="s4" d="m250.4 195.9q-1.3-1.2-2.6-2.4c-9.1 8.4-13.7 20.9-13.5 36.7q2 1.4 4 2.7c-0.6-15.8 3.5-28.4 12.1-37z"/>
			<path id="&lt;Path&gt;" class="s4" d="m249.2 200.2q-0.9-1.6-1.8-3.1c-11 4.7-18.8 14.9-23.1 30q1.6 2 3.1 4c3.9-15.2 11.2-25.7 21.8-30.9z"/>
			<path id="&lt;Path&gt;" class="s4" d="m243.7 203q-0.5-1.8-1-3.5c-11.7 1.6-21.6 9.3-29.1 22.8q1 2.3 2.1 4.7c7.1-13.7 16.6-21.9 28-24z"/>
			<path id="&lt;Path&gt;" class="s4" d="m246.3 198.6q-0.2-1.9-0.4-3.8c-15.3 1.4-29.7 9.1-42.4 22.9q0.8 2.5 1.6 5c12.2-14.1 26.2-22.3 41.2-24.1z"/>
			<path id="&lt;Path&gt;" class="s4" d="m244.5 198.9q0.1-1.9 0.2-3.7c-15.7-2.4-31.7 1.8-47.2 12.2q0.3 2.7 0.5 5.3c15.2-10.8 31-15.5 46.5-13.8z"/>
			<path id="&lt;Path&gt;" class="s4" d="m243.3 202.9q1.6 0 3.3 0.1c1.6-28.2-6.1-56-22.2-79.8q-2.1 1.2-4.1 2.4c16 22.8 24.1 49.7 23 77.3z"/>
			<path id="&lt;Path&gt;" class="s4" d="m243.1 201.9q1.6-0.2 3.2-0.5c-2.6-26.8-14.2-51.8-33.6-71.6q-1.8 1.5-3.7 3c19.2 18.8 31.1 42.9 34.1 69.1z"/>
			<path id="&lt;Path&gt;" class="s4" d="m243.8 198.4q1.5-0.6 3-1.3c-7.4-23.8-23.1-43.7-45.1-57.1q-1.5 1.8-3 3.6c21.7 12.6 37.4 31.6 45.1 54.8z"/>
			<path id="&lt;Path&gt;" class="s4" d="m243.6 202.9q1.5-0.8 2.9-1.6c-9.7-22.7-27.3-40.6-50.5-51.1q-1.3 2-2.6 3.9c22.8 9.8 40.3 26.8 50.2 48.8z"/>
			<path id="&lt;Path&gt;" class="s4" d="m244.3 204.2q1.2-1.1 2.5-2.2c-13.5-20.1-33.8-33.7-58.4-38.9q-0.9 2.2-1.8 4.4c24 4.6 44.1 17.3 57.7 36.7z"/>
			<path id="&lt;Path&gt;" class="s4" d="m248.1 200.9q0.9-1.5 1.8-2.9c-18-14.9-40.9-21.4-65.8-18.3q-0.3 2.4-0.7 4.8c24.2-3.4 46.7 2.3 64.7 16.4z"/>
			<path id="&lt;Path&gt;" class="s4" d="m248.7 199.3q0.6-1.6 1.2-3.3c-20.5-10.1-44.1-10.6-67.8-1.4q0.2 2.4 0.3 4.9c22.9-9.4 46-9.5 66.3-0.2z"/>
			<path id="&lt;Path&gt;" class="s4" d="m252.1 199.2q0.4-1.8 0.8-3.5c-21.5-6.7-45-3.5-67.3 9.3q0.5 2.4 0.9 4.8c21.5-12.9 44.4-16.7 65.6-10.6z"/>
		</g>
		<path id="&lt;Path&gt;" class="s5" d="m244.2 185.3h-4.5l-1-29.3h6.5z"/>
		<path id="&lt;Path&gt;" class="s5" d="m240.6 189h4.5l1 17.5h-6.5z"/>
		<path id="&lt;Path&gt;" class="s5" d="m249.7 185.2q-2.2-0.3-4.4-0.6c0.9-10.7 9.7-19.4 21.1-19.9q0 3.3 0 6.5c-8-0.3-15.3 5.5-16.7 14z"/>
		<path id="&lt;Path&gt;" class="s5" d="m245.1 189.6q-0.4-2.2-0.9-4.4c10.5-2.5 21.6 3.1 25.6 13.6q-3.1 1.1-6.2 2.2c-2.2-7.7-10-12.8-18.5-11.4z"/>
		<path id="&lt;Path&gt;" class="s5" d="m234.4 185.2q2.2-0.3 4.4-0.6c-0.9-10.7-9.7-19.4-21-19.9q0 3.3-0.1 6.5c8-0.3 15.3 5.5 16.7 14z"/>
		<path id="&lt;Path&gt;" class="s5" d="m239.7 190.3q0.4-2.2 0.7-4.4c-10.6-1.8-21.3 4.6-24.6 15.4q3.1 0.8 6.3 1.7c1.7-7.8 9.1-13.5 17.6-12.7z"/>
	</g>
	<path id="&lt;Path&gt;" class="s1" d="m172.3 241c-4.3 83 30.6 89 44.7 151.8"/>
	<path id="&lt;Path&gt;" class="s1" d="m274.9 259.5c-21.3 29.2-51.5 91.9-54 138.5"/>
</svg>