<svg version="1.2" xmlns="http://www.w3.org/2000/svg" viewBox="0 0 480 480" width="480" height="480">
	<title>Flower</title>
	<style>
		.s0 { fill: #7285ff } 
		.s1 { fill: #8d8fff } 
		.s2 { fill: #798fff } 
		.s3 { fill: #bd8fff } 
		.s4 { fill: none;stroke: #349b4a;stroke-miterlimit:10;stroke-width: 10 } 
		.s5 { fill: #a3adff } 
		.s6 { fill: #fffcbb } 
		.s7 { fill: #7e8fff } 
	</style>
	<g id="&lt;Group&gt;">
		<g id="&lt;Group&gt;">
			<path id="&lt;Path&gt;" class="s0" d="m286.7 333.4c6.4 0 15.1 9.2 15.1 9.2 0 0-8.7 9.2-15.1 9.2-6.4 0-19.1-9.2-19.1-9.2 0 0 12.7-9.2 19.1-9.2z"/>
			<path id="&lt;Path&gt;" class="s0" d="m288.8 345.4c5.4 3.5 7.6 15.9 7.6 15.9 0 0-12.3 3.1-17.7-0.5-5.4-3.5-10.9-18.1-10.9-18.1 0 0 15.6-0.8 21 2.7z"/>
			<path id="&lt;Path&gt;" class="s0" d="m288.8 339.9c5.4-3.5 7.6-15.9 7.6-15.9 0 0-12.3-3.1-17.7 0.5-5.4 3.5-10.9 18.1-10.9 18.1 0 0 15.6 0.8 21-2.7z"/>
		</g>
		<g id="&lt;Group&gt;">
			<path id="&lt;Path&gt;" class="s0" d="m213.3 366.8c-6.5 0-15.1-9.2-15.1-9.2 0 0 8.6-9.2 15.1-9.2 6.4 0 19.1 9.2 19.1 9.2 0 0-12.7 9.2-19.1 9.2z"/>
			<path id="&lt;Path&gt;" class="s0" d="m211.2 354.8c-5.4-3.5-7.6-15.9-7.6-15.9 0 0 12.2-3 17.7 0.5 5.4 3.5 10.9 18.1 10.9 18.1 0 0-15.6 0.9-21-2.7z"/>
			<path id="&lt;Path&gt;" class="s0" d="m211.2 360.3c-5.4 3.5-7.6 15.9-7.6 15.9 0 0 12.2 3.1 17.7-0.4 5.4-3.6 10.9-18.2 10.9-18.2 0 0-15.6-0.8-21 2.7z"/>
		</g>
		<g id="&lt;Group&gt;">
			<path id="&lt;Path&gt;" class="s1" d="m194.5 276.1c-4.8-4.8-4.3-18.2-4.3-18.2 0 0 13.3-0.4 18.1 4.4 4.8 4.8 7.3 21.2 7.3 21.2 0 0-16.3-2.6-21.1-7.4z"/>
			<path id="&lt;Path&gt;" class="s1" d="m201.9 265.6c-1.4-6.7 6.2-17.7 6.2-17.7 0 0 11.4 6.9 12.8 13.6 1.4 6.7-5.3 21.8-5.3 21.8 0 0-12.3-11.1-13.7-17.7z"/>
			<path id="&lt;Path&gt;" class="s1" d="m197.9 269.6c-6.7-1.4-17.6 6.3-17.6 6.3 0 0 6.9 11.4 13.5 12.8 6.7 1.5 21.7-5.3 21.7-5.3 0 0-11-12.4-17.6-13.8z"/>
		</g>
		<g id="&lt;Group&gt;">
			<path id="&lt;Path&gt;" class="s1" d="m216.2 230.3c-4.8-4.8-4.3-18.2-4.3-18.2 0 0 13.3-0.4 18.1 4.4 4.8 4.8 7.3 21.2 7.3 21.2 0 0-16.3-2.6-21.1-7.4z"/>
			<path id="&lt;Path&gt;" class="s1" d="m223.6 219.8c-1.4-6.7 6.2-17.7 6.2-17.7 0 0 11.4 6.9 12.8 13.6 1.4 6.7-5.3 21.8-5.3 21.8 0 0-12.3-11.1-13.7-17.7z"/>
			<path id="&lt;Path&gt;" class="s1" d="m219.6 223.8c-6.7-1.4-17.6 6.3-17.6 6.3 0 0 6.9 11.4 13.5 12.8 6.7 1.5 21.7-5.3 21.7-5.3 0 0-11-12.4-17.6-13.8z"/>
		</g>
		<g id="&lt;Group&gt;">
			<path id="&lt;Path&gt;" class="s1" d="m225.2 151c-4.8-4.8-4.4-18.2-4.4-18.2 0 0 13.3-0.4 18.1 4.4 4.8 4.8 7.3 21.2 7.3 21.2 0 0-16.2-2.6-21-7.4z"/>
			<path id="&lt;Path&gt;" class="s1" d="m232.5 140.5c-1.4-6.7 6.3-17.6 6.3-17.6 0 0 11.3 6.9 12.7 13.5 1.5 6.7-5.3 21.8-5.3 21.8 0 0-12.2-11-13.7-17.7z"/>
			<path id="&lt;Path&gt;" class="s1" d="m228.5 144.6c-6.6-1.5-17.5 6.2-17.5 6.2 0 0 6.8 11.5 13.5 12.9 6.6 1.4 21.6-5.4 21.6-5.4 0 0-11-12.3-17.6-13.7z"/>
		</g>
		<g id="&lt;Group&gt;">
			<path id="&lt;Path&gt;" class="s1" d="m258.1 157.9c5.1-5 18.8-4.9 18.8-4.9 0 0 0.1 13.6-4.9 18.7-5.1 5-22 8-22 8 0 0 3.1-16.7 8.1-21.8z"/>
			<path id="&lt;Path&gt;" class="s1" d="m268.8 165.2c6.8-1.6 17.9 5.9 17.9 5.9 0 0-7.4 11.9-14.3 13.5-6.9 1.6-22.2-4.9-22.2-4.9 0 0 11.7-12.9 18.6-14.5z"/>
			<path id="&lt;Path&gt;" class="s1" d="m264.7 161.2c1.6-6.9-6-17.8-6-17.8 0 0-11.9 7.3-13.5 14.1-1.6 6.9 4.9 22.1 4.9 22.1 0 0 13-11.6 14.6-18.4z"/>
		</g>
		<g id="&lt;Group&gt;">
			<path id="&lt;Path&gt;" class="s1" d="m262.6 206.2c5.1-5 18.8-4.9 18.8-4.9 0 0 0.1 13.6-4.9 18.7-5.1 5-22 8-22 8 0 0 3.1-16.7 8.1-21.8z"/>
			<path id="&lt;Path&gt;" class="s1" d="m273.3 213.5c6.8-1.6 17.9 5.9 17.9 5.9 0 0-7.4 11.9-14.3 13.5-6.9 1.6-22.2-4.9-22.2-4.9 0 0 11.7-12.9 18.6-14.5z"/>
			<path id="&lt;Path&gt;" class="s1" d="m269.2 209.5c1.6-6.9-6-17.8-6-17.8 0 0-11.9 7.3-13.5 14.1-1.6 6.9 4.9 22.1 4.9 22.1 0 0 13-11.6 14.6-18.4z"/>
		</g>
		<g id="&lt;Group&gt;">
			<path id="&lt;Path&gt;" class="s2" d="m272.9 237.2c5.1-5 18.7-4.9 18.7-4.9 0 0 0.2 13.6-4.9 18.6-5.1 5.1-21.9 8.1-21.9 8.1 0 0 3-16.8 8.1-21.8z"/>
			<path id="&lt;Path&gt;" class="s2" d="m283.5 244.5c6.9-1.6 17.9 5.9 17.9 5.9 0 0-7.3 11.9-14.2 13.5-6.9 1.6-22.2-5-22.2-5 0 0 11.6-12.8 18.5-14.4z"/>
			<path id="&lt;Path&gt;" class="s2" d="m279.4 240.4c1.7-6.8-5.9-17.8-5.9-17.8 0 0-11.9 7.4-13.6 14.2-1.6 6.8 5 22.1 5 22.1 0 0 12.9-11.6 14.5-18.5z"/>
		</g>
		<g id="&lt;Group&gt;">
			<path id="&lt;Path&gt;" class="s3" d="m266.8 264.2c0-6.4 9.3-15.1 9.3-15.1 0 0 9.2 8.7 9.2 15.1 0 6.5-9.2 19.1-9.2 19.1 0 0-9.3-12.6-9.3-19.1z"/>
			<path id="&lt;Path&gt;" class="s3" d="m283 263.8c4.6-4.5 17.2-4.1 17.2-4.1 0 0 0.5 12.6-4.1 17.2-4.6 4.5-20 6.9-20 6.9 0 0 2.4-15.4 6.9-20z"/>
		</g>
		<path id="&lt;Path&gt;" class="s4" d="m259.8 94.2c-11.9 0-23.7 209.6-21.8 324.3"/>
		<g id="&lt;Group&gt;">
			<path id="&lt;Path&gt;" class="s3" d="m216.4 342.8c0 6.4-9.2 11.6-9.2 11.6 0 0-9.2-5.2-9.2-11.6 0-6.5 9.2-19.1 9.2-19.1 0 0 9.2 12.6 9.2 19.1z"/>
			<path id="&lt;Path&gt;" class="s3" d="m229.7 324.6c5.6 3.2 5.5 13.8 5.5 13.8 0 0-9.1 5.4-14.7 2.1-5.6-3.2-11.9-17.5-11.9-17.5 0 0 15.5-1.7 21.1 1.6z"/>
			<path id="&lt;Path&gt;" class="s3" d="m220.6 304c5.6-3.2 14.7 2.1 14.7 2.1 0 0 0.1 10.7-5.5 13.9-5.6 3.2-21.1 1.5-21.1 1.5 0 0 6.3-14.3 11.9-17.5z"/>
			<path id="&lt;Path&gt;" class="s3" d="m198.2 301.6c0-6.4 9.2-11.7 9.2-11.7 0 0 9.3 5.3 9.3 11.7 0 6.4-9.3 19.1-9.3 19.1 0 0-9.2-12.7-9.2-19.1z"/>
			<path id="&lt;Path&gt;" class="s3" d="m184.9 319.8c-5.5-3.2-5.5-13.8-5.5-13.8 0 0 9.2-5.4 14.8-2.2 5.6 3.2 11.9 17.5 11.9 17.5 0 0-15.6 1.7-21.2-1.5z"/>
			<path id="&lt;Path&gt;" class="s3" d="m194.1 340.4c-5.6 3.2-14.8-2.2-14.8-2.2 0 0 0-10.6 5.5-13.8 5.6-3.2 21.2-1.6 21.2-1.6 0 0-6.4 14.3-11.9 17.6z"/>
			<path id="&lt;Path&gt;" class="s5" d="m192.4 311.9c-2.6-4.6 1.9-12.2 1.9-12.2 0 0 8.9-0.1 11.5 4.6 2.7 4.7 1.2 17.7 1.2 17.7 0 0-11.9-5.4-14.6-10.1z"/>
			<path id="&lt;Path&gt;" class="s5" d="m191 329.3c-5.4 0-9.7-7.8-9.7-7.8 0 0 4.4-7.7 9.8-7.6 5.4 0 15.9 7.8 15.9 7.8 0 0-10.6 7.6-16 7.6z"/>
			<path id="&lt;Path&gt;" class="s5" d="m205.3 339.2c-2.7 4.6-11.5 4.5-11.5 4.5 0 0-4.5-7.6-1.8-12.3 2.7-4.6 14.7-9.8 14.7-9.8 0 0 1.3 12.9-1.4 17.6z"/>
			<path id="&lt;Path&gt;" class="s5" d="m221.1 331.8c2.6 4.6-1.9 12.2-1.9 12.2 0 0-8.9 0.1-11.5-4.6-2.7-4.7-1.2-17.7-1.2-17.7 0 0 11.9 5.4 14.6 10.1z"/>
			<path id="&lt;Path&gt;" class="s5" d="m222.5 314.4c5.4 0 9.7 7.8 9.7 7.8 0 0-4.4 7.6-9.8 7.6-5.4 0-15.9-7.8-15.9-7.8 0 0 10.6-7.6 16-7.6z"/>
			<path id="&lt;Path&gt;" class="s5" d="m208.2 304.5c2.7-4.6 11.5-4.5 11.5-4.5 0 0 4.5 7.6 1.8 12.3-2.7 4.6-14.7 9.8-14.7 9.8 0 0-1.3-13 1.4-17.6z"/>
			<path id="&lt;Path&gt;" class="s6" d="m206.8 326.7c-0.5-1.3 1-3.1 1-3.1 0 0 2.2 0.4 2.7 1.7 0.5 1.3-0.5 4.5-0.5 4.5 0 0-2.8-1.9-3.2-3.1z"/>
			<path id="&lt;Path&gt;" class="s6" d="m210.8 324.6c-1.3-0.5-1.7-2.7-1.7-2.7 0 0 1.7-1.5 3-1 1.3 0.5 3.2 3.2 3.2 3.2 0 0-3.2 1-4.5 0.5z"/>
			<path id="&lt;Path&gt;" class="s6" d="m211.8 320.2c-1.2 0.7-3.2-0.5-3.2-0.5 0 0 0-2.2 1.2-2.9 1.2-0.7 4.5-0.3 4.5-0.3 0 0-1.3 3-2.5 3.7z"/>
			<path id="&lt;Path&gt;" class="s6" d="m209.1 316.6c-0.3 1.4-2.4 2.1-2.4 2.1 0 0-1.8-1.4-1.5-2.8 0.2-1.3 2.6-3.6 2.6-3.6 0 0 1.5 3 1.3 4.3z"/>
			<path id="&lt;Path&gt;" class="s6" d="m204.6 316.4c0.8 1.1 0.1 3.2 0.1 3.2 0 0-2.3 0.4-3.2-0.7-0.8-1-1.1-4.4-1.1-4.4 0 0 3.3 0.8 4.2 1.9z"/>
			<path id="&lt;Path&gt;" class="s6" d="m201.5 319.7c1.4 0 2.5 2 2.5 2 0 0-1.1 2-2.5 1.9-1.4 0-4.1-1.9-4.1-1.9 0 0 2.7-2 4.1-2z"/>
			<path id="&lt;Path&gt;" class="s6" d="m202.1 324.2c0.9-1.1 3.1-0.7 3.1-0.7 0 0 0.8 2.2-0.1 3.2-0.9 1.1-4.1 1.9-4.1 1.9 0 0 0.2-3.4 1.1-4.4z"/>
		</g>
		<g id="&lt;Group&gt;">
			<path id="&lt;Path&gt;" class="s3" d="m258.4 377.9c0 6.5-9.3 11.7-9.3 11.7 0 0-9.2-5.2-9.2-11.7 0-6.4 9.2-19.1 9.2-19.1 0 0 9.3 12.7 9.3 19.1z"/>
			<path id="&lt;Path&gt;" class="s3" d="m271.6 359.7c5.6 3.2 5.5 13.9 5.5 13.9 0 0-9.1 5.3-14.7 2.1-5.6-3.2-11.9-17.5-11.9-17.5 0 0 15.5-1.7 21.1 1.5z"/>
			<path id="&lt;Path&gt;" class="s3" d="m262.5 339.1c5.6-3.2 14.7 2.2 14.7 2.2 0 0 0.1 10.6-5.5 13.8-5.6 3.3-21.1 1.6-21.1 1.6 0 0 6.3-14.3 11.9-17.6z"/>
			<path id="&lt;Path&gt;" class="s3" d="m240.1 336.8c0-6.5 9.2-11.7 9.2-11.7 0 0 9.3 5.2 9.3 11.7 0 6.4-9.3 19.1-9.3 19.1 0 0-9.2-12.7-9.2-19.1z"/>
			<path id="&lt;Path&gt;" class="s3" d="m226.9 355c-5.6-3.3-5.5-13.9-5.5-13.9 0 0 9.1-5.4 14.7-2.1 5.6 3.2 11.9 17.5 11.9 17.5 0 0-15.6 1.7-21.1-1.5z"/>
			<path id="&lt;Path&gt;" class="s3" d="m236 375.5c-5.6 3.3-14.7-2.1-14.7-2.1 0 0-0.1-10.6 5.5-13.9 5.5-3.2 21.1-1.5 21.1-1.5 0 0-6.3 14.3-11.9 17.5z"/>
			<path id="&lt;Path&gt;" class="s5" d="m234.4 347.1c-2.7-4.7 1.8-12.3 1.8-12.3 0 0 8.9 0 11.5 4.7 2.7 4.7 1.2 17.6 1.2 17.6 0 0-11.9-5.3-14.5-10z"/>
			<path id="&lt;Path&gt;" class="s5" d="m232.9 364.5c-5.3-0.1-9.7-7.8-9.7-7.8 0 0 4.4-7.7 9.8-7.7 5.4 0.1 15.9 7.8 15.9 7.8 0 0-10.6 7.7-16 7.7z"/>
			<path id="&lt;Path&gt;" class="s5" d="m247.2 374.4c-2.7 4.6-11.5 4.5-11.5 4.5 0 0-4.5-7.7-1.8-12.3 2.8-4.7 14.7-9.9 14.7-9.9 0 0 1.4 13-1.4 17.7z"/>
			<path id="&lt;Path&gt;" class="s5" d="m263 366.9c2.6 4.7-1.9 12.3-1.9 12.3 0 0-8.9 0-11.5-4.7-2.7-4.6-1.2-17.6-1.2-17.6 0 0 11.9 5.3 14.6 10z"/>
			<path id="&lt;Path&gt;" class="s5" d="m264.4 349.6c5.4 0 9.7 7.7 9.7 7.7 0 0-4.4 7.7-9.8 7.7-5.4 0-15.9-7.8-15.9-7.8 0 0 10.6-7.7 16-7.6z"/>
			<path id="&lt;Path&gt;" class="s5" d="m250.1 339.7c2.7-4.7 11.6-4.5 11.6-4.5 0 0 4.4 7.6 1.7 12.3-2.7 4.6-14.7 9.8-14.7 9.8 0 0-1.3-13 1.4-17.6z"/>
			<path id="&lt;Path&gt;" class="s6" d="m248.7 361.8c-0.5-1.3 1-3 1-3 0 0 2.2 0.4 2.7 1.7 0.5 1.3-0.5 4.5-0.5 4.5 0 0-2.7-1.9-3.2-3.2z"/>
			<path id="&lt;Path&gt;" class="s6" d="m252.7 359.8c-1.3-0.5-1.7-2.8-1.7-2.8 0 0 1.8-1.4 3.1-0.9 1.3 0.4 3.1 3.2 3.1 3.2 0 0-3.2 0.9-4.5 0.5z"/>
			<path id="&lt;Path&gt;" class="s6" d="m253.7 355.4c-1.2 0.7-3.2-0.5-3.2-0.5 0 0 0-2.3 1.2-3 1.2-0.6 4.6-0.3 4.6-0.3 0 0-1.4 3.1-2.6 3.8z"/>
			<path id="&lt;Path&gt;" class="s6" d="m251 351.8c-0.3 1.3-2.4 2.1-2.4 2.1 0 0-1.8-1.4-1.5-2.8 0.2-1.4 2.6-3.7 2.6-3.7 0 0 1.5 3 1.3 4.4z"/>
			<path id="&lt;Path&gt;" class="s6" d="m246.5 351.6c0.9 1 0.1 3.1 0.1 3.1 0 0-2.3 0.5-3.1-0.6-0.9-1.1-1.2-4.4-1.2-4.4 0 0 3.3 0.8 4.2 1.9z"/>
			<path id="&lt;Path&gt;" class="s6" d="m243.4 354.9c1.4 0 2.5 1.9 2.5 1.9 0 0-1.1 2-2.5 2-1.4 0-4.1-2-4.1-2 0 0 2.7-1.9 4.1-1.9z"/>
			<path id="&lt;Path&gt;" class="s6" d="m244 359.3c0.9-1 3.1-0.6 3.1-0.6 0 0 0.8 2.1-0.1 3.2-0.9 1-4.1 1.8-4.1 1.8 0 0 0.2-3.3 1.1-4.4z"/>
		</g>
		<g id="&lt;Group&gt;">
			<path id="&lt;Path&gt;" class="s3" d="m280.1 328.2c0 6.4-9.3 11.7-9.3 11.7 0 0-9.2-5.3-9.2-11.7 0-6.5 9.2-19.1 9.2-19.1 0 0 9.3 12.6 9.3 19.1z"/>
			<path id="&lt;Path&gt;" class="s3" d="m293.3 310c5.6 3.2 5.5 13.8 5.5 13.8 0 0-9.1 5.4-14.7 2.2-5.6-3.2-11.9-17.6-11.9-17.6 0 0 15.5-1.6 21.1 1.6z"/>
			<path id="&lt;Path&gt;" class="s3" d="m284.2 289.4c5.6-3.2 14.7 2.2 14.7 2.2 0 0 0.1 10.6-5.5 13.8-5.6 3.2-21.1 1.5-21.1 1.5 0 0 6.3-14.3 11.9-17.5z"/>
			<path id="&lt;Path&gt;" class="s3" d="m261.8 287c0-6.4 9.2-11.6 9.2-11.6 0 0 9.3 5.2 9.3 11.6 0 6.5-9.3 19.1-9.3 19.1 0 0-9.2-12.6-9.2-19.1z"/>
			<path id="&lt;Path&gt;" class="s3" d="m248.5 305.2c-5.5-3.2-5.4-13.8-5.4-13.8 0 0 9.1-5.4 14.7-2.2 5.6 3.3 11.9 17.6 11.9 17.6 0 0-15.6 1.6-21.2-1.6z"/>
			<path id="&lt;Path&gt;" class="s3" d="m257.7 325.8c-5.6 3.2-14.7-2.2-14.7-2.2 0 0-0.1-10.6 5.4-13.8 5.6-3.2 21.2-1.5 21.2-1.5 0 0-6.3 14.3-11.9 17.5z"/>
			<path id="&lt;Path&gt;" class="s5" d="m256 297.4c-2.6-4.7 1.9-12.3 1.9-12.3 0 0 8.9 0 11.5 4.6 2.7 4.7 1.2 17.7 1.2 17.7 0 0-11.9-5.4-14.6-10z"/>
			<path id="&lt;Path&gt;" class="s5" d="m254.6 314.7c-5.4 0-9.7-7.7-9.7-7.7 0 0 4.4-7.7 9.8-7.7 5.4 0 15.9 7.8 15.9 7.8 0 0-10.6 7.6-16 7.6z"/>
			<path id="&lt;Path&gt;" class="s5" d="m268.9 324.6c-2.7 4.7-11.5 4.5-11.5 4.5 0 0-4.5-7.6-1.8-12.3 2.8-4.6 14.7-9.8 14.7-9.8 0 0 1.4 13-1.4 17.6z"/>
			<path id="&lt;Path&gt;" class="s5" d="m284.7 317.2c2.6 4.7-1.9 12.3-1.9 12.3 0 0-8.9 0-11.5-4.7-2.7-4.7-1.2-17.6-1.2-17.6 0 0 11.9 5.3 14.6 10z"/>
			<path id="&lt;Path&gt;" class="s5" d="m286.1 299.8c5.4 0.1 9.7 7.8 9.7 7.8 0 0-4.4 7.7-9.8 7.6-5.4 0-15.9-7.8-15.9-7.8 0 0 10.6-7.6 16-7.6z"/>
			<path id="&lt;Path&gt;" class="s5" d="m271.8 289.9c2.7-4.6 11.5-4.5 11.5-4.5 0 0 4.5 7.7 1.8 12.3-2.7 4.7-14.7 9.9-14.7 9.9 0 0-1.3-13 1.4-17.7z"/>
			<path id="&lt;Path&gt;" class="s6" d="m270.4 312.1c-0.5-1.3 1-3 1-3 0 0 2.2 0.3 2.7 1.6 0.5 1.3-0.5 4.5-0.5 4.5 0 0-2.7-1.8-3.2-3.1z"/>
			<path id="&lt;Path&gt;" class="s6" d="m274.4 310c-1.3-0.5-1.7-2.7-1.7-2.7 0 0 1.8-1.5 3.1-1 1.2 0.5 3.1 3.3 3.1 3.3 0 0-3.2 0.9-4.5 0.4z"/>
			<path id="&lt;Path&gt;" class="s6" d="m275.4 305.6c-1.2 0.7-3.2-0.4-3.2-0.4 0 0 0-2.3 1.2-3 1.2-0.7 4.5-0.3 4.5-0.3 0 0-1.3 3-2.5 3.7z"/>
			<path id="&lt;Path&gt;" class="s6" d="m272.7 302c-0.3 1.4-2.4 2.2-2.4 2.2 0 0-1.8-1.5-1.5-2.8 0.2-1.4 2.6-3.7 2.6-3.7 0 0 1.5 3 1.3 4.3z"/>
			<path id="&lt;Path&gt;" class="s6" d="m268.2 301.8c0.9 1.1 0.1 3.2 0.1 3.2 0 0-2.3 0.4-3.2-0.6-0.8-1.1-1.1-4.4-1.1-4.4 0 0 3.3 0.8 4.2 1.8z"/>
			<path id="&lt;Path&gt;" class="s6" d="m265.1 305.1c1.4 0 2.5 2 2.5 2 0 0-1.1 2-2.5 2-1.4 0-4.1-2-4.1-2 0 0 2.7-2 4.1-2z"/>
			<path id="&lt;Path&gt;" class="s6" d="m265.7 309.6c0.9-1.1 3.1-0.6 3.1-0.6 0 0 0.8 2.1-0.1 3.1-0.9 1.1-4.1 1.9-4.1 1.9 0 0 0.2-3.4 1.1-4.4z"/>
		</g>
		<g id="&lt;Group&gt;">
			<path id="&lt;Path&gt;" class="s3" d="m255 278.3c0 6.5-9.2 11.7-9.2 11.7 0 0-9.2-5.2-9.2-11.7 0-6.4 9.2-19.1 9.2-19.1 0 0 9.2 12.7 9.2 19.1z"/>
			<path id="&lt;Path&gt;" class="s3" d="m268.3 260.1c5.6 3.2 5.5 13.8 5.5 13.8 0 0-9.2 5.4-14.7 2.2-5.6-3.2-11.9-17.5-11.9-17.5 0 0 15.5-1.7 21.1 1.5z"/>
			<path id="&lt;Path&gt;" class="s3" d="m259.2 239.5c5.6-3.2 14.7 2.2 14.7 2.2 0 0 0.1 10.6-5.5 13.8-5.6 3.3-21.1 1.6-21.1 1.6 0 0 6.3-14.3 11.9-17.6z"/>
			<path id="&lt;Path&gt;" class="s3" d="m236.8 237.2c0-6.5 9.2-11.7 9.2-11.7 0 0 9.2 5.2 9.2 11.7 0 6.4-9.2 19-9.2 19 0 0-9.2-12.6-9.2-19z"/>
			<path id="&lt;Path&gt;" class="s3" d="m223.5 255.4c-5.5-3.3-5.5-13.9-5.5-13.9 0 0 9.2-5.4 14.8-2.1 5.5 3.2 11.9 17.5 11.9 17.5 0 0-15.6 1.7-21.2-1.5z"/>
			<path id="&lt;Path&gt;" class="s3" d="m232.7 275.9c-5.6 3.2-14.8-2.1-14.8-2.1 0 0-0.1-10.6 5.5-13.9 5.6-3.2 21.2-1.5 21.2-1.5 0 0-6.4 14.3-11.9 17.5z"/>
			<path id="&lt;Path&gt;" class="s5" d="m231 247.5c-2.6-4.7 1.9-12.3 1.9-12.3 0 0 8.9 0 11.5 4.7 2.7 4.6 1.2 17.6 1.2 17.6 0 0-11.9-5.3-14.6-10z"/>
			<path id="&lt;Path&gt;" class="s5" d="m229.6 264.8c-5.4 0-9.7-7.7-9.7-7.7 0 0 4.4-7.7 9.8-7.7 5.4 0.1 15.9 7.8 15.9 7.8 0 0-10.6 7.7-16 7.6z"/>
			<path id="&lt;Path&gt;" class="s5" d="m243.9 274.7c-2.7 4.7-11.6 4.6-11.6 4.6 0 0-4.4-7.7-1.7-12.3 2.7-4.7 14.7-9.9 14.7-9.9 0 0 1.3 13-1.4 17.6z"/>
			<path id="&lt;Path&gt;" class="s5" d="m259.7 267.3c2.6 4.7-1.9 12.3-1.9 12.3 0 0-8.9 0-11.5-4.7-2.7-4.6-1.2-17.6-1.2-17.6 0 0 11.9 5.3 14.6 10z"/>
			<path id="&lt;Path&gt;" class="s5" d="m261.1 250c5.4 0 9.7 7.7 9.7 7.7 0 0-4.4 7.7-9.8 7.7-5.4-0.1-15.9-7.8-15.9-7.8 0 0 10.6-7.7 16-7.6z"/>
			<path id="&lt;Path&gt;" class="s5" d="m246.8 240.1c2.7-4.7 11.5-4.6 11.5-4.6 0 0 4.5 7.7 1.8 12.3-2.8 4.7-14.7 9.9-14.7 9.9 0 0-1.4-13 1.4-17.6z"/>
			<path id="&lt;Path&gt;" class="s6" d="m245.4 262.2c-0.5-1.3 1-3 1-3 0 0 2.2 0.4 2.7 1.7 0.5 1.3-0.5 4.5-0.5 4.5 0 0-2.8-1.9-3.2-3.2z"/>
			<path id="&lt;Path&gt;" class="s6" d="m249.4 260.1c-1.3-0.4-1.7-2.7-1.7-2.7 0 0 1.7-1.4 3-1 1.3 0.5 3.2 3.3 3.2 3.3 0 0-3.2 0.9-4.5 0.4z"/>
			<path id="&lt;Path&gt;" class="s6" d="m250.4 255.8c-1.2 0.6-3.2-0.5-3.2-0.5 0 0 0-2.3 1.2-3 1.2-0.6 4.5-0.3 4.5-0.3 0 0-1.3 3.1-2.5 3.8z"/>
			<path id="&lt;Path&gt;" class="s6" d="m247.7 252.2c-0.3 1.3-2.4 2.1-2.4 2.1 0 0-1.8-1.5-1.5-2.8 0.2-1.4 2.6-3.7 2.6-3.7 0 0 1.5 3 1.3 4.4z"/>
			<path id="&lt;Path&gt;" class="s6" d="m243.2 252c0.8 1 0 3.1 0 3.1 0 0-2.2 0.4-3.1-0.6-0.9-1.1-1.1-4.4-1.1-4.4 0 0 3.3 0.8 4.2 1.9z"/>
			<path id="&lt;Path&gt;" class="s6" d="m240.1 255.3c1.4 0 2.5 1.9 2.5 1.9 0 0-1.1 2-2.5 2-1.4 0-4.1-2-4.1-2 0 0 2.7-1.9 4.1-1.9z"/>
			<path id="&lt;Path&gt;" class="s6" d="m240.7 259.7c0.9-1 3.1-0.6 3.1-0.6 0 0 0.8 2.1-0.1 3.2-0.9 1-4.1 1.8-4.1 1.8 0 0 0.2-3.3 1.1-4.4z"/>
		</g>
		<g id="&lt;Group&gt;">
			<path id="&lt;Path&gt;" class="s3" d="m240.5 207.4c0-6.5 9.2-15.1 9.2-15.1 0 0 9.3 8.6 9.3 15.1 0 6.4-9.3 19.1-9.3 19.1 0 0-9.2-12.7-9.2-19.1z"/>
			<path id="&lt;Path&gt;" class="s3" d="m256.7 207c4.6-4.6 17.2-4.2 17.2-4.2 0 0 0.4 12.7-4.1 17.2-4.6 4.6-20.1 7-20.1 7 0 0 2.5-15.5 7-20z"/>
		</g>
		<g id="&lt;Group&gt;">
			<path id="&lt;Path&gt;" class="s7" d="m214.8 200c-4.6-4.6-4.2-17.2-4.2-17.2 0 0 12.7-0.5 17.2 4.1 4.6 4.6 7 20 7 20 0 0-15.5-2.4-20-6.9z"/>
			<path id="&lt;Path&gt;" class="s7" d="m225.9 188.2c0-6.4 9.3-15.1 9.3-15.1 0 0 9.2 8.7 9.2 15.1 0 6.5-9.2 19.1-9.2 19.1 0 0-9.3-12.6-9.3-19.1z"/>
		</g>
		<g id="&lt;Group&gt;">
			<path id="&lt;Path&gt;" class="s3" d="m232.7 159.2c0-6.4 9.3-15.1 9.3-15.1 0 0 9.2 8.7 9.2 15.1 0 6.4-9.2 19.1-9.2 19.1 0 0-9.3-12.7-9.3-19.1z"/>
			<path id="&lt;Path&gt;" class="s3" d="m248.9 158.8c4.6-4.6 17.2-4.1 17.2-4.1 0 0 0.4 12.6-4.1 17.1-4.6 4.6-20 7-20 7 0 0 2.4-15.5 6.9-20z"/>
		</g>
		<path id="&lt;Path&gt;" class="s3" d="m270.9 68.3c4.9-3.7 16.6-1.7 16.6-1.7 0 0-1.2 11.9-6 15.6-4.9 3.7-19.7 4-19.7 4 0 0 4.3-14.2 9.1-17.9z"/>
		<path id="&lt;Path&gt;" class="s3" d="m241.4 79c-3.8-5-1.7-17.1-1.7-17.1 0 0 12.2 1.3 16 6.2 3.7 5 4 20.2 4 20.2 0 0-14.5-4.4-18.3-9.3z"/>
		<path id="&lt;Path&gt;" class="s3" d="m233.3 108.8c-4.4-5.7-2-19.8-2-19.8 0 0 14.1 1.5 18.5 7.3 4.4 5.7 4.8 23.4 4.8 23.4 0 0-16.9-5.1-21.3-10.9z"/>
		<path id="&lt;Path&gt;" class="s3" d="m274.1 89.8c6.2-1.1 16 6 16 6 0 0-6.5 10.4-12.6 11.5-6.1 1.2-19.8-5.3-19.8-5.3 0 0 10.3-11 16.4-12.2z"/>
		<path id="&lt;Path&gt;" class="s3" d="m271 118.5c7.2-1.3 18.7 7.1 18.7 7.1 0 0-7.6 12-14.8 13.4-7.1 1.3-23-6.2-23-6.2 0 0 12-12.9 19.1-14.3z"/>
	</g>
</svg>