<svg version="1.2" xmlns="http://www.w3.org/2000/svg" viewBox="0 0 480 480" width="480" height="480">
	<title>Flower</title>
	<style>
		.s0 { fill: #339f4f } 
		.s1 { fill: none;stroke: #339f4f;stroke-miterlimit:10;stroke-width: 8 } 
		.s2 { fill: #7984ff } 
		.s3 { fill: #ffffff } 
		.s4 { fill: #ffed5a } 
	</style>
	<g id="&lt;Group&gt;">
		<path id="&lt;Path&gt;" class="s0" d="m339.6 244.7c-8.6 8.6-17.4 13.8-19.6 11.6-2.2-2.2 2.9-11 11.6-19.6 8.6-8.7 19.6-11.6 19.6-11.6 0 0-3 11-11.6 19.6z"/>
		<path id="&lt;Path&gt;" class="s0" d="m344.2 275.4c-12.2 0-22.1-2.6-22.1-5.7 0-3.1 9.9-5.7 22.1-5.7 12.2 0 22.1 5.7 22.1 5.7 0 0-9.9 5.7-22.1 5.7z"/>
		<path id="&lt;Path&gt;" class="s1" d="m243.3 377.2c7.3-48.4 21.3-181.9 86.8-232.2"/>
		<path id="&lt;Path&gt;" class="s1" d="m152.1 115.5c29.9 29.1 72.7 136.5 84.2 260.3"/>
		<g id="&lt;Group&gt;">
			<path id="&lt;Path&gt;" class="s2" d="m249.5 158.2c0 13.3-12.1 22.5-12.1 22.5 0 0-12-9.2-12-22.5 0-11.3 6.9-11 12-9.7 5.3-1.3 12.1-1.6 12.1 9.7z"/>
			<path id="&lt;Path&gt;" class="s2" d="m219.7 162.3c12.7 4.2 17.7 18.4 17.7 18.4 0 0-12.4 8.6-25.2 4.5-10.7-3.5-8.3-10-5.4-14.4 0.4-5.5 2.1-11.9 12.9-8.5z"/>
			<path id="&lt;Path&gt;" class="s2" d="m214.4 192c7.9-10.9 23-11.3 23-11.3 0 0 4.3 14.6-3.5 25.4-6.6 9.1-12 4.8-15.4 0.7-5.1-2-10.7-5.7-4.1-14.8z"/>
			<path id="&lt;Path&gt;" class="s2" d="m241 206.1c-7.9-10.8-3.6-25.4-3.6-25.4 0 0 15.2 0.4 23 11.3 6.7 9.1 0.9 12.9-4 14.8-3.5 4.2-8.8 8.4-15.4-0.7z"/>
			<path id="&lt;Path&gt;" class="s2" d="m262.6 185.2c-12.7 4.1-25.2-4.5-25.2-4.5 0 0 5.1-14.2 17.8-18.4 10.8-3.4 12.6 3.2 12.9 8.5 2.9 4.6 5.3 10.9-5.5 14.4z"/>
			<path id="&lt;Path&gt;" class="s3" d="m243.3 181.1c0 3.4-2.8 6.1-6.1 6.1-3.4 0-6.1-2.7-6.1-6.1 0-3.4 2.7-6.1 6.1-6.1 3.3 0 6.1 2.7 6.1 6.1z"/>
			<path id="&lt;Path&gt;" class="s4" d="m242 181.1c0 2.7-2.2 4.8-4.8 4.8-2.7 0-4.8-2.1-4.8-4.8 0-2.7 2.1-4.8 4.8-4.8 2.6 0 4.8 2.1 4.8 4.8z"/>
		</g>
		<g id="&lt;Group&gt;">
			<path id="&lt;Path&gt;" class="s2" d="m197.1 231.7c0 13.4-12 22.6-12 22.6 0 0-12.1-9.2-12.1-22.6 0-11.2 6.9-10.9 12.1-9.6 5.2-1.3 12-1.6 12 9.6z"/>
			<path id="&lt;Path&gt;" class="s2" d="m167.3 235.9c12.7 4.2 17.8 18.4 17.8 18.4 0 0-12.5 8.6-25.2 4.5-10.8-3.5-8.3-10-5.5-14.4 0.4-5.5 2.1-12 12.9-8.5z"/>
			<path id="&lt;Path&gt;" class="s2" d="m162.1 265.5c7.8-10.8 23-11.2 23-11.2 0 0 4.3 14.5-3.6 25.4-6.6 9.1-12 4.8-15.4 0.7-5-2-10.7-5.7-4-14.9z"/>
			<path id="&lt;Path&gt;" class="s2" d="m188.6 279.7c-7.8-10.9-3.5-25.4-3.5-25.4 0 0 15.1 0.4 23 11.2 6.6 9.2 0.8 13-4.1 14.9-3.5 4.2-8.8 8.4-15.4-0.7z"/>
			<path id="&lt;Path&gt;" class="s2" d="m210.3 258.8c-12.8 4.1-25.2-4.5-25.2-4.5 0 0 5-14.2 17.7-18.4 10.8-3.5 12.6 3.2 12.9 8.5 2.9 4.6 5.3 10.9-5.4 14.4z"/>
			<path id="&lt;Path&gt;" class="s3" d="m190.9 254.7c0 3.4-2.7 6.1-6.1 6.1-3.4 0-6.1-2.7-6.1-6.1 0-3.4 2.7-6.1 6.1-6.1 3.4 0 6.1 2.7 6.1 6.1z"/>
			<path id="&lt;Path&gt;" class="s4" d="m189.6 254.7c0 2.7-2.1 4.8-4.8 4.8-2.7 0-4.8-2.1-4.8-4.8 0-2.7 2.1-4.8 4.8-4.8 2.7 0 4.8 2.1 4.8 4.8z"/>
		</g>
		<g id="&lt;Group&gt;">
			<path id="&lt;Path&gt;" class="s2" d="m295.6 242.9c0 13.4-12 22.6-12 22.6 0 0-12-9.2-12-22.6 0-11.3 6.9-11 12-9.6 5.3-1.4 12-1.7 12 9.6z"/>
			<path id="&lt;Path&gt;" class="s2" d="m265.8 247.1c12.7 4.1 17.8 18.4 17.8 18.4 0 0-12.5 8.6-25.2 4.4-10.7-3.4-8.3-9.9-5.5-14.4 0.4-5.4 2.2-11.9 12.9-8.4z"/>
			<path id="&lt;Path&gt;" class="s2" d="m260.6 276.7c7.8-10.8 23-11.2 23-11.2 0 0 4.3 14.5-3.6 25.3-6.6 9.2-12 4.9-15.4 0.8-5-2-10.6-5.8-4-14.9z"/>
			<path id="&lt;Path&gt;" class="s2" d="m287.1 290.8c-7.8-10.8-3.5-25.3-3.5-25.3 0 0 15.1 0.4 23 11.2 6.6 9.1 0.8 13-4.1 14.9-3.5 4.2-8.7 8.4-15.4-0.8z"/>
			<path id="&lt;Path&gt;" class="s2" d="m308.8 269.9c-12.7 4.2-25.2-4.4-25.2-4.4 0 0 5-14.3 17.8-18.4 10.7-3.5 12.5 3.2 12.8 8.4 2.9 4.7 5.3 11-5.4 14.4z"/>
			<path id="&lt;Path&gt;" class="s3" d="m289.4 265.9c0 3.3-2.7 6.1-6.1 6.1-3.4 0-6.1-2.8-6.1-6.1 0-3.4 2.7-6.1 6.1-6.1 3.4 0 6.1 2.7 6.1 6.1z"/>
			<path id="&lt;Path&gt;" class="s4" d="m288.1 265.9c0 2.6-2.1 4.8-4.8 4.8-2.7 0-4.8-2.2-4.8-4.8 0-2.7 2.1-4.9 4.8-4.9 2.7 0 4.8 2.2 4.8 4.9z"/>
		</g>
		<path id="&lt;Path&gt;" class="s0" d="m312.7 206.9c-8.7 8.6-17.4 13.8-19.7 11.6-2.2-2.3 3-11.1 11.6-19.7 8.7-8.6 19.7-11.6 19.7-11.6 0 0-3 11-11.6 19.7z"/>
		<path id="&lt;Path&gt;" class="s0" d="m163 204.1c12.2 0 22.1 2.5 22.1 5.6 0 3.2-9.9 5.7-22.1 5.7-12.2 0-22.1-5.7-22.1-5.7 0 0 9.9-5.6 22.1-5.6z"/>
		<path id="&lt;Path&gt;" class="s0" d="m200.8 346.8c12.2 0 22.1 2.5 22.1 5.6 0 3.2-9.9 5.7-22.1 5.7-12.2 0-22.1-5.7-22.1-5.7 0 0 9.9-5.6 22.1-5.6z"/>
		<path id="&lt;Path&gt;" class="s0" d="m183.9 327.3c12.2 0 22.1 2.5 22.1 5.7 0 3.1-9.9 5.6-22.1 5.6-12.2 0-22.1-5.6-22.1-5.6 0 0 9.9-5.7 22.1-5.7z"/>
		<path id="&lt;Path&gt;" class="s0" d="m205.4 307.1c8.6 8.6 13.8 17.4 11.6 19.6-2.3 2.3-11-2.9-19.7-11.5-8.6-8.7-11.6-19.7-11.6-19.7 0 0 11 3 19.7 11.6z"/>
		<path id="&lt;Path&gt;" class="s0" d="m169.6 173c8.7 8.6 13.9 17.4 11.6 19.6-2.2 2.3-11-2.9-19.6-11.6-8.6-8.6-11.6-19.6-11.6-19.6 0 0 11 3 19.6 11.6z"/>
		<path id="&lt;Path&gt;" class="s0" d="m296.1 156c0 12.2-2.5 22.1-5.6 22.1-3.2 0-5.7-9.9-5.7-22.1 0-12.2 5.7-22.1 5.7-22.1 0 0 5.6 9.9 5.6 22.1z"/>
		<path id="&lt;Path&gt;" class="s0" d="m246.5 305.9c0 12.2-2.5 22.1-5.6 22.1-3.2 0-5.7-9.9-5.7-22.1 0-12.2 5.7-22.1 5.7-22.1 0 0 5.6 9.9 5.6 22.1z"/>
		<path id="&lt;Path&gt;" class="s0" d="m279.6 329c-8.7 8.6-17.5 13.8-19.7 11.5-2.2-2.2 3-11 11.6-19.6 8.6-8.6 19.7-11.6 19.7-11.6 0 0-3 11-11.6 19.7z"/>
		<path id="&lt;Path&gt;" class="s0" d="m202.7 145.3c0 12.2-2.6 22-5.7 22-3.2 0-5.7-9.8-5.7-22 0-12.2 5.7-22.1 5.7-22.1 0 0 5.7 9.9 5.7 22.1z"/>
		<g id="&lt;Group&gt;">
			<path id="&lt;Path&gt;" class="s0" d="m315.9 133.7c0 4.1-3.3 7.5-7.5 7.5-4.2 0-7.6-3.4-7.6-7.5 0-4.2 3.4-7.6 7.6-7.6 4.2 0 7.5 3.4 7.5 7.6z"/>
			<path id="&lt;Path&gt;" class="s0" d="m303 128.4l5.4-5.2 5.4 5.2z"/>
		</g>
		<g id="&lt;Group&gt;">
			<path id="&lt;Path&gt;" class="s0" d="m184.2 115.6c0 4.2-3.3 7.6-7.5 7.6-4.2 0-7.6-3.4-7.6-7.6 0-4.1 3.4-7.5 7.6-7.5 4.2 0 7.5 3.4 7.5 7.5z"/>
			<path id="&lt;Path&gt;" class="s0" d="m171.3 110.4l5.4-5.3 5.4 5.3z"/>
		</g>
		<g id="&lt;Group&gt;">
			<path id="&lt;Path&gt;" class="s0" d="m153.8 106.4c2.9 3 2.9 7.8 0 10.7-3 3-7.7 3-10.7 0-2.9-2.9-2.9-7.7 0-10.7 3-2.9 7.7-2.9 10.7 0z"/>
			<path id="&lt;Path&gt;" class="s0" d="m140.9 111.9l0.1-7.5 7.6-0.1z"/>
		</g>
		<g id="&lt;Group&gt;">
			<path id="&lt;Path&gt;" class="s0" d="m339 147.4c-2.9 2.9-7.7 2.9-10.7 0-2.9-3-2.9-7.7 0-10.7 3-2.9 7.8-2.9 10.7 0 3 3 3 7.7 0 10.7z"/>
			<path id="&lt;Path&gt;" class="s0" d="m333.6 134.5l7.5 0.1 0.1 7.6z"/>
		</g>
		<g id="&lt;Group&gt;">
			<path id="&lt;Path&gt;" class="s0" d="m332.4 178.3c-4.2 0-7.5-3.4-7.5-7.5 0-4.2 3.3-7.6 7.5-7.6 4.2 0 7.6 3.4 7.6 7.6 0 4.1-3.4 7.5-7.6 7.5z"/>
			<path id="&lt;Path&gt;" class="s0" d="m337.7 165.4l5.2 5.4-5.2 5.4z"/>
		</g>
		<g id="&lt;Group&gt;">
			<path id="&lt;Path&gt;" class="s0" d="m309.9 240.2c-4.2 0-7.6-3.4-7.6-7.6 0-4.1 3.4-7.5 7.6-7.5 4.1 0 7.5 3.4 7.5 7.5 0 4.2-3.4 7.6-7.5 7.6z"/>
			<path id="&lt;Path&gt;" class="s0" d="m315.1 227.2l5.3 5.4-5.3 5.4z"/>
		</g>
		<g id="&lt;Group&gt;">
			<path id="&lt;Path&gt;" class="s0" d="m258.9 231.2c0 4.2-3.4 7.6-7.6 7.6-4.2 0-7.6-3.4-7.6-7.6 0-4.2 3.4-7.6 7.6-7.6 4.2 0 7.6 3.4 7.6 7.6z"/>
			<path id="&lt;Path&gt;" class="s0" d="m245.9 226l5.4-5.3 5.4 5.3z"/>
		</g>
		<g id="&lt;Group&gt;">
			<path id="&lt;Path&gt;" class="s0" d="m243.7 252.4c2.9 2.9 2.9 7.7 0 10.6-3 3-7.8 3-10.7 0-3-2.9-3-7.7 0-10.6 2.9-3 7.7-3 10.7 0z"/>
			<path id="&lt;Path&gt;" class="s0" d="m230.8 257.8l0.1-7.5 7.6-0.1z"/>
		</g>
		<g id="&lt;Group&gt;">
			<path id="&lt;Path&gt;" class="s0" d="m141 181.2c4.2 0 7.6 3.4 7.6 7.5 0 4.2-3.4 7.6-7.6 7.6-4.2 0-7.5-3.4-7.5-7.6 0-4.1 3.3-7.5 7.5-7.5z"/>
			<path id="&lt;Path&gt;" class="s0" d="m135.8 194.1l-5.3-5.4 5.3-5.4z"/>
		</g>
		<g id="&lt;Group&gt;">
			<path id="&lt;Path&gt;" class="s0" d="m151.4 134.6c4.2 0 7.6 3.4 7.6 7.6 0 4.1-3.4 7.5-7.6 7.5-4.2 0-7.5-3.4-7.5-7.5 0-4.2 3.3-7.6 7.5-7.6z"/>
			<path id="&lt;Path&gt;" class="s0" d="m146.2 147.6l-5.3-5.4 5.3-5.4z"/>
		</g>
	</g>
</svg>