<svg version="1.2" xmlns="http://www.w3.org/2000/svg" viewBox="0 0 480 480" width="480" height="480">
	<title>Flower</title>
	<style>
		.s0 { fill: #ffd72d } 
		.s1 { fill: #279245 } 
		.s2 { fill: #ffe161 } 
		.s3 { fill: #ffcd1c } 
	</style>
	<g id="&lt;Group&gt;">
		<g id="&lt;Group&gt;">
			<g id="&lt;Group&gt;">
				<path id="&lt;Path&gt;" class="s0" d="m177.4 212.5c-0.3-4.2 1-7.8 1-7.8 0 0 1.9 3.3 2.2 7.6 0.4 4.2-0.9 7.8-0.9 7.8 0 0-1.9-3.3-2.3-7.6z"/>
			</g>
			<g id="&lt;Group&gt;">
				<path id="&lt;Path&gt;" class="s0" d="m175 213.8c-1.8-3.9-1.8-7.8-1.8-7.8 0 0 2.9 2.5 4.7 6.4 1.8 3.9 1.8 7.7 1.8 7.7 0 0-2.9-2.4-4.7-6.3z"/>
			</g>
			<g id="&lt;Group&gt;">
				<path id="&lt;Path&gt;" class="s0" d="m173.1 215.8c-3-3.1-4.3-6.7-4.3-6.7 0 0 3.6 1.3 6.6 4.4 3 3 4.3 6.6 4.3 6.6 0 0-3.5-1.3-6.6-4.3z"/>
			</g>
			<g id="&lt;Group&gt;">
				<path id="&lt;Path&gt;" class="s0" d="m172.1 218.3c-3.9-1.9-6.4-4.8-6.4-4.8 0 0 3.9 0 7.7 1.9 3.9 1.8 6.4 4.7 6.4 4.7 0 0-3.9 0-7.7-1.8z"/>
			</g>
			<g id="&lt;Group&gt;">
				<path id="&lt;Path&gt;" class="s0" d="m183.2 213.1c1.2-4.2 0.5-7.9 0.5-7.9 0 0-2.4 2.9-3.6 7-1.1 4.2-0.4 7.9-0.4 7.9 0 0 2.4-2.9 3.5-7z"/>
			</g>
			<g id="&lt;Group&gt;">
				<path id="&lt;Path&gt;" class="s0" d="m185.4 214.7c2.5-3.5 3.2-7.2 3.2-7.2 0 0-3.3 1.9-5.8 5.4-2.5 3.5-3.2 7.2-3.2 7.2 0 0 3.3-1.9 5.8-5.4z"/>
			</g>
			<g id="&lt;Group&gt;">
				<path id="&lt;Path&gt;" class="s0" d="m186.9 217c3.5-2.4 5.5-5.7 5.5-5.7 0 0-3.8 0.6-7.3 3.1-3.6 2.4-5.5 5.7-5.5 5.7 0 0 3.8-0.6 7.3-3.1z"/>
			</g>
		</g>
		<g id="&lt;Group&gt;">
			<g id="&lt;Group&gt;">
				<path id="&lt;Path&gt;" class="s0" d="m196.2 212.8c-0.4-4.3 1-7.9 1-7.9 0 0 1.8 3.3 2.2 7.6 0.4 4.3-1 7.9-1 7.9 0 0-1.8-3.3-2.2-7.6z"/>
			</g>
			<g id="&lt;Group&gt;">
				<path id="&lt;Path&gt;" class="s0" d="m193.8 214c-1.8-3.9-1.8-7.7-1.8-7.7 0 0 2.9 2.5 4.7 6.4 1.8 3.9 1.8 7.7 1.8 7.7 0 0-2.9-2.5-4.7-6.4z"/>
			</g>
			<g id="&lt;Group&gt;">
				<path id="&lt;Path&gt;" class="s0" d="m191.9 216c-3-3-4.3-6.6-4.3-6.6 0 0 3.6 1.3 6.6 4.3 3 3.1 4.3 6.7 4.3 6.7 0 0-3.6-1.3-6.6-4.4z"/>
			</g>
			<g id="&lt;Group&gt;">
				<path id="&lt;Path&gt;" class="s0" d="m190.8 218.5c-3.9-1.8-6.3-4.7-6.3-4.7 0 0 3.8 0 7.7 1.8 3.9 1.8 6.3 4.8 6.3 4.8 0 0-3.8-0.1-7.7-1.9z"/>
			</g>
			<g id="&lt;Group&gt;">
				<path id="&lt;Path&gt;" class="s0" d="m202 213.3c1.1-4.1 0.5-7.9 0.5-7.9 0 0-2.5 2.9-3.6 7.1-1.1 4.1-0.5 7.9-0.5 7.9 0 0 2.5-2.9 3.6-7.1z"/>
			</g>
			<g id="&lt;Group&gt;">
				<path id="&lt;Path&gt;" class="s0" d="m204.2 215c2.5-3.5 3.2-7.3 3.2-7.3 0 0-3.4 1.9-5.8 5.4-2.5 3.5-3.2 7.3-3.2 7.3 0 0 3.3-1.9 5.8-5.4z"/>
			</g>
			<g id="&lt;Group&gt;">
				<path id="&lt;Path&gt;" class="s0" d="m205.7 217.3c3.5-2.5 5.4-5.8 5.4-5.8 0 0-3.8 0.7-7.3 3.1-3.5 2.5-5.4 5.8-5.4 5.8 0 0 3.7-0.7 7.3-3.1z"/>
			</g>
		</g>
		<g id="&lt;Group&gt;">
			<g id="&lt;Group&gt;">
				<path id="&lt;Path&gt;" class="s0" d="m244.6 144.8c-2.4-3.6-3.1-7.4-3.1-7.4 0 0 3.3 2 5.7 5.6 2.5 3.5 3.1 7.3 3.1 7.3 0 0-3.3-2-5.7-5.5z"/>
			</g>
			<g id="&lt;Group&gt;">
				<path id="&lt;Path&gt;" class="s0" d="m243.1 147c-3.5-2.5-5.4-5.8-5.4-5.8 0 0 3.8 0.7 7.2 3.2 3.5 2.5 5.4 5.9 5.4 5.9 0 0-3.8-0.8-7.2-3.3z"/>
			</g>
			<g id="&lt;Group&gt;">
				<path id="&lt;Path&gt;" class="s0" d="m242.4 149.7c-4.1-1.2-7-3.7-7-3.7 0 0 3.8-0.6 7.9 0.6 4.1 1.2 7 3.6 7 3.6 0 0-3.8 0.6-7.9-0.5z"/>
			</g>
			<g id="&lt;Group&gt;">
				<path id="&lt;Path&gt;" class="s0" d="m242.7 152.4c-4.3 0.3-7.8-1-7.8-1 0 0 3.3-1.9 7.6-2.2 4.3-0.3 7.8 1 7.8 1 0 0-3.3 1.9-7.6 2.2z"/>
			</g>
			<g id="&lt;Group&gt;">
				<path id="&lt;Path&gt;" class="s0" d="m249.9 142.4c-1-4.2-3.5-7.2-3.5-7.2 0 0-0.7 3.8 0.4 8 1 4.1 3.5 7.1 3.5 7.1 0 0 0.7-3.8-0.4-7.9z"/>
			</g>
			<g id="&lt;Group&gt;">
				<path id="&lt;Path&gt;" class="s0" d="m252.6 142.8c0.4-4.3-0.8-7.9-0.8-7.9 0 0-1.9 3.3-2.4 7.5-0.4 4.3 0.8 7.9 0.8 7.9 0 0 2-3.3 2.4-7.5z"/>
			</g>
			<g id="&lt;Group&gt;">
				<path id="&lt;Path&gt;" class="s0" d="m255 144c1.9-3.8 2-7.7 2-7.7 0 0-3 2.5-4.9 6.3-1.8 3.9-1.9 7.7-1.9 7.7 0 0 3-2.4 4.8-6.3z"/>
			</g>
		</g>
		<g id="&lt;Group&gt;">
			<g id="&lt;Group&gt;">
				<path id="&lt;Path&gt;" class="s0" d="m188.1 163c0.3-4.3 2.1-7.7 2.1-7.7 0 0 1.4 3.6 1.1 7.9-0.3 4.3-2.1 7.6-2.1 7.6 0 0-1.4-3.5-1.1-7.8z"/>
			</g>
			<g id="&lt;Group&gt;">
				<path id="&lt;Path&gt;" class="s0" d="m185.5 163.9c-1.2-4.2-0.7-8-0.7-8 0 0 2.6 2.9 3.8 7 1.2 4.2 0.6 8 0.6 8 0 0-2.5-2.9-3.7-7z"/>
			</g>
			<g id="&lt;Group&gt;">
				<path id="&lt;Path&gt;" class="s0" d="m183.4 165.6c-2.6-3.5-3.4-7.3-3.4-7.3 0 0 3.4 1.9 5.9 5.3 2.6 3.5 3.4 7.3 3.4 7.3 0 0-3.4-1.9-5.9-5.3z"/>
			</g>
			<g id="&lt;Group&gt;">
				<path id="&lt;Path&gt;" class="s0" d="m181.9 167.9c-3.5-2.4-5.6-5.7-5.6-5.7 0 0 3.8 0.6 7.4 3 3.6 2.4 5.6 5.6 5.6 5.6 0 0-3.8-0.5-7.4-2.9z"/>
			</g>
			<g id="&lt;Group&gt;">
				<path id="&lt;Path&gt;" class="s0" d="m193.7 164.4c1.8-4 1.7-7.8 1.7-7.8 0 0-2.9 2.6-4.6 6.5-1.7 3.9-1.6 7.7-1.6 7.7 0 0 2.8-2.5 4.5-6.4z"/>
			</g>
			<g id="&lt;Group&gt;">
				<path id="&lt;Path&gt;" class="s0" d="m195.7 166.3c2.9-3.1 4.1-6.7 4.1-6.7 0 0-3.5 1.4-6.5 4.5-2.9 3.1-4.2 6.7-4.2 6.7 0 0 3.6-1.4 6.6-4.5z"/>
			</g>
			<g id="&lt;Group&gt;">
				<path id="&lt;Path&gt;" class="s0" d="m196.8 168.8c3.8-1.9 6.2-4.9 6.2-4.9 0 0-3.8 0.1-7.6 2-3.9 1.9-6.3 4.9-6.3 4.9 0 0 3.8-0.1 7.7-2z"/>
			</g>
		</g>
		<g id="&lt;Group&gt;">
			<g id="&lt;Group&gt;">
				<path id="&lt;Path&gt;" class="s0" d="m167.9 183.3c-4-1.6-6.7-4.4-6.7-4.4 0 0 3.9-0.2 7.9 1.4 3.9 1.6 6.6 4.3 6.6 4.3 0 0-3.8 0.3-7.8-1.3z"/>
			</g>
			<g id="&lt;Group&gt;">
				<path id="&lt;Path&gt;" class="s0" d="m167.9 186c-4.3-0.1-7.7-1.8-7.7-1.8 0 0 3.5-1.5 7.8-1.4 4.3 0.1 7.7 1.8 7.7 1.8 0 0-3.5 1.5-7.8 1.4z"/>
			</g>
			<g id="&lt;Group&gt;">
				<path id="&lt;Path&gt;" class="s0" d="m168.9 188.6c-4.1 1.3-7.9 0.9-7.9 0.9 0 0 2.8-2.6 6.8-4 4.1-1.3 7.9-0.9 7.9-0.9 0 0-2.8 2.6-6.8 4z"/>
			</g>
			<g id="&lt;Group&gt;">
				<path id="&lt;Path&gt;" class="s0" d="m170.6 190.6c-3.3 2.7-7.1 3.6-7.1 3.6 0 0 1.8-3.4 5.1-6.1 3.4-2.6 7.1-3.5 7.1-3.5 0 0-1.7 3.4-5.1 6z"/>
			</g>
			<g id="&lt;Group&gt;">
				<path id="&lt;Path&gt;" class="s0" d="m170.9 178.3c-3.2-2.8-6.8-3.9-6.8-3.9 0 0 1.5 3.5 4.7 6.3 3.2 2.9 6.9 4 6.9 4 0 0-1.5-3.5-4.8-6.4z"/>
			</g>
			<g id="&lt;Group&gt;">
				<path id="&lt;Path&gt;" class="s0" d="m173.4 177.1c-2-3.8-5.1-6.1-5.1-6.1 0 0 0.2 3.9 2.3 7.6 2 3.8 5.1 6.1 5.1 6.1 0 0-0.3-3.8-2.3-7.6z"/>
			</g>
			<g id="&lt;Group&gt;">
				<path id="&lt;Path&gt;" class="s0" d="m176.1 176.8c-0.6-4.2-2.7-7.4-2.7-7.4 0 0-1.1 3.6-0.5 7.9 0.7 4.2 2.7 7.4 2.7 7.4 0 0 1.1-3.7 0.5-7.9z"/>
			</g>
		</g>
		<g id="&lt;Group&gt;">
			<g id="&lt;Group&gt;">
				<path id="&lt;Path&gt;" class="s0" d="m152.1 251.6c-4.2-0.8-7.3-3-7.3-3 0 0 3.7-0.9 7.9-0.1 4.2 0.8 7.3 3 7.3 3 0 0-3.7 0.9-7.9 0.1z"/>
			</g>
			<g id="&lt;Group&gt;">
				<path id="&lt;Path&gt;" class="s0" d="m152.6 254.2c-4.3 0.6-8-0.4-8-0.4 0 0 3.2-2.1 7.5-2.7 4.2-0.6 7.9 0.4 7.9 0.4 0 0-3.2 2-7.4 2.7z"/>
			</g>
			<g id="&lt;Group&gt;">
				<path id="&lt;Path&gt;" class="s0" d="m153.9 256.4c-3.7 2-7.5 2.3-7.5 2.3 0 0 2.2-3 6-5 3.8-2 7.6-2.2 7.6-2.2 0 0-2.3 2.9-6.1 4.9z"/>
			</g>
			<g id="&lt;Group&gt;">
				<path id="&lt;Path&gt;" class="s0" d="m156.1 258.1c-2.9 3.1-6.4 4.6-6.4 4.6 0 0 1.1-3.5 4-6.7 2.8-3.1 6.3-4.6 6.3-4.6 0 0-1.1 3.6-3.9 6.7z"/>
			</g>
			<g id="&lt;Group&gt;">
				<path id="&lt;Path&gt;" class="s0" d="m154.2 246.3c-3.6-2.1-7.4-2.5-7.4-2.5 0 0 2.1 3 5.7 5.2 3.7 2.1 7.5 2.5 7.5 2.5 0 0-2.1-3-5.8-5.2z"/>
			</g>
			<g id="&lt;Group&gt;">
				<path id="&lt;Path&gt;" class="s0" d="m156.4 244.8c-2.7-3.3-6.1-4.9-6.1-4.9 0 0 0.9 3.6 3.6 6.8 2.7 3.2 6.1 4.9 6.1 4.9 0 0-0.9-3.6-3.6-6.8z"/>
			</g>
			<g id="&lt;Group&gt;">
				<path id="&lt;Path&gt;" class="s0" d="m159 244c-1.3-3.9-3.9-6.6-3.9-6.6 0 0-0.5 3.7 0.9 7.6 1.3 3.9 4 6.6 4 6.6 0 0 0.4-3.7-1-7.6z"/>
			</g>
		</g>
		<g id="&lt;Group&gt;">
			<g id="&lt;Group&gt;">
				<path id="&lt;Path&gt;" class="s0" d="m325.1 220.7c3.2-2.8 6.8-4 6.8-4 0 0-1.6 3.5-4.8 6.4-3.1 2.9-6.7 4-6.7 4 0 0 1.5-3.5 4.7-6.4z"/>
			</g>
			<g id="&lt;Group&gt;">
				<path id="&lt;Path&gt;" class="s0" d="m322.7 219.6c2.1-3.8 5.1-6.1 5.1-6.1 0 0-0.3 3.8-2.3 7.5-2.1 3.8-5.1 6.1-5.1 6.1 0 0 0.3-3.7 2.3-7.5z"/>
			</g>
			<g id="&lt;Group&gt;">
				<path id="&lt;Path&gt;" class="s0" d="m320.1 219.3c0.7-4.2 2.8-7.4 2.8-7.4 0 0 0.9 3.6 0.3 7.8-0.7 4.3-2.8 7.5-2.8 7.5 0 0-1-3.7-0.3-7.9z"/>
			</g>
			<g id="&lt;Group&gt;">
				<path id="&lt;Path&gt;" class="s0" d="m317.5 220c-0.8-4.1 0.1-7.8 0.1-7.8 0 0 2.2 3 3 7.1 0.7 4.2-0.2 7.9-0.2 7.9 0 0-2.1-3-2.9-7.2z"/>
			</g>
			<g id="&lt;Group&gt;">
				<path id="&lt;Path&gt;" class="s0" d="m328 225.6c3.9-1.6 6.5-4.4 6.5-4.4 0 0-3.7-0.2-7.6 1.5-3.9 1.6-6.5 4.4-6.5 4.4 0 0 3.7 0.1 7.6-1.5z"/>
			</g>
			<g id="&lt;Group&gt;">
				<path id="&lt;Path&gt;" class="s0" d="m327.9 228.3c4.2-0.2 7.6-1.9 7.6-1.9 0 0-3.4-1.5-7.6-1.3-4.2 0.2-7.6 2-7.6 2 0 0 3.4 1.4 7.6 1.2z"/>
			</g>
			<g id="&lt;Group&gt;">
				<path id="&lt;Path&gt;" class="s0" d="m327 230.9c3.9 1.2 7.6 0.7 7.6 0.7 0 0-2.7-2.5-6.6-3.8-4-1.2-7.7-0.8-7.7-0.8 0 0 2.7 2.6 6.7 3.9z"/>
			</g>
		</g>
		<g id="&lt;Group&gt;">
			<g id="&lt;Group&gt;">
				<path id="&lt;Path&gt;" class="s0" d="m288.3 145.4c2.7-3.3 6.1-5 6.1-5 0 0-1 3.7-3.7 7-2.7 3.3-6.1 5-6.1 5 0 0 1-3.7 3.7-7z"/>
			</g>
			<g id="&lt;Group&gt;">
				<path id="&lt;Path&gt;" class="s0" d="m285.8 144.6c1.4-4 4.1-6.8 4.1-6.8 0 0 0.3 3.8-1.2 7.9-1.5 4-4.1 6.7-4.1 6.7 0 0-0.3-3.7 1.2-7.8z"/>
			</g>
			<g id="&lt;Group&gt;">
				<path id="&lt;Path&gt;" class="s0" d="m283.1 144.8c0.1-4.3 1.6-7.8 1.6-7.8 0 0 1.6 3.4 1.5 7.7 0 4.3-1.6 7.8-1.6 7.8 0 0-1.5-3.5-1.5-7.7z"/>
			</g>
			<g id="&lt;Group&gt;">
				<path id="&lt;Path&gt;" class="s0" d="m280.7 145.8c-1.4-3.9-1.1-7.7-1.1-7.7 0 0 2.6 2.6 4 6.6 1.4 4 1.1 7.8 1.1 7.8 0 0-2.6-2.7-4-6.7z"/>
			</g>
			<g id="&lt;Group&gt;">
				<path id="&lt;Path&gt;" class="s0" d="m291.9 149.8c3.6-2.2 5.8-5.4 5.8-5.4 0 0-3.7 0.4-7.3 2.7-3.7 2.2-5.8 5.3-5.8 5.3 0 0 3.7-0.4 7.3-2.6z"/>
			</g>
			<g id="&lt;Group&gt;">
				<path id="&lt;Path&gt;" class="s0" d="m292.2 152.5c4.1-0.9 7.2-3.1 7.2-3.1 0 0-3.6-0.9-7.7-0.1-4.1 0.9-7.2 3.1-7.2 3.1 0 0 3.6 0.9 7.7 0.1z"/>
			</g>
			<g id="&lt;Group&gt;">
				<path id="&lt;Path&gt;" class="s0" d="m291.7 155.1c4.1 0.7 7.7-0.3 7.7-0.3 0 0-3.1-2.2-7.2-2.8-4.1-0.7-7.7 0.4-7.7 0.4 0 0 3.1 2.1 7.2 2.7z"/>
			</g>
		</g>
		<g id="&lt;Group&gt;">
			<g id="&lt;Group&gt;">
				<path id="&lt;Path&gt;" class="s0" d="m180.1 237.9c0.2 4.3-1.2 7.9-1.2 7.9 0 0-1.8-3.4-2-7.7-0.2-4.3 1.2-7.8 1.2-7.8 0 0 1.8 3.4 2 7.6z"/>
			</g>
			<g id="&lt;Group&gt;">
				<path id="&lt;Path&gt;" class="s0" d="m182.6 236.8c1.6 4 1.5 7.8 1.5 7.8 0 0-2.8-2.6-4.5-6.6-1.6-3.9-1.5-7.7-1.5-7.7 0 0 2.8 2.5 4.5 6.5z"/>
			</g>
			<g id="&lt;Group&gt;">
				<path id="&lt;Path&gt;" class="s0" d="m184.5 234.9c2.9 3.1 4.1 6.8 4.1 6.8 0 0-3.5-1.5-6.4-4.6-3-3.2-4.2-6.8-4.2-6.8 0 0 3.6 1.4 6.5 4.6z"/>
			</g>
			<g id="&lt;Group&gt;">
				<path id="&lt;Path&gt;" class="s0" d="m185.7 232.4c3.8 2 6.1 5 6.1 5 0 0-3.8-0.2-7.6-2.1-3.8-2-6.2-5-6.2-5 0 0 3.8 0.1 7.7 2.1z"/>
			</g>
			<g id="&lt;Group&gt;">
				<path id="&lt;Path&gt;" class="s0" d="m174.3 237.2c-1.3 4.1-0.7 7.9-0.7 7.9 0 0 2.5-2.8 3.8-6.9 1.2-4.1 0.7-7.9 0.7-7.9 0 0-2.5 2.8-3.8 6.9z"/>
			</g>
			<g id="&lt;Group&gt;">
				<path id="&lt;Path&gt;" class="s0" d="m172.2 235.5c-2.6 3.4-3.4 7.1-3.4 7.1 0 0 3.4-1.8 6-5.2 2.6-3.4 3.4-7.1 3.4-7.1 0 0-3.4 1.8-6 5.2z"/>
			</g>
			<g id="&lt;Group&gt;">
				<path id="&lt;Path&gt;" class="s0" d="m170.8 233.1c-3.6 2.4-5.7 5.6-5.7 5.6 0 0 3.8-0.5 7.4-2.9 3.7-2.3 5.7-5.5 5.7-5.5 0 0-3.8 0.5-7.4 2.8z"/>
			</g>
		</g>
		<g id="&lt;Group&gt;">
			<g id="&lt;Group&gt;">
				<path id="&lt;Path&gt;" class="s0" d="m211.9 243.6c0.2 4.3-1.2 7.9-1.2 7.9 0 0-1.8-3.4-2-7.7-0.2-4.3 1.2-7.9 1.2-7.9 0 0 1.8 3.4 2 7.7z"/>
			</g>
			<g id="&lt;Group&gt;">
				<path id="&lt;Path&gt;" class="s0" d="m214.4 242.5c1.6 3.9 1.5 7.8 1.5 7.8 0 0-2.8-2.6-4.5-6.6-1.6-3.9-1.5-7.8-1.5-7.8 0 0 2.8 2.6 4.5 6.6z"/>
			</g>
			<g id="&lt;Group&gt;">
				<path id="&lt;Path&gt;" class="s0" d="m216.3 240.5c2.9 3.2 4.1 6.8 4.1 6.8 0 0-3.5-1.4-6.4-4.6-3-3.1-4.1-6.8-4.1-6.8 0 0 3.5 1.5 6.4 4.6z"/>
			</g>
			<g id="&lt;Group&gt;">
				<path id="&lt;Path&gt;" class="s0" d="m217.5 238.1c3.8 1.9 6.1 5 6.1 5 0 0-3.8-0.2-7.6-2.2-3.8-1.9-6.2-4.9-6.2-4.9 0 0 3.9 0.1 7.7 2.1z"/>
			</g>
			<g id="&lt;Group&gt;">
				<path id="&lt;Path&gt;" class="s0" d="m206.1 242.9c-1.2 4.1-0.7 7.9-0.7 7.9 0 0 2.5-2.9 3.8-7 1.3-4.1 0.7-7.9 0.7-7.9 0 0-2.5 2.9-3.8 7z"/>
			</g>
			<g id="&lt;Group&gt;">
				<path id="&lt;Path&gt;" class="s0" d="m204 241.2c-2.6 3.4-3.4 7.1-3.4 7.1 0 0 3.4-1.8 6-5.2 2.6-3.4 3.4-7.2 3.4-7.2 0 0-3.4 1.8-6 5.3z"/>
			</g>
			<g id="&lt;Group&gt;">
				<path id="&lt;Path&gt;" class="s0" d="m202.6 238.8c-3.6 2.3-5.6 5.6-5.6 5.6 0 0 3.7-0.6 7.4-2.9 3.6-2.3 5.6-5.5 5.6-5.5 0 0-3.8 0.5-7.4 2.8z"/>
			</g>
		</g>
		<g id="&lt;Group&gt;">
			<g id="&lt;Group&gt;">
				<path id="&lt;Path&gt;" class="s0" d="m288.9 228.9c0.2 4.3-1.2 7.8-1.2 7.8 0 0-1.8-3.4-2-7.7-0.2-4.3 1.2-7.8 1.2-7.8 0 0 1.8 3.4 2 7.7z"/>
			</g>
			<g id="&lt;Group&gt;">
				<path id="&lt;Path&gt;" class="s0" d="m291.4 227.7c1.6 4 1.5 7.8 1.5 7.8 0 0-2.8-2.6-4.5-6.5-1.7-4-1.5-7.8-1.5-7.8 0 0 2.8 2.6 4.5 6.5z"/>
			</g>
			<g id="&lt;Group&gt;">
				<path id="&lt;Path&gt;" class="s0" d="m293.3 225.8c2.9 3.1 4.1 6.8 4.1 6.8 0 0-3.5-1.5-6.5-4.6-2.9-3.2-4.1-6.8-4.1-6.8 0 0 3.6 1.4 6.5 4.6z"/>
			</g>
			<g id="&lt;Group&gt;">
				<path id="&lt;Path&gt;" class="s0" d="m294.5 223.3c3.8 2 6.1 5 6.1 5 0 0-3.8-0.2-7.6-2.1-3.8-2-6.2-5-6.2-5 0 0 3.8 0.2 7.7 2.1z"/>
			</g>
			<g id="&lt;Group&gt;">
				<path id="&lt;Path&gt;" class="s0" d="m283.1 228.1c-1.3 4.1-0.7 7.9-0.7 7.9 0 0 2.5-2.8 3.8-6.9 1.2-4.1 0.7-7.9 0.7-7.9 0 0-2.5 2.8-3.8 6.9z"/>
			</g>
			<g id="&lt;Group&gt;">
				<path id="&lt;Path&gt;" class="s0" d="m281 226.4c-2.6 3.4-3.4 7.2-3.4 7.2 0 0 3.4-1.8 6-5.3 2.5-3.4 3.4-7.1 3.4-7.1 0 0-3.4 1.8-6 5.2z"/>
			</g>
			<g id="&lt;Group&gt;">
				<path id="&lt;Path&gt;" class="s0" d="m279.6 224.1c-3.6 2.3-5.7 5.5-5.7 5.5 0 0 3.8-0.5 7.4-2.8 3.6-2.4 5.7-5.6 5.7-5.6 0 0-3.8 0.5-7.4 2.9z"/>
			</g>
		</g>
		<g id="&lt;Group&gt;">
			<g id="&lt;Group&gt;">
				<path id="&lt;Path&gt;" class="s0" d="m263.3 159.6c0.2 4.3-1.2 7.8-1.2 7.8 0 0-1.8-3.4-2-7.7-0.2-4.2 1.2-7.8 1.2-7.8 0 0 1.8 3.4 2 7.7z"/>
			</g>
			<g id="&lt;Group&gt;">
				<path id="&lt;Path&gt;" class="s0" d="m265.8 158.4c1.6 4 1.5 7.8 1.5 7.8 0 0-2.8-2.6-4.5-6.5-1.7-4-1.5-7.8-1.5-7.8 0 0 2.8 2.6 4.5 6.5z"/>
			</g>
			<g id="&lt;Group&gt;">
				<path id="&lt;Path&gt;" class="s0" d="m267.7 156.5c2.9 3.1 4.1 6.8 4.1 6.8 0 0-3.5-1.5-6.4-4.6-3-3.2-4.2-6.8-4.2-6.8 0 0 3.6 1.5 6.5 4.6z"/>
			</g>
			<g id="&lt;Group&gt;">
				<path id="&lt;Path&gt;" class="s0" d="m268.9 154c3.8 2 6.1 5 6.1 5 0 0-3.8-0.2-7.6-2.1-3.8-2-6.2-5-6.2-5 0 0 3.8 0.2 7.7 2.1z"/>
			</g>
			<g id="&lt;Group&gt;">
				<path id="&lt;Path&gt;" class="s0" d="m257.5 158.8c-1.3 4.1-0.7 7.9-0.7 7.9 0 0 2.5-2.8 3.8-6.9 1.2-4.1 0.7-7.9 0.7-7.9 0 0-2.5 2.8-3.8 6.9z"/>
			</g>
			<g id="&lt;Group&gt;">
				<path id="&lt;Path&gt;" class="s0" d="m255.4 157.1c-2.6 3.4-3.4 7.2-3.4 7.2 0 0 3.4-1.8 6-5.2 2.6-3.5 3.4-7.2 3.4-7.2 0 0-3.4 1.8-6 5.2z"/>
			</g>
			<g id="&lt;Group&gt;">
				<path id="&lt;Path&gt;" class="s0" d="m254 154.8c-3.6 2.3-5.7 5.5-5.7 5.5 0 0 3.8-0.5 7.4-2.8 3.6-2.4 5.7-5.6 5.7-5.6 0 0-3.8 0.5-7.4 2.9z"/>
			</g>
		</g>
		<g id="&lt;Group&gt;">
			<path id="&lt;Path&gt;" class="s1" d="m251.4 407c-9.4-112.7-22.3-234.3-47.2-282.3l9.8-5c25.7 49.7 38.9 172.6 48.4 286.4z"/>
		</g>
		<g id="&lt;Group&gt;">
			<path id="&lt;Path&gt;" class="s1" d="m224.7 189.5c-14-16.9-34.4-13.3-49.1-7.3l-4.1-10.2c25.5-10.4 47.4-6.7 61.7 10.4z"/>
		</g>
		<g id="&lt;Group&gt;">
			<path id="&lt;Path&gt;" class="s1" d="m231.6 175.2l-10.1-4.4c6-14.1 26.5-28.9 47.4-28.3l-0.3 11c-15.7-0.5-32.5 11.1-37 21.7z"/>
		</g>
		<g id="&lt;Group&gt;">
			<path id="&lt;Path&gt;" class="s1" d="m235.1 249.7c-15.7-21-45.2-18.7-60.2-10.6l-5.2-9.6c18.3-10 54.6-12.6 74.2 13.6z"/>
		</g>
		<g id="&lt;Group&gt;">
			<path id="&lt;Path&gt;" class="s1" d="m243.7 250.9l-7.6-8c16.5-15.5 41-35.2 63.9-27.4l-3.5 10.4c-17.3-5.8-38.4 11.5-52.8 25z"/>
		</g>
		<g id="&lt;Group&gt;">
			<path id="&lt;Path&gt;" class="s1" d="m273.8 342.2c-7.8 8.2-16.5 19.2-16.5 19.8 0 1-8.6-15.5 3.7-30.6 12.8-14.6 30.5-8.8 29.5-8.7-0.5 0.1-10 10.6-16.7 19.5z"/>
		</g>
		<g id="&lt;Group&gt;">
			<path id="&lt;Path&gt;" class="s1" d="m233.3 373.7c9 6.8 19.4 16.2 19.5 16.7 0.1 1 5.9-16.7-8.7-29.5-15.1-12.3-31.6-3.6-30.6-3.7 0.6 0 11.6 8.7 19.8 16.5z"/>
		</g>
		<g id="&lt;Group&gt;">
			<path id="&lt;Path&gt;" class="s1" d="m231.7 314.4c7.2 5.5 15.7 13.1 15.7 13.5 0.2 0.8 4.8-13.5-7-23.8-12.1-10-25.5-3-24.7-3 0.5 0 9.4 7 16 13.3z"/>
		</g>
		<g id="&lt;Group&gt;">
			<path id="&lt;Path&gt;" class="s1" d="m260.1 292.4c4-5.3 9.5-11.4 9.8-11.4 0.6-0.1-9.8-3.5-17.3 5-7.1 8.9-2.1 18.5-2.1 17.9 0-0.3 5.1-6.7 9.6-11.5z"/>
		</g>
		<g id="&lt;Group&gt;">
			<g id="&lt;Group&gt;">
				<path id="&lt;Path&gt;" class="s2" d="m196.1 118.5c-0.2-2.4 0.6-4.5 0.6-4.5 0 0 1.1 1.9 1.3 4.4 0.2 2.5-0.6 4.5-0.6 4.5 0 0-1.1-1.9-1.3-4.4z"/>
			</g>
			<g id="&lt;Group&gt;">
				<path id="&lt;Path&gt;" class="s2" d="m194.4 119.7c-1.4-2.1-1.8-4.2-1.8-4.2 0 0 1.9 1.1 3.3 3.1 1.4 2.1 1.8 4.2 1.8 4.2 0 0-1.9-1.1-3.3-3.1z"/>
			</g>
			<g id="&lt;Group&gt;">
				<path id="&lt;Path&gt;" class="s2" d="m193.4 121.5c-2.2-1-3.6-2.7-3.6-2.7 0 0 2.2 0 4.4 1.1 2.3 1 3.7 2.7 3.7 2.7 0 0-2.2 0-4.5-1.1z"/>
			</g>
			<g id="&lt;Group&gt;">
				<path id="&lt;Path&gt;" class="s2" d="m193.5 123.6c-2.4 0.2-4.5-0.5-4.5-0.5 0 0 1.9-1.1 4.4-1.3 2.5-0.2 4.5 0.5 4.5 0.5 0 0-1.9 1.1-4.4 1.3z"/>
			</g>
			<g id="&lt;Group&gt;">
				<path id="&lt;Path&gt;" class="s2" d="m194.7 125.4c-2.1 1.4-4.2 1.8-4.2 1.8 0 0 1.1-2 3.1-3.4 2.1-1.4 4.2-1.8 4.2-1.8 0 0-1.1 1.9-3.1 3.4z"/>
			</g>
			<g id="&lt;Group&gt;">
				<path id="&lt;Path&gt;" class="s2" d="m196.5 126.3c-1 2.2-2.7 3.7-2.7 3.7 0 0 0-2.2 1.1-4.5 1-2.2 2.7-3.7 2.7-3.7 0 0 0 2.3-1.1 4.5z"/>
			</g>
			<g id="&lt;Group&gt;">
				<path id="&lt;Path&gt;" class="s2" d="m198.6 126.2c0.2 2.5-0.5 4.5-0.5 4.5 0 0-1.1-1.9-1.3-4.4-0.2-2.4 0.5-4.5 0.5-4.5 0 0 1.1 1.9 1.3 4.4z"/>
			</g>
			<g id="&lt;Group&gt;">
				<path id="&lt;Path&gt;" class="s2" d="m200.4 125c1.4 2.1 1.8 4.3 1.8 4.3 0 0-1.9-1.2-3.4-3.2-1.4-2-1.8-4.2-1.8-4.2 0 0 2 1.1 3.4 3.1z"/>
			</g>
			<g id="&lt;Group&gt;">
				<path id="&lt;Path&gt;" class="s2" d="m201.3 123.2c2.3 1 3.7 2.7 3.7 2.7 0 0-2.2 0-4.5-1-2.2-1.1-3.7-2.8-3.7-2.8 0 0 2.3 0 4.5 1.1z"/>
			</g>
			<g id="&lt;Group&gt;">
				<path id="&lt;Path&gt;" class="s2" d="m201.2 121.1c2.5-0.2 4.5 0.6 4.5 0.6 0 0-1.9 1.1-4.3 1.3-2.5 0.2-4.6-0.6-4.6-0.6 0 0 1.9-1.1 4.4-1.3z"/>
			</g>
			<g id="&lt;Group&gt;">
				<path id="&lt;Path&gt;" class="s2" d="m200.1 119.4c2-1.4 4.2-1.8 4.2-1.8 0 0-1.1 1.9-3.2 3.3-2 1.4-4.2 1.8-4.2 1.8 0 0 1.1-1.9 3.2-3.3z"/>
			</g>
			<g id="&lt;Group&gt;">
				<path id="&lt;Path&gt;" class="s2" d="m198.2 118.4c1.1-2.2 2.8-3.6 2.8-3.6 0 0-0.1 2.2-1.1 4.4-1.1 2.3-2.8 3.7-2.8 3.7 0 0 0-2.2 1.1-4.5z"/>
			</g>
			<g id="&lt;Group&gt;">
				<path id="&lt;Path&gt;" class="s3" d="m199.9 122.2c0.1 1.3-0.9 2.6-2.3 2.7-1.4 0.1-2.6-0.9-2.7-2.3-0.2-1.4 0.9-2.6 2.3-2.7 1.4-0.2 2.6 0.9 2.7 2.3z"/>
			</g>
		</g>
		<g id="&lt;Group&gt;">
			<g id="&lt;Group&gt;">
				<path id="&lt;Path&gt;" class="s2" d="m211.4 113.9c-0.2-2.5 0.5-4.6 0.5-4.6 0 0 1.1 1.9 1.3 4.4 0.3 2.5-0.5 4.6-0.5 4.6 0 0-1.1-2-1.3-4.4z"/>
			</g>
			<g id="&lt;Group&gt;">
				<path id="&lt;Path&gt;" class="s2" d="m209.7 115c-1.5-2-1.8-4.2-1.8-4.2 0 0 1.9 1.1 3.3 3.1 1.4 2.1 1.8 4.3 1.8 4.3 0 0-1.9-1.2-3.3-3.2z"/>
			</g>
			<g id="&lt;Group&gt;">
				<path id="&lt;Path&gt;" class="s2" d="m208.7 116.9c-2.2-1.1-3.7-2.8-3.7-2.8 0 0 2.3 0 4.5 1.1 2.2 1 3.7 2.7 3.7 2.7 0 0-2.2 0-4.5-1z"/>
			</g>
			<g id="&lt;Group&gt;">
				<path id="&lt;Path&gt;" class="s2" d="m208.8 118.9c-2.4 0.2-4.5-0.5-4.5-0.5 0 0 1.9-1.1 4.4-1.3 2.4-0.2 4.5 0.5 4.5 0.5 0 0-1.9 1.1-4.4 1.3z"/>
			</g>
			<g id="&lt;Group&gt;">
				<path id="&lt;Path&gt;" class="s2" d="m210 120.7c-2.1 1.4-4.3 1.8-4.3 1.8 0 0 1.2-1.9 3.2-3.3 2-1.5 4.2-1.8 4.2-1.8 0 0-1.1 1.9-3.1 3.3z"/>
			</g>
			<g id="&lt;Group&gt;">
				<path id="&lt;Path&gt;" class="s2" d="m211.8 121.6c-1 2.3-2.7 3.7-2.7 3.7 0 0 0-2.2 1-4.5 1.1-2.2 2.8-3.6 2.8-3.6 0 0 0 2.2-1.1 4.4z"/>
			</g>
			<g id="&lt;Group&gt;">
				<path id="&lt;Path&gt;" class="s2" d="m213.9 121.5c0.2 2.5-0.6 4.6-0.6 4.6 0 0-1-2-1.3-4.4-0.2-2.5 0.6-4.6 0.6-4.6 0 0 1.1 1.9 1.3 4.4z"/>
			</g>
			<g id="&lt;Group&gt;">
				<path id="&lt;Path&gt;" class="s2" d="m215.6 120.4c1.5 2 1.8 4.2 1.8 4.2 0 0-1.9-1.1-3.3-3.2-1.4-2-1.8-4.2-1.8-4.2 0 0 1.9 1.1 3.3 3.2z"/>
			</g>
			<g id="&lt;Group&gt;">
				<path id="&lt;Path&gt;" class="s2" d="m216.6 118.5c2.2 1.1 3.7 2.8 3.7 2.8 0 0-2.3 0-4.5-1.1-2.3-1.1-3.7-2.8-3.7-2.8 0 0 2.2 0.1 4.5 1.1z"/>
			</g>
			<g id="&lt;Group&gt;">
				<path id="&lt;Path&gt;" class="s2" d="m216.5 116.4c2.4-0.2 4.5 0.6 4.5 0.6 0 0-1.9 1.1-4.4 1.3-2.4 0.2-4.5-0.6-4.5-0.6 0 0 1.9-1.1 4.4-1.3z"/>
			</g>
			<g id="&lt;Group&gt;">
				<path id="&lt;Path&gt;" class="s2" d="m215.3 114.7c2.1-1.4 4.3-1.8 4.3-1.8 0 0-1.2 1.9-3.2 3.3-2 1.4-4.2 1.8-4.2 1.8 0 0 1.1-1.9 3.1-3.3z"/>
			</g>
			<g id="&lt;Group&gt;">
				<path id="&lt;Path&gt;" class="s2" d="m213.5 113.8c1-2.3 2.7-3.7 2.7-3.7 0 0 0 2.2-1 4.4-1.1 2.3-2.8 3.7-2.8 3.7 0 0 0-2.2 1.1-4.4z"/>
			</g>
			<g id="&lt;Group&gt;">
				<path id="&lt;Path&gt;" class="s3" d="m215.2 117.5c0.1 1.4-1 2.6-2.3 2.7-1.4 0.1-2.6-0.9-2.8-2.3-0.1-1.4 1-2.6 2.3-2.7 1.4-0.1 2.6 0.9 2.8 2.3z"/>
			</g>
		</g>
		<g id="&lt;Group&gt;">
			<g id="&lt;Group&gt;">
				<path id="&lt;Path&gt;" class="s2" d="m201.6 106.8c-0.2-2.4 0.6-4.5 0.6-4.5 0 0 1.1 1.9 1.3 4.4 0.2 2.4-0.6 4.5-0.6 4.5 0 0-1.1-1.9-1.3-4.4z"/>
			</g>
			<g id="&lt;Group&gt;">
				<path id="&lt;Path&gt;" class="s2" d="m199.9 108c-1.4-2.1-1.8-4.3-1.8-4.3 0 0 1.9 1.2 3.3 3.2 1.4 2 1.8 4.2 1.8 4.2 0 0-1.9-1.1-3.3-3.1z"/>
			</g>
			<g id="&lt;Group&gt;">
				<path id="&lt;Path&gt;" class="s2" d="m198.9 109.8c-2.2-1-3.6-2.7-3.6-2.7 0 0 2.2 0 4.4 1 2.3 1.1 3.7 2.8 3.7 2.8 0 0-2.2 0-4.5-1.1z"/>
			</g>
			<g id="&lt;Group&gt;">
				<path id="&lt;Path&gt;" class="s2" d="m199.1 111.9c-2.5 0.2-4.6-0.6-4.6-0.6 0 0 1.9-1 4.4-1.3 2.5-0.2 4.6 0.6 4.6 0.6 0 0-2 1.1-4.4 1.3z"/>
			</g>
			<g id="&lt;Group&gt;">
				<path id="&lt;Path&gt;" class="s2" d="m200.2 113.6c-2 1.5-4.2 1.8-4.2 1.8 0 0 1.1-1.9 3.1-3.3 2.1-1.4 4.3-1.8 4.3-1.8 0 0-1.2 1.9-3.2 3.3z"/>
			</g>
			<g id="&lt;Group&gt;">
				<path id="&lt;Path&gt;" class="s2" d="m202 114.6c-1 2.2-2.7 3.7-2.7 3.7 0 0 0-2.3 1.1-4.5 1-2.3 2.7-3.7 2.7-3.7 0 0 0 2.2-1.1 4.5z"/>
			</g>
			<g id="&lt;Group&gt;">
				<path id="&lt;Path&gt;" class="s2" d="m204.1 114.5c0.2 2.4-0.5 4.5-0.5 4.5 0 0-1.1-1.9-1.3-4.4-0.2-2.4 0.5-4.5 0.5-4.5 0 0 1.1 1.9 1.3 4.4z"/>
			</g>
			<g id="&lt;Group&gt;">
				<path id="&lt;Path&gt;" class="s2" d="m205.9 113.3c1.4 2.1 1.8 4.3 1.8 4.3 0 0-1.9-1.2-3.4-3.2-1.4-2-1.8-4.2-1.8-4.2 0 0 2 1.1 3.4 3.1z"/>
			</g>
			<g id="&lt;Group&gt;">
				<path id="&lt;Path&gt;" class="s2" d="m206.8 111.5c2.3 1 3.7 2.7 3.7 2.7 0 0-2.2 0-4.5-1-2.2-1.1-3.6-2.8-3.6-2.8 0 0 2.2 0 4.4 1.1z"/>
			</g>
			<g id="&lt;Group&gt;">
				<path id="&lt;Path&gt;" class="s2" d="m206.7 109.4c2.5-0.2 4.6 0.5 4.6 0.5 0 0-2 1.1-4.4 1.3-2.5 0.3-4.6-0.5-4.6-0.5 0 0 1.9-1.1 4.4-1.3z"/>
			</g>
			<g id="&lt;Group&gt;">
				<path id="&lt;Path&gt;" class="s2" d="m205.6 107.7c2-1.5 4.2-1.8 4.2-1.8 0 0-1.1 1.9-3.2 3.3-2 1.4-4.2 1.8-4.2 1.8 0 0 1.1-1.9 3.2-3.3z"/>
			</g>
			<g id="&lt;Group&gt;">
				<path id="&lt;Path&gt;" class="s2" d="m203.7 106.7c1.1-2.2 2.8-3.7 2.8-3.7 0 0-0.1 2.3-1.1 4.5-1.1 2.2-2.8 3.7-2.8 3.7 0 0 0-2.2 1.1-4.5z"/>
			</g>
			<g id="&lt;Group&gt;">
				<path id="&lt;Path&gt;" class="s3" d="m205.4 110.4c0.1 1.4-0.9 2.6-2.3 2.8-1.4 0.1-2.6-1-2.7-2.3-0.2-1.4 0.9-2.6 2.3-2.8 1.4-0.1 2.6 1 2.7 2.3z"/>
			</g>
		</g>
		<g id="&lt;Group&gt;">
			<g id="&lt;Group&gt;">
				<path id="&lt;Path&gt;" class="s2" d="m194.6 107.7c-0.2-2.5 0.5-4.6 0.5-4.6 0 0 1.1 2 1.3 4.4 0.2 2.5-0.5 4.6-0.5 4.6 0 0-1.1-1.9-1.3-4.4z"/>
			</g>
			<g id="&lt;Group&gt;">
				<path id="&lt;Path&gt;" class="s2" d="m192.8 108.8c-1.4-2-1.8-4.2-1.8-4.2 0 0 2 1.1 3.4 3.2 1.4 2 1.8 4.2 1.8 4.2 0 0-1.9-1.1-3.4-3.2z"/>
			</g>
			<g id="&lt;Group&gt;">
				<path id="&lt;Path&gt;" class="s2" d="m191.9 110.7c-2.2-1.1-3.7-2.8-3.7-2.8 0 0 2.2 0.1 4.5 1.1 2.2 1.1 3.7 2.8 3.7 2.8 0 0-2.3 0-4.5-1.1z"/>
			</g>
			<g id="&lt;Group&gt;">
				<path id="&lt;Path&gt;" class="s2" d="m192 112.8c-2.5 0.2-4.5-0.6-4.5-0.6 0 0 1.9-1.1 4.4-1.3 2.4-0.2 4.5 0.6 4.5 0.6 0 0-1.9 1.1-4.4 1.3z"/>
			</g>
			<g id="&lt;Group&gt;">
				<path id="&lt;Path&gt;" class="s2" d="m193.2 114.5c-2.1 1.4-4.3 1.8-4.3 1.8 0 0 1.2-1.9 3.2-3.3 2-1.4 4.2-1.8 4.2-1.8 0 0-1.1 1.9-3.1 3.3z"/>
			</g>
			<g id="&lt;Group&gt;">
				<path id="&lt;Path&gt;" class="s2" d="m195 115.5c-1 2.2-2.7 3.6-2.7 3.6 0 0 0-2.2 1-4.4 1.1-2.3 2.8-3.7 2.8-3.7 0 0 0 2.2-1.1 4.5z"/>
			</g>
			<g id="&lt;Group&gt;">
				<path id="&lt;Path&gt;" class="s2" d="m197.1 115.3c0.2 2.5-0.6 4.6-0.6 4.6 0 0-1.1-1.9-1.3-4.4-0.2-2.5 0.6-4.6 0.6-4.6 0 0 1.1 2 1.3 4.4z"/>
			</g>
			<g id="&lt;Group&gt;">
				<path id="&lt;Path&gt;" class="s2" d="m198.8 114.2c1.4 2 1.8 4.2 1.8 4.2 0 0-1.9-1.1-3.3-3.1-1.4-2.1-1.8-4.2-1.8-4.2 0 0 1.9 1.1 3.3 3.1z"/>
			</g>
			<g id="&lt;Group&gt;">
				<path id="&lt;Path&gt;" class="s2" d="m199.8 112.4c2.2 1 3.6 2.7 3.6 2.7 0 0-2.2 0-4.4-1.1-2.3-1-3.7-2.7-3.7-2.7 0 0 2.2 0 4.5 1.1z"/>
			</g>
			<g id="&lt;Group&gt;">
				<path id="&lt;Path&gt;" class="s2" d="m199.7 110.3c2.4-0.2 4.5 0.5 4.5 0.5 0 0-1.9 1.1-4.4 1.3-2.5 0.2-4.5-0.5-4.5-0.5 0 0 1.9-1.1 4.4-1.3z"/>
			</g>
			<g id="&lt;Group&gt;">
				<path id="&lt;Path&gt;" class="s2" d="m198.5 108.5c2.1-1.4 4.2-1.8 4.2-1.8 0 0-1.1 1.9-3.1 3.4-2.1 1.4-4.2 1.8-4.2 1.8 0 0 1.1-2 3.1-3.4z"/>
			</g>
			<g id="&lt;Group&gt;">
				<path id="&lt;Path&gt;" class="s2" d="m196.7 107.6c1-2.3 2.7-3.7 2.7-3.7 0 0 0 2.2-1.1 4.5-1 2.2-2.7 3.6-2.7 3.6 0 0 0-2.2 1.1-4.4z"/>
			</g>
			<g id="&lt;Group&gt;">
				<path id="&lt;Path&gt;" class="s3" d="m198.4 111.3c0.1 1.4-1 2.6-2.4 2.7-1.3 0.2-2.6-0.9-2.7-2.3-0.1-1.4 0.9-2.6 2.3-2.7 1.4-0.1 2.6 0.9 2.8 2.3z"/>
			</g>
		</g>
		<g id="&lt;Group&gt;">
			<g id="&lt;Group&gt;">
				<path id="&lt;Path&gt;" class="s2" d="m193 98c-0.2-2.5 0.6-4.6 0.6-4.6 0 0 1.1 1.9 1.3 4.4 0.2 2.5-0.6 4.6-0.6 4.6 0 0-1.1-2-1.3-4.4z"/>
			</g>
			<g id="&lt;Group&gt;">
				<path id="&lt;Path&gt;" class="s2" d="m191.3 99.1c-1.5-2-1.8-4.2-1.8-4.2 0 0 1.9 1.1 3.3 3.2 1.4 2 1.8 4.2 1.8 4.2 0 0-1.9-1.2-3.3-3.2z"/>
			</g>
			<g id="&lt;Group&gt;">
				<path id="&lt;Path&gt;" class="s2" d="m190.3 101c-2.2-1.1-3.6-2.8-3.6-2.8 0 0 2.2 0 4.4 1.1 2.3 1 3.7 2.7 3.7 2.7 0 0-2.2 0-4.5-1z"/>
			</g>
			<g id="&lt;Group&gt;">
				<path id="&lt;Path&gt;" class="s2" d="m190.4 103c-2.4 0.3-4.5-0.5-4.5-0.5 0 0 1.9-1.1 4.4-1.3 2.5-0.2 4.5 0.5 4.5 0.5 0 0-1.9 1.1-4.4 1.3z"/>
			</g>
			<g id="&lt;Group&gt;">
				<path id="&lt;Path&gt;" class="s2" d="m191.6 104.8c-2.1 1.4-4.2 1.8-4.2 1.8 0 0 1.1-1.9 3.1-3.3 2.1-1.5 4.2-1.8 4.2-1.8 0 0-1.1 1.9-3.1 3.3z"/>
			</g>
			<g id="&lt;Group&gt;">
				<path id="&lt;Path&gt;" class="s2" d="m193.4 105.7c-1 2.3-2.7 3.7-2.7 3.7 0 0 0-2.2 1.1-4.5 1-2.2 2.7-3.6 2.7-3.6 0 0 0 2.2-1.1 4.4z"/>
			</g>
			<g id="&lt;Group&gt;">
				<path id="&lt;Path&gt;" class="s2" d="m195.5 105.6c0.2 2.5-0.5 4.6-0.5 4.6 0 0-1.1-2-1.3-4.4-0.2-2.5 0.5-4.6 0.5-4.6 0 0 1.1 1.9 1.3 4.4z"/>
			</g>
			<g id="&lt;Group&gt;">
				<path id="&lt;Path&gt;" class="s2" d="m197.3 104.5c1.4 2 1.8 4.2 1.8 4.2 0 0-2-1.1-3.4-3.2-1.4-2-1.8-4.2-1.8-4.2 0 0 1.9 1.1 3.4 3.2z"/>
			</g>
			<g id="&lt;Group&gt;">
				<path id="&lt;Path&gt;" class="s2" d="m198.2 102.6c2.2 1.1 3.7 2.8 3.7 2.8 0 0-2.3 0-4.5-1.1-2.2-1.1-3.7-2.8-3.7-2.8 0 0 2.3 0.1 4.5 1.1z"/>
			</g>
			<g id="&lt;Group&gt;">
				<path id="&lt;Path&gt;" class="s2" d="m198.1 100.5c2.5-0.2 4.5 0.6 4.5 0.6 0 0-1.9 1.1-4.4 1.3-2.4 0.2-4.5-0.6-4.5-0.6 0 0 1.9-1 4.4-1.3z"/>
			</g>
			<g id="&lt;Group&gt;">
				<path id="&lt;Path&gt;" class="s2" d="m196.9 98.8c2.1-1.4 4.3-1.8 4.3-1.8 0 0-1.2 1.9-3.2 3.3-2 1.4-4.2 1.8-4.2 1.8 0 0 1.1-1.9 3.1-3.3z"/>
			</g>
			<g id="&lt;Group&gt;">
				<path id="&lt;Path&gt;" class="s2" d="m195.1 97.9c1-2.3 2.7-3.7 2.7-3.7 0 0 0 2.2-1 4.4-1.1 2.3-2.8 3.7-2.8 3.7 0 0 0-2.2 1.1-4.4z"/>
			</g>
			<g id="&lt;Group&gt;">
				<path id="&lt;Path&gt;" class="s3" d="m196.8 101.6c0.1 1.4-0.9 2.6-2.3 2.7-1.4 0.1-2.6-0.9-2.8-2.3-0.1-1.4 1-2.6 2.3-2.7 1.4-0.1 2.7 0.9 2.8 2.3z"/>
			</g>
		</g>
		<g id="&lt;Group&gt;">
			<g id="&lt;Group&gt;">
				<path id="&lt;Path&gt;" class="s2" d="m240.8 142.6c-0.4-4.2 0.9-7.8 0.9-7.8 0 0 1.9 3.3 2.3 7.6 0.3 4.2-1 7.8-1 7.8 0 0-1.9-3.3-2.2-7.6z"/>
			</g>
			<g id="&lt;Group&gt;">
				<path id="&lt;Path&gt;" class="s2" d="m237.8 144.6c-2.5-3.5-3.1-7.3-3.1-7.3 0 0 3.3 1.9 5.7 5.5 2.5 3.5 3.1 7.3 3.1 7.3 0 0-3.3-2-5.7-5.5z"/>
			</g>
			<g id="&lt;Group&gt;">
				<path id="&lt;Path&gt;" class="s2" d="m236.1 147.8c-3.8-1.8-6.3-4.8-6.3-4.8 0 0 3.8 0.1 7.7 1.9 3.9 1.8 6.4 4.8 6.4 4.8 0 0-3.9-0.1-7.8-1.9z"/>
			</g>
			<g id="&lt;Group&gt;">
				<path id="&lt;Path&gt;" class="s2" d="m236.3 151.4c-4.2 0.4-7.8-0.9-7.8-0.9 0 0 3.3-1.9 7.6-2.3 4.2-0.3 7.8 1 7.8 1 0 0-3.3 1.9-7.6 2.2z"/>
			</g>
			<g id="&lt;Group&gt;">
				<path id="&lt;Path&gt;" class="s2" d="m238.3 154.4c-3.5 2.5-7.3 3.1-7.3 3.1 0 0 1.9-3.3 5.5-5.7 3.5-2.5 7.3-3.1 7.3-3.1 0 0-2 3.3-5.5 5.7z"/>
			</g>
			<g id="&lt;Group&gt;">
				<path id="&lt;Path&gt;" class="s2" d="m241.5 156.1c-1.8 3.8-4.7 6.3-4.7 6.3 0 0 0-3.8 1.8-7.7 1.8-3.9 4.8-6.4 4.8-6.4 0 0-0.1 3.9-1.9 7.8z"/>
			</g>
			<g id="&lt;Group&gt;">
				<path id="&lt;Path&gt;" class="s2" d="m245.1 155.9c0.4 4.2-0.9 7.8-0.9 7.8 0 0-1.9-3.3-2.3-7.6-0.3-4.3 1-7.9 1-7.9 0 0 1.9 3.4 2.2 7.7z"/>
			</g>
			<g id="&lt;Group&gt;">
				<path id="&lt;Path&gt;" class="s2" d="m248.1 153.9c2.5 3.5 3.1 7.3 3.1 7.3 0 0-3.3-2-5.7-5.5-2.5-3.5-3.1-7.3-3.1-7.3 0 0 3.3 2 5.7 5.5z"/>
			</g>
			<g id="&lt;Group&gt;">
				<path id="&lt;Path&gt;" class="s2" d="m249.8 150.7c3.8 1.8 6.3 4.7 6.3 4.7 0 0-3.8 0-7.7-1.8-3.9-1.8-6.4-4.8-6.4-4.8 0 0 3.9 0 7.8 1.9z"/>
			</g>
			<g id="&lt;Group&gt;">
				<path id="&lt;Path&gt;" class="s2" d="m249.6 147.1c4.2-0.4 7.8 0.9 7.8 0.9 0 0-3.3 1.9-7.6 2.3-4.2 0.3-7.8-1-7.8-1 0 0 3.3-1.9 7.6-2.2z"/>
			</g>
			<g id="&lt;Group&gt;">
				<path id="&lt;Path&gt;" class="s2" d="m247.6 144.1c3.5-2.5 7.3-3.1 7.3-3.1 0 0-2 3.3-5.5 5.7-3.5 2.4-7.3 3.1-7.3 3.1 0 0 2-3.3 5.5-5.7z"/>
			</g>
			<g id="&lt;Group&gt;">
				<path id="&lt;Path&gt;" class="s2" d="m244.4 142.4c1.8-3.8 4.7-6.3 4.7-6.3 0 0 0 3.8-1.8 7.7-1.8 3.9-4.8 6.3-4.8 6.3 0 0 0.1-3.8 1.9-7.7z"/>
			</g>
			<g id="&lt;Group&gt;">
				<path id="&lt;Path&gt;" class="s3" d="m247.3 148.9c0.2 2.4-1.6 4.5-4 4.7-2.4 0.2-4.5-1.6-4.7-4-0.2-2.4 1.6-4.5 4-4.7 2.4-0.2 4.5 1.6 4.7 4z"/>
			</g>
		</g>
		<g id="&lt;Group&gt;">
			<g id="&lt;Group&gt;">
				<path id="&lt;Path&gt;" class="s2" d="m274.1 144.9c-0.3-4.3 1-7.9 1-7.9 0 0 1.8 3.3 2.2 7.6 0.4 4.3-0.9 7.9-0.9 7.9 0 0-1.9-3.4-2.3-7.6z"/>
			</g>
			<g id="&lt;Group&gt;">
				<path id="&lt;Path&gt;" class="s2" d="m271.1 146.8c-2.5-3.5-3.1-7.3-3.1-7.3 0 0 3.3 2 5.7 5.5 2.5 3.5 3.1 7.3 3.1 7.3 0 0-3.3-1.9-5.7-5.5z"/>
			</g>
			<g id="&lt;Group&gt;">
				<path id="&lt;Path&gt;" class="s2" d="m269.5 150c-3.9-1.8-6.4-4.7-6.4-4.7 0 0 3.8 0 7.7 1.8 3.9 1.9 6.4 4.8 6.4 4.8 0 0-3.9 0-7.7-1.9z"/>
			</g>
			<g id="&lt;Group&gt;">
				<path id="&lt;Path&gt;" class="s2" d="m269.7 153.6c-4.3 0.4-7.9-0.9-7.9-0.9 0 0 3.3-1.9 7.6-2.3 4.3-0.3 7.9 1 7.9 1 0 0-3.4 1.9-7.6 2.2z"/>
			</g>
			<g id="&lt;Group&gt;">
				<path id="&lt;Path&gt;" class="s2" d="m271.6 156.7c-3.5 2.4-7.3 3.1-7.3 3.1 0 0 2-3.3 5.5-5.8 3.5-2.4 7.3-3.1 7.3-3.1 0 0-2 3.3-5.5 5.8z"/>
			</g>
			<g id="&lt;Group&gt;">
				<path id="&lt;Path&gt;" class="s2" d="m274.8 158.3c-1.8 3.9-4.7 6.3-4.7 6.3 0 0 0-3.8 1.8-7.7 1.9-3.9 4.8-6.3 4.8-6.3 0 0 0 3.8-1.9 7.7z"/>
			</g>
			<g id="&lt;Group&gt;">
				<path id="&lt;Path&gt;" class="s2" d="m278.4 158.1c0.4 4.3-0.9 7.9-0.9 7.9 0 0-1.9-3.4-2.3-7.6-0.3-4.3 1-7.9 1-7.9 0 0 1.9 3.3 2.2 7.6z"/>
			</g>
			<g id="&lt;Group&gt;">
				<path id="&lt;Path&gt;" class="s2" d="m281.4 156.1c2.5 3.5 3.2 7.3 3.2 7.3 0 0-3.3-1.9-5.8-5.5-2.4-3.5-3.1-7.2-3.1-7.2 0 0 3.3 1.9 5.7 5.4z"/>
			</g>
			<g id="&lt;Group&gt;">
				<path id="&lt;Path&gt;" class="s2" d="m283.1 152.9c3.9 1.8 6.3 4.8 6.3 4.8 0 0-3.8-0.1-7.7-1.9-3.9-1.8-6.3-4.8-6.3-4.8 0 0 3.8 0.1 7.7 1.9z"/>
			</g>
			<g id="&lt;Group&gt;">
				<path id="&lt;Path&gt;" class="s2" d="m282.9 149.3c4.3-0.3 7.9 1 7.9 1 0 0-3.4 1.9-7.7 2.2-4.2 0.4-7.8-0.9-7.8-0.9 0 0 3.3-1.9 7.6-2.3z"/>
			</g>
			<g id="&lt;Group&gt;">
				<path id="&lt;Path&gt;" class="s2" d="m280.9 146.3c3.5-2.5 7.3-3.1 7.3-3.1 0 0-1.9 3.3-5.5 5.7-3.5 2.5-7.3 3.1-7.3 3.1 0 0 2-3.3 5.5-5.7z"/>
			</g>
			<g id="&lt;Group&gt;">
				<path id="&lt;Path&gt;" class="s2" d="m277.7 144.7c1.8-3.9 4.8-6.4 4.8-6.4 0 0-0.1 3.9-1.9 7.7-1.8 3.9-4.8 6.4-4.8 6.4 0 0 0.1-3.9 1.9-7.7z"/>
			</g>
			<g id="&lt;Group&gt;">
				<path id="&lt;Path&gt;" class="s3" d="m280.6 151.1c0.2 2.4-1.6 4.5-4 4.7-2.4 0.2-4.5-1.6-4.7-4-0.2-2.4 1.6-4.5 4-4.7 2.4-0.2 4.5 1.6 4.7 4z"/>
			</g>
		</g>
		<g id="&lt;Group&gt;">
			<g id="&lt;Group&gt;">
				<path id="&lt;Path&gt;" class="s2" d="m175.1 162.9c-0.3-4.3 1-7.9 1-7.9 0 0 1.9 3.4 2.2 7.6 0.4 4.3-0.9 7.9-0.9 7.9 0 0-1.9-3.3-2.3-7.6z"/>
			</g>
			<g id="&lt;Group&gt;">
				<path id="&lt;Path&gt;" class="s2" d="m172.1 164.9c-2.4-3.6-3.1-7.3-3.1-7.3 0 0 3.3 1.9 5.8 5.4 2.4 3.6 3.1 7.3 3.1 7.3 0 0-3.3-1.9-5.8-5.4z"/>
			</g>
			<g id="&lt;Group&gt;">
				<path id="&lt;Path&gt;" class="s2" d="m170.5 168.1c-3.9-1.9-6.3-4.8-6.3-4.8 0 0 3.8 0 7.7 1.9 3.8 1.8 6.3 4.7 6.3 4.7 0 0-3.8 0-7.7-1.8z"/>
			</g>
			<g id="&lt;Group&gt;">
				<path id="&lt;Path&gt;" class="s2" d="m170.7 171.7c-4.3 0.3-7.9-1-7.9-1 0 0 3.4-1.9 7.6-2.2 4.3-0.4 7.9 0.9 7.9 0.9 0 0-3.3 1.9-7.6 2.3z"/>
			</g>
			<g id="&lt;Group&gt;">
				<path id="&lt;Path&gt;" class="s2" d="m172.7 174.7c-3.6 2.4-7.3 3.1-7.3 3.1 0 0 1.9-3.3 5.4-5.7 3.6-2.5 7.3-3.2 7.3-3.2 0 0-1.9 3.3-5.4 5.8z"/>
			</g>
			<g id="&lt;Group&gt;">
				<path id="&lt;Path&gt;" class="s2" d="m175.9 176.3c-1.9 3.9-4.8 6.4-4.8 6.4 0 0 0-3.9 1.9-7.8 1.8-3.8 4.7-6.3 4.7-6.3 0 0 0 3.8-1.8 7.7z"/>
			</g>
			<g id="&lt;Group&gt;">
				<path id="&lt;Path&gt;" class="s2" d="m179.5 176.1c0.3 4.3-1 7.9-1 7.9 0 0-1.9-3.3-2.2-7.6-0.4-4.3 0.9-7.9 0.9-7.9 0 0 1.9 3.3 2.3 7.6z"/>
			</g>
			<g id="&lt;Group&gt;">
				<path id="&lt;Path&gt;" class="s2" d="m182.5 174.2c2.4 3.5 3.1 7.3 3.1 7.3 0 0-3.3-2-5.8-5.5-2.4-3.5-3.1-7.3-3.1-7.3 0 0 3.3 1.9 5.8 5.5z"/>
			</g>
			<g id="&lt;Group&gt;">
				<path id="&lt;Path&gt;" class="s2" d="m184.1 170.9c3.9 1.9 6.4 4.8 6.4 4.8 0 0-3.9 0-7.8-1.9-3.8-1.8-6.3-4.7-6.3-4.7 0 0 3.8 0 7.7 1.8z"/>
			</g>
			<g id="&lt;Group&gt;">
				<path id="&lt;Path&gt;" class="s2" d="m183.9 167.3c4.3-0.3 7.9 1 7.9 1 0 0-3.3 1.9-7.6 2.2-4.3 0.4-7.9-0.9-7.9-0.9 0 0 3.3-1.9 7.6-2.3z"/>
			</g>
			<g id="&lt;Group&gt;">
				<path id="&lt;Path&gt;" class="s2" d="m182 164.3c3.5-2.4 7.2-3.1 7.2-3.1 0 0-1.9 3.3-5.4 5.8-3.5 2.4-7.3 3.1-7.3 3.1 0 0 1.9-3.3 5.5-5.8z"/>
			</g>
			<g id="&lt;Group&gt;">
				<path id="&lt;Path&gt;" class="s2" d="m178.7 162.7c1.9-3.9 4.8-6.3 4.8-6.3 0 0 0 3.8-1.9 7.7-1.8 3.9-4.7 6.3-4.7 6.3 0 0 0-3.8 1.8-7.7z"/>
			</g>
			<g id="&lt;Group&gt;">
				<path id="&lt;Path&gt;" class="s3" d="m181.7 169.1c0.2 2.4-1.6 4.6-4 4.8-2.4 0.2-4.5-1.6-4.7-4-0.2-2.4 1.5-4.5 3.9-4.7 2.4-0.2 4.6 1.5 4.8 3.9z"/>
			</g>
		</g>
		<g id="&lt;Group&gt;">
			<g id="&lt;Group&gt;">
				<path id="&lt;Path&gt;" class="s2" d="m189.3 167.4c-0.4-4.3 0.9-7.9 0.9-7.9 0 0 1.9 3.3 2.3 7.6 0.3 4.3-1 7.9-1 7.9 0 0-1.9-3.4-2.2-7.6z"/>
			</g>
			<g id="&lt;Group&gt;">
				<path id="&lt;Path&gt;" class="s2" d="m186.3 169.3c-2.5-3.5-3.2-7.3-3.2-7.3 0 0 3.4 2 5.8 5.5 2.4 3.5 3.1 7.3 3.1 7.3 0 0-3.3-1.9-5.7-5.5z"/>
			</g>
			<g id="&lt;Group&gt;">
				<path id="&lt;Path&gt;" class="s2" d="m184.6 172.5c-3.8-1.8-6.3-4.7-6.3-4.7 0 0 3.8 0 7.7 1.8 3.9 1.9 6.3 4.8 6.3 4.8 0 0-3.8 0-7.7-1.9z"/>
			</g>
			<g id="&lt;Group&gt;">
				<path id="&lt;Path&gt;" class="s2" d="m184.8 176.1c-4.2 0.4-7.8-0.9-7.8-0.9 0 0 3.3-1.9 7.6-2.3 4.2-0.3 7.8 1 7.8 1 0 0-3.3 1.9-7.6 2.2z"/>
			</g>
			<g id="&lt;Group&gt;">
				<path id="&lt;Path&gt;" class="s2" d="m186.8 179.2c-3.5 2.4-7.3 3.1-7.3 3.1 0 0 1.9-3.3 5.5-5.8 3.5-2.4 7.3-3.1 7.3-3.1 0 0-2 3.3-5.5 5.8z"/>
			</g>
			<g id="&lt;Group&gt;">
				<path id="&lt;Path&gt;" class="s2" d="m190 180.8c-1.8 3.9-4.8 6.3-4.8 6.3 0 0 0.1-3.8 1.9-7.7 1.8-3.9 4.8-6.3 4.8-6.3 0 0-0.1 3.8-1.9 7.7z"/>
			</g>
			<g id="&lt;Group&gt;">
				<path id="&lt;Path&gt;" class="s2" d="m193.6 180.6c0.4 4.3-1 7.9-1 7.9 0 0-1.8-3.4-2.2-7.6-0.4-4.3 1-7.9 1-7.9 0 0 1.8 3.3 2.2 7.6z"/>
			</g>
			<g id="&lt;Group&gt;">
				<path id="&lt;Path&gt;" class="s2" d="m196.6 178.6c2.5 3.5 3.1 7.3 3.1 7.3 0 0-3.3-1.9-5.7-5.4-2.5-3.6-3.1-7.3-3.1-7.3 0 0 3.3 1.9 5.7 5.4z"/>
			</g>
			<g id="&lt;Group&gt;">
				<path id="&lt;Path&gt;" class="s2" d="m198.2 175.4c3.9 1.8 6.4 4.8 6.4 4.8 0 0-3.8-0.1-7.7-1.9-3.9-1.8-6.4-4.7-6.4-4.7 0 0 3.9 0 7.7 1.8z"/>
			</g>
			<g id="&lt;Group&gt;">
				<path id="&lt;Path&gt;" class="s2" d="m198.1 171.8c4.2-0.3 7.8 1 7.8 1 0 0-3.3 1.9-7.6 2.2-4.3 0.4-7.9-0.9-7.9-0.9 0 0 3.4-1.9 7.7-2.3z"/>
			</g>
			<g id="&lt;Group&gt;">
				<path id="&lt;Path&gt;" class="s2" d="m196.1 168.8c3.5-2.4 7.3-3.1 7.3-3.1 0 0-2 3.3-5.5 5.7-3.5 2.5-7.3 3.1-7.3 3.1 0 0 2-3.3 5.5-5.7z"/>
			</g>
			<g id="&lt;Group&gt;">
				<path id="&lt;Path&gt;" class="s2" d="m192.9 167.2c1.8-3.9 4.7-6.4 4.7-6.4 0 0 0 3.9-1.8 7.7-1.9 3.9-4.8 6.4-4.8 6.4 0 0 0-3.8 1.9-7.7z"/>
			</g>
			<g id="&lt;Group&gt;">
				<path id="&lt;Path&gt;" class="s3" d="m195.8 173.6c0.2 2.4-1.6 4.5-4 4.7-2.4 0.2-4.5-1.6-4.7-4-0.2-2.4 1.6-4.5 4-4.7 2.4-0.2 4.5 1.6 4.7 4z"/>
			</g>
		</g>
		<g id="&lt;Group&gt;">
			<g id="&lt;Group&gt;">
				<path id="&lt;Path&gt;" class="s2" d="m219 121.5c-0.3-4.2 1-7.8 1-7.8 0 0 1.9 3.3 2.2 7.6 0.4 4.3-0.9 7.9-0.9 7.9 0 0-1.9-3.4-2.3-7.7z"/>
			</g>
			<g id="&lt;Group&gt;">
				<path id="&lt;Path&gt;" class="s2" d="m216 123.5c-2.4-3.5-3.1-7.3-3.1-7.3 0 0 3.3 2 5.7 5.5 2.5 3.5 3.2 7.3 3.2 7.3 0 0-3.3-2-5.8-5.5z"/>
			</g>
			<g id="&lt;Group&gt;">
				<path id="&lt;Path&gt;" class="s2" d="m214.4 126.7c-3.9-1.8-6.4-4.7-6.4-4.7 0 0 3.9 0 7.8 1.8 3.8 1.9 6.3 4.8 6.3 4.8 0 0-3.8 0-7.7-1.9z"/>
			</g>
			<g id="&lt;Group&gt;">
				<path id="&lt;Path&gt;" class="s2" d="m214.6 130.3c-4.3 0.4-7.9-0.9-7.9-0.9 0 0 3.3-1.9 7.6-2.3 4.3-0.3 7.9 1 7.9 1 0 0-3.3 1.9-7.6 2.2z"/>
			</g>
			<g id="&lt;Group&gt;">
				<path id="&lt;Path&gt;" class="s2" d="m216.5 133.3c-3.5 2.5-7.3 3.2-7.3 3.2 0 0 2-3.4 5.5-5.8 3.5-2.4 7.3-3.1 7.3-3.1 0 0-1.9 3.3-5.5 5.7z"/>
			</g>
			<g id="&lt;Group&gt;">
				<path id="&lt;Path&gt;" class="s2" d="m219.8 135c-1.9 3.8-4.8 6.3-4.8 6.3 0 0 0-3.8 1.9-7.7 1.8-3.9 4.7-6.3 4.7-6.3 0 0 0 3.8-1.8 7.7z"/>
			</g>
			<g id="&lt;Group&gt;">
				<path id="&lt;Path&gt;" class="s2" d="m223.4 134.8c0.3 4.2-1 7.8-1 7.8 0 0-1.9-3.3-2.2-7.6-0.4-4.2 0.9-7.8 0.9-7.8 0 0 1.9 3.3 2.3 7.6z"/>
			</g>
			<g id="&lt;Group&gt;">
				<path id="&lt;Path&gt;" class="s2" d="m226.4 132.8c2.4 3.5 3.1 7.3 3.1 7.3 0 0-3.3-1.9-5.8-5.5-2.4-3.5-3.1-7.3-3.1-7.3 0 0 3.3 2 5.8 5.5z"/>
			</g>
			<g id="&lt;Group&gt;">
				<path id="&lt;Path&gt;" class="s2" d="m228 129.6c3.9 1.8 6.3 4.8 6.3 4.8 0 0-3.8-0.1-7.7-1.9-3.9-1.8-6.3-4.8-6.3-4.8 0 0 3.8 0.1 7.7 1.9z"/>
			</g>
			<g id="&lt;Group&gt;">
				<path id="&lt;Path&gt;" class="s2" d="m227.8 126c4.3-0.4 7.9 1 7.9 1 0 0-3.4 1.8-7.6 2.2-4.3 0.4-7.9-1-7.9-1 0 0 3.3-1.8 7.6-2.2z"/>
			</g>
			<g id="&lt;Group&gt;">
				<path id="&lt;Path&gt;" class="s2" d="m225.8 123c3.6-2.5 7.3-3.1 7.3-3.1 0 0-1.9 3.3-5.4 5.7-3.6 2.5-7.3 3.1-7.3 3.1 0 0 1.9-3.3 5.4-5.7z"/>
			</g>
			<g id="&lt;Group&gt;">
				<path id="&lt;Path&gt;" class="s2" d="m222.6 121.4c1.9-3.9 4.8-6.4 4.8-6.4 0 0 0 3.8-1.9 7.7-1.8 3.9-4.7 6.4-4.7 6.4 0 0 0-3.9 1.8-7.7z"/>
			</g>
			<g id="&lt;Group&gt;">
				<path id="&lt;Path&gt;" class="s3" d="m225.5 127.8c0.2 2.4-1.5 4.5-3.9 4.7-2.4 0.2-4.6-1.6-4.8-4-0.2-2.4 1.6-4.5 4-4.7 2.4-0.2 4.5 1.6 4.7 4z"/>
			</g>
		</g>
		<g id="&lt;Group&gt;">
			<g id="&lt;Group&gt;">
				<path id="&lt;Path&gt;" class="s2" d="m208.8 148.2c-0.4-4.3 0.9-7.9 0.9-7.9 0 0 1.9 3.4 2.3 7.6 0.3 4.3-1 7.9-1 7.9 0 0-1.9-3.3-2.2-7.6z"/>
			</g>
			<g id="&lt;Group&gt;">
				<path id="&lt;Path&gt;" class="s2" d="m205.8 150.2c-2.5-3.6-3.2-7.3-3.2-7.3 0 0 3.3 1.9 5.8 5.4 2.4 3.6 3.1 7.3 3.1 7.3 0 0-3.3-1.9-5.7-5.4z"/>
			</g>
			<g id="&lt;Group&gt;">
				<path id="&lt;Path&gt;" class="s2" d="m204.1 153.4c-3.9-1.9-6.3-4.8-6.3-4.8 0 0 3.8 0 7.7 1.9 3.9 1.8 6.3 4.7 6.3 4.7 0 0-3.8 0-7.7-1.8z"/>
			</g>
			<g id="&lt;Group&gt;">
				<path id="&lt;Path&gt;" class="s2" d="m204.3 157c-4.2 0.3-7.8-1-7.8-1 0 0 3.3-1.9 7.6-2.2 4.2-0.4 7.8 0.9 7.8 0.9 0 0-3.3 1.9-7.6 2.3z"/>
			</g>
			<g id="&lt;Group&gt;">
				<path id="&lt;Path&gt;" class="s2" d="m206.3 160c-3.5 2.4-7.3 3.1-7.3 3.1 0 0 1.9-3.3 5.5-5.7 3.5-2.5 7.3-3.2 7.3-3.2 0 0-2 3.3-5.5 5.8z"/>
			</g>
			<g id="&lt;Group&gt;">
				<path id="&lt;Path&gt;" class="s2" d="m209.5 161.6c-1.8 3.9-4.8 6.4-4.8 6.4 0 0 0.1-3.9 1.9-7.7 1.8-3.9 4.8-6.4 4.8-6.4 0 0-0.1 3.8-1.9 7.7z"/>
			</g>
			<g id="&lt;Group&gt;">
				<path id="&lt;Path&gt;" class="s2" d="m213.1 161.4c0.4 4.3-1 7.9-1 7.9 0 0-1.8-3.3-2.2-7.6-0.4-4.3 1-7.9 1-7.9 0 0 1.8 3.3 2.2 7.6z"/>
			</g>
			<g id="&lt;Group&gt;">
				<path id="&lt;Path&gt;" class="s2" d="m216.1 159.5c2.5 3.5 3.1 7.3 3.1 7.3 0 0-3.3-2-5.7-5.5-2.5-3.5-3.1-7.3-3.1-7.3 0 0 3.3 1.9 5.7 5.5z"/>
			</g>
			<g id="&lt;Group&gt;">
				<path id="&lt;Path&gt;" class="s2" d="m217.7 156.2c3.9 1.9 6.4 4.8 6.4 4.8 0 0-3.8 0-7.7-1.9-3.9-1.8-6.4-4.7-6.4-4.7 0 0 3.9 0 7.7 1.8z"/>
			</g>
			<g id="&lt;Group&gt;">
				<path id="&lt;Path&gt;" class="s2" d="m217.5 152.6c4.3-0.3 7.9 1 7.9 1 0 0-3.3 1.9-7.6 2.2-4.3 0.4-7.9-0.9-7.9-0.9 0 0 3.4-1.9 7.6-2.3z"/>
			</g>
			<g id="&lt;Group&gt;">
				<path id="&lt;Path&gt;" class="s2" d="m215.6 149.6c3.5-2.4 7.3-3.1 7.3-3.1 0 0-2 3.3-5.5 5.8-3.5 2.4-7.3 3.1-7.3 3.1 0 0 2-3.3 5.5-5.8z"/>
			</g>
			<g id="&lt;Group&gt;">
				<path id="&lt;Path&gt;" class="s2" d="m212.4 148c1.8-3.9 4.7-6.3 4.7-6.3 0 0 0 3.8-1.8 7.7-1.9 3.9-4.8 6.3-4.8 6.3 0 0 0-3.8 1.9-7.7z"/>
			</g>
			<g id="&lt;Group&gt;">
				<path id="&lt;Path&gt;" class="s3" d="m215.3 154.4c0.2 2.4-1.6 4.6-4 4.8-2.4 0.2-4.5-1.6-4.7-4-0.2-2.4 1.6-4.5 4-4.7 2.4-0.2 4.5 1.5 4.7 3.9z"/>
			</g>
		</g>
		<g id="&lt;Group&gt;">
			<g id="&lt;Group&gt;">
				<path id="&lt;Path&gt;" class="s2" d="m229 215.8c-0.3-4.2 1-7.8 1-7.8 0 0 1.9 3.3 2.2 7.6 0.4 4.2-0.9 7.8-0.9 7.8 0 0-1.9-3.3-2.3-7.6z"/>
			</g>
			<g id="&lt;Group&gt;">
				<path id="&lt;Path&gt;" class="s2" d="m226 217.8c-2.5-3.5-3.1-7.3-3.1-7.3 0 0 3.3 1.9 5.7 5.5 2.5 3.5 3.1 7.3 3.1 7.3 0 0-3.3-2-5.7-5.5z"/>
			</g>
			<g id="&lt;Group&gt;">
				<path id="&lt;Path&gt;" class="s2" d="m224.4 221c-3.9-1.8-6.4-4.8-6.4-4.8 0 0 3.9 0.1 7.7 1.9 3.9 1.8 6.4 4.8 6.4 4.8 0 0-3.9-0.1-7.7-1.9z"/>
			</g>
			<g id="&lt;Group&gt;">
				<path id="&lt;Path&gt;" class="s2" d="m224.6 224.6c-4.3 0.4-7.9-0.9-7.9-0.9 0 0 3.3-1.9 7.6-2.3 4.3-0.4 7.9 1 7.9 1 0 0-3.4 1.8-7.6 2.2z"/>
			</g>
			<g id="&lt;Group&gt;">
				<path id="&lt;Path&gt;" class="s2" d="m226.5 227.6c-3.5 2.5-7.3 3.1-7.3 3.1 0 0 2-3.3 5.5-5.7 3.5-2.5 7.3-3.1 7.3-3.1 0 0-1.9 3.3-5.5 5.7z"/>
			</g>
			<g id="&lt;Group&gt;">
				<path id="&lt;Path&gt;" class="s2" d="m229.7 229.3c-1.8 3.8-4.7 6.3-4.7 6.3 0 0 0-3.8 1.8-7.7 1.9-3.9 4.8-6.4 4.8-6.4 0 0 0 3.9-1.9 7.7z"/>
			</g>
			<g id="&lt;Group&gt;">
				<path id="&lt;Path&gt;" class="s2" d="m233.3 229.1c0.4 4.2-0.9 7.8-0.9 7.8 0 0-1.9-3.3-2.3-7.6-0.3-4.3 1-7.9 1-7.9 0 0 1.9 3.4 2.2 7.7z"/>
			</g>
			<g id="&lt;Group&gt;">
				<path id="&lt;Path&gt;" class="s2" d="m236.4 227.1c2.4 3.5 3.1 7.3 3.1 7.3 0 0-3.3-2-5.8-5.5-2.4-3.5-3.1-7.3-3.1-7.3 0 0 3.3 2 5.8 5.5z"/>
			</g>
			<g id="&lt;Group&gt;">
				<path id="&lt;Path&gt;" class="s2" d="m238 223.9c3.9 1.8 6.3 4.7 6.3 4.7 0 0-3.8 0-7.7-1.8-3.9-1.8-6.3-4.8-6.3-4.8 0 0 3.8 0 7.7 1.9z"/>
			</g>
			<g id="&lt;Group&gt;">
				<path id="&lt;Path&gt;" class="s2" d="m237.8 220.3c4.3-0.4 7.9 0.9 7.9 0.9 0 0-3.4 1.9-7.6 2.3-4.3 0.3-7.9-1-7.9-1 0 0 3.3-1.9 7.6-2.2z"/>
			</g>
			<g id="&lt;Group&gt;">
				<path id="&lt;Path&gt;" class="s2" d="m235.8 217.3c3.5-2.5 7.3-3.1 7.3-3.1 0 0-1.9 3.3-5.5 5.7-3.5 2.4-7.2 3.1-7.2 3.1 0 0 1.9-3.3 5.4-5.7z"/>
			</g>
			<g id="&lt;Group&gt;">
				<path id="&lt;Path&gt;" class="s2" d="m232.6 215.6c1.8-3.8 4.8-6.3 4.8-6.3 0 0-0.1 3.8-1.9 7.7-1.8 3.9-4.8 6.3-4.8 6.3 0 0 0.1-3.8 1.9-7.7z"/>
			</g>
			<g id="&lt;Group&gt;">
				<path id="&lt;Path&gt;" class="s3" d="m235.5 222.1c0.2 2.4-1.6 4.5-4 4.7-2.4 0.2-4.5-1.6-4.7-4-0.2-2.4 1.6-4.5 4-4.7 2.4-0.2 4.5 1.6 4.7 4z"/>
			</g>
		</g>
		<g id="&lt;Group&gt;">
			<g id="&lt;Group&gt;">
				<path id="&lt;Path&gt;" class="s2" d="m158.9 235.1c-0.4-4.3 0.9-7.9 0.9-7.9 0 0 1.9 3.3 2.3 7.6 0.3 4.3-1 7.9-1 7.9 0 0-1.9-3.4-2.2-7.6z"/>
			</g>
			<g id="&lt;Group&gt;">
				<path id="&lt;Path&gt;" class="s2" d="m155.9 237c-2.5-3.5-3.2-7.3-3.2-7.3 0 0 3.3 2 5.8 5.5 2.4 3.5 3.1 7.3 3.1 7.3 0 0-3.3-1.9-5.7-5.5z"/>
			</g>
			<g id="&lt;Group&gt;">
				<path id="&lt;Path&gt;" class="s2" d="m154.2 240.2c-3.9-1.8-6.3-4.7-6.3-4.7 0 0 3.8 0 7.7 1.8 3.9 1.9 6.3 4.8 6.3 4.8 0 0-3.8 0-7.7-1.9z"/>
			</g>
			<g id="&lt;Group&gt;">
				<path id="&lt;Path&gt;" class="s2" d="m154.4 243.8c-4.3 0.4-7.9-0.9-7.9-0.9 0 0 3.4-1.9 7.7-2.3 4.2-0.3 7.8 1 7.8 1 0 0-3.3 1.9-7.6 2.2z"/>
			</g>
			<g id="&lt;Group&gt;">
				<path id="&lt;Path&gt;" class="s2" d="m156.4 246.9c-3.5 2.4-7.3 3.1-7.3 3.1 0 0 1.9-3.3 5.5-5.8 3.5-2.4 7.3-3.1 7.3-3.1 0 0-2 3.3-5.5 5.8z"/>
			</g>
			<g id="&lt;Group&gt;">
				<path id="&lt;Path&gt;" class="s2" d="m159.6 248.5c-1.8 3.9-4.8 6.3-4.8 6.3 0 0 0.1-3.8 1.9-7.7 1.8-3.9 4.8-6.3 4.8-6.3 0 0-0.1 3.8-1.9 7.7z"/>
			</g>
			<g id="&lt;Group&gt;">
				<path id="&lt;Path&gt;" class="s2" d="m163.2 248.3c0.4 4.3-1 7.9-1 7.9 0 0-1.8-3.4-2.2-7.6-0.4-4.3 0.9-7.9 0.9-7.9 0 0 1.9 3.3 2.3 7.6z"/>
			</g>
			<g id="&lt;Group&gt;">
				<path id="&lt;Path&gt;" class="s2" d="m166.2 246.3c2.5 3.5 3.1 7.3 3.1 7.3 0 0-3.3-1.9-5.7-5.4-2.5-3.6-3.1-7.3-3.1-7.3 0 0 3.3 1.9 5.7 5.4z"/>
			</g>
			<g id="&lt;Group&gt;">
				<path id="&lt;Path&gt;" class="s2" d="m167.8 243.1c3.9 1.8 6.4 4.8 6.4 4.8 0 0-3.8-0.1-7.7-1.9-3.9-1.8-6.4-4.7-6.4-4.7 0 0 3.9 0 7.7 1.8z"/>
			</g>
			<g id="&lt;Group&gt;">
				<path id="&lt;Path&gt;" class="s2" d="m167.6 239.5c4.3-0.3 7.9 1 7.9 1 0 0-3.3 1.9-7.6 2.2-4.3 0.4-7.9-0.9-7.9-0.9 0 0 3.4-1.9 7.6-2.3z"/>
			</g>
			<g id="&lt;Group&gt;">
				<path id="&lt;Path&gt;" class="s2" d="m165.7 236.5c3.5-2.4 7.3-3.1 7.3-3.1 0 0-2 3.3-5.5 5.7-3.5 2.5-7.3 3.1-7.3 3.1 0 0 2-3.3 5.5-5.7z"/>
			</g>
			<g id="&lt;Group&gt;">
				<path id="&lt;Path&gt;" class="s2" d="m162.5 234.9c1.8-3.9 4.7-6.4 4.7-6.4 0 0 0 3.9-1.8 7.7-1.9 3.9-4.8 6.4-4.8 6.4 0 0 0-3.8 1.9-7.7z"/>
			</g>
			<g id="&lt;Group&gt;">
				<path id="&lt;Path&gt;" class="s3" d="m165.4 241.3c0.2 2.4-1.6 4.5-4 4.7-2.4 0.2-4.5-1.6-4.7-4-0.2-2.4 1.6-4.5 4-4.7 2.4-0.2 4.5 1.6 4.7 4z"/>
			</g>
		</g>
		<g id="&lt;Group&gt;">
			<g id="&lt;Group&gt;">
				<path id="&lt;Path&gt;" class="s2" d="m165.2 221.9c-0.3-4.3 1-7.9 1-7.9 0 0 1.9 3.3 2.2 7.6 0.4 4.3-0.9 7.9-0.9 7.9 0 0-1.9-3.4-2.3-7.6z"/>
			</g>
			<g id="&lt;Group&gt;">
				<path id="&lt;Path&gt;" class="s2" d="m162.2 223.8c-2.4-3.5-3.1-7.3-3.1-7.3 0 0 3.3 2 5.8 5.5 2.4 3.5 3.1 7.3 3.1 7.3 0 0-3.3-2-5.8-5.5z"/>
			</g>
			<g id="&lt;Group&gt;">
				<path id="&lt;Path&gt;" class="s2" d="m160.6 227c-3.9-1.8-6.3-4.7-6.3-4.7 0 0 3.8 0 7.7 1.8 3.9 1.9 6.3 4.8 6.3 4.8 0 0-3.8 0-7.7-1.9z"/>
			</g>
			<g id="&lt;Group&gt;">
				<path id="&lt;Path&gt;" class="s2" d="m160.8 230.6c-4.3 0.4-7.9-0.9-7.9-0.9 0 0 3.4-1.9 7.6-2.3 4.3-0.3 7.9 1 7.9 1 0 0-3.3 1.9-7.6 2.2z"/>
			</g>
			<g id="&lt;Group&gt;">
				<path id="&lt;Path&gt;" class="s2" d="m162.8 233.6c-3.6 2.5-7.3 3.2-7.3 3.2 0 0 1.9-3.3 5.4-5.8 3.6-2.4 7.3-3.1 7.3-3.1 0 0-1.9 3.3-5.4 5.7z"/>
			</g>
			<g id="&lt;Group&gt;">
				<path id="&lt;Path&gt;" class="s2" d="m166 235.3c-1.9 3.9-4.8 6.3-4.8 6.3 0 0 0-3.8 1.9-7.7 1.8-3.9 4.7-6.3 4.7-6.3 0 0 0 3.8-1.8 7.7z"/>
			</g>
			<g id="&lt;Group&gt;">
				<path id="&lt;Path&gt;" class="s2" d="m169.6 235.1c0.3 4.2-1 7.8-1 7.8 0 0-1.9-3.3-2.2-7.6-0.4-4.2 0.9-7.8 0.9-7.8 0 0 1.9 3.3 2.3 7.6z"/>
			</g>
			<g id="&lt;Group&gt;">
				<path id="&lt;Path&gt;" class="s2" d="m172.6 233.1c2.4 3.5 3.1 7.3 3.1 7.3 0 0-3.3-1.9-5.7-5.5-2.5-3.5-3.2-7.3-3.2-7.3 0 0 3.3 2 5.8 5.5z"/>
			</g>
			<g id="&lt;Group&gt;">
				<path id="&lt;Path&gt;" class="s2" d="m174.2 229.9c3.9 1.8 6.4 4.8 6.4 4.8 0 0-3.9-0.1-7.8-1.9-3.8-1.8-6.3-4.8-6.3-4.8 0 0 3.8 0.1 7.7 1.9z"/>
			</g>
			<g id="&lt;Group&gt;">
				<path id="&lt;Path&gt;" class="s2" d="m174 226.3c4.3-0.4 7.9 1 7.9 1 0 0-3.3 1.8-7.6 2.2-4.3 0.4-7.9-1-7.9-1 0 0 3.3-1.8 7.6-2.2z"/>
			</g>
			<g id="&lt;Group&gt;">
				<path id="&lt;Path&gt;" class="s2" d="m172.1 223.3c3.5-2.5 7.3-3.1 7.3-3.1 0 0-2 3.3-5.5 5.7-3.5 2.5-7.3 3.1-7.3 3.1 0 0 1.9-3.3 5.5-5.7z"/>
			</g>
			<g id="&lt;Group&gt;">
				<path id="&lt;Path&gt;" class="s2" d="m168.8 221.7c1.9-3.9 4.8-6.4 4.8-6.4 0 0 0 3.8-1.9 7.7-1.8 3.9-4.7 6.4-4.7 6.4 0 0 0-3.9 1.8-7.7z"/>
			</g>
			<g id="&lt;Group&gt;">
				<path id="&lt;Path&gt;" class="s3" d="m171.8 228.1c0.2 2.4-1.6 4.5-4 4.7-2.4 0.2-4.5-1.6-4.7-4-0.2-2.4 1.5-4.5 3.9-4.7 2.4-0.2 4.6 1.6 4.8 4z"/>
			</g>
		</g>
		<g id="&lt;Group&gt;">
			<g id="&lt;Group&gt;">
				<path id="&lt;Path&gt;" class="s2" d="m184.1 216c-0.6-4.3 0.5-7.9 0.5-7.9 0 0 2.1 3.2 2.7 7.5 0.5 4.2-0.6 7.9-0.6 7.9 0 0-2.1-3.3-2.6-7.5z"/>
			</g>
			<g id="&lt;Group&gt;">
				<path id="&lt;Path&gt;" class="s2" d="m181.2 218.1c-2.7-3.4-3.5-7.1-3.5-7.1 0 0 3.4 1.7 6 5.1 2.6 3.4 3.5 7.2 3.5 7.2 0 0-3.4-1.8-6-5.2z"/>
			</g>
			<g id="&lt;Group&gt;">
				<path id="&lt;Path&gt;" class="s2" d="m179.7 221.4c-4-1.7-6.6-4.5-6.6-4.5 0 0 3.9-0.1 7.8 1.5 4 1.7 6.6 4.5 6.6 4.5 0 0-3.8 0.1-7.8-1.5z"/>
			</g>
			<g id="&lt;Group&gt;">
				<path id="&lt;Path&gt;" class="s2" d="m180.1 225c-4.3 0.5-8-0.6-8-0.6 0 0 3.3-2.1 7.5-2.6 4.3-0.6 7.9 0.6 7.9 0.6 0 0-3.2 2-7.4 2.6z"/>
			</g>
			<g id="&lt;Group&gt;">
				<path id="&lt;Path&gt;" class="s2" d="m182.2 227.9c-3.4 2.6-7.2 3.4-7.2 3.4 0 0 1.8-3.3 5.2-6 3.4-2.6 7.2-3.4 7.2-3.4 0 0-1.8 3.4-5.2 6z"/>
			</g>
			<g id="&lt;Group&gt;">
				<path id="&lt;Path&gt;" class="s2" d="m185.5 229.4c-1.7 3.9-4.5 6.5-4.5 6.5 0 0-0.2-3.8 1.5-7.8 1.6-3.9 4.4-6.5 4.4-6.5 0 0 0.2 3.8-1.4 7.8z"/>
			</g>
			<g id="&lt;Group&gt;">
				<path id="&lt;Path&gt;" class="s2" d="m189 229c0.6 4.2-0.5 7.9-0.5 7.9 0 0-2.1-3.2-2.6-7.5-0.6-4.2 0.5-7.9 0.5-7.9 0 0 2.1 3.2 2.6 7.5z"/>
			</g>
			<g id="&lt;Group&gt;">
				<path id="&lt;Path&gt;" class="s2" d="m192 226.9c2.6 3.4 3.4 7.1 3.4 7.1 0 0-3.4-1.8-6-5.2-2.6-3.4-3.5-7.1-3.5-7.1 0 0 3.4 1.8 6.1 5.2z"/>
			</g>
			<g id="&lt;Group&gt;">
				<path id="&lt;Path&gt;" class="s2" d="m193.4 223.6c4 1.6 6.6 4.4 6.6 4.4 0 0-3.8 0.2-7.8-1.4-4-1.7-6.6-4.5-6.6-4.5 0 0 3.9-0.1 7.8 1.5z"/>
			</g>
			<g id="&lt;Group&gt;">
				<path id="&lt;Path&gt;" class="s2" d="m193.1 220c4.2-0.6 7.9 0.6 7.9 0.6 0 0-3.3 2-7.5 2.6-4.3 0.6-7.9-0.6-7.9-0.6 0 0 3.2-2 7.5-2.6z"/>
			</g>
			<g id="&lt;Group&gt;">
				<path id="&lt;Path&gt;" class="s2" d="m190.9 217.1c3.4-2.6 7.2-3.5 7.2-3.5 0 0-1.8 3.4-5.2 6-3.4 2.7-7.1 3.5-7.1 3.5 0 0 1.7-3.4 5.1-6z"/>
			</g>
			<g id="&lt;Group&gt;">
				<path id="&lt;Path&gt;" class="s2" d="m187.7 215.6c1.6-3.9 4.4-6.5 4.4-6.5 0 0 0.2 3.8-1.5 7.7-1.6 4-4.4 6.6-4.4 6.6 0 0-0.2-3.8 1.5-7.8z"/>
			</g>
			<g id="&lt;Group&gt;">
				<path id="&lt;Path&gt;" class="s3" d="m190.9 221.9c0.3 2.4-1.4 4.6-3.8 4.9-2.4 0.3-4.6-1.4-4.9-3.7-0.3-2.4 1.4-4.6 3.8-4.9 2.4-0.4 4.6 1.3 4.9 3.7z"/>
			</g>
		</g>
		<g id="&lt;Group&gt;">
			<g id="&lt;Group&gt;">
				<path id="&lt;Path&gt;" class="s2" d="m252.3 217.5c-0.4-4.3 0.9-7.9 0.9-7.9 0 0 1.9 3.3 2.3 7.6 0.3 4.3-1 7.9-1 7.9 0 0-1.9-3.3-2.2-7.6z"/>
			</g>
			<g id="&lt;Group&gt;">
				<path id="&lt;Path&gt;" class="s2" d="m249.3 219.4c-2.5-3.5-3.2-7.2-3.2-7.2 0 0 3.4 1.9 5.8 5.4 2.4 3.5 3.1 7.3 3.1 7.3 0 0-3.3-1.9-5.7-5.5z"/>
			</g>
			<g id="&lt;Group&gt;">
				<path id="&lt;Path&gt;" class="s2" d="m247.6 222.7c-3.9-1.9-6.3-4.8-6.3-4.8 0 0 3.8 0 7.7 1.9 3.9 1.8 6.3 4.7 6.3 4.7 0 0-3.8 0-7.7-1.8z"/>
			</g>
			<g id="&lt;Group&gt;">
				<path id="&lt;Path&gt;" class="s2" d="m247.8 226.3c-4.2 0.3-7.8-1-7.8-1 0 0 3.3-1.9 7.6-2.2 4.2-0.4 7.8 0.9 7.8 0.9 0 0-3.3 1.9-7.6 2.3z"/>
			</g>
			<g id="&lt;Group&gt;">
				<path id="&lt;Path&gt;" class="s2" d="m249.8 229.3c-3.5 2.4-7.3 3.1-7.3 3.1 0 0 1.9-3.3 5.5-5.8 3.5-2.4 7.3-3.1 7.3-3.1 0 0-2 3.3-5.5 5.8z"/>
			</g>
			<g id="&lt;Group&gt;">
				<path id="&lt;Path&gt;" class="s2" d="m253 230.9c-1.8 3.9-4.8 6.3-4.8 6.3 0 0 0.1-3.8 1.9-7.7 1.8-3.8 4.8-6.3 4.8-6.3 0 0-0.1 3.8-1.9 7.7z"/>
			</g>
			<g id="&lt;Group&gt;">
				<path id="&lt;Path&gt;" class="s2" d="m256.6 230.7c0.4 4.3-1 7.9-1 7.9 0 0-1.8-3.4-2.2-7.6-0.4-4.3 1-7.9 1-7.9 0 0 1.8 3.3 2.2 7.6z"/>
			</g>
			<g id="&lt;Group&gt;">
				<path id="&lt;Path&gt;" class="s2" d="m259.6 228.7c2.5 3.6 3.1 7.3 3.1 7.3 0 0-3.3-1.9-5.7-5.4-2.5-3.6-3.1-7.3-3.1-7.3 0 0 3.3 1.9 5.7 5.4z"/>
			</g>
			<g id="&lt;Group&gt;">
				<path id="&lt;Path&gt;" class="s2" d="m261.2 225.5c3.9 1.9 6.4 4.8 6.4 4.8 0 0-3.8 0-7.7-1.9-3.9-1.8-6.4-4.7-6.4-4.7 0 0 3.9 0 7.7 1.8z"/>
			</g>
			<g id="&lt;Group&gt;">
				<path id="&lt;Path&gt;" class="s2" d="m261.1 221.9c4.2-0.3 7.8 1 7.8 1 0 0-3.3 1.9-7.6 2.2-4.3 0.4-7.9-0.9-7.9-0.9 0 0 3.4-1.9 7.7-2.3z"/>
			</g>
			<g id="&lt;Group&gt;">
				<path id="&lt;Path&gt;" class="s2" d="m259.1 218.9c3.5-2.4 7.3-3.1 7.3-3.1 0 0-2 3.3-5.5 5.8-3.5 2.4-7.3 3.1-7.3 3.1 0 0 2-3.3 5.5-5.8z"/>
			</g>
			<g id="&lt;Group&gt;">
				<path id="&lt;Path&gt;" class="s2" d="m255.9 217.3c1.8-3.9 4.7-6.4 4.7-6.4 0 0 0 3.9-1.8 7.8-1.9 3.8-4.8 6.3-4.8 6.3 0 0 0-3.8 1.9-7.7z"/>
			</g>
			<g id="&lt;Group&gt;">
				<path id="&lt;Path&gt;" class="s3" d="m258.8 223.7c0.2 2.4-1.6 4.5-4 4.7-2.4 0.2-4.5-1.5-4.7-3.9-0.2-2.4 1.6-4.6 4-4.8 2.4-0.2 4.5 1.6 4.7 4z"/>
			</g>
		</g>
		<g id="&lt;Group&gt;">
			<g id="&lt;Group&gt;">
				<path id="&lt;Path&gt;" class="s2" d="m225.1 174.9c-0.4-4.3 0.9-7.9 0.9-7.9 0 0 1.9 3.3 2.3 7.6 0.3 4.3-1 7.9-1 7.9 0 0-1.9-3.3-2.2-7.6z"/>
			</g>
			<g id="&lt;Group&gt;">
				<path id="&lt;Path&gt;" class="s2" d="m222.1 176.8c-2.5-3.5-3.1-7.3-3.1-7.3 0 0 3.3 2 5.7 5.5 2.5 3.5 3.1 7.3 3.1 7.3 0 0-3.3-1.9-5.7-5.5z"/>
			</g>
			<g id="&lt;Group&gt;">
				<path id="&lt;Path&gt;" class="s2" d="m220.4 180.1c-3.8-1.9-6.3-4.8-6.3-4.8 0 0 3.8 0 7.7 1.9 3.9 1.8 6.4 4.7 6.4 4.7 0 0-3.9 0-7.8-1.8z"/>
			</g>
			<g id="&lt;Group&gt;">
				<path id="&lt;Path&gt;" class="s2" d="m220.6 183.7c-4.2 0.3-7.8-1-7.8-1 0 0 3.3-1.9 7.6-2.2 4.2-0.4 7.8 0.9 7.8 0.9 0 0-3.3 1.9-7.6 2.3z"/>
			</g>
			<g id="&lt;Group&gt;">
				<path id="&lt;Path&gt;" class="s2" d="m222.6 186.7c-3.5 2.4-7.3 3.1-7.3 3.1 0 0 2-3.3 5.5-5.8 3.5-2.4 7.3-3.1 7.3-3.1 0 0-2 3.3-5.5 5.8z"/>
			</g>
			<g id="&lt;Group&gt;">
				<path id="&lt;Path&gt;" class="s2" d="m225.8 188.3c-1.8 3.9-4.7 6.3-4.7 6.3 0 0 0-3.8 1.8-7.7 1.8-3.9 4.8-6.3 4.8-6.3 0 0-0.1 3.8-1.9 7.7z"/>
			</g>
			<g id="&lt;Group&gt;">
				<path id="&lt;Path&gt;" class="s2" d="m229.4 188.1c0.4 4.3-0.9 7.9-0.9 7.9 0 0-1.9-3.4-2.3-7.6-0.3-4.3 1-7.9 1-7.9 0 0 1.9 3.3 2.2 7.6z"/>
			</g>
			<g id="&lt;Group&gt;">
				<path id="&lt;Path&gt;" class="s2" d="m232.4 186.1c2.5 3.6 3.1 7.3 3.1 7.3 0 0-3.3-1.9-5.7-5.4-2.5-3.6-3.1-7.3-3.1-7.3 0 0 3.3 1.9 5.7 5.4z"/>
			</g>
			<g id="&lt;Group&gt;">
				<path id="&lt;Path&gt;" class="s2" d="m234.1 182.9c3.8 1.9 6.3 4.8 6.3 4.8 0 0-3.8 0-7.7-1.9-3.9-1.8-6.4-4.7-6.4-4.7 0 0 3.9 0 7.8 1.8z"/>
			</g>
			<g id="&lt;Group&gt;">
				<path id="&lt;Path&gt;" class="s2" d="m233.9 179.3c4.2-0.3 7.8 1 7.8 1 0 0-3.3 1.9-7.6 2.2-4.2 0.4-7.8-0.9-7.8-0.9 0 0 3.3-1.9 7.6-2.3z"/>
			</g>
			<g id="&lt;Group&gt;">
				<path id="&lt;Path&gt;" class="s2" d="m231.9 176.3c3.5-2.4 7.3-3.1 7.3-3.1 0 0-1.9 3.3-5.5 5.7-3.5 2.5-7.3 3.2-7.3 3.2 0 0 2-3.3 5.5-5.8z"/>
			</g>
			<g id="&lt;Group&gt;">
				<path id="&lt;Path&gt;" class="s2" d="m228.7 174.7c1.8-3.9 4.7-6.4 4.7-6.4 0 0 0 3.9-1.8 7.8-1.8 3.8-4.8 6.3-4.8 6.3 0 0 0.1-3.8 1.9-7.7z"/>
			</g>
			<g id="&lt;Group&gt;">
				<path id="&lt;Path&gt;" class="s3" d="m231.6 181.1c0.2 2.4-1.6 4.5-4 4.7-2.4 0.2-4.5-1.5-4.7-3.9-0.2-2.4 1.6-4.6 4-4.8 2.4-0.2 4.5 1.6 4.7 4z"/>
			</g>
		</g>
		<g id="&lt;Group&gt;">
			<g id="&lt;Group&gt;">
				<path id="&lt;Path&gt;" class="s2" d="m202.3 219.3c-0.4-4.3 0.9-7.9 0.9-7.9 0 0 1.9 3.3 2.3 7.6 0.3 4.3-1 7.9-1 7.9 0 0-1.9-3.4-2.2-7.6z"/>
			</g>
			<g id="&lt;Group&gt;">
				<path id="&lt;Path&gt;" class="s2" d="m199.3 221.2c-2.5-3.5-3.2-7.3-3.2-7.3 0 0 3.3 2 5.8 5.5 2.4 3.5 3.1 7.3 3.1 7.3 0 0-3.3-1.9-5.7-5.5z"/>
			</g>
			<g id="&lt;Group&gt;">
				<path id="&lt;Path&gt;" class="s2" d="m197.6 224.4c-3.9-1.8-6.3-4.7-6.3-4.7 0 0 3.8 0 7.7 1.8 3.9 1.9 6.3 4.8 6.3 4.8 0 0-3.8 0-7.7-1.9z"/>
			</g>
			<g id="&lt;Group&gt;">
				<path id="&lt;Path&gt;" class="s2" d="m197.8 228c-4.3 0.4-7.9-0.9-7.9-0.9 0 0 3.4-1.9 7.7-2.3 4.2-0.3 7.8 1 7.8 1 0 0-3.3 1.9-7.6 2.2z"/>
			</g>
			<g id="&lt;Group&gt;">
				<path id="&lt;Path&gt;" class="s2" d="m199.8 231.1c-3.5 2.4-7.3 3.1-7.3 3.1 0 0 1.9-3.3 5.5-5.8 3.5-2.4 7.3-3.1 7.3-3.1 0 0-2 3.3-5.5 5.8z"/>
			</g>
			<g id="&lt;Group&gt;">
				<path id="&lt;Path&gt;" class="s2" d="m203 232.7c-1.8 3.9-4.8 6.3-4.8 6.3 0 0 0.1-3.8 1.9-7.7 1.8-3.9 4.8-6.3 4.8-6.3 0 0-0.1 3.8-1.9 7.7z"/>
			</g>
			<g id="&lt;Group&gt;">
				<path id="&lt;Path&gt;" class="s2" d="m206.6 232.5c0.4 4.3-1 7.9-1 7.9 0 0-1.8-3.4-2.2-7.6-0.4-4.3 1-7.9 1-7.9 0 0 1.8 3.3 2.2 7.6z"/>
			</g>
			<g id="&lt;Group&gt;">
				<path id="&lt;Path&gt;" class="s2" d="m209.6 230.5c2.5 3.5 3.1 7.3 3.1 7.3 0 0-3.3-1.9-5.7-5.5-2.5-3.5-3.1-7.2-3.1-7.2 0 0 3.3 1.9 5.7 5.4z"/>
			</g>
			<g id="&lt;Group&gt;">
				<path id="&lt;Path&gt;" class="s2" d="m211.2 227.3c3.9 1.8 6.4 4.8 6.4 4.8 0 0-3.8-0.1-7.7-1.9-3.9-1.8-6.4-4.8-6.4-4.8 0 0 3.9 0.1 7.7 1.9z"/>
			</g>
			<g id="&lt;Group&gt;">
				<path id="&lt;Path&gt;" class="s2" d="m211 223.7c4.3-0.3 7.9 1 7.9 1 0 0-3.3 1.9-7.6 2.2-4.3 0.4-7.9-0.9-7.9-0.9 0 0 3.4-1.9 7.6-2.3z"/>
			</g>
			<g id="&lt;Group&gt;">
				<path id="&lt;Path&gt;" class="s2" d="m209.1 220.7c3.5-2.5 7.3-3.1 7.3-3.1 0 0-2 3.3-5.5 5.7-3.5 2.5-7.3 3.1-7.3 3.1 0 0 2-3.3 5.5-5.7z"/>
			</g>
			<g id="&lt;Group&gt;">
				<path id="&lt;Path&gt;" class="s2" d="m205.9 219.1c1.8-3.9 4.7-6.4 4.7-6.4 0 0 0 3.9-1.8 7.7-1.9 3.9-4.8 6.4-4.8 6.4 0 0 0-3.9 1.9-7.7z"/>
			</g>
			<g id="&lt;Group&gt;">
				<path id="&lt;Path&gt;" class="s3" d="m208.8 225.5c0.2 2.4-1.6 4.5-4 4.7-2.4 0.2-4.5-1.6-4.7-4-0.2-2.4 1.6-4.5 4-4.7 2.4-0.2 4.5 1.6 4.7 4z"/>
			</g>
		</g>
		<g id="&lt;Group&gt;">
			<g id="&lt;Group&gt;">
				<path id="&lt;Path&gt;" class="s2" d="m224.4 237.2c-0.3-4.2 1-7.8 1-7.8 0 0 1.9 3.3 2.2 7.6 0.4 4.2-0.9 7.8-0.9 7.8 0 0-1.9-3.3-2.3-7.6z"/>
			</g>
			<g id="&lt;Group&gt;">
				<path id="&lt;Path&gt;" class="s2" d="m221.4 239.2c-2.5-3.5-3.1-7.3-3.1-7.3 0 0 3.3 1.9 5.7 5.5 2.5 3.5 3.1 7.3 3.1 7.3 0 0-3.3-2-5.7-5.5z"/>
			</g>
			<g id="&lt;Group&gt;">
				<path id="&lt;Path&gt;" class="s2" d="m219.8 242.4c-3.9-1.8-6.4-4.7-6.4-4.7 0 0 3.9 0 7.7 1.8 3.9 1.8 6.4 4.8 6.4 4.8 0 0-3.9-0.1-7.7-1.9z"/>
			</g>
			<g id="&lt;Group&gt;">
				<path id="&lt;Path&gt;" class="s2" d="m220 246c-4.3 0.4-7.9-0.9-7.9-0.9 0 0 3.3-1.9 7.6-2.3 4.3-0.3 7.9 1 7.9 1 0 0-3.4 1.9-7.6 2.2z"/>
			</g>
			<g id="&lt;Group&gt;">
				<path id="&lt;Path&gt;" class="s2" d="m221.9 249c-3.5 2.5-7.3 3.1-7.3 3.1 0 0 2-3.3 5.5-5.7 3.5-2.5 7.3-3.1 7.3-3.1 0 0-1.9 3.3-5.5 5.7z"/>
			</g>
			<g id="&lt;Group&gt;">
				<path id="&lt;Path&gt;" class="s2" d="m225.1 250.7c-1.8 3.8-4.7 6.3-4.7 6.3 0 0 0-3.8 1.8-7.7 1.9-3.9 4.8-6.4 4.8-6.4 0 0 0 3.9-1.9 7.8z"/>
			</g>
			<g id="&lt;Group&gt;">
				<path id="&lt;Path&gt;" class="s2" d="m228.7 250.5c0.4 4.2-0.9 7.8-0.9 7.8 0 0-1.9-3.3-2.3-7.6-0.3-4.2 1-7.8 1-7.8 0 0 1.9 3.3 2.2 7.6z"/>
			</g>
			<g id="&lt;Group&gt;">
				<path id="&lt;Path&gt;" class="s2" d="m231.8 248.5c2.4 3.5 3.1 7.3 3.1 7.3 0 0-3.3-2-5.8-5.5-2.4-3.5-3.1-7.3-3.1-7.3 0 0 3.3 2 5.8 5.5z"/>
			</g>
			<g id="&lt;Group&gt;">
				<path id="&lt;Path&gt;" class="s2" d="m233.4 245.3c3.9 1.8 6.3 4.7 6.3 4.7 0 0-3.8 0-7.7-1.8-3.9-1.8-6.3-4.8-6.3-4.8 0 0 3.8 0.1 7.7 1.9z"/>
			</g>
			<g id="&lt;Group&gt;">
				<path id="&lt;Path&gt;" class="s2" d="m233.2 241.7c4.3-0.4 7.9 0.9 7.9 0.9 0 0-3.4 1.9-7.6 2.3-4.3 0.3-7.9-1-7.9-1 0 0 3.3-1.9 7.6-2.2z"/>
			</g>
			<g id="&lt;Group&gt;">
				<path id="&lt;Path&gt;" class="s2" d="m231.2 238.7c3.5-2.5 7.3-3.1 7.3-3.1 0 0-1.9 3.3-5.4 5.7-3.6 2.5-7.3 3.1-7.3 3.1 0 0 1.9-3.3 5.4-5.7z"/>
			</g>
			<g id="&lt;Group&gt;">
				<path id="&lt;Path&gt;" class="s2" d="m228 237c1.8-3.8 4.8-6.3 4.8-6.3 0 0-0.1 3.8-1.9 7.7-1.8 3.9-4.8 6.4-4.8 6.4 0 0 0.1-3.9 1.9-7.8z"/>
			</g>
			<g id="&lt;Group&gt;">
				<path id="&lt;Path&gt;" class="s3" d="m230.9 243.5c0.2 2.4-1.6 4.5-4 4.7-2.4 0.2-4.5-1.6-4.7-4-0.2-2.4 1.6-4.5 4-4.7 2.4-0.2 4.5 1.6 4.7 4z"/>
			</g>
		</g>
		<g id="&lt;Group&gt;">
			<g id="&lt;Group&gt;">
				<path id="&lt;Path&gt;" class="s2" d="m243.5 240c-0.3-4.3 1-7.9 1-7.9 0 0 1.9 3.4 2.2 7.7 0.4 4.2-0.9 7.8-0.9 7.8 0 0-1.9-3.3-2.3-7.6z"/>
			</g>
			<g id="&lt;Group&gt;">
				<path id="&lt;Path&gt;" class="s2" d="m240.5 242c-2.4-3.5-3.1-7.3-3.1-7.3 0 0 3.3 1.9 5.7 5.5 2.5 3.5 3.2 7.2 3.2 7.2 0 0-3.3-1.9-5.8-5.4z"/>
			</g>
			<g id="&lt;Group&gt;">
				<path id="&lt;Path&gt;" class="s2" d="m238.9 245.2c-3.9-1.8-6.4-4.8-6.4-4.8 0 0 3.9 0.1 7.7 1.9 3.9 1.8 6.4 4.8 6.4 4.8 0 0-3.8-0.1-7.7-1.9z"/>
			</g>
			<g id="&lt;Group&gt;">
				<path id="&lt;Path&gt;" class="s2" d="m239.1 248.8c-4.3 0.3-7.9-1-7.9-1 0 0 3.3-1.9 7.6-2.2 4.3-0.4 7.9 0.9 7.9 0.9 0 0-3.4 1.9-7.6 2.3z"/>
			</g>
			<g id="&lt;Group&gt;">
				<path id="&lt;Path&gt;" class="s2" d="m241 251.8c-3.5 2.5-7.3 3.1-7.3 3.1 0 0 2-3.3 5.5-5.7 3.5-2.5 7.3-3.1 7.3-3.1 0 0-1.9 3.3-5.5 5.7z"/>
			</g>
			<g id="&lt;Group&gt;">
				<path id="&lt;Path&gt;" class="s2" d="m244.3 253.4c-1.9 3.9-4.8 6.4-4.8 6.4 0 0 0-3.9 1.8-7.7 1.9-3.9 4.8-6.4 4.8-6.4 0 0 0 3.9-1.8 7.7z"/>
			</g>
			<g id="&lt;Group&gt;">
				<path id="&lt;Path&gt;" class="s2" d="m247.8 253.2c0.4 4.3-0.9 7.9-0.9 7.9 0 0-1.9-3.3-2.3-7.6-0.3-4.3 1-7.9 1-7.9 0 0 1.9 3.4 2.2 7.6z"/>
			</g>
			<g id="&lt;Group&gt;">
				<path id="&lt;Path&gt;" class="s2" d="m250.9 251.3c2.4 3.5 3.1 7.3 3.1 7.3 0 0-3.3-2-5.8-5.5-2.4-3.5-3.1-7.3-3.1-7.3 0 0 3.3 1.9 5.8 5.5z"/>
			</g>
			<g id="&lt;Group&gt;">
				<path id="&lt;Path&gt;" class="s2" d="m252.5 248.1c3.9 1.8 6.3 4.7 6.3 4.7 0 0-3.8 0-7.7-1.8-3.9-1.9-6.3-4.8-6.3-4.8 0 0 3.8 0 7.7 1.9z"/>
			</g>
			<g id="&lt;Group&gt;">
				<path id="&lt;Path&gt;" class="s2" d="m252.3 244.5c4.3-0.4 7.9 0.9 7.9 0.9 0 0-3.4 1.9-7.6 2.3-4.3 0.3-7.9-1-7.9-1 0 0 3.3-1.9 7.6-2.2z"/>
			</g>
			<g id="&lt;Group&gt;">
				<path id="&lt;Path&gt;" class="s2" d="m250.3 241.4c3.6-2.4 7.3-3.1 7.3-3.1 0 0-1.9 3.3-5.4 5.8-3.6 2.4-7.3 3.1-7.3 3.1 0 0 1.9-3.3 5.4-5.8z"/>
			</g>
			<g id="&lt;Group&gt;">
				<path id="&lt;Path&gt;" class="s2" d="m247.1 239.8c1.8-3.9 4.8-6.3 4.8-6.3 0 0 0 3.8-1.9 7.7-1.8 3.9-4.7 6.3-4.7 6.3 0 0 0-3.8 1.8-7.7z"/>
			</g>
			<g id="&lt;Group&gt;">
				<path id="&lt;Path&gt;" class="s3" d="m250 246.3c0.2 2.4-1.6 4.5-4 4.7-2.4 0.2-4.5-1.6-4.7-4-0.2-2.4 1.6-4.5 4-4.7 2.4-0.2 4.5 1.6 4.7 4z"/>
			</g>
		</g>
		<g id="&lt;Group&gt;">
			<g id="&lt;Group&gt;">
				<path id="&lt;Path&gt;" class="s2" d="m240.4 162.4c-0.4-4.2 0.9-7.8 0.9-7.8 0 0 1.9 3.3 2.3 7.6 0.3 4.2-1 7.8-1 7.8 0 0-1.9-3.3-2.2-7.6z"/>
			</g>
			<g id="&lt;Group&gt;">
				<path id="&lt;Path&gt;" class="s2" d="m237.4 164.4c-2.5-3.5-3.1-7.3-3.1-7.3 0 0 3.3 1.9 5.7 5.5 2.5 3.5 3.1 7.3 3.1 7.3 0 0-3.3-2-5.7-5.5z"/>
			</g>
			<g id="&lt;Group&gt;">
				<path id="&lt;Path&gt;" class="s2" d="m235.7 167.6c-3.8-1.8-6.3-4.7-6.3-4.7 0 0 3.8 0 7.7 1.8 3.9 1.8 6.4 4.8 6.4 4.8 0 0-3.9-0.1-7.8-1.9z"/>
			</g>
			<g id="&lt;Group&gt;">
				<path id="&lt;Path&gt;" class="s2" d="m235.9 171.2c-4.2 0.4-7.8-0.9-7.8-0.9 0 0 3.3-1.9 7.6-2.3 4.2-0.3 7.8 1 7.8 1 0 0-3.3 1.9-7.6 2.2z"/>
			</g>
			<g id="&lt;Group&gt;">
				<path id="&lt;Path&gt;" class="s2" d="m237.9 174.2c-3.5 2.5-7.3 3.1-7.3 3.1 0 0 2-3.3 5.5-5.7 3.5-2.5 7.3-3.1 7.3-3.1 0 0-2 3.3-5.5 5.7z"/>
			</g>
			<g id="&lt;Group&gt;">
				<path id="&lt;Path&gt;" class="s2" d="m241.1 175.9c-1.8 3.8-4.7 6.3-4.7 6.3 0 0 0-3.8 1.8-7.7 1.8-3.9 4.8-6.4 4.8-6.4 0 0-0.1 3.9-1.9 7.8z"/>
			</g>
			<g id="&lt;Group&gt;">
				<path id="&lt;Path&gt;" class="s2" d="m244.7 175.7c0.4 4.2-0.9 7.8-0.9 7.8 0 0-1.9-3.3-2.3-7.6-0.3-4.2 1-7.8 1-7.8 0 0 1.9 3.3 2.2 7.6z"/>
			</g>
			<g id="&lt;Group&gt;">
				<path id="&lt;Path&gt;" class="s2" d="m247.7 173.7c2.5 3.5 3.1 7.3 3.1 7.3 0 0-3.3-2-5.7-5.5-2.5-3.5-3.1-7.3-3.1-7.3 0 0 3.3 2 5.7 5.5z"/>
			</g>
			<g id="&lt;Group&gt;">
				<path id="&lt;Path&gt;" class="s2" d="m249.4 170.5c3.8 1.8 6.3 4.7 6.3 4.7 0 0-3.8 0-7.7-1.8-3.9-1.8-6.4-4.8-6.4-4.8 0 0 3.9 0.1 7.8 1.9z"/>
			</g>
			<g id="&lt;Group&gt;">
				<path id="&lt;Path&gt;" class="s2" d="m249.2 166.9c4.2-0.4 7.8 0.9 7.8 0.9 0 0-3.3 1.9-7.6 2.3-4.2 0.3-7.8-1-7.8-1 0 0 3.3-1.9 7.6-2.2z"/>
			</g>
			<g id="&lt;Group&gt;">
				<path id="&lt;Path&gt;" class="s2" d="m247.2 163.9c3.5-2.5 7.3-3.1 7.3-3.1 0 0-1.9 3.3-5.5 5.7-3.5 2.5-7.3 3.1-7.3 3.1 0 0 2-3.3 5.5-5.7z"/>
			</g>
			<g id="&lt;Group&gt;">
				<path id="&lt;Path&gt;" class="s2" d="m244 162.2c1.8-3.8 4.7-6.3 4.7-6.3 0 0 0 3.8-1.8 7.7-1.8 3.9-4.8 6.4-4.8 6.4 0 0 0.1-3.9 1.9-7.8z"/>
			</g>
			<g id="&lt;Group&gt;">
				<path id="&lt;Path&gt;" class="s3" d="m246.9 168.7c0.2 2.4-1.6 4.5-4 4.7-2.4 0.2-4.5-1.6-4.7-4-0.2-2.4 1.6-4.5 4-4.7 2.4-0.2 4.5 1.6 4.7 4z"/>
			</g>
		</g>
		<g id="&lt;Group&gt;">
			<g id="&lt;Group&gt;">
				<path id="&lt;Path&gt;" class="s2" d="m228.4 156.1c-0.4-4.2 1-7.8 1-7.8 0 0 1.8 3.3 2.2 7.6 0.4 4.3-1 7.9-1 7.9 0 0-1.8-3.4-2.2-7.7z"/>
			</g>
			<g id="&lt;Group&gt;">
				<path id="&lt;Path&gt;" class="s2" d="m225.4 158.1c-2.5-3.5-3.1-7.3-3.1-7.3 0 0 3.3 2 5.7 5.5 2.5 3.5 3.1 7.3 3.1 7.3 0 0-3.3-2-5.7-5.5z"/>
			</g>
			<g id="&lt;Group&gt;">
				<path id="&lt;Path&gt;" class="s2" d="m223.8 161.3c-3.9-1.8-6.4-4.7-6.4-4.7 0 0 3.8 0 7.7 1.8 3.9 1.8 6.4 4.8 6.4 4.8 0 0-3.9-0.1-7.7-1.9z"/>
			</g>
			<g id="&lt;Group&gt;">
				<path id="&lt;Path&gt;" class="s2" d="m224 164.9c-4.3 0.4-7.9-0.9-7.9-0.9 0 0 3.3-1.9 7.6-2.3 4.3-0.3 7.9 1 7.9 1 0 0-3.4 1.9-7.6 2.2z"/>
			</g>
			<g id="&lt;Group&gt;">
				<path id="&lt;Path&gt;" class="s2" d="m225.9 167.9c-3.5 2.5-7.3 3.1-7.3 3.1 0 0 2-3.3 5.5-5.7 3.5-2.5 7.3-3.1 7.3-3.1 0 0-2 3.3-5.5 5.7z"/>
			</g>
			<g id="&lt;Group&gt;">
				<path id="&lt;Path&gt;" class="s2" d="m229.1 169.6c-1.8 3.8-4.7 6.3-4.7 6.3 0 0 0-3.8 1.8-7.7 1.9-3.9 4.8-6.3 4.8-6.3 0 0 0 3.8-1.9 7.7z"/>
			</g>
			<g id="&lt;Group&gt;">
				<path id="&lt;Path&gt;" class="s2" d="m232.7 169.4c0.4 4.2-0.9 7.8-0.9 7.8 0 0-1.9-3.3-2.3-7.6-0.3-4.2 1-7.8 1-7.8 0 0 1.9 3.3 2.2 7.6z"/>
			</g>
			<g id="&lt;Group&gt;">
				<path id="&lt;Path&gt;" class="s2" d="m235.7 167.4c2.5 3.5 3.2 7.3 3.2 7.3 0 0-3.3-1.9-5.8-5.5-2.4-3.5-3.1-7.3-3.1-7.3 0 0 3.3 2 5.7 5.5z"/>
			</g>
			<g id="&lt;Group&gt;">
				<path id="&lt;Path&gt;" class="s2" d="m237.4 164.2c3.9 1.8 6.3 4.8 6.3 4.8 0 0-3.8-0.1-7.7-1.9-3.9-1.8-6.3-4.8-6.3-4.8 0 0 3.8 0.1 7.7 1.9z"/>
			</g>
			<g id="&lt;Group&gt;">
				<path id="&lt;Path&gt;" class="s2" d="m237.2 160.6c4.3-0.4 7.9 0.9 7.9 0.9 0 0-3.4 1.9-7.7 2.3-4.2 0.3-7.8-1-7.8-1 0 0 3.3-1.9 7.6-2.2z"/>
			</g>
			<g id="&lt;Group&gt;">
				<path id="&lt;Path&gt;" class="s2" d="m235.2 157.6c3.5-2.5 7.3-3.1 7.3-3.1 0 0-1.9 3.3-5.5 5.7-3.5 2.5-7.3 3.1-7.3 3.1 0 0 2-3.3 5.5-5.7z"/>
			</g>
			<g id="&lt;Group&gt;">
				<path id="&lt;Path&gt;" class="s2" d="m232 155.9c1.8-3.8 4.8-6.3 4.8-6.3 0 0-0.1 3.8-1.9 7.7-1.8 3.9-4.8 6.4-4.8 6.4 0 0 0.1-3.9 1.9-7.8z"/>
			</g>
			<g id="&lt;Group&gt;">
				<path id="&lt;Path&gt;" class="s3" d="m234.9 162.4c0.2 2.4-1.6 4.5-4 4.7-2.4 0.2-4.5-1.6-4.7-4-0.2-2.4 1.6-4.5 4-4.7 2.4-0.2 4.5 1.6 4.7 4z"/>
			</g>
		</g>
		<g id="&lt;Group&gt;">
			<g id="&lt;Group&gt;">
				<path id="&lt;Path&gt;" class="s2" d="m268.2 202.5c-0.4-4.2 0.9-7.8 0.9-7.8 0 0 1.9 3.3 2.3 7.6 0.3 4.3-1 7.9-1 7.9 0 0-1.9-3.4-2.2-7.7z"/>
			</g>
			<g id="&lt;Group&gt;">
				<path id="&lt;Path&gt;" class="s2" d="m265.1 204.5c-2.4-3.5-3.1-7.3-3.1-7.3 0 0 3.3 2 5.8 5.5 2.4 3.5 3.1 7.3 3.1 7.3 0 0-3.3-2-5.8-5.5z"/>
			</g>
			<g id="&lt;Group&gt;">
				<path id="&lt;Path&gt;" class="s2" d="m263.5 207.7c-3.9-1.8-6.3-4.7-6.3-4.7 0 0 3.8 0 7.7 1.8 3.9 1.8 6.3 4.8 6.3 4.8 0 0-3.8 0-7.7-1.9z"/>
			</g>
			<g id="&lt;Group&gt;">
				<path id="&lt;Path&gt;" class="s2" d="m263.7 211.3c-4.3 0.4-7.9-0.9-7.9-0.9 0 0 3.4-1.9 7.6-2.3 4.3-0.3 7.9 1 7.9 1 0 0-3.3 1.9-7.6 2.2z"/>
			</g>
			<g id="&lt;Group&gt;">
				<path id="&lt;Path&gt;" class="s2" d="m265.7 214.3c-3.5 2.5-7.3 3.1-7.3 3.1 0 0 1.9-3.3 5.4-5.7 3.6-2.4 7.3-3.1 7.3-3.1 0 0-1.9 3.3-5.4 5.7z"/>
			</g>
			<g id="&lt;Group&gt;">
				<path id="&lt;Path&gt;" class="s2" d="m268.9 216c-1.8 3.8-4.8 6.3-4.8 6.3 0 0 0.1-3.8 1.9-7.7 1.8-3.9 4.8-6.3 4.8-6.3 0 0-0.1 3.8-1.9 7.7z"/>
			</g>
			<g id="&lt;Group&gt;">
				<path id="&lt;Path&gt;" class="s2" d="m272.5 215.8c0.3 4.2-1 7.8-1 7.8 0 0-1.9-3.3-2.2-7.6-0.4-4.2 0.9-7.8 0.9-7.8 0 0 1.9 3.3 2.3 7.6z"/>
			</g>
			<g id="&lt;Group&gt;">
				<path id="&lt;Path&gt;" class="s2" d="m275.5 213.8c2.5 3.5 3.1 7.3 3.1 7.3 0 0-3.3-1.9-5.7-5.5-2.5-3.5-3.1-7.3-3.1-7.3 0 0 3.3 2 5.7 5.5z"/>
			</g>
			<g id="&lt;Group&gt;">
				<path id="&lt;Path&gt;" class="s2" d="m277.1 210.6c3.9 1.8 6.4 4.8 6.4 4.8 0 0-3.9-0.1-7.7-1.9-3.9-1.8-6.4-4.8-6.4-4.8 0 0 3.9 0.1 7.7 1.9z"/>
			</g>
			<g id="&lt;Group&gt;">
				<path id="&lt;Path&gt;" class="s2" d="m276.9 207c4.3-0.4 7.9 0.9 7.9 0.9 0 0-3.3 1.9-7.6 2.3-4.3 0.4-7.9-1-7.9-1 0 0 3.4-1.8 7.6-2.2z"/>
			</g>
			<g id="&lt;Group&gt;">
				<path id="&lt;Path&gt;" class="s2" d="m275 204c3.5-2.5 7.3-3.1 7.3-3.1 0 0-2 3.3-5.5 5.7-3.5 2.5-7.3 3.1-7.3 3.1 0 0 1.9-3.3 5.5-5.7z"/>
			</g>
			<g id="&lt;Group&gt;">
				<path id="&lt;Path&gt;" class="s2" d="m271.8 202.3c1.8-3.8 4.7-6.3 4.7-6.3 0 0 0 3.8-1.8 7.7-1.9 3.9-4.8 6.4-4.8 6.4 0 0 0-3.9 1.9-7.8z"/>
			</g>
			<g id="&lt;Group&gt;">
				<path id="&lt;Path&gt;" class="s3" d="m274.7 208.8c0.2 2.4-1.6 4.5-4 4.7-2.4 0.2-4.5-1.6-4.7-4-0.2-2.4 1.6-4.5 4-4.7 2.4-0.2 4.5 1.6 4.7 4z"/>
			</g>
		</g>
		<g id="&lt;Group&gt;">
			<g id="&lt;Group&gt;">
				<path id="&lt;Path&gt;" class="s2" d="m284.7 208.9c-0.3-4.2 1-7.8 1-7.8 0 0 1.9 3.3 2.2 7.6 0.4 4.2-0.9 7.8-0.9 7.8 0 0-1.9-3.3-2.3-7.6z"/>
			</g>
			<g id="&lt;Group&gt;">
				<path id="&lt;Path&gt;" class="s2" d="m281.7 210.9c-2.4-3.5-3.1-7.3-3.1-7.3 0 0 3.3 1.9 5.8 5.5 2.4 3.5 3.1 7.3 3.1 7.3 0 0-3.3-2-5.8-5.5z"/>
			</g>
			<g id="&lt;Group&gt;">
				<path id="&lt;Path&gt;" class="s2" d="m280.1 214.1c-3.9-1.8-6.3-4.8-6.3-4.8 0 0 3.8 0.1 7.7 1.9 3.9 1.8 6.3 4.8 6.3 4.8 0 0-3.8-0.1-7.7-1.9z"/>
			</g>
			<g id="&lt;Group&gt;">
				<path id="&lt;Path&gt;" class="s2" d="m280.3 217.7c-4.3 0.4-7.9-0.9-7.9-0.9 0 0 3.4-1.9 7.6-2.3 4.3-0.3 7.9 1 7.9 1 0 0-3.3 1.9-7.6 2.2z"/>
			</g>
			<g id="&lt;Group&gt;">
				<path id="&lt;Path&gt;" class="s2" d="m282.3 220.7c-3.6 2.5-7.3 3.1-7.3 3.1 0 0 1.9-3.3 5.4-5.7 3.6-2.5 7.3-3.1 7.3-3.1 0 0-1.9 3.3-5.4 5.7z"/>
			</g>
			<g id="&lt;Group&gt;">
				<path id="&lt;Path&gt;" class="s2" d="m285.5 222.4c-1.9 3.8-4.8 6.3-4.8 6.3 0 0 0-3.8 1.9-7.7 1.8-3.9 4.7-6.4 4.7-6.4 0 0 0 3.9-1.8 7.8z"/>
			</g>
			<g id="&lt;Group&gt;">
				<path id="&lt;Path&gt;" class="s2" d="m289.1 222.2c0.3 4.2-1 7.8-1 7.8 0 0-1.9-3.3-2.2-7.6-0.4-4.3 0.9-7.9 0.9-7.9 0 0 1.9 3.4 2.3 7.7z"/>
			</g>
			<g id="&lt;Group&gt;">
				<path id="&lt;Path&gt;" class="s2" d="m292.1 220.2c2.4 3.5 3.1 7.3 3.1 7.3 0 0-3.3-2-5.8-5.5-2.4-3.5-3.1-7.3-3.1-7.3 0 0 3.3 2 5.8 5.5z"/>
			</g>
			<g id="&lt;Group&gt;">
				<path id="&lt;Path&gt;" class="s2" d="m293.7 217c3.9 1.8 6.4 4.7 6.4 4.7 0 0-3.9 0-7.8-1.8-3.8-1.8-6.3-4.8-6.3-4.8 0 0 3.8 0.1 7.7 1.9z"/>
			</g>
			<g id="&lt;Group&gt;">
				<path id="&lt;Path&gt;" class="s2" d="m293.5 213.4c4.3-0.4 7.9 0.9 7.9 0.9 0 0-3.3 1.9-7.6 2.3-4.3 0.3-7.9-1-7.9-1 0 0 3.3-1.9 7.6-2.2z"/>
			</g>
			<g id="&lt;Group&gt;">
				<path id="&lt;Path&gt;" class="s2" d="m291.6 210.4c3.5-2.5 7.3-3.1 7.3-3.1 0 0-2 3.3-5.5 5.7-3.5 2.5-7.3 3.1-7.3 3.1 0 0 1.9-3.3 5.5-5.7z"/>
			</g>
			<g id="&lt;Group&gt;">
				<path id="&lt;Path&gt;" class="s2" d="m288.3 208.7c1.9-3.8 4.8-6.3 4.8-6.3 0 0 0 3.8-1.9 7.7-1.8 3.9-4.7 6.4-4.7 6.4 0 0 0-3.9 1.8-7.8z"/>
			</g>
			<g id="&lt;Group&gt;">
				<path id="&lt;Path&gt;" class="s3" d="m291.3 215.2c0.2 2.4-1.6 4.5-4 4.7-2.4 0.2-4.5-1.6-4.7-4-0.2-2.4 1.5-4.5 3.9-4.7 2.4-0.2 4.6 1.6 4.8 4z"/>
			</g>
		</g>
		<g id="&lt;Group&gt;">
			<g id="&lt;Group&gt;">
				<path id="&lt;Path&gt;" class="s2" d="m305.6 217.8c-0.3-4.3 1-7.9 1-7.9 0 0 1.9 3.4 2.2 7.7 0.4 4.2-0.9 7.8-0.9 7.8 0 0-1.9-3.3-2.3-7.6z"/>
			</g>
			<g id="&lt;Group&gt;">
				<path id="&lt;Path&gt;" class="s2" d="m302.6 219.8c-2.4-3.5-3.1-7.3-3.1-7.3 0 0 3.3 1.9 5.7 5.5 2.5 3.5 3.1 7.3 3.1 7.3 0 0-3.3-2-5.7-5.5z"/>
			</g>
			<g id="&lt;Group&gt;">
				<path id="&lt;Path&gt;" class="s2" d="m301 223c-3.9-1.8-6.4-4.8-6.4-4.8 0 0 3.9 0.1 7.7 1.9 3.9 1.8 6.4 4.8 6.4 4.8 0 0-3.8-0.1-7.7-1.9z"/>
			</g>
			<g id="&lt;Group&gt;">
				<path id="&lt;Path&gt;" class="s2" d="m301.2 226.6c-4.3 0.4-7.9-1-7.9-1 0 0 3.3-1.8 7.6-2.2 4.3-0.4 7.9 1 7.9 1 0 0-3.4 1.8-7.6 2.2z"/>
			</g>
			<g id="&lt;Group&gt;">
				<path id="&lt;Path&gt;" class="s2" d="m303.1 229.6c-3.5 2.5-7.3 3.1-7.3 3.1 0 0 2-3.3 5.5-5.7 3.5-2.5 7.3-3.1 7.3-3.1 0 0-1.9 3.3-5.5 5.7z"/>
			</g>
			<g id="&lt;Group&gt;">
				<path id="&lt;Path&gt;" class="s2" d="m306.3 231.2c-1.8 3.9-4.7 6.4-4.7 6.4 0 0 0-3.8 1.8-7.7 1.9-3.9 4.8-6.4 4.8-6.4 0 0 0 3.9-1.9 7.7z"/>
			</g>
			<g id="&lt;Group&gt;">
				<path id="&lt;Path&gt;" class="s2" d="m309.9 231c0.4 4.3-0.9 7.9-0.9 7.9 0 0-1.9-3.3-2.3-7.6-0.3-4.3 1-7.9 1-7.9 0 0 1.9 3.4 2.2 7.6z"/>
			</g>
			<g id="&lt;Group&gt;">
				<path id="&lt;Path&gt;" class="s2" d="m313 229.1c2.4 3.5 3.1 7.3 3.1 7.3 0 0-3.3-2-5.8-5.5-2.4-3.5-3.1-7.3-3.1-7.3 0 0 3.3 2 5.8 5.5z"/>
			</g>
			<g id="&lt;Group&gt;">
				<path id="&lt;Path&gt;" class="s2" d="m314.6 225.9c3.9 1.8 6.3 4.7 6.3 4.7 0 0-3.8 0-7.7-1.8-3.9-1.9-6.3-4.8-6.3-4.8 0 0 3.8 0 7.7 1.9z"/>
			</g>
			<g id="&lt;Group&gt;">
				<path id="&lt;Path&gt;" class="s2" d="m314.4 222.3c4.3-0.4 7.9 0.9 7.9 0.9 0 0-3.4 1.9-7.6 2.3-4.3 0.3-7.9-1-7.9-1 0 0 3.3-1.9 7.6-2.2z"/>
			</g>
			<g id="&lt;Group&gt;">
				<path id="&lt;Path&gt;" class="s2" d="m312.4 219.3c3.5-2.5 7.3-3.2 7.3-3.2 0 0-1.9 3.3-5.4 5.8-3.6 2.4-7.3 3.1-7.3 3.1 0 0 1.9-3.3 5.4-5.7z"/>
			</g>
			<g id="&lt;Group&gt;">
				<path id="&lt;Path&gt;" class="s2" d="m309.2 217.6c1.8-3.9 4.8-6.3 4.8-6.3 0 0-0.1 3.8-1.9 7.7-1.8 3.9-4.7 6.3-4.7 6.3 0 0 0-3.8 1.8-7.7z"/>
			</g>
			<g id="&lt;Group&gt;">
				<path id="&lt;Path&gt;" class="s3" d="m312.1 224.1c0.2 2.4-1.6 4.5-4 4.7-2.4 0.2-4.5-1.6-4.7-4-0.2-2.4 1.6-4.5 4-4.7 2.4-0.2 4.5 1.6 4.7 4z"/>
			</g>
		</g>
		<g id="&lt;Group&gt;">
			<g id="&lt;Group&gt;">
				<path id="&lt;Path&gt;" class="s2" d="m262.8 137.5c-0.3-4.2 1-7.8 1-7.8 0 0 1.9 3.3 2.2 7.6 0.4 4.2-0.9 7.8-0.9 7.8 0 0-1.9-3.3-2.3-7.6z"/>
			</g>
			<g id="&lt;Group&gt;">
				<path id="&lt;Path&gt;" class="s2" d="m260.4 138.8c-1.8-3.9-1.8-7.8-1.8-7.8 0 0 2.9 2.5 4.7 6.4 1.8 3.9 1.8 7.7 1.8 7.7 0 0-2.9-2.4-4.7-6.3z"/>
			</g>
			<g id="&lt;Group&gt;">
				<path id="&lt;Path&gt;" class="s2" d="m258.5 140.8c-3-3.1-4.3-6.7-4.3-6.7 0 0 3.6 1.3 6.6 4.4 3 3 4.3 6.6 4.3 6.6 0 0-3.6-1.3-6.6-4.3z"/>
			</g>
			<g id="&lt;Group&gt;">
				<path id="&lt;Path&gt;" class="s2" d="m257.5 143.3c-3.9-1.9-6.4-4.8-6.4-4.8 0 0 3.8 0 7.7 1.9 3.9 1.8 6.4 4.7 6.4 4.7 0 0-3.9 0-7.7-1.8z"/>
			</g>
			<g id="&lt;Group&gt;">
				<path id="&lt;Path&gt;" class="s2" d="m268.6 138.1c1.2-4.2 0.5-7.9 0.5-7.9 0 0-2.4 2.9-3.6 7-1.1 4.2-0.5 7.9-0.5 7.9 0 0 2.5-2.9 3.6-7z"/>
			</g>
			<g id="&lt;Group&gt;">
				<path id="&lt;Path&gt;" class="s2" d="m270.8 139.7c2.5-3.5 3.2-7.2 3.2-7.2 0 0-3.3 1.9-5.8 5.4-2.5 3.5-3.2 7.2-3.2 7.2 0 0 3.3-1.9 5.8-5.4z"/>
			</g>
			<g id="&lt;Group&gt;">
				<path id="&lt;Path&gt;" class="s2" d="m272.3 142c3.5-2.4 5.4-5.7 5.4-5.7 0 0-3.7 0.6-7.3 3.1-3.5 2.4-5.4 5.7-5.4 5.7 0 0 3.8-0.6 7.3-3.1z"/>
			</g>
		</g>
		<g id="&lt;Group&gt;">
			<g id="&lt;Group&gt;">
				<path id="&lt;Path&gt;" class="s0" d="m298.6 202.3c3-3.1 6.6-4.5 6.6-4.5 0 0-1.3 3.6-4.3 6.7-3 3.1-6.5 4.5-6.5 4.5 0 0 1.2-3.6 4.2-6.7z"/>
			</g>
			<g id="&lt;Group&gt;">
				<path id="&lt;Path&gt;" class="s0" d="m296.1 201.2c1.7-3.9 4.6-6.4 4.6-6.4 0 0 0.1 3.8-1.7 7.8-1.7 3.9-4.6 6.4-4.6 6.4 0 0-0.1-3.8 1.7-7.8z"/>
			</g>
			<g id="&lt;Group&gt;">
				<path id="&lt;Path&gt;" class="s0" d="m293.4 201.1c0.3-4.2 2.1-7.6 2.1-7.6 0 0 1.4 3.6 1.1 7.9-0.3 4.3-2.2 7.6-2.2 7.6 0 0-1.3-3.6-1-7.9z"/>
			</g>
			<g id="&lt;Group&gt;">
				<path id="&lt;Path&gt;" class="s0" d="m290.8 202c-1.2-4.1-0.6-7.9-0.6-7.9 0 0 2.5 2.9 3.7 7 1.1 4.1 0.5 7.9 0.5 7.9 0 0-2.5-2.9-3.6-7z"/>
			</g>
			<g id="&lt;Group&gt;">
				<path id="&lt;Path&gt;" class="s0" d="m302 207c3.9-1.9 6.3-4.8 6.3-4.8 0 0-3.8 0-7.7 1.9-3.8 1.9-6.3 4.8-6.3 4.8 0 0 3.9 0 7.7-1.9z"/>
			</g>
			<g id="&lt;Group&gt;">
				<path id="&lt;Path&gt;" class="s0" d="m302.2 209.7c4.3-0.4 7.6-2.4 7.6-2.4 0 0-3.7-1.2-7.9-0.8-4.3 0.5-7.6 2.4-7.6 2.4 0 0 3.6 1.3 7.9 0.8z"/>
			</g>
			<g id="&lt;Group&gt;">
				<path id="&lt;Path&gt;" class="s0" d="m301.4 212.3c4.2 1.1 8 0.4 8 0.4 0 0-3-2.4-7.2-3.5-4.1-1-7.9-0.3-7.9-0.3 0 0 3 2.4 7.1 3.4z"/>
			</g>
		</g>
		<g id="&lt;Group&gt;">
			<g id="&lt;Group&gt;">
				<path id="&lt;Path&gt;" class="s0" d="m197.7 140c-4.2-0.7-7.4-2.9-7.4-2.9 0 0 3.7-1 7.9-0.3 4.3 0.8 7.4 2.9 7.4 2.9 0 0-3.7 1-7.9 0.3z"/>
			</g>
			<g id="&lt;Group&gt;">
				<path id="&lt;Path&gt;" class="s0" d="m198.3 142.7c-4.3 0.7-8-0.2-8-0.2 0 0 3.2-2.2 7.4-3 4.2-0.8 7.9 0.2 7.9 0.2 0 0-3.1 2.2-7.3 3z"/>
			</g>
			<g id="&lt;Group&gt;">
				<path id="&lt;Path&gt;" class="s0" d="m199.7 145c-3.7 2.1-7.5 2.5-7.5 2.5 0 0 2.2-3.1 5.9-5.3 3.7-2.2 7.5-2.5 7.5-2.5 0 0-2.2 3.1-5.9 5.3z"/>
			</g>
			<g id="&lt;Group&gt;">
				<path id="&lt;Path&gt;" class="s0" d="m201.9 146.6c-2.8 3.3-6.2 5-6.2 5 0 0 1-3.7 3.7-7 2.8-3.3 6.2-5 6.2-5 0 0-1 3.7-3.7 7z"/>
			</g>
			<g id="&lt;Group&gt;">
				<path id="&lt;Path&gt;" class="s0" d="m199.7 134.5c-3.7-2.1-7.6-2.5-7.6-2.5 0 0 2.3 3.2 6 5.3 3.7 2.1 7.5 2.5 7.5 2.5 0 0-2.2-3.2-5.9-5.3z"/>
			</g>
			<g id="&lt;Group&gt;">
				<path id="&lt;Path&gt;" class="s0" d="m201.8 132.8c-2.7-3.2-6.2-4.9-6.2-4.9 0 0 1 3.7 3.8 7 2.7 3.3 6.2 4.9 6.2 4.9 0 0-1-3.7-3.8-7z"/>
			</g>
			<g id="&lt;Group&gt;">
				<path id="&lt;Path&gt;" class="s0" d="m204.4 132c-1.5-4-4.2-6.8-4.2-6.8 0 0-0.3 3.9 1.2 7.9 1.5 4 4.2 6.7 4.2 6.7 0 0 0.3-3.8-1.2-7.8z"/>
			</g>
		</g>
		<g id="&lt;Group&gt;">
			<g id="&lt;Group&gt;">
				<path id="&lt;Path&gt;" class="s2" d="m208.5 132.9c-0.4-4.3 1-7.9 1-7.9 0 0 1.8 3.4 2.2 7.6 0.4 4.3-1 7.9-1 7.9 0 0-1.8-3.3-2.2-7.6z"/>
			</g>
			<g id="&lt;Group&gt;">
				<path id="&lt;Path&gt;" class="s2" d="m205.5 134.9c-2.5-3.5-3.1-7.3-3.1-7.3 0 0 3.3 1.9 5.7 5.5 2.5 3.5 3.1 7.2 3.1 7.2 0 0-3.3-1.9-5.7-5.4z"/>
			</g>
			<g id="&lt;Group&gt;">
				<path id="&lt;Path&gt;" class="s2" d="m203.9 138.1c-3.9-1.8-6.4-4.8-6.4-4.8 0 0 3.8 0.1 7.7 1.9 3.9 1.8 6.4 4.8 6.4 4.8 0 0-3.9-0.1-7.7-1.9z"/>
			</g>
			<g id="&lt;Group&gt;">
				<path id="&lt;Path&gt;" class="s2" d="m204.1 141.7c-4.3 0.3-7.9-1-7.9-1 0 0 3.3-1.9 7.6-2.2 4.3-0.4 7.9 0.9 7.9 0.9 0 0-3.4 1.9-7.6 2.3z"/>
			</g>
			<g id="&lt;Group&gt;">
				<path id="&lt;Path&gt;" class="s2" d="m206 144.7c-3.5 2.5-7.3 3.1-7.3 3.1 0 0 2-3.3 5.5-5.7 3.5-2.5 7.3-3.1 7.3-3.1 0 0-2 3.3-5.5 5.7z"/>
			</g>
			<g id="&lt;Group&gt;">
				<path id="&lt;Path&gt;" class="s2" d="m209.2 146.3c-1.8 3.9-4.7 6.4-4.7 6.4 0 0 0-3.9 1.8-7.7 1.9-3.9 4.8-6.4 4.8-6.4 0 0 0 3.9-1.9 7.7z"/>
			</g>
			<g id="&lt;Group&gt;">
				<path id="&lt;Path&gt;" class="s2" d="m212.8 146.1c0.4 4.3-0.9 7.9-0.9 7.9 0 0-1.9-3.3-2.3-7.6-0.3-4.3 1-7.9 1-7.9 0 0 1.9 3.4 2.2 7.6z"/>
			</g>
			<g id="&lt;Group&gt;">
				<path id="&lt;Path&gt;" class="s2" d="m215.8 144.2c2.5 3.5 3.2 7.3 3.2 7.3 0 0-3.3-2-5.8-5.5-2.4-3.5-3.1-7.3-3.1-7.3 0 0 3.3 1.9 5.7 5.5z"/>
			</g>
			<g id="&lt;Group&gt;">
				<path id="&lt;Path&gt;" class="s2" d="m217.5 141c3.9 1.8 6.3 4.7 6.3 4.7 0 0-3.8 0-7.7-1.8-3.9-1.9-6.3-4.8-6.3-4.8 0 0 3.8 0 7.7 1.9z"/>
			</g>
			<g id="&lt;Group&gt;">
				<path id="&lt;Path&gt;" class="s2" d="m217.3 137.4c4.3-0.4 7.9 0.9 7.9 0.9 0 0-3.4 1.9-7.7 2.3-4.2 0.3-7.8-1-7.8-1 0 0 3.3-1.9 7.6-2.2z"/>
			</g>
			<g id="&lt;Group&gt;">
				<path id="&lt;Path&gt;" class="s2" d="m215.3 134.3c3.5-2.4 7.3-3.1 7.3-3.1 0 0-1.9 3.3-5.5 5.8-3.5 2.4-7.3 3.1-7.3 3.1 0 0 2-3.3 5.5-5.8z"/>
			</g>
			<g id="&lt;Group&gt;">
				<path id="&lt;Path&gt;" class="s2" d="m212.1 132.7c1.8-3.9 4.8-6.3 4.8-6.3 0 0-0.1 3.8-1.9 7.7-1.8 3.9-4.8 6.3-4.8 6.3 0 0 0.1-3.8 1.9-7.7z"/>
			</g>
			<g id="&lt;Group&gt;">
				<path id="&lt;Path&gt;" class="s3" d="m215 139.2c0.2 2.4-1.6 4.5-4 4.7-2.4 0.2-4.5-1.6-4.7-4-0.2-2.4 1.6-4.5 4-4.7 2.4-0.2 4.5 1.6 4.7 4z"/>
			</g>
		</g>
	</g>
</svg>