<svg version="1.2" xmlns="http://www.w3.org/2000/svg" viewBox="0 0 480 480" width="480" height="480">
	<title>Flower</title>
	<style>
		.s0 { fill: #68b39c } 
		.s1 { fill: #e6c7ff } 
		.s2 { fill: #ffe672 } 
	</style>
	<g id="&lt;Group&gt;">
		<g id="&lt;Group&gt;">
			<path id="&lt;Path&gt;" class="s0" d="m266.1 410.2c-36.1-44.5-34.4-146.8-33.8-180.4l12 0.2c-0.5 32.5-2.2 131.5 31.2 172.7z"/>
		</g>
		<g id="&lt;Group&gt;">
			<path id="&lt;Path&gt;" class="s1" d="m270.8 139.5c0 29.2-30.6 70.4-30.6 70.4 0 0-30.5-41.2-30.5-70.4 0-29.2 21.2-70.4 30.5-70.4 9.4 0 30.6 41.2 30.6 70.4z"/>
		</g>
		<g id="&lt;Group&gt;">
			<path id="&lt;Path&gt;" class="s1" d="m176.3 163.7c27.8 9 57.5 50.8 57.5 50.8 0 0-48.6 16.4-76.3 7.4-27.8-9.1-60.4-42-57.5-50.9 2.9-8.8 48.6-16.3 76.3-7.3z"/>
		</g>
		<g id="&lt;Group&gt;">
			<path id="&lt;Path&gt;" class="s1" d="m170.2 261.1c17.1-23.6 66.1-39 66.1-39 0 0 0.5 51.3-16.7 74.9-17.1 23.6-58.5 44.4-66.1 39-7.5-5.5-0.4-51.4 16.7-74.9z"/>
		</g>
		<g id="&lt;Group&gt;">
			<path id="&lt;Path&gt;" class="s1" d="m260.8 297c-17.1-23.6-16.6-74.9-16.6-74.9 0 0 48.9 15.4 66.1 39 17.1 23.5 24.2 69.4 16.6 74.9-7.5 5.4-48.9-15.4-66.1-39z"/>
		</g>
		<g id="&lt;Group&gt;">
			<path id="&lt;Path&gt;" class="s1" d="m323 221.9c-27.7 9-76.4-7.4-76.4-7.4 0 0 29.8-41.8 57.5-50.8 27.8-9 73.5-1.5 76.4 7.3 2.9 8.9-29.7 41.8-57.5 50.9z"/>
		</g>
		<g id="&lt;Group&gt;">
			<path id="&lt;Path&gt;" class="s2" d="m262.3 216.6c0 12.2-9.8 22.1-22.1 22.1-12.2 0-22.1-9.9-22.1-22.1 0-12.2 9.9-22.1 22.1-22.1 12.3 0 22.1 9.9 22.1 22.1z"/>
		</g>
	</g>
</svg>