<svg version="1.2" xmlns="http://www.w3.org/2000/svg" viewBox="0 0 480 480" width="480" height="480">
	<title>Flower</title>
	<style>
		.s0 { fill: #4db36a } 
		.s1 { fill: #8673e4 } 
		.s2 { fill: #e7e3fa } 
		.s3 { fill: #ffdf87 } 
	</style>
	<g id="&lt;Group&gt;">
		<g id="&lt;Group&gt;">
		</g>
		<g id="&lt;Group&gt;">
		</g>
		<g id="&lt;Group&gt;">
			<g id="&lt;Group&gt;">
			</g>
			<g id="&lt;Group&gt;">
			</g>
			<g id="&lt;Group&gt;">
			</g>
			<g id="&lt;Group&gt;">
			</g>
			<g id="&lt;Group&gt;">
			</g>
			<g id="&lt;Group&gt;">
			</g>
			<g id="&lt;Group&gt;">
			</g>
			<g id="&lt;Group&gt;">
			</g>
			<g id="&lt;Group&gt;">
			</g>
			<g id="&lt;Group&gt;">
			</g>
			<g id="&lt;Group&gt;">
			</g>
			<g id="&lt;Group&gt;">
			</g>
			<g id="&lt;Group&gt;">
			</g>
			<g id="&lt;Group&gt;">
			</g>
			<g id="&lt;Group&gt;">
			</g>
		</g>
		<g id="&lt;Group&gt;">
			<g id="&lt;Group&gt;">
			</g>
			<g id="&lt;Group&gt;">
			</g>
			<g id="&lt;Group&gt;">
			</g>
			<g id="&lt;Group&gt;">
			</g>
			<g id="&lt;Group&gt;">
			</g>
			<g id="&lt;Group&gt;">
			</g>
			<g id="&lt;Group&gt;">
			</g>
			<g id="&lt;Group&gt;">
			</g>
			<g id="&lt;Group&gt;">
			</g>
			<g id="&lt;Group&gt;">
			</g>
			<g id="&lt;Group&gt;">
			</g>
			<g id="&lt;Group&gt;">
			</g>
			<g id="&lt;Group&gt;">
			</g>
			<g id="&lt;Group&gt;">
			</g>
			<g id="&lt;Group&gt;">
			</g>
		</g>
		<g id="&lt;Group&gt;">
			<g id="&lt;Group&gt;">
			</g>
			<g id="&lt;Group&gt;">
			</g>
			<g id="&lt;Group&gt;">
			</g>
			<g id="&lt;Group&gt;">
			</g>
			<g id="&lt;Group&gt;">
			</g>
			<g id="&lt;Group&gt;">
			</g>
		</g>
		<g id="&lt;Group&gt;">
		</g>
		<g id="&lt;Group&gt;">
		</g>
		<g id="&lt;Group&gt;">
		</g>
		<g id="&lt;Group&gt;">
		</g>
		<g id="&lt;Group&gt;">
		</g>
		<g id="&lt;Group&gt;">
		</g>
		<g id="&lt;Group&gt;">
		</g>
		<g id="&lt;Group&gt;">
		</g>
		<g id="&lt;Group&gt;">
		</g>
		<g id="&lt;Group&gt;">
		</g>
		<g id="&lt;Group&gt;">
		</g>
		<g id="&lt;Group&gt;">
		</g>
		<g id="&lt;Group&gt;">
		</g>
		<g id="&lt;Group&gt;">
		</g>
		<g id="&lt;Group&gt;">
		</g>
		<g id="&lt;Group&gt;">
		</g>
		<g id="&lt;Group&gt;">
			<g id="&lt;Group&gt;">
				<g id="&lt;Group&gt;">
					<g id="&lt;Group&gt;">
					</g>
					<g id="&lt;Group&gt;">
					</g>
					<g id="&lt;Group&gt;">
					</g>
					<g id="&lt;Group&gt;">
					</g>
					<g id="&lt;Group&gt;">
					</g>
					<g id="&lt;Group&gt;">
					</g>
					<g id="&lt;Group&gt;">
					</g>
					<g id="&lt;Group&gt;">
					</g>
					<g id="&lt;Group&gt;">
					</g>
					<g id="&lt;Group&gt;">
					</g>
					<g id="&lt;Group&gt;">
					</g>
					<g id="&lt;Group&gt;">
					</g>
					<g id="&lt;Group&gt;">
					</g>
					<g id="&lt;Group&gt;">
					</g>
					<g id="&lt;Group&gt;">
					</g>
					<g id="&lt;Group&gt;">
					</g>
					<g id="&lt;Group&gt;">
					</g>
					<g id="&lt;Group&gt;">
					</g>
					<g id="&lt;Group&gt;">
					</g>
					<g id="&lt;Group&gt;">
					</g>
					<g id="&lt;Group&gt;">
					</g>
					<g id="&lt;Group&gt;">
					</g>
					<g id="&lt;Group&gt;">
					</g>
					<g id="&lt;Group&gt;">
					</g>
					<g id="&lt;Group&gt;">
					</g>
					<g id="&lt;Group&gt;">
					</g>
					<g id="&lt;Group&gt;">
					</g>
					<g id="&lt;Group&gt;">
					</g>
					<g id="&lt;Group&gt;">
					</g>
				</g>
				<g id="&lt;Group&gt;">
					<g id="&lt;Group&gt;">
					</g>
					<g id="&lt;Group&gt;">
					</g>
					<g id="&lt;Group&gt;">
					</g>
					<g id="&lt;Group&gt;">
					</g>
					<g id="&lt;Group&gt;">
					</g>
					<g id="&lt;Group&gt;">
					</g>
					<g id="&lt;Group&gt;">
					</g>
					<g id="&lt;Group&gt;">
					</g>
					<g id="&lt;Group&gt;">
					</g>
					<g id="&lt;Group&gt;">
					</g>
					<g id="&lt;Group&gt;">
					</g>
					<g id="&lt;Group&gt;">
					</g>
					<g id="&lt;Group&gt;">
					</g>
					<g id="&lt;Group&gt;">
					</g>
					<g id="&lt;Group&gt;">
					</g>
					<g id="&lt;Group&gt;">
					</g>
					<g id="&lt;Group&gt;">
					</g>
					<g id="&lt;Group&gt;">
					</g>
					<g id="&lt;Group&gt;">
					</g>
					<g id="&lt;Group&gt;">
					</g>
					<g id="&lt;Group&gt;">
					</g>
					<g id="&lt;Group&gt;">
					</g>
					<g id="&lt;Group&gt;">
					</g>
					<g id="&lt;Group&gt;">
					</g>
					<g id="&lt;Group&gt;">
					</g>
					<g id="&lt;Group&gt;">
					</g>
					<g id="&lt;Group&gt;">
					</g>
				</g>
				<g id="&lt;Group&gt;">
				</g>
				<g id="&lt;Group&gt;">
				</g>
				<g id="&lt;Group&gt;">
				</g>
				<g id="&lt;Group&gt;">
				</g>
				<g id="&lt;Group&gt;">
				</g>
				<g id="&lt;Group&gt;">
				</g>
				<g id="&lt;Group&gt;">
				</g>
				<g id="&lt;Group&gt;">
				</g>
				<g id="&lt;Group&gt;">
				</g>
				<g id="&lt;Group&gt;">
					<g id="&lt;Group&gt;">
						<g id="&lt;Group&gt;">
						</g>
						<g id="&lt;Group&gt;">
						</g>
						<g id="&lt;Group&gt;">
						</g>
						<g id="&lt;Group&gt;">
						</g>
						<g id="&lt;Group&gt;">
						</g>
						<g id="&lt;Group&gt;">
						</g>
						<g id="&lt;Group&gt;">
						</g>
						<g id="&lt;Group&gt;">
							<g id="&lt;Group&gt;">
							</g>
							<g id="&lt;Group&gt;">
							</g>
							<g id="&lt;Group&gt;">
							</g>
						</g>
						<g id="&lt;Group&gt;">
							<g id="&lt;Group&gt;">
							</g>
							<g id="&lt;Group&gt;">
							</g>
							<g id="&lt;Group&gt;">
							</g>
						</g>
						<g id="&lt;Group&gt;">
							<g id="&lt;Group&gt;">
							</g>
							<g id="&lt;Group&gt;">
							</g>
							<g id="&lt;Group&gt;">
							</g>
						</g>
						<g id="&lt;Group&gt;">
							<g id="&lt;Group&gt;">
							</g>
							<g id="&lt;Group&gt;">
							</g>
							<g id="&lt;Group&gt;">
							</g>
						</g>
						<g id="&lt;Group&gt;">
							<g id="&lt;Group&gt;">
							</g>
							<g id="&lt;Group&gt;">
							</g>
							<g id="&lt;Group&gt;">
								<g id="&lt;Group&gt;">
									<g id="&lt;Group&gt;">
										<path id="&lt;Path&gt;" class="s0" d="m231.7 99.4c0.2 0.2-3.3 57.5-7 125.2-2.4 34-3.5 81.1-0.9 119.9 2.2 38.8 8.2 69.2 7.9 69.2 0.3-0.1-11.1-28.8-19.3-67.6-8.6-38.7-14-87.4-11.8-122.8 3.1-71.5 31.3-124.3 31.1-123.9z"/>
									</g>
									<g id="&lt;Group&gt;">
										<path id="&lt;Path&gt;" class="s0" d="m241 413.7h-10c0-9.4 0.1-25.7 0.2-44.6 0.3-54.8 0.7-137.6-0.4-150.1l9.9-1c1.2 13.1 0.8 92.9 0.5 151.1-0.1 18.9-0.2 35.2-0.2 44.6z"/>
									</g>
									<g id="&lt;Group&gt;">
										<path id="&lt;Path&gt;" class="s1" d="m266.4 236.4c0 18.3-11 33.9-29.2 33.9-18.3 0-29.3-15.6-29.3-33.9 0-18.3 24.6-37.4 29.3-45.9 4.2 8.3 29.2 27.6 29.2 45.9z"/>
									</g>
									<g id="&lt;Group&gt;">
										<path id="&lt;Path&gt;" class="s1" d="m219.3 113.9c0-22.4 11.8-47.4 17.9-47.4 6.1 0 17.8 25 17.8 47.4 0 22.3-16.1 57.4-17.8 78.1-1.6-20.3-17.9-55.8-17.9-78.1z"/>
									</g>
									<g id="&lt;Group&gt;">
										<path id="&lt;Path&gt;" class="s1" d="m251.4 116.2c2.1-20.2-0.2-41.8 5.7-46.5 5.1-4 12.7 17 14.6 43 1.5 19.8-18.8 57.5-32.5 79.3 18.6-35.4 10.1-55.7 12.2-75.8z"/>
									</g>
									<g id="&lt;Group&gt;">
										<path id="&lt;Path&gt;" class="s1" d="m222.6 116.2c-2.1-20.2 0.3-41.8-5.6-46.5-5.1-4-12.7 17-14.6 43-1.5 19.8 18.7 57.5 32.5 79.3-18.6-35.4-10.2-55.7-12.3-75.8z"/>
									</g>
									<g id="&lt;Group&gt;">
										<g id="&lt;Group&gt;">
											<path id="&lt;Path&gt;" class="s1" d="m174.6 178.9c-0.5 3.1 18.7-8 36.5-2.5 18.2 4.5 25.4 21.7 25.2 21.6 0.1 0.7-1.1-25.3-20.7-31.8-19.5-6.8-41.3 10-41 12.7z"/>
										</g>
										<g id="&lt;Group&gt;">
											<path id="&lt;Path&gt;" class="s1" d="m299.7 178.9c0.5 3.1-18.7-8-36.5-2.5-18.2 4.5-25.3 21.7-25.1 21.6-0.1 0.7 1-25.3 20.7-31.8 19.4-6.8 41.3 10 40.9 12.7z"/>
										</g>
									</g>
									<g id="&lt;Group&gt;">
										<path id="&lt;Path&gt;" class="s2" d="m238.6 213.5c0 7.8-0.6 12.9-1.4 12.9-0.8 0-1.5-5.1-1.5-12.9 0-7.8 1.5-15.5 1.5-15.5 0 0 1.4 7.7 1.4 15.5z"/>
									</g>
									<g id="&lt;Group&gt;">
										<path id="&lt;Path&gt;" class="s2" d="m232.4 210.8c-2 6.5-3.8 10.5-4.6 10.3-0.7-0.3-0.1-4.6 1.8-11.1 2-6.5 5.3-12.4 5.3-12.4 0 0-0.6 6.7-2.5 13.2z"/>
									</g>
									<g id="&lt;Group&gt;">
										<path id="&lt;Path&gt;" class="s2" d="m241.9 210.8c1.9 6.5 3.8 10.5 4.6 10.3 0.7-0.3 0.1-4.6-1.9-11.1-1.9-6.5-5.2-12.4-5.2-12.4 0 0 0.6 6.7 2.5 13.2z"/>
									</g>
									<g id="&lt;Group&gt;">
										<g id="&lt;Group&gt;">
											<path id="&lt;Path&gt;" class="s1" d="m308.9 215.2c12.9 12.9 18.1 28.1 17.5 44.8-0.5 13.6-24.7-6.2-37.7-19.2-12.9-13-25-46.3-49.4-48.9 23.3-4.3 56.6 10.3 69.6 23.3z"/>
										</g>
										<g id="&lt;Group&gt;">
											<path id="&lt;Path&gt;" class="s3" d="m260.8 197.5c6.4 3.5 9.3 7.3 9.8 6.8 0.5-0.3-1.9-4.8-8.8-8.5-7-3.9-14.7-3-14.5-2.9-0.1-0.1 7.2 0.8 13.5 4.6z"/>
										</g>
										<g id="&lt;Group&gt;">
											<path id="&lt;Path&gt;" class="s1" d="m165.5 215.2c-13 12.9-18.2 28.1-17.5 44.8 0.5 13.6 24.7-6.2 37.6-19.2 13-13 25.1-46.3 49.4-48.9-23.2-4.3-56.6 10.3-69.5 23.3z"/>
										</g>
										<g id="&lt;Group&gt;">
											<path id="&lt;Path&gt;" class="s3" d="m213.5 197.5c-6.3 3.5-9.2 7.3-9.8 6.8-0.5-0.3 1.9-4.8 8.8-8.5 7-3.9 14.7-3 14.6-2.9 0-0.1-7.2 0.8-13.6 4.6z"/>
										</g>
									</g>
									<g id="&lt;Group&gt;">
										<path id="&lt;Path&gt;" class="s0" d="m239.4 408.6c-0.3-0.1 7.2-17.6 15.5-47.2 8.6-29.4 17.9-71 29.1-116.6 11.2-45.7 25.7-85.4 39.5-113.1 13.5-27.8 26.2-43.5 25.9-43.6 0.3 0.1-7.7 17.4-16 46.9-8.8 29.5-17.9 71.1-28.6 116.9-10.6 45.8-25 85.7-38.9 113.3-13.6 27.7-26.8 43.3-26.5 43.4z"/>
									</g>
								</g>
							</g>
						</g>
					</g>
				</g>
			</g>
		</g>
	</g>
</svg>