<svg version="1.2" xmlns="http://www.w3.org/2000/svg" viewBox="0 0 480 480" width="480" height="480">
	<title>Flower</title>
	<style>
		.s0 { fill: #68bc85 } 
		.s1 { fill: #6666cc } 
	</style>
	<g id="&lt;Group&gt;">
		<g id="&lt;Group&gt;">
			<path id="&lt;Path&gt;" class="s0" d="m182.4 310.8c-22.6-62.1-55.1-107-50.5-110.7 3.8-3.8 45.6 37.5 69.7 103.6 24.6 65.9 19.8 124.5 14.4 124.1-5.9 0.2-10.3-55.1-33.6-117z"/>
		</g>
		<g id="&lt;Group&gt;">
			<path id="&lt;Path&gt;" class="s0" d="m288 343.8c-21.9 14.7-33.3 35.7-36.2 32.8-2.8-2.4 4.6-29.3 27.8-45.1 23.1-16.1 50.8-13.3 52.1-9.9 1.7 3.8-22.1 6.9-43.7 22.2z"/>
		</g>
		<g id="&lt;Group&gt;">
			<path id="&lt;Path&gt;" class="s0" d="m222.3 375.8c-13.1-22.9-33.3-35.8-30.2-38.5 2.7-2.6 28.9 6.7 43 31 14.4 24.1 9.7 51.6 6.2 52.6-3.9 1.4-5.3-22.4-19-45.1z"/>
		</g>
		<g id="&lt;Group&gt;">
			<path id="&lt;Path&gt;" class="s0" d="m211.9 429.1c-0.2-5.1-0.3-14.4-0.4-27.2-0.9-75.8-3.2-277.1-25-331.5l12.1-4.8c22.6 56.7 24.9 252.5 25.9 336.1 0.1 12.8 0.2 22 0.4 27z"/>
		</g>
		<g id="&lt;Group&gt;">
			<g id="&lt;Group&gt;">
				<path id="&lt;Path&gt;" class="s1" d="m193.6 107.3c0 4-2.3 7.3-5.1 7.3-2.8 0-5.1-3.3-5.1-7.3 0-4 2.3-7.3 5.1-7.3 2.8 0 5.1 3.3 5.1 7.3z"/>
			</g>
			<g id="&lt;Group&gt;">
				<path id="&lt;Path&gt;" class="s1" d="m183.1 107.5c3.9 1.2 6.3 4.4 5.4 7.1-0.9 2.7-4.7 3.8-8.5 2.6-3.8-1.2-6.2-4.4-5.4-7.1 0.9-2.7 4.7-3.9 8.5-2.6z"/>
			</g>
			<g id="&lt;Group&gt;">
				<path id="&lt;Path&gt;" class="s1" d="m180.1 117.4c2.3-3.2 6.1-4.5 8.4-2.8 2.3 1.6 2.2 5.6-0.2 8.9-2.3 3.2-6.1 4.5-8.4 2.8-2.3-1.6-2.2-5.6 0.2-8.9z"/>
			</g>
			<g id="&lt;Group&gt;">
				<path id="&lt;Path&gt;" class="s1" d="m188.6 123.5c-2.3-3.3-2.4-7.3-0.1-8.9 2.3-1.7 6-0.4 8.4 2.8 2.4 3.3 2.4 7.3 0.1 8.9-2.3 1.7-6 0.4-8.4-2.8z"/>
			</g>
			<g id="&lt;Group&gt;">
				<path id="&lt;Path&gt;" class="s1" d="m197 117.2c-3.8 1.2-7.6 0.1-8.5-2.6-0.9-2.7 1.5-5.9 5.3-7.1 3.8-1.3 7.6-0.1 8.5 2.6 0.9 2.7-1.5 5.9-5.3 7.1z"/>
			</g>
		</g>
		<g id="&lt;Group&gt;">
			<g id="&lt;Group&gt;">
				<path id="&lt;Path&gt;" class="s1" d="m212.5 116c0 4.1-2.3 7.3-5.1 7.3-2.8 0-5.1-3.2-5.1-7.3 0-4 2.3-7.2 5.1-7.2 2.8 0 5.1 3.2 5.1 7.2z"/>
			</g>
			<g id="&lt;Group&gt;">
				<path id="&lt;Path&gt;" class="s1" d="m202 116.2c3.9 1.2 6.3 4.4 5.4 7.1-0.9 2.7-4.7 3.9-8.5 2.6-3.8-1.2-6.2-4.4-5.3-7.1 0.8-2.7 4.6-3.8 8.4-2.6z"/>
			</g>
			<g id="&lt;Group&gt;">
				<path id="&lt;Path&gt;" class="s1" d="m199 126.2c2.3-3.3 6.1-4.5 8.4-2.9 2.3 1.7 2.2 5.7-0.2 8.9-2.3 3.3-6.1 4.5-8.4 2.9-2.3-1.7-2.2-5.7 0.2-8.9z"/>
			</g>
			<g id="&lt;Group&gt;">
				<path id="&lt;Path&gt;" class="s1" d="m207.5 132.2c-2.3-3.2-2.4-7.2-0.1-8.9 2.3-1.6 6-0.4 8.4 2.9 2.4 3.2 2.4 7.2 0.1 8.9-2.3 1.6-6 0.4-8.4-2.9z"/>
			</g>
			<g id="&lt;Group&gt;">
				<path id="&lt;Path&gt;" class="s1" d="m215.9 125.9c-3.8 1.3-7.6 0.1-8.5-2.6-0.9-2.7 1.5-5.9 5.3-7.1 3.8-1.2 7.6-0.1 8.5 2.6 0.9 2.7-1.5 5.9-5.3 7.1z"/>
			</g>
		</g>
		<g id="&lt;Group&gt;">
			<g id="&lt;Group&gt;">
				<path id="&lt;Path&gt;" class="s1" d="m203.8 146.1c0 4-2.3 7.3-5.1 7.3-2.8 0-5.1-3.3-5.1-7.3 0-4 2.3-7.2 5.1-7.2 2.8 0 5.1 3.2 5.1 7.2z"/>
			</g>
			<g id="&lt;Group&gt;">
				<path id="&lt;Path&gt;" class="s1" d="m193.4 146.3c3.8 1.2 6.2 4.4 5.3 7.1-0.9 2.7-4.7 3.9-8.5 2.6-3.8-1.2-6.2-4.4-5.3-7.1 0.8-2.7 4.6-3.9 8.5-2.6z"/>
			</g>
			<g id="&lt;Group&gt;">
				<path id="&lt;Path&gt;" class="s1" d="m190.3 156.3c2.3-3.3 6.1-4.6 8.4-2.9 2.3 1.7 2.2 5.6-0.1 8.9-2.4 3.2-6.2 4.5-8.4 2.9-2.3-1.7-2.3-5.7 0.1-8.9z"/>
			</g>
			<g id="&lt;Group&gt;">
				<path id="&lt;Path&gt;" class="s1" d="m198.8 162.3c-2.3-3.3-2.4-7.2-0.1-8.9 2.3-1.7 6.1-0.4 8.4 2.9 2.4 3.2 2.4 7.2 0.2 8.9-2.3 1.6-6.1 0.3-8.5-2.9z"/>
			</g>
			<g id="&lt;Group&gt;">
				<path id="&lt;Path&gt;" class="s1" d="m207.2 156c-3.8 1.3-7.6 0.1-8.5-2.6-0.9-2.7 1.5-5.9 5.3-7.1 3.9-1.3 7.7-0.1 8.5 2.6 0.9 2.7-1.5 5.9-5.3 7.1z"/>
			</g>
		</g>
		<g id="&lt;Group&gt;">
			<g id="&lt;Group&gt;">
				<path id="&lt;Path&gt;" class="s1" d="m224.5 141.4c0 4-2.3 7.3-5.1 7.3-2.8 0-5.1-3.3-5.1-7.3 0-4 2.3-7.3 5.1-7.3 2.8 0 5.1 3.3 5.1 7.3z"/>
			</g>
			<g id="&lt;Group&gt;">
				<path id="&lt;Path&gt;" class="s1" d="m214.1 141.6c3.8 1.2 6.2 4.4 5.3 7.1-0.9 2.7-4.7 3.8-8.5 2.6-3.8-1.2-6.2-4.4-5.3-7.1 0.9-2.7 4.7-3.9 8.5-2.6z"/>
			</g>
			<g id="&lt;Group&gt;">
				<path id="&lt;Path&gt;" class="s1" d="m211 151.6c2.4-3.3 6.1-4.6 8.4-2.9 2.3 1.6 2.2 5.6-0.1 8.9-2.4 3.2-6.1 4.5-8.4 2.8-2.3-1.6-2.3-5.6 0.1-8.8z"/>
			</g>
			<g id="&lt;Group&gt;">
				<path id="&lt;Path&gt;" class="s1" d="m219.6 157.6c-2.4-3.3-2.5-7.3-0.2-8.9 2.3-1.7 6.1-0.4 8.4 2.9 2.4 3.2 2.5 7.2 0.2 8.8-2.3 1.7-6.1 0.4-8.4-2.8z"/>
			</g>
			<g id="&lt;Group&gt;">
				<path id="&lt;Path&gt;" class="s1" d="m227.9 151.3c-3.8 1.2-7.6 0.1-8.5-2.6-0.9-2.7 1.5-5.9 5.4-7.1 3.8-1.3 7.6-0.1 8.5 2.6 0.8 2.7-1.6 5.9-5.4 7.1z"/>
			</g>
		</g>
		<g id="&lt;Group&gt;">
			<g id="&lt;Group&gt;">
				<path id="&lt;Path&gt;" class="s1" d="m188.1 82.5c0 4-2.3 7.2-5.1 7.2-2.8 0-5.1-3.2-5.1-7.2 0-4.1 2.3-7.3 5.1-7.3 2.8 0 5.1 3.2 5.1 7.3z"/>
			</g>
			<g id="&lt;Group&gt;">
				<path id="&lt;Path&gt;" class="s1" d="m177.7 82.6c3.8 1.2 6.2 4.4 5.3 7.1-0.9 2.7-4.7 3.9-8.5 2.6-3.8-1.2-6.2-4.4-5.3-7.1 0.9-2.7 4.7-3.8 8.5-2.6z"/>
			</g>
			<g id="&lt;Group&gt;">
				<path id="&lt;Path&gt;" class="s1" d="m174.6 92.6c2.4-3.2 6.1-4.5 8.4-2.9 2.3 1.7 2.2 5.7-0.1 8.9-2.4 3.3-6.1 4.6-8.4 2.9-2.3-1.7-2.3-5.7 0.1-8.9z"/>
			</g>
			<g id="&lt;Group&gt;">
				<path id="&lt;Path&gt;" class="s1" d="m183.2 98.6c-2.4-3.2-2.5-7.2-0.2-8.9 2.3-1.6 6.1-0.3 8.4 2.9 2.4 3.2 2.5 7.2 0.2 8.9-2.3 1.7-6.1 0.4-8.4-2.9z"/>
			</g>
			<g id="&lt;Group&gt;">
				<path id="&lt;Path&gt;" class="s1" d="m191.5 92.3c-3.8 1.3-7.6 0.1-8.5-2.6-0.9-2.7 1.5-5.9 5.4-7.1 3.8-1.2 7.6-0.1 8.4 2.6 0.9 2.7-1.5 5.9-5.3 7.1z"/>
			</g>
		</g>
		<g id="&lt;Group&gt;">
			<g id="&lt;Group&gt;">
				<path id="&lt;Path&gt;" class="s1" d="m207.4 64.8c0 4-2.3 7.3-5.1 7.3-2.9 0-5.1-3.3-5.1-7.3 0-4 2.2-7.3 5.1-7.3 2.8 0 5.1 3.3 5.1 7.3z"/>
			</g>
			<g id="&lt;Group&gt;">
				<path id="&lt;Path&gt;" class="s1" d="m196.9 65c3.9 1.2 6.2 4.4 5.4 7.1-0.9 2.7-4.7 3.8-8.5 2.6-3.8-1.3-6.2-4.4-5.4-7.1 0.9-2.7 4.7-3.9 8.5-2.6z"/>
			</g>
			<g id="&lt;Group&gt;">
				<path id="&lt;Path&gt;" class="s1" d="m193.9 74.9c2.3-3.2 6.1-4.5 8.4-2.8 2.3 1.6 2.2 5.6-0.2 8.9-2.3 3.2-6.1 4.5-8.4 2.8-2.3-1.6-2.2-5.6 0.2-8.9z"/>
			</g>
			<g id="&lt;Group&gt;">
				<path id="&lt;Path&gt;" class="s1" d="m202.4 81c-2.4-3.3-2.4-7.3-0.1-8.9 2.3-1.7 6-0.4 8.4 2.8 2.3 3.3 2.4 7.3 0.1 8.9-2.3 1.7-6 0.4-8.4-2.8z"/>
			</g>
			<g id="&lt;Group&gt;">
				<path id="&lt;Path&gt;" class="s1" d="m210.8 74.7c-3.9 1.2-7.7 0.1-8.5-2.6-0.9-2.7 1.5-5.9 5.3-7.1 3.8-1.3 7.6-0.1 8.5 2.6 0.9 2.7-1.5 5.8-5.3 7.1z"/>
			</g>
		</g>
		<g id="&lt;Group&gt;">
			<g id="&lt;Group&gt;">
				<path id="&lt;Path&gt;" class="s1" d="m220.3 92.4c0 4-2.3 7.3-5.2 7.3-2.8 0-5.1-3.3-5.1-7.3 0-4 2.3-7.3 5.1-7.3 2.9 0 5.2 3.3 5.2 7.3z"/>
			</g>
			<g id="&lt;Group&gt;">
				<path id="&lt;Path&gt;" class="s1" d="m209.8 92.6c3.8 1.2 6.2 4.4 5.3 7.1-0.8 2.7-4.6 3.8-8.5 2.6-3.8-1.3-6.2-4.4-5.3-7.1 0.9-2.7 4.7-3.9 8.5-2.6z"/>
			</g>
			<g id="&lt;Group&gt;">
				<path id="&lt;Path&gt;" class="s1" d="m206.7 102.5c2.4-3.2 6.2-4.5 8.4-2.8 2.3 1.6 2.3 5.6-0.1 8.9-2.3 3.2-6.1 4.5-8.4 2.8-2.3-1.6-2.2-5.6 0.1-8.9z"/>
			</g>
			<g id="&lt;Group&gt;">
				<path id="&lt;Path&gt;" class="s1" d="m215.3 108.6c-2.4-3.3-2.4-7.3-0.2-8.9 2.3-1.7 6.1-0.4 8.5 2.8 2.3 3.3 2.4 7.3 0.1 8.9-2.3 1.7-6.1 0.4-8.4-2.8z"/>
			</g>
			<g id="&lt;Group&gt;">
				<path id="&lt;Path&gt;" class="s1" d="m223.6 102.3c-3.8 1.2-7.6 0.1-8.5-2.6-0.8-2.7 1.6-5.9 5.4-7.2 3.8-1.2 7.6 0 8.5 2.7 0.9 2.7-1.5 5.8-5.4 7.1z"/>
			</g>
		</g>
		<g id="&lt;Group&gt;">
			<g id="&lt;Group&gt;">
				<path id="&lt;Path&gt;" class="s1" d="m324.4 160.2c0 4.1-2.3 7.3-5.2 7.3-2.8 0-5.1-3.2-5.1-7.3 0-4 2.3-7.2 5.1-7.2 2.9 0 5.2 3.2 5.2 7.2z"/>
			</g>
			<g id="&lt;Group&gt;">
				<path id="&lt;Path&gt;" class="s1" d="m313.9 160.4c3.8 1.2 6.2 4.4 5.3 7.1-0.8 2.7-4.6 3.9-8.5 2.6-3.8-1.2-6.2-4.4-5.3-7.1 0.9-2.7 4.7-3.8 8.5-2.6z"/>
			</g>
			<g id="&lt;Group&gt;">
				<path id="&lt;Path&gt;" class="s1" d="m310.8 170.4c2.4-3.3 6.1-4.6 8.4-2.9 2.3 1.7 2.3 5.7-0.1 8.9-2.4 3.3-6.1 4.5-8.4 2.9-2.3-1.7-2.2-5.7 0.1-8.9z"/>
			</g>
			<g id="&lt;Group&gt;">
				<path id="&lt;Path&gt;" class="s1" d="m319.4 176.4c-2.4-3.2-2.5-7.2-0.2-8.9 2.3-1.7 6.1-0.4 8.4 2.9 2.4 3.2 2.5 7.2 0.2 8.9-2.3 1.6-6.1 0.3-8.4-2.9z"/>
			</g>
			<g id="&lt;Group&gt;">
				<path id="&lt;Path&gt;" class="s1" d="m327.7 170.1c-3.8 1.3-7.6 0.1-8.5-2.6-0.8-2.7 1.5-5.9 5.4-7.1 3.8-1.2 7.6-0.1 8.5 2.6 0.8 2.7-1.5 5.9-5.4 7.1z"/>
			</g>
		</g>
		<g id="&lt;Group&gt;">
			<g id="&lt;Group&gt;">
				<path id="&lt;Path&gt;" class="s1" d="m341.4 123.9c-2.9 4.6-7.2 7-9.5 5.5-2.4-1.5-2-6.4 0.9-11 2.8-4.6 7.1-7 9.5-5.5 2.4 1.5 2 6.4-0.9 11z"/>
			</g>
			<g id="&lt;Group&gt;">
				<path id="&lt;Path&gt;" class="s1" d="m336 119.1c0.2 4.4-1.9 8.1-4.7 8.2-2.9 0.2-5.3-3.2-5.6-7.6-0.2-4.4 1.9-8.1 4.7-8.2 2.9-0.2 5.3 3.3 5.6 7.6z"/>
			</g>
			<g id="&lt;Group&gt;">
				<path id="&lt;Path&gt;" class="s1" d="m339.4 121.3c-4.1 1.7-6.5 5.2-5.4 7.8 1.1 2.6 5.2 3.3 9.3 1.7 4-1.7 6.5-5.2 5.4-7.8-1.1-2.6-5.3-3.4-9.3-1.7z"/>
			</g>
		</g>
		<g id="&lt;Group&gt;">
			<g id="&lt;Group&gt;">
				<path id="&lt;Path&gt;" class="s1" d="m334.9 189.4c-2.9 4.6-7.1 7-9.5 5.5-2.4-1.5-2-6.4 0.9-11 2.9-4.5 7.1-7 9.5-5.5 2.4 1.5 2 6.4-0.9 11z"/>
			</g>
			<g id="&lt;Group&gt;">
				<path id="&lt;Path&gt;" class="s1" d="m329.5 184.7c0.2 4.3-1.9 8-4.7 8.1-2.8 0.2-5.3-3.2-5.5-7.6-0.3-4.4 1.8-8.1 4.6-8.2 2.9-0.2 5.3 3.3 5.6 7.7z"/>
			</g>
			<g id="&lt;Group&gt;">
				<path id="&lt;Path&gt;" class="s1" d="m332.9 186.8c-4.1 1.7-6.5 5.2-5.4 7.8 1.1 2.6 5.3 3.3 9.3 1.7 4.1-1.7 6.5-5.2 5.4-7.8-1.1-2.6-5.3-3.4-9.3-1.7z"/>
			</g>
		</g>
		<g id="&lt;Group&gt;">
			<g id="&lt;Group&gt;">
				<path id="&lt;Path&gt;" class="s1" d="m338.1 171.8c-5.4-0.4-9.5-3.1-9.3-5.9 0.2-2.8 4.8-4.7 10.2-4.3 5.4 0.4 9.5 3.1 9.3 5.9-0.2 2.8-4.8 4.7-10.2 4.3z"/>
			</g>
			<g id="&lt;Group&gt;">
				<path id="&lt;Path&gt;" class="s1" d="m339.8 164.8c-3.8 2.2-8 2-9.4-0.4-1.5-2.4 0.4-6.2 4.2-8.4 3.8-2.3 8-2.1 9.4 0.3 1.5 2.5-0.4 6.2-4.2 8.5z"/>
			</g>
			<g id="&lt;Group&gt;">
				<path id="&lt;Path&gt;" class="s1" d="m339.5 168.8c-3.4-2.8-7.6-3.3-9.4-1.2-1.8 2.2-0.6 6.2 2.8 9.1 3.4 2.8 7.6 3.3 9.4 1.1 1.8-2.1 0.5-6.2-2.8-9z"/>
			</g>
		</g>
		<g id="&lt;Group&gt;">
			<g id="&lt;Group&gt;">
				<path id="&lt;Path&gt;" class="s1" d="m298.2 272.6c-2.9 4.6-7.2 7.1-9.6 5.6-2.4-1.5-2-6.5 0.9-11 2.9-4.6 7.2-7.1 9.6-5.6 2.3 1.5 1.9 6.5-0.9 11z"/>
			</g>
			<g id="&lt;Group&gt;">
				<path id="&lt;Path&gt;" class="s1" d="m292.7 267.9c0.2 4.4-1.9 8.1-4.7 8.2-2.8 0.2-5.3-3.3-5.5-7.7-0.2-4.3 1.9-8 4.7-8.2 2.8-0.1 5.3 3.3 5.5 7.7z"/>
			</g>
			<g id="&lt;Group&gt;">
				<path id="&lt;Path&gt;" class="s1" d="m296.1 270.1c-4 1.6-6.4 5.1-5.4 7.7 1.1 2.6 5.3 3.4 9.3 1.7 4.1-1.7 6.5-5.1 5.4-7.7-1.1-2.7-5.2-3.4-9.3-1.7z"/>
			</g>
		</g>
		<g id="&lt;Group&gt;">
			<g id="&lt;Group&gt;">
				<path id="&lt;Path&gt;" class="s1" d="m207 253.4c4 3.7 5.6 8.4 3.7 10.4-1.9 2.1-6.7 0.8-10.7-2.9-3.9-3.6-5.6-8.3-3.7-10.4 2-2 6.7-0.7 10.7 2.9z"/>
			</g>
			<g id="&lt;Group&gt;">
				<path id="&lt;Path&gt;" class="s1" d="m201.3 257.9c4.4 0.6 7.6 3.3 7.2 6.1-0.3 2.8-4.2 4.6-8.5 4.1-4.4-0.6-7.6-3.4-7.2-6.2 0.4-2.8 4.2-4.6 8.5-4z"/>
			</g>
			<g id="&lt;Group&gt;">
				<path id="&lt;Path&gt;" class="s1" d="m204.1 255c0.9 4.2 3.9 7.3 6.6 6.7 2.8-0.6 4.3-4.6 3.4-8.9-0.9-4.3-3.9-7.3-6.6-6.7-2.8 0.6-4.3 4.6-3.4 8.9z"/>
			</g>
		</g>
		<g id="&lt;Group&gt;">
			<g id="&lt;Group&gt;">
				<path id="&lt;Path&gt;" class="s1" d="m291 158.5c1.2 5.2 0 10-2.8 10.6-2.7 0.7-5.9-3.1-7.1-8.4-1.2-5.3 0-10 2.8-10.7 2.8-0.6 6 3.2 7.1 8.5z"/>
			</g>
			<g id="&lt;Group&gt;">
				<path id="&lt;Path&gt;" class="s1" d="m283.8 159c3.3 2.9 4.4 7 2.5 9.1-1.9 2.1-6.1 1.4-9.3-1.5-3.3-3-4.4-7.1-2.5-9.2 1.9-2.1 6.1-1.4 9.3 1.6z"/>
			</g>
			<g id="&lt;Group&gt;">
				<path id="&lt;Path&gt;" class="s1" d="m287.8 158.1c-1.7 4-0.9 8.2 1.7 9.3 2.6 1.1 6.1-1.4 7.7-5.4 1.7-4.1 1-8.2-1.6-9.3-2.6-1.1-6.1 1.3-7.8 5.4z"/>
			</g>
		</g>
		<g id="&lt;Group&gt;">
			<g id="&lt;Group&gt;">
				<path id="&lt;Path&gt;" class="s1" d="m238.2 117.2c-3.8 3.8-8.5 5.3-10.5 3.3-2-2-0.5-6.7 3.3-10.6 3.8-3.8 8.5-5.3 10.5-3.3 2 2 0.6 6.8-3.3 10.6z"/>
			</g>
			<g id="&lt;Group&gt;">
				<path id="&lt;Path&gt;" class="s1" d="m234 111.4c-0.8 4.3-3.6 7.4-6.4 6.9-2.8-0.5-4.5-4.4-3.7-8.7 0.7-4.3 3.6-7.4 6.4-6.9 2.7 0.4 4.4 4.3 3.7 8.7z"/>
			</g>
			<g id="&lt;Group&gt;">
				<path id="&lt;Path&gt;" class="s1" d="m236.8 114.2c-4.3 0.8-7.4 3.6-6.9 6.4 0.4 2.8 4.3 4.4 8.7 3.7 4.3-0.7 7.4-3.6 6.9-6.4-0.5-2.8-4.4-4.4-8.7-3.7z"/>
			</g>
		</g>
		<g id="&lt;Group&gt;">
			<g id="&lt;Group&gt;">
				<path id="&lt;Path&gt;" class="s1" d="m227.3 126.2c-3.8 3.8-8.5 5.3-10.5 3.3-2-2-0.6-6.7 3.3-10.5 3.8-3.8 8.5-5.3 10.5-3.3 2 2 0.5 6.7-3.3 10.5z"/>
			</g>
			<g id="&lt;Group&gt;">
				<path id="&lt;Path&gt;" class="s1" d="m223 120.4c-0.7 4.3-3.6 7.4-6.4 7-2.8-0.5-4.4-4.4-3.7-8.7 0.8-4.4 3.6-7.5 6.4-7 2.8 0.5 4.5 4.4 3.7 8.7z"/>
			</g>
			<g id="&lt;Group&gt;">
				<path id="&lt;Path&gt;" class="s1" d="m225.9 123.3c-4.3 0.7-7.5 3.6-7 6.4 0.5 2.7 4.4 4.4 8.7 3.7 4.3-0.8 7.5-3.7 7-6.4-0.5-2.8-4.4-4.5-8.7-3.7z"/>
			</g>
		</g>
		<g id="&lt;Group&gt;">
			<g id="&lt;Group&gt;">
				<path id="&lt;Path&gt;" class="s1" d="m182 133.9c4.7 2.5 7.5 6.6 6.2 9.1-1.4 2.5-6.3 2.5-11.1-0.1-4.7-2.6-7.5-6.7-6.2-9.2 1.4-2.4 6.3-2.4 11.1 0.2z"/>
			</g>
			<g id="&lt;Group&gt;">
				<path id="&lt;Path&gt;" class="s1" d="m177.6 139.6c4.4-0.5 8.2 1.4 8.5 4.2 0.4 2.8-2.9 5.5-7.2 6-4.4 0.5-8.2-1.3-8.5-4.1-0.4-2.8 2.9-5.5 7.2-6.1z"/>
			</g>
			<g id="&lt;Group&gt;">
				<path id="&lt;Path&gt;" class="s1" d="m179.6 136.1c1.9 3.9 5.6 6.1 8.1 4.8 2.5-1.2 3-5.4 1-9.4-1.9-3.9-5.6-6.1-8.1-4.8-2.5 1.2-3 5.5-1 9.4z"/>
			</g>
		</g>
		<g id="&lt;Group&gt;">
			<g id="&lt;Group&gt;">
				<path id="&lt;Path&gt;" class="s1" d="m184.9 56.6c3.1 4.5 3.7 9.4 1.4 11-2.3 1.6-6.7-0.7-9.8-5.2-3.1-4.4-3.7-9.3-1.3-10.9 2.3-1.7 6.7 0.7 9.7 5.1z"/>
			</g>
			<g id="&lt;Group&gt;">
				<path id="&lt;Path&gt;" class="s1" d="m178.4 59.8c4.2 1.5 6.7 4.9 5.7 7.5-0.9 2.7-5.1 3.6-9.2 2.1-4.1-1.5-6.7-4.9-5.7-7.6 1-2.6 5.1-3.6 9.2-2z"/>
			</g>
			<g id="&lt;Group&gt;">
				<path id="&lt;Path&gt;" class="s1" d="m181.8 57.5c-0.1 4.4 2.2 7.9 5 8 2.8 0 5.2-3.5 5.2-7.9 0.1-4.4-2.2-8-5-8-2.8-0.1-5.2 3.5-5.2 7.9z"/>
			</g>
		</g>
		<g id="&lt;Group&gt;">
			<path id="&lt;Path&gt;" class="s0" d="m249 425.4l-12.9-1.7c14.2-107.7 55.1-250.2 84.2-293.2l10.8 7.3c-25.4 37.5-66.8 171.3-82.1 287.6z"/>
		</g>
		<g id="&lt;Group&gt;">
			<g id="&lt;Group&gt;">
				<path id="&lt;Path&gt;" class="s1" d="m292 181.8c0 4.1-2.3 7.3-5.1 7.3-2.8 0-5.1-3.2-5.1-7.3 0-4 2.3-7.2 5.1-7.2 2.8 0 5.1 3.2 5.1 7.2z"/>
			</g>
			<g id="&lt;Group&gt;">
				<path id="&lt;Path&gt;" class="s1" d="m281.6 182c3.8 1.2 6.2 4.4 5.3 7.1-0.9 2.7-4.7 3.9-8.5 2.6-3.8-1.2-6.2-4.4-5.3-7.1 0.8-2.7 4.6-3.8 8.5-2.6z"/>
			</g>
			<g id="&lt;Group&gt;">
				<path id="&lt;Path&gt;" class="s1" d="m278.5 192c2.3-3.3 6.1-4.5 8.4-2.9 2.3 1.7 2.2 5.7-0.1 8.9-2.4 3.3-6.2 4.5-8.5 2.9-2.2-1.7-2.2-5.7 0.2-8.9z"/>
			</g>
			<g id="&lt;Group&gt;">
				<path id="&lt;Path&gt;" class="s1" d="m287 198c-2.3-3.2-2.4-7.2-0.1-8.9 2.3-1.6 6-0.4 8.4 2.9 2.4 3.2 2.4 7.2 0.1 8.9-2.2 1.6-6 0.4-8.4-2.9z"/>
			</g>
			<g id="&lt;Group&gt;">
				<path id="&lt;Path&gt;" class="s1" d="m295.4 191.7c-3.8 1.3-7.6 0.1-8.5-2.6-0.9-2.7 1.5-5.9 5.3-7.1 3.8-1.2 7.7-0.1 8.5 2.6 0.9 2.7-1.5 5.9-5.3 7.1z"/>
			</g>
		</g>
		<g id="&lt;Group&gt;">
			<g id="&lt;Group&gt;">
				<path id="&lt;Path&gt;" class="s1" d="m310.9 159.9c0 4.1-2.3 7.3-5.2 7.3-2.8 0-5.1-3.2-5.1-7.3 0-4 2.3-7.2 5.1-7.2 2.9 0 5.2 3.2 5.2 7.2z"/>
			</g>
			<g id="&lt;Group&gt;">
				<path id="&lt;Path&gt;" class="s1" d="m300.4 160.1c3.8 1.2 6.2 4.4 5.3 7.1-0.8 2.7-4.6 3.9-8.5 2.6-3.8-1.2-6.2-4.4-5.3-7.1 0.9-2.7 4.7-3.8 8.5-2.6z"/>
			</g>
			<g id="&lt;Group&gt;">
				<path id="&lt;Path&gt;" class="s1" d="m297.3 170.1c2.4-3.3 6.1-4.6 8.4-2.9 2.3 1.7 2.3 5.7-0.1 8.9-2.4 3.2-6.1 4.5-8.4 2.9-2.3-1.7-2.2-5.7 0.1-8.9z"/>
			</g>
			<g id="&lt;Group&gt;">
				<path id="&lt;Path&gt;" class="s1" d="m305.9 176.1c-2.4-3.2-2.5-7.2-0.2-8.9 2.3-1.7 6.1-0.4 8.4 2.9 2.4 3.2 2.5 7.2 0.2 8.9-2.3 1.6-6.1 0.3-8.4-2.9z"/>
			</g>
			<g id="&lt;Group&gt;">
				<path id="&lt;Path&gt;" class="s1" d="m314.2 169.8c-3.8 1.3-7.6 0.1-8.5-2.6-0.8-2.7 1.6-5.9 5.4-7.1 3.8-1.2 7.6-0.1 8.5 2.6 0.8 2.7-1.5 5.9-5.4 7.1z"/>
			</g>
		</g>
		<g id="&lt;Group&gt;">
			<g id="&lt;Group&gt;">
				<path id="&lt;Path&gt;" class="s1" d="m313.7 186.7c0 4-2.3 7.2-5.1 7.2-2.9 0-5.1-3.2-5.1-7.2 0-4 2.2-7.3 5.1-7.3 2.8 0 5.1 3.3 5.1 7.3z"/>
			</g>
			<g id="&lt;Group&gt;">
				<path id="&lt;Path&gt;" class="s1" d="m303.2 186.8c3.9 1.3 6.2 4.5 5.4 7.1-0.9 2.7-4.7 3.9-8.5 2.7-3.8-1.3-6.2-4.5-5.4-7.2 0.9-2.6 4.7-3.8 8.5-2.6z"/>
			</g>
			<g id="&lt;Group&gt;">
				<path id="&lt;Path&gt;" class="s1" d="m300.2 196.8c2.3-3.2 6.1-4.5 8.4-2.9 2.3 1.7 2.2 5.7-0.2 8.9-2.3 3.3-6.1 4.6-8.4 2.9-2.3-1.7-2.2-5.6 0.2-8.9z"/>
			</g>
			<g id="&lt;Group&gt;">
				<path id="&lt;Path&gt;" class="s1" d="m308.7 202.8c-2.4-3.2-2.4-7.2-0.1-8.9 2.3-1.6 6-0.3 8.4 2.9 2.3 3.3 2.4 7.2 0.1 8.9-2.3 1.7-6 0.4-8.4-2.9z"/>
			</g>
			<g id="&lt;Group&gt;">
				<path id="&lt;Path&gt;" class="s1" d="m317.1 196.6c-3.8 1.2-7.7 0-8.5-2.7-0.9-2.6 1.5-5.8 5.3-7.1 3.8-1.2 7.6 0 8.5 2.6 0.9 2.7-1.5 5.9-5.3 7.2z"/>
			</g>
		</g>
		<g id="&lt;Group&gt;">
			<g id="&lt;Group&gt;">
				<path id="&lt;Path&gt;" class="s1" d="m305.7 203.5c0 4-2.3 7.2-5.1 7.2-2.8 0-5.1-3.2-5.1-7.2 0-4 2.3-7.3 5.1-7.3 2.8 0 5.1 3.3 5.1 7.3z"/>
			</g>
			<g id="&lt;Group&gt;">
				<path id="&lt;Path&gt;" class="s1" d="m295.3 203.6c3.8 1.3 6.2 4.5 5.3 7.1-0.9 2.7-4.7 3.9-8.5 2.7-3.8-1.3-6.2-4.5-5.3-7.1 0.9-2.7 4.7-3.9 8.5-2.7z"/>
			</g>
			<g id="&lt;Group&gt;">
				<path id="&lt;Path&gt;" class="s1" d="m292.2 213.6c2.4-3.2 6.1-4.5 8.4-2.9 2.3 1.7 2.2 5.7-0.1 8.9-2.4 3.3-6.1 4.6-8.4 2.9-2.3-1.6-2.3-5.6 0.1-8.9z"/>
			</g>
			<g id="&lt;Group&gt;">
				<path id="&lt;Path&gt;" class="s1" d="m300.8 219.6c-2.4-3.2-2.5-7.2-0.2-8.9 2.3-1.6 6.1-0.3 8.4 2.9 2.4 3.3 2.5 7.3 0.2 8.9-2.3 1.7-6.1 0.4-8.4-2.9z"/>
			</g>
			<g id="&lt;Group&gt;">
				<path id="&lt;Path&gt;" class="s1" d="m309.1 213.4c-3.8 1.2-7.6 0-8.5-2.7-0.9-2.6 1.5-5.8 5.4-7.1 3.8-1.2 7.6 0 8.4 2.7 0.9 2.6-1.5 5.8-5.3 7.1z"/>
			</g>
		</g>
		<g id="&lt;Group&gt;">
			<g id="&lt;Group&gt;">
				<path id="&lt;Path&gt;" class="s1" d="m315.5 129.6c0 4-2.3 7.2-5.1 7.2-2.9 0-5.1-3.2-5.1-7.2 0-4.1 2.2-7.3 5.1-7.3 2.8 0 5.1 3.2 5.1 7.3z"/>
			</g>
			<g id="&lt;Group&gt;">
				<path id="&lt;Path&gt;" class="s1" d="m305 129.7c3.9 1.3 6.2 4.4 5.4 7.1-0.9 2.7-4.7 3.9-8.5 2.7-3.8-1.3-6.2-4.5-5.4-7.2 0.9-2.6 4.7-3.8 8.5-2.6z"/>
			</g>
			<g id="&lt;Group&gt;">
				<path id="&lt;Path&gt;" class="s1" d="m302 139.7c2.3-3.2 6.1-4.5 8.4-2.9 2.3 1.7 2.2 5.7-0.2 8.9-2.3 3.3-6.1 4.6-8.4 2.9-2.3-1.7-2.2-5.6 0.2-8.9z"/>
			</g>
			<g id="&lt;Group&gt;">
				<path id="&lt;Path&gt;" class="s1" d="m310.5 145.7c-2.4-3.2-2.4-7.2-0.1-8.9 2.3-1.6 6-0.3 8.4 2.9 2.3 3.3 2.4 7.2 0.1 8.9-2.3 1.7-6 0.4-8.4-2.9z"/>
			</g>
			<g id="&lt;Group&gt;">
				<path id="&lt;Path&gt;" class="s1" d="m318.9 139.5c-3.8 1.2-7.7 0-8.5-2.7-0.9-2.7 1.5-5.8 5.3-7.1 3.8-1.2 7.6 0 8.5 2.6 0.9 2.7-1.5 5.9-5.3 7.2z"/>
			</g>
		</g>
		<g id="&lt;Group&gt;">
			<g id="&lt;Group&gt;">
				<path id="&lt;Path&gt;" class="s1" d="m337.9 138.9c0 4-2.3 7.3-5.1 7.3-2.8 0-5.1-3.3-5.1-7.3 0-4 2.3-7.2 5.1-7.2 2.8 0 5.1 3.2 5.1 7.2z"/>
			</g>
			<g id="&lt;Group&gt;">
				<path id="&lt;Path&gt;" class="s1" d="m327.5 139.1c3.8 1.2 6.2 4.4 5.3 7.1-0.9 2.7-4.7 3.9-8.5 2.6-3.8-1.2-6.2-4.4-5.3-7.1 0.9-2.7 4.7-3.9 8.5-2.6z"/>
			</g>
			<g id="&lt;Group&gt;">
				<path id="&lt;Path&gt;" class="s1" d="m324.4 149.1c2.4-3.3 6.1-4.6 8.4-2.9 2.3 1.7 2.2 5.6-0.1 8.9-2.4 3.2-6.2 4.5-8.4 2.9-2.3-1.7-2.3-5.7 0.1-8.9z"/>
			</g>
			<g id="&lt;Group&gt;">
				<path id="&lt;Path&gt;" class="s1" d="m332.9 155.1c-2.3-3.3-2.4-7.2-0.1-8.9 2.3-1.7 6.1-0.4 8.4 2.9 2.4 3.2 2.4 7.2 0.2 8.9-2.3 1.6-6.1 0.3-8.5-2.9z"/>
			</g>
			<g id="&lt;Group&gt;">
				<path id="&lt;Path&gt;" class="s1" d="m341.3 148.8c-3.8 1.3-7.6 0.1-8.5-2.6-0.9-2.7 1.5-5.9 5.3-7.1 3.9-1.3 7.7-0.1 8.5 2.6 0.9 2.7-1.5 5.9-5.3 7.1z"/>
			</g>
		</g>
		<g id="&lt;Group&gt;">
			<g id="&lt;Group&gt;">
				<path id="&lt;Path&gt;" class="s1" d="m284.2 284c0 4-2.2 7.2-5.1 7.2-2.8 0-5.1-3.2-5.1-7.2 0-4 2.3-7.3 5.1-7.3 2.9 0 5.1 3.3 5.1 7.3z"/>
			</g>
			<g id="&lt;Group&gt;">
				<path id="&lt;Path&gt;" class="s1" d="m273.8 284.1c3.8 1.3 6.2 4.5 5.3 7.1-0.8 2.7-4.6 3.9-8.5 2.7-3.8-1.3-6.2-4.5-5.3-7.1 0.9-2.7 4.7-3.9 8.5-2.7z"/>
			</g>
			<g id="&lt;Group&gt;">
				<path id="&lt;Path&gt;" class="s1" d="m270.7 294.1c2.4-3.2 6.1-4.5 8.4-2.9 2.3 1.7 2.3 5.7-0.1 8.9-2.4 3.3-6.1 4.6-8.4 2.9-2.3-1.6-2.2-5.6 0.1-8.9z"/>
			</g>
			<g id="&lt;Group&gt;">
				<path id="&lt;Path&gt;" class="s1" d="m279.3 300.1c-2.4-3.2-2.5-7.2-0.2-8.9 2.3-1.6 6.1-0.3 8.4 2.9 2.4 3.3 2.5 7.2 0.2 8.9-2.3 1.7-6.1 0.4-8.4-2.9z"/>
			</g>
			<g id="&lt;Group&gt;">
				<path id="&lt;Path&gt;" class="s1" d="m287.6 293.9c-3.8 1.2-7.6 0-8.5-2.7-0.8-2.6 1.5-5.8 5.4-7.1 3.8-1.2 7.6 0 8.5 2.7 0.8 2.6-1.6 5.8-5.4 7.1z"/>
			</g>
		</g>
		<g id="&lt;Group&gt;">
			<g id="&lt;Group&gt;">
				<path id="&lt;Path&gt;" class="s1" d="m270.2 265.3c0 4-2.3 7.3-5.1 7.3-2.8 0-5.1-3.3-5.1-7.3 0-4 2.3-7.3 5.1-7.3 2.8 0 5.1 3.3 5.1 7.3z"/>
			</g>
			<g id="&lt;Group&gt;">
				<path id="&lt;Path&gt;" class="s1" d="m259.8 265.5c3.8 1.2 6.2 4.4 5.3 7.1-0.9 2.7-4.7 3.8-8.5 2.6-3.8-1.2-6.2-4.4-5.3-7.1 0.9-2.7 4.7-3.9 8.5-2.6z"/>
			</g>
			<g id="&lt;Group&gt;">
				<path id="&lt;Path&gt;" class="s1" d="m256.7 275.4c2.4-3.2 6.1-4.5 8.4-2.8 2.3 1.6 2.2 5.6-0.1 8.9-2.4 3.2-6.1 4.5-8.4 2.8-2.3-1.6-2.3-5.6 0.1-8.9z"/>
			</g>
			<g id="&lt;Group&gt;">
				<path id="&lt;Path&gt;" class="s1" d="m265.3 281.5c-2.4-3.3-2.5-7.3-0.2-8.9 2.3-1.7 6.1-0.4 8.4 2.8 2.4 3.3 2.5 7.3 0.2 8.9-2.3 1.7-6.1 0.4-8.4-2.8z"/>
			</g>
			<g id="&lt;Group&gt;">
				<path id="&lt;Path&gt;" class="s1" d="m273.6 275.2c-3.8 1.2-7.6 0.1-8.5-2.6-0.9-2.7 1.5-5.9 5.4-7.1 3.8-1.3 7.6-0.1 8.4 2.6 0.9 2.7-1.5 5.9-5.3 7.1z"/>
			</g>
		</g>
		<g id="&lt;Group&gt;">
			<g id="&lt;Group&gt;">
				<path id="&lt;Path&gt;" class="s1" d="m211.7 222.2c0 4-2.3 7.3-5.2 7.3-2.8 0-5.1-3.3-5.1-7.3 0-4 2.3-7.3 5.1-7.3 2.9 0 5.2 3.3 5.2 7.3z"/>
			</g>
			<g id="&lt;Group&gt;">
				<path id="&lt;Path&gt;" class="s1" d="m201.2 222.4c3.8 1.2 6.2 4.4 5.3 7.1-0.8 2.7-4.6 3.8-8.5 2.6-3.8-1.2-6.2-4.4-5.3-7.1 0.9-2.7 4.7-3.9 8.5-2.6z"/>
			</g>
			<g id="&lt;Group&gt;">
				<path id="&lt;Path&gt;" class="s1" d="m198.1 232.4c2.4-3.3 6.2-4.6 8.4-2.9 2.3 1.7 2.3 5.6-0.1 8.9-2.4 3.2-6.1 4.5-8.4 2.9-2.3-1.7-2.2-5.7 0.1-8.9z"/>
			</g>
			<g id="&lt;Group&gt;">
				<path id="&lt;Path&gt;" class="s1" d="m206.7 238.4c-2.4-3.3-2.4-7.2-0.2-8.9 2.3-1.7 6.1-0.4 8.5 2.9 2.3 3.2 2.4 7.2 0.1 8.9-2.3 1.6-6.1 0.3-8.4-2.9z"/>
			</g>
			<g id="&lt;Group&gt;">
				<path id="&lt;Path&gt;" class="s1" d="m215 232.1c-3.8 1.2-7.6 0.1-8.5-2.6-0.8-2.7 1.6-5.9 5.4-7.1 3.8-1.3 7.6-0.1 8.5 2.6 0.8 2.7-1.5 5.9-5.4 7.1z"/>
			</g>
		</g>
		<g id="&lt;Group&gt;">
			<g id="&lt;Group&gt;">
				<path id="&lt;Path&gt;" class="s1" d="m224.5 242.2c0 4-2.3 7.2-5.1 7.2-2.8 0-5.1-3.2-5.1-7.2 0-4 2.3-7.3 5.1-7.3 2.8 0 5.1 3.3 5.1 7.3z"/>
			</g>
			<g id="&lt;Group&gt;">
				<path id="&lt;Path&gt;" class="s1" d="m214.1 242.3c3.8 1.3 6.2 4.5 5.3 7.1-0.9 2.7-4.7 3.9-8.5 2.7-3.8-1.3-6.2-4.5-5.3-7.1 0.9-2.7 4.7-3.9 8.5-2.7z"/>
			</g>
			<g id="&lt;Group&gt;">
				<path id="&lt;Path&gt;" class="s1" d="m211 252.3c2.4-3.2 6.1-4.5 8.4-2.9 2.3 1.7 2.2 5.7-0.1 8.9-2.4 3.3-6.1 4.6-8.4 2.9-2.3-1.7-2.3-5.6 0.1-8.9z"/>
			</g>
			<g id="&lt;Group&gt;">
				<path id="&lt;Path&gt;" class="s1" d="m219.6 258.3c-2.4-3.2-2.5-7.2-0.2-8.9 2.3-1.6 6.1-0.3 8.4 2.9 2.4 3.3 2.5 7.2 0.2 8.9-2.3 1.7-6.1 0.4-8.4-2.9z"/>
			</g>
			<g id="&lt;Group&gt;">
				<path id="&lt;Path&gt;" class="s1" d="m227.9 252.1c-3.8 1.2-7.6 0-8.5-2.7-0.9-2.6 1.5-5.8 5.4-7.1 3.8-1.2 7.6 0 8.5 2.6 0.8 2.7-1.6 5.9-5.4 7.2z"/>
			</g>
		</g>
	</g>
</svg>