<svg version="1.2" xmlns="http://www.w3.org/2000/svg" viewBox="0 0 480 480" width="480" height="480">
	<title>Flower</title>
	<style>
		.s0 { fill: #aec612 } 
		.s1 { fill: #f0f0f0 } 
		.s2 { fill: #dcdcdc } 
		.s3 { fill: #f5f5f5 } 
		.s4 { fill: #d8e490 } 
		.s5 { fill: #ff9357 } 
		.s6 { fill: #864520 } 
	</style>
	<g id="&lt;Group&gt;">
		<g id="&lt;Group&gt;">
			<path id="&lt;Path&gt;" class="s0" d="m297.5 260.7c-31.5 25.3-53 52.5-59.7 77.6-7.6 24.6-0.4 47.1 2.8 49 5.1 3.1 5.4-14.7 18.5-35.9 12.1-21.8 36.9-47 68.5-72.3 31.5-25.3 50.9-53.8 56.5-79.5 6.6-25.2-0.6-47.7 0.4-47.1-1-0.6-1.3 17.3-15.4 37.8-13.2 21.2-40.1 45.1-71.6 70.4z"/>
		</g>
		<g id="&lt;Group&gt;">
			<path id="&lt;Path&gt;" class="s0" d="m177.6 236.9c27.5 58.6 59 173.8 59 173.8 0 0 5.4-120.6-27.1-189.8-34.1-68.8-68.5-98.9-88.8-113.7-21.3-14.6-28.6-13.9-29-14.3-0.1-0.1 4.6 10 19.3 31.4 14.2 21.9 38.3 55.1 66.6 112.6z"/>
		</g>
		<g id="&lt;Group&gt;">
			<path id="&lt;Path&gt;" class="s0" d="m243.9 418.9l-11-0.4c0.6-17.1 1-40.6 1.3-65.6 0.7-47.4 1.4-96.5 4-112.9l10.9 1.8c-2.5 15.6-3.2 66.4-3.9 111.2-0.3 25.1-0.7 48.7-1.3 65.9z"/>
		</g>
		<g id="&lt;Group&gt;">
			<g id="&lt;Group&gt;">
				<g id="&lt;Group&gt;">
					<path id="&lt;Path&gt;" class="s1" d="m273.8 159c0 43.3-14.9 58.7-33.3 58.7-18.5 0-33.4-15.4-33.4-58.7 0-43.4 14.9-98.2 33.4-98.2 18.4 0 33.3 54.8 33.3 98.2z"/>
				</g>
				<g id="&lt;Group&gt;">
					<path id="&lt;Path&gt;" class="s2" d="m238.2 175.9c0 29.3 1 34.7 2.3 34.7 1.2 0 2.2-5.4 2.2-34.7 0-29.3-1-71.4-2.2-71.4-1.3 0-2.3 42.1-2.3 71.4z"/>
				</g>
				<g id="&lt;Group&gt;">
					<path id="&lt;Path&gt;" class="s1" d="m170.1 221.6c37.5-21.7 58.4-16.5 67.6-0.5 9.2 16 3.3 36.6-34.2 58.3-37.5 21.7-92.5 36.1-101.7 20.1-9.2-15.9 30.8-56.3 68.3-77.9z"/>
				</g>
				<g id="&lt;Group&gt;">
					<path id="&lt;Path&gt;" class="s2" d="m202.6 244c25.3-14.7 29.5-18.2 28.9-19.3-0.6-1.1-5.8 0.7-31.2 15.3-25.3 14.7-61.3 36.6-60.6 37.7 0.6 1.1 37.5-19.1 62.9-33.7z"/>
				</g>
				<g id="&lt;Group&gt;">
					<path id="&lt;Path&gt;" class="s1" d="m276.2 280.1c-37.5-21.7-43.4-42.3-34.2-58.3 9.2-15.9 30-21.2 67.6 0.5 37.5 21.7 77.5 62 68.3 78-9.3 15.9-64.2 1.5-101.7-20.2z"/>
				</g>
				<g id="&lt;Group&gt;">
					<path id="&lt;Path&gt;" class="s2" d="m279.3 240.8c-25.3-14.7-30.5-16.5-31.1-15.4-0.6 1.1 3.5 4.7 28.9 19.3 25.3 14.6 62.3 34.8 62.9 33.7 0.6-1.1-35.3-23-60.7-37.6z"/>
				</g>
			</g>
			<g id="&lt;Group&gt;">
				<g id="&lt;Group&gt;">
					<path id="&lt;Path&gt;" class="s3" d="m205.8 278c0-43.3 15-58.7 33.4-58.7 18.4 0 33.4 15.4 33.4 58.7 0 43.3-15 98.2-33.4 98.2-18.4 0-33.4-54.9-33.4-98.2z"/>
				</g>
				<g id="&lt;Group&gt;">
					<path id="&lt;Path&gt;" class="s2" d="m241.5 261.1c0-29.3-1-34.7-2.3-34.7-1.2 0-2.3 5.4-2.3 34.7 0 29.3 1.1 71.3 2.3 71.3 1.3 0 2.3-42 2.3-71.3z"/>
				</g>
				<g id="&lt;Group&gt;">
					<path id="&lt;Path&gt;" class="s3" d="m309.6 215.4c-37.6 21.7-58.4 16.5-67.6 0.5-9.2-16-3.3-36.6 34.2-58.3 37.5-21.7 92.4-36.1 101.7-20.2 9.2 16-30.8 56.3-68.3 78z"/>
				</g>
				<g id="&lt;Group&gt;">
					<path id="&lt;Path&gt;" class="s2" d="m277.1 193c-25.4 14.6-29.5 18.2-28.9 19.3 0.6 1.1 5.8-0.7 31.1-15.4 25.4-14.6 61.3-36.5 60.7-37.6-0.6-1.1-37.6 19.1-62.9 33.7z"/>
				</g>
				<g id="&lt;Group&gt;">
					<path id="&lt;Path&gt;" class="s3" d="m203.5 156.9c37.5 21.6 43.4 42.3 34.2 58.3-9.2 15.9-30.1 21.2-67.6-0.5-37.5-21.7-77.5-62-68.3-78 9.2-16 64.2-1.5 101.7 20.2z"/>
				</g>
				<g id="&lt;Group&gt;">
					<path id="&lt;Path&gt;" class="s2" d="m200.3 196.2c25.4 14.7 30.6 16.5 31.2 15.4 0.6-1.1-3.6-4.7-28.9-19.3-25.4-14.7-62.3-34.8-62.9-33.7-0.7 1.1 35.3 23 60.6 37.6z"/>
				</g>
			</g>
			<g id="&lt;Group&gt;">
				<g id="&lt;Group&gt;">
					<path id="&lt;Path&gt;" class="s4" d="m234.4 230.1c0-8.5 3-11.5 6.6-11.5 3.6 0 6.5 3 6.5 11.5 0 8.4-6.5 19.1-6.5 19.1 0 0-6.6-10.7-6.6-19.1z"/>
				</g>
				<g id="&lt;Group&gt;">
					<path id="&lt;Path&gt;" class="s4" d="m247.4 230c-7.3-4.2-8.5-8.2-6.7-11.4 1.8-3.1 5.9-4.1 13.2 0.1 7.4 4.3 13.4 15.3 13.4 15.3 0 0-12.6 0.3-19.9-4z"/>
				</g>
				<g id="&lt;Group&gt;">
					<path id="&lt;Path&gt;" class="s4" d="m253.9 218.8c-7.4 4.2-11.4 3.2-13.2 0.1-1.8-3.1-0.7-7.2 6.6-11.4 7.4-4.2 19.9-3.9 19.9-3.9 0 0-6 11-13.3 15.2z"/>
				</g>
				<g id="&lt;Group&gt;">
					<path id="&lt;Path&gt;" class="s4" d="m247.4 207.6c0 8.5-3 11.5-6.6 11.5-3.6 0-6.5-3-6.5-11.5 0-8.5 6.5-19.2 6.5-19.2 0 0 6.6 10.7 6.6 19.2z"/>
				</g>
				<g id="&lt;Group&gt;">
					<path id="&lt;Path&gt;" class="s4" d="m234.4 207.6c7.3 4.2 8.5 8.3 6.7 11.4-1.8 3.1-5.9 4.1-13.2-0.1-7.3-4.2-13.4-15.2-13.4-15.2 0 0 12.6-0.3 19.9 3.9z"/>
				</g>
				<g id="&lt;Group&gt;">
					<path id="&lt;Path&gt;" class="s4" d="m228 218.8c7.3-4.2 11.4-3.2 13.2-0.1 1.8 3.2 0.6 7.2-6.7 11.4-7.4 4.3-19.9 4-19.9 4 0 0 6-11 13.4-15.3z"/>
				</g>
			</g>
			<g id="&lt;Group&gt;">
				<path id="&lt;Path&gt;" class="s5" d="m257.1 189.4c0 5.7-1 10.3-2.2 10.3-1.3 0-2.3-4.6-2.3-10.3 0-5.7 1-10.2 2.3-10.2 1.2 0 2.2 4.5 2.2 10.2z"/>
			</g>
			<g id="&lt;Group&gt;">
				<path id="&lt;Path&gt;" class="s5" d="m274 210.1c0.8 5.6 0.5 10.3-0.7 10.4-1.3 0.2-2.9-4.2-3.8-9.8-0.8-5.6-0.5-10.2 0.7-10.4 1.3-0.2 2.9 4.2 3.8 9.8z"/>
			</g>
			<g id="&lt;Group&gt;">
				<path id="&lt;Path&gt;" class="s5" d="m207.4 210.1c-0.8 5.6-0.5 10.3 0.7 10.4 1.2 0.2 2.9-4.2 3.7-9.8 0.9-5.6 0.6-10.2-0.7-10.4-1.2-0.2-2.9 4.2-3.7 9.8z"/>
			</g>
			<g id="&lt;Group&gt;">
				<path id="&lt;Path&gt;" class="s5" d="m224.5 189.4c0 5.7 1 10.3 2.2 10.3 1.3 0 2.3-4.6 2.3-10.3 0-5.7-1-10.2-2.3-10.2-1.2 0-2.2 4.5-2.2 10.2z"/>
			</g>
			<g id="&lt;Group&gt;">
				<path id="&lt;Path&gt;" class="s5" d="m257.1 242.4c0 5.7-1 10.3-2.2 10.3-1.3 0-2.3-4.6-2.3-10.3 0-5.7 1-10.2 2.3-10.2 1.2 0 2.2 4.5 2.2 10.2z"/>
			</g>
			<g id="&lt;Group&gt;">
				<path id="&lt;Path&gt;" class="s5" d="m224.5 242.4c0 5.7 1 10.3 2.2 10.3 1.3 0 2.3-4.6 2.3-10.3 0-5.7-1-10.2-2.3-10.2-1.2 0-2.2 4.5-2.2 10.2z"/>
			</g>
			<g id="&lt;Group&gt;">
				<g id="&lt;Group&gt;">
					<path id="&lt;Path&gt;" class="s6" d="m241.3 214.6c0 1.6-1.3 2.9-2.9 2.9-1.6 0-2.9-1.3-2.9-2.9 0-1.6 1.3-2.9 2.9-2.9 1.6 0 2.9 1.3 2.9 2.9z"/>
				</g>
				<g id="&lt;Group&gt;">
					<path id="&lt;Path&gt;" class="s6" d="m246.3 214.6c0 1.6-1.3 2.9-2.9 2.9-1.6 0-2.9-1.3-2.9-2.9 0-1.6 1.3-2.9 2.9-2.9 1.6 0 2.9 1.3 2.9 2.9z"/>
				</g>
				<g id="&lt;Group&gt;">
					<path id="&lt;Path&gt;" class="s6" d="m243.7 218.9c0 1.6-1.3 2.9-2.9 2.9-1.6 0-2.9-1.3-2.9-2.9 0-1.6 1.3-2.9 2.9-2.9 1.6 0 2.9 1.3 2.9 2.9z"/>
				</g>
			</g>
		</g>
	</g>
</svg>