<svg version="1.2" xmlns="http://www.w3.org/2000/svg" viewBox="0 0 480 480" width="480" height="480">
	<title>Flower</title>
	<style>
		.s0 { fill: #009a27 } 
		.s1 { fill: #008627 } 
		.s2 { fill: #e5e2eb } 
		.s3 { fill: #ffffff } 
	</style>
	<g id="&lt;Group&gt;">
		<g id="&lt;Group&gt;">
		</g>
		<g id="&lt;Group&gt;">
		</g>
		<g id="&lt;Group&gt;">
			<g id="&lt;Group&gt;">
			</g>
			<g id="&lt;Group&gt;">
			</g>
			<g id="&lt;Group&gt;">
			</g>
			<g id="&lt;Group&gt;">
			</g>
			<g id="&lt;Group&gt;">
			</g>
			<g id="&lt;Group&gt;">
			</g>
			<g id="&lt;Group&gt;">
			</g>
			<g id="&lt;Group&gt;">
			</g>
			<g id="&lt;Group&gt;">
			</g>
			<g id="&lt;Group&gt;">
			</g>
			<g id="&lt;Group&gt;">
			</g>
			<g id="&lt;Group&gt;">
			</g>
			<g id="&lt;Group&gt;">
			</g>
			<g id="&lt;Group&gt;">
			</g>
			<g id="&lt;Group&gt;">
			</g>
		</g>
		<g id="&lt;Group&gt;">
			<g id="&lt;Group&gt;">
			</g>
			<g id="&lt;Group&gt;">
			</g>
			<g id="&lt;Group&gt;">
			</g>
			<g id="&lt;Group&gt;">
			</g>
			<g id="&lt;Group&gt;">
			</g>
			<g id="&lt;Group&gt;">
			</g>
			<g id="&lt;Group&gt;">
			</g>
			<g id="&lt;Group&gt;">
			</g>
			<g id="&lt;Group&gt;">
			</g>
			<g id="&lt;Group&gt;">
			</g>
			<g id="&lt;Group&gt;">
			</g>
			<g id="&lt;Group&gt;">
			</g>
			<g id="&lt;Group&gt;">
			</g>
			<g id="&lt;Group&gt;">
			</g>
			<g id="&lt;Group&gt;">
			</g>
		</g>
		<g id="&lt;Group&gt;">
			<g id="&lt;Group&gt;">
			</g>
			<g id="&lt;Group&gt;">
			</g>
			<g id="&lt;Group&gt;">
			</g>
			<g id="&lt;Group&gt;">
			</g>
			<g id="&lt;Group&gt;">
			</g>
			<g id="&lt;Group&gt;">
			</g>
		</g>
		<g id="&lt;Group&gt;">
		</g>
		<g id="&lt;Group&gt;">
		</g>
		<g id="&lt;Group&gt;">
		</g>
		<g id="&lt;Group&gt;">
		</g>
		<g id="&lt;Group&gt;">
		</g>
		<g id="&lt;Group&gt;">
		</g>
		<g id="&lt;Group&gt;">
		</g>
		<g id="&lt;Group&gt;">
		</g>
		<g id="&lt;Group&gt;">
		</g>
		<g id="&lt;Group&gt;">
		</g>
		<g id="&lt;Group&gt;">
		</g>
		<g id="&lt;Group&gt;">
		</g>
		<g id="&lt;Group&gt;">
		</g>
		<g id="&lt;Group&gt;">
		</g>
		<g id="&lt;Group&gt;">
		</g>
		<g id="&lt;Group&gt;">
		</g>
		<g id="&lt;Group&gt;">
			<g id="&lt;Group&gt;">
				<g id="&lt;Group&gt;">
					<g id="&lt;Group&gt;">
					</g>
					<g id="&lt;Group&gt;">
					</g>
					<g id="&lt;Group&gt;">
					</g>
					<g id="&lt;Group&gt;">
					</g>
					<g id="&lt;Group&gt;">
					</g>
					<g id="&lt;Group&gt;">
					</g>
					<g id="&lt;Group&gt;">
					</g>
					<g id="&lt;Group&gt;">
					</g>
					<g id="&lt;Group&gt;">
					</g>
					<g id="&lt;Group&gt;">
					</g>
					<g id="&lt;Group&gt;">
					</g>
					<g id="&lt;Group&gt;">
					</g>
					<g id="&lt;Group&gt;">
					</g>
					<g id="&lt;Group&gt;">
					</g>
					<g id="&lt;Group&gt;">
					</g>
					<g id="&lt;Group&gt;">
					</g>
					<g id="&lt;Group&gt;">
					</g>
					<g id="&lt;Group&gt;">
					</g>
					<g id="&lt;Group&gt;">
					</g>
					<g id="&lt;Group&gt;">
					</g>
					<g id="&lt;Group&gt;">
					</g>
					<g id="&lt;Group&gt;">
					</g>
					<g id="&lt;Group&gt;">
					</g>
					<g id="&lt;Group&gt;">
					</g>
					<g id="&lt;Group&gt;">
					</g>
					<g id="&lt;Group&gt;">
					</g>
					<g id="&lt;Group&gt;">
					</g>
					<g id="&lt;Group&gt;">
					</g>
					<g id="&lt;Group&gt;">
					</g>
				</g>
				<g id="&lt;Group&gt;">
					<g id="&lt;Group&gt;">
					</g>
					<g id="&lt;Group&gt;">
					</g>
					<g id="&lt;Group&gt;">
					</g>
					<g id="&lt;Group&gt;">
					</g>
					<g id="&lt;Group&gt;">
					</g>
					<g id="&lt;Group&gt;">
					</g>
					<g id="&lt;Group&gt;">
					</g>
					<g id="&lt;Group&gt;">
					</g>
					<g id="&lt;Group&gt;">
					</g>
					<g id="&lt;Group&gt;">
					</g>
					<g id="&lt;Group&gt;">
					</g>
					<g id="&lt;Group&gt;">
					</g>
					<g id="&lt;Group&gt;">
					</g>
					<g id="&lt;Group&gt;">
					</g>
					<g id="&lt;Group&gt;">
					</g>
					<g id="&lt;Group&gt;">
					</g>
					<g id="&lt;Group&gt;">
					</g>
					<g id="&lt;Group&gt;">
					</g>
					<g id="&lt;Group&gt;">
					</g>
					<g id="&lt;Group&gt;">
					</g>
					<g id="&lt;Group&gt;">
					</g>
					<g id="&lt;Group&gt;">
					</g>
					<g id="&lt;Group&gt;">
					</g>
					<g id="&lt;Group&gt;">
					</g>
					<g id="&lt;Group&gt;">
					</g>
					<g id="&lt;Group&gt;">
					</g>
					<g id="&lt;Group&gt;">
					</g>
				</g>
				<g id="&lt;Group&gt;">
				</g>
				<g id="&lt;Group&gt;">
				</g>
				<g id="&lt;Group&gt;">
				</g>
				<g id="&lt;Group&gt;">
				</g>
				<g id="&lt;Group&gt;">
				</g>
				<g id="&lt;Group&gt;">
				</g>
				<g id="&lt;Group&gt;">
				</g>
				<g id="&lt;Group&gt;">
				</g>
				<g id="&lt;Group&gt;">
				</g>
				<g id="&lt;Group&gt;">
					<g id="&lt;Group&gt;">
						<g id="&lt;Group&gt;">
							<path id="&lt;Path&gt;" class="s0" d="m260.5 243.1c29.4 72.1-21.3 140.2-21.3 140.2 0 0-63-33.7-96.1-104.1-33-70.5-32.1-119.4-23.2-184.4 33.2 50 101.8 53 140.6 148.3z"/>
						</g>
						<g id="&lt;Group&gt;">
							<path id="&lt;Path&gt;" class="s1" d="m226 241.2c-17.9 75.7 17.1 149.9 17.1 149.9 0 0 57.5-32.8 90.1-109 31.2-72.9 21.2-134.7 45.8-170.3-55 8.4-134.9 52.9-153 129.4z"/>
						</g>
						<g id="&lt;Group&gt;">
							<path id="&lt;Path&gt;" class="s0" d="m240.5 396.6q-0.1 0-0.1 0c-3.1-0.1-5.5-2.6-5.4-5.6 0.2-9.7-0.1-25.1-0.5-43-1.6-77.3-4.3-206.8 24.6-247.2 11.5-16.1 24.7-18.8 33.3-15.9 9.5 3.2 15.1 13.1 14.8 25.8-0.1 3-2.6 5.4-5.7 5.3-3 0-5.4-2.6-5.3-5.6 0.2-7.8-2.5-13.5-7.3-15.1-6.1-2-14.3 2.6-20.9 11.9-26.7 37.4-24 169.6-22.5 240.6 0.4 18.7 0.7 33.5 0.5 43.4-0.1 3-2.5 5.4-5.5 5.4z"/>
						</g>
						<g id="&lt;Group&gt;">
							<path id="&lt;Path&gt;" class="s0" d="m257 130.5h-6c0-4.1-2.5-8.6-6.3-11.1-2.6-1.8-6.9-3.5-12.9-1.2l-2.2-5.6c6.6-2.5 13.2-1.9 18.5 1.8 5.4 3.7 8.9 10 8.9 16.1z"/>
						</g>
						<g id="&lt;Group&gt;">
							<path id="&lt;Path&gt;" class="s0" d="m239.6 183.6c-2.9-5.4-9.4-9.6-16.2-10.3-4.7-0.5-11.7 0.4-17.9 7.7l-4.6-3.9c6.2-7.3 14.5-10.7 23.2-9.8 8.7 1 16.9 6.3 20.8 13.5z"/>
						</g>
						<g id="&lt;Group&gt;">
							<path id="&lt;Path&gt;" class="s0" d="m280.8 175.8h-6c0-4.7-3-10-7.4-13.1-3.3-2.3-9-4.5-16.8-1.6l-2-5.6c7.9-3 15.9-2.1 22.3 2.3 6 4.2 9.9 11.3 9.9 18z"/>
						</g>
						<g id="&lt;Group&gt;">
							<path id="&lt;Path&gt;" class="s0" d="m264.3 247.2h-6c0-4.1-2.5-8.6-6.3-11.1-2.6-1.8-7-3.5-13-1.2l-2.1-5.6c6.6-2.5 13.1-1.9 18.5 1.8 5.4 3.7 8.9 10 8.9 16.1z"/>
						</g>
						<g id="&lt;Group&gt;">
							<g id="&lt;Group&gt;">
								<path id="&lt;Path&gt;" class="s2" d="m320.4 114.2c0 15.6-18.4 28.3-18.4 28.3 0 0-18.4-12.7-18.4-28.3 0-15.6 17.9-10.3 17.9-10.3 0 0 18.9-5.3 18.9 10.3z"/>
							</g>
							<g id="&lt;Group&gt;">
								<path id="&lt;Path&gt;" class="s2" d="m299.7 133.7c-3.6 5.8-13.2 6.3-13.2 6.3 0 0 2.1-7.6-0.2-14.7-3.1-9.2 9.5-8.5 13.2-6.2 3.7 2.3 3.8 8.9 0.2 14.6z"/>
							</g>
							<g id="&lt;Group&gt;">
								<path id="&lt;Path&gt;" class="s2" d="m304.3 133.7c3.6 5.8 13.3 6.3 13.3 6.3 0 0-2.2-7.6 0.2-14.7 3-9.2-9.6-8.5-13.3-6.2-3.7 2.3-3.8 8.9-0.2 14.6z"/>
							</g>
						</g>
						<g id="&lt;Group&gt;">
							<g id="&lt;Group&gt;">
								<path id="&lt;Path&gt;" class="s3" d="m297.4 185.3c0 15.6-18.5 28.3-18.5 28.3 0 0-18.4-12.7-18.4-28.3 0-15.6 18-10.3 18-10.3 0 0 18.9-5.3 18.9 10.3z"/>
							</g>
							<g id="&lt;Group&gt;">
								<path id="&lt;Path&gt;" class="s3" d="m276.7 204.8c-3.6 5.8-13.3 6.3-13.3 6.3 0 0 2.2-7.6-0.2-14.7-3-9.2 9.6-8.5 13.3-6.2 3.7 2.3 3.8 8.9 0.2 14.6z"/>
							</g>
							<g id="&lt;Group&gt;">
								<path id="&lt;Path&gt;" class="s3" d="m281.3 204.8c3.6 5.8 13.2 6.3 13.2 6.3 0 0-2.1-7.6 0.2-14.7 3-9.2-9.5-8.5-13.3-6.2-3.7 2.3-3.7 8.9-0.1 14.6z"/>
							</g>
						</g>
						<g id="&lt;Group&gt;">
							<g id="&lt;Group&gt;">
								<path id="&lt;Path&gt;" class="s2" d="m236.7 133.9c-11 11-33 6.9-33 6.9 0 0-4.1-21.9 7-33 11-11.1 19.9 5.4 19.9 5.4 0 0 17.2 9.6 6.1 20.7z"/>
							</g>
							<g id="&lt;Group&gt;">
								<path id="&lt;Path&gt;" class="s2" d="m208.3 133c-6.6 1.6-13.8-4.9-13.8-4.9 0 0 6.9-3.9 10.2-10.5 4.4-8.7 12.8 0.7 13.8 5 1 4.2-3.6 8.9-10.2 10.4z"/>
							</g>
							<g id="&lt;Group&gt;">
								<path id="&lt;Path&gt;" class="s2" d="m211.5 136.3c-1.5 6.6 5 13.8 5 13.8 0 0 3.8-6.9 10.5-10.3 8.6-4.3-0.7-12.7-5-13.7-4.3-1-8.9 3.6-10.5 10.2z"/>
							</g>
						</g>
						<g id="&lt;Group&gt;">
							<g id="&lt;Group&gt;">
								<path id="&lt;Path&gt;" class="s3" d="m220.4 192.4c0 15.6-18.4 28.3-18.4 28.3 0 0-18.4-12.7-18.4-28.3 0-15.7 17.9-10.3 17.9-10.3 0 0 18.9-5.4 18.9 10.3z"/>
							</g>
							<g id="&lt;Group&gt;">
								<path id="&lt;Path&gt;" class="s3" d="m199.7 211.9c-3.6 5.8-13.2 6.2-13.2 6.2 0 0 2.1-7.5-0.2-14.6-3.1-9.2 9.5-8.6 13.2-6.2 3.7 2.3 3.8 8.8 0.2 14.6z"/>
							</g>
							<g id="&lt;Group&gt;">
								<path id="&lt;Path&gt;" class="s3" d="m204.3 211.9c3.6 5.8 13.2 6.2 13.2 6.2 0 0-2.1-7.5 0.2-14.6 3.1-9.2-9.5-8.6-13.2-6.2-3.7 2.3-3.8 8.8-0.2 14.6z"/>
							</g>
						</g>
						<g id="&lt;Group&gt;">
							<g id="&lt;Group&gt;">
								<path id="&lt;Path&gt;" class="s3" d="m280.9 257.4c0 15.6-18.4 28.3-18.4 28.3 0 0-18.4-12.7-18.4-28.3 0-15.7 18-10.3 18-10.3 0 0 18.8-5.4 18.8 10.3z"/>
							</g>
							<g id="&lt;Group&gt;">
								<path id="&lt;Path&gt;" class="s3" d="m260.2 276.9c-3.6 5.7-13.2 6.2-13.2 6.2 0 0 2.1-7.5-0.2-14.6-3-9.2 9.5-8.6 13.2-6.2 3.8 2.3 3.8 8.8 0.2 14.6z"/>
							</g>
							<g id="&lt;Group&gt;">
								<path id="&lt;Path&gt;" class="s3" d="m264.8 276.9c3.6 5.7 13.3 6.2 13.3 6.2 0 0-2.2-7.5 0.2-14.6 3-9.2-9.6-8.6-13.3-6.2-3.7 2.3-3.8 8.8-0.2 14.6z"/>
							</g>
						</g>
					</g>
				</g>
			</g>
		</g>
	</g>
</svg>