<svg version="1.2" xmlns="http://www.w3.org/2000/svg" viewBox="0 0 480 480" width="480" height="480">
	<title>Flower</title>
	<style>
		.s0 { fill: none;stroke: #59be72;stroke-miterlimit:10;stroke-width: 9 } 
		.s1 { fill: #59be72 } 
		.s2 { fill: #ff5838 } 
		.s3 { fill: #ff6c50 } 
		.s4 { fill: #ff8973 } 
		.s5 { fill: #ffc750 } 
	</style>
	<g id="&lt;Group&gt;">
		<g id="&lt;Group&gt;">
			<path id="&lt;Path&gt;" class="s0" d="m245 411c-52.3-23.8-116.3-148.8-111-243.2"/>
			<path id="&lt;Path&gt;" class="s1" d="m145.2 141.4c0 16.9-11 49.3-11 49.3 0 0-10.9-32.4-10.9-49.3 0-17 10.9-49.4 10.9-49.4 0 0 11 32.4 11 49.4z"/>
			<path id="&lt;Path&gt;" class="s1" d="m118.4 175.6c9.9 13.7 20.1 46.3 20.1 46.3 0 0-27.9-19.7-37.9-33.4-9.9-13.7-20.1-46.4-20.1-46.4 0 0 27.9 19.8 37.9 33.5z"/>
			<path id="&lt;Path&gt;" class="s1" d="m100.1 223.2c16.8 2.5 47.3 18 47.3 18 0 0-33.6 6.2-50.4 3.8-16.8-2.5-47.3-18-47.3-18 0 0 33.7-6.2 50.4-3.8z"/>
			<path id="&lt;Path&gt;" class="s1" d="m104.4 265.2c16.9 0.1 49.3 11.3 49.3 11.3 0 0-32.5 10.8-49.4 10.7-17-0.1-49.3-11.2-49.3-11.2 0 0 32.4-10.8 49.4-10.8z"/>
			<path id="&lt;Path&gt;" class="s1" d="m116.6 307.8c16.8-1.9 50.2 5.4 50.2 5.4 0 0-30.9 14.5-47.7 16.4-16.9 1.9-50.3-5.3-50.3-5.3 0 0 30.9-14.6 47.8-16.5z"/>
			<path id="&lt;Path&gt;" class="s1" d="m154.4 168.5c-10 13.7-20.2 46.3-20.2 46.3 0 0 28-19.7 37.9-33.4 10-13.7 20.2-46.4 20.2-46.4 0 0-28 19.8-37.9 33.5z"/>
			<path id="&lt;Path&gt;" class="s1" d="m166.1 203.4c-12.1 11.8-27.6 42.3-27.6 42.3 0 0 30.8-14.8 42.9-26.6 12.1-11.9 27.6-42.4 27.6-42.4 0 0-30.8 14.8-42.9 26.7z"/>
			<path id="&lt;Path&gt;" class="s1" d="m181.1 238.7c-13.8 9.8-33.7 37.6-33.7 37.6 0 0 32.7-9.9 46.5-19.8 13.8-9.8 33.7-37.6 33.7-37.6 0 0-32.7 9.9-46.5 19.8z"/>
			<path id="&lt;Path&gt;" class="s1" d="m193.6 272.5c-12.1 11.9-27.4 42.5-27.4 42.5 0 0 30.7-14.9 42.8-26.8 12.1-11.9 27.5-42.5 27.5-42.5 0 0-30.8 14.9-42.9 26.8z"/>
		</g>
		<path id="&lt;Path&gt;" class="s1" d="m289.6 235.1c-1.3 9.7-16.3-3.1-41.9 37.6-13.2 20-17.8 52.9-15 83.8 1.4 26.5 10.5 47.1 12.5 52.8 0.4 0.9-2 9-2.2 9 0.4 0.2-12.7-25.9-16.5-57.2-5-31.2-1.4-69.4 4.9-94.6 14.7-49.8 7.9-57.5 16-64.6 15.8-16.9 39.4-17.8 46-9.6 6.7 8.3 4.8 28.6-3.8 42.8z"/>
		<path id="&lt;Path&gt;" class="s2" d="m374.9 201.1c18 18 0.3 22.6-13.5 36.3-13.8 13.8-18.4 31.5-36.4 13.5-18-18-34.3-56.6-20.5-70.4 13.8-13.7 52.4 2.6 70.4 20.6z"/>
		<path id="&lt;Path&gt;" class="s3" d="m252.1 112.7c-3.2-20.9 13.4-20.4 32-19.9 18.7-0.5 35.3-1 32.1 19.9-2.3 9.9-13.2 30.4-20.1 49-7.6 18.4-11.2 34.8-12 34.5-0.7 0.3-4.3-16.1-11.9-34.5-7-18.6-17.8-39.1-20.1-49z"/>
		<path id="&lt;Path&gt;" class="s3" d="m329.9 117.1c25.1-7.5 17.6 6.1 20.1 17.5 3 12.4 8.8 20.4-4.3 24.4-5.8 2-21.6 4.2-33.8 13.3-12.6 7.9-21.6 22.8-21 22.5 0.7 0.8-4.5-16.4 2.5-35.2 5.6-18.8 23.5-39.1 36.5-42.5z"/>
		<path id="&lt;Path&gt;" class="s4" d="m368.5 145.9c27.2 4.1 13.9 13.6 11.2 25.6-2.8 13.1-0.9 23.3-15.1 21.2-6.4-0.7-22.3-5.9-38.1-2.8-15.4 1.9-30.7 11.9-30.1 11.9 0.3 1 3.2-17.6 18.4-32.2 13.8-15.2 39.9-26.4 53.7-23.7z"/>
		<path id="&lt;Path&gt;" class="s3" d="m238.8 112.2c-23-12.6-18.5 2.3-23.3 13-5.4 11.5-12.8 18.1-0.8 24.7 5.2 3.2 20.3 8.5 30.4 19.9 10.7 10.4 16.4 26.8 15.9 26.4-0.8 0.6 7.8-15.1 4.7-35-1.6-19.5-14.9-43.1-26.9-49z"/>
		<path id="&lt;Path&gt;" class="s4" d="m207.7 135.5c-26-2.9-16.2 9.1-16.6 20.9-0.6 12.7-4.9 21.6 8.7 23.2 6.1 0.9 22 0.1 35.7 6.8 13.8 5.5 25.4 18.5 24.8 18.3-0.5 0.9 1.4-17-9-34.2-8.9-17.4-30.2-34.1-43.6-35z"/>
		<path id="&lt;Path&gt;" class="s2" d="m232.4 235.7c-20.3 14.1-21.9-4-33-20-11.1-16.1-27.4-23.9-7.1-38 20.3-14 60.2-22.5 71.3-6.4 11.1 16-10.9 50.4-31.2 64.4z"/>
		<path id="&lt;Path&gt;" class="s2" d="m296.7 141.3c11-20.3 15.6-8.2 26.3-2.4 10.6 5.8 23.3 3.1 12.2 23.4-11 20.3-36.5 46.6-47.2 40.8-10.6-5.8-2.4-41.5 8.7-61.8z"/>
		<path id="&lt;Path&gt;" class="s2" d="m232.4 156.9c-9.4-21.7 3.1-17.7 14.2-22.5 11.1-4.8 16.7-16.7 26.1 5.1 9.4 21.8 14.8 59 3.6 63.8-11.1 4.8-34.5-24.6-43.9-46.4z"/>
		<path id="&lt;Path&gt;" class="s5" d="m273.7 199.7c-2.8 1.3-5.6-7.6-10.3-18.1-4.7-10.4-9.5-18.4-6.7-19.7 2.7-1.2 10.8 5.3 15.5 15.7 4.7 10.5 4.2 20.9 1.5 22.1z"/>
		<path id="&lt;Path&gt;" class="s5" d="m312.7 173.5c2.1 2.2-4.9 7.6-12.6 15.3-7.7 7.7-13.1 14.7-15.3 12.5-2.1-2.1 0.8-11.7 8.5-19.4 7.7-7.7 17.2-10.6 19.4-8.4z"/>
		<path id="&lt;Path&gt;" class="s5" d="m302.5 155.2c3.2 1.1-2.3 12.5-7.7 27-5.4 14.5-8.6 26.6-11.8 25.5-3.2-1.2-3.7-14.8 1.7-29.3 5.3-14.5 14.6-24.4 17.8-23.2z"/>
		<path id="&lt;Path&gt;" class="s5" d="m292.4 147.4c3.4 0.3 1.3 12.7 0.3 28.1-1.1 15.4-0.7 28-4.1 27.8-3.4-0.2-7.7-13.1-6.7-28.5 1.1-15.5 7.1-27.6 10.5-27.4z"/>
		<path id="&lt;Path&gt;" class="s5" d="m276.6 150.6c3.4-0.4 3.6 12.2 5.5 27.5 1.8 15.4 4.5 27.7 1.1 28.1-3.4 0.4-10-11.4-11.8-26.8-1.9-15.4 1.8-28.4 5.2-28.8z"/>
		<path id="&lt;Path&gt;" class="s2" d="m312.7 250.9c-1.6 23.3-16.8 13.7-36.2 12.4-19.4-1.4-35.8 6-34.2-17.3 1.7-23.3 2.2-51.1 38.3-48.9 36.1 2.2 33.7 30.5 32.1 53.8z"/>
		<path id="&lt;Path&gt;" class="s5" d="m280.6 222.8c0.1 4.5-11.4 8.4-25.5-5.8-14.1-14.1-25.5-8.1-25.6-9.7 0-4.4 11.3-14.3 25.4-0.1 14.1 14.2 25.6 14.1 25.7 15.6z"/>
		<path id="&lt;Path&gt;" class="s5" d="m294.5 215.6c-0.1 4.5 12.2 8.5 27.3-5.8 15-14.1 27.2-8.1 27.3-9.7 0.1-4.4-12.1-14.3-27.1-0.1-15.1 14.2-27.4 14.1-27.5 15.6z"/>
	</g>
</svg>