<svg version="1.2" xmlns="http://www.w3.org/2000/svg" viewBox="0 0 480 480" width="480" height="480">
	<title>Flower</title>
	<style>
		.s0 { fill: #7bce33 } 
		.s1 { fill: #f4f1f3 } 
		.s2 { fill: #e3dde1 } 
		.s3 { fill: #ffe476 } 
	</style>
	<g id="&lt;Group&gt;">
		<g id="&lt;Group&gt;">
			<path id="&lt;Path&gt;" class="s0" d="m309.3 410c-52.2-50.6-73.9-149-73.9-190.4h17c0 37.7 20.8 131.7 68.7 178.2z"/>
		</g>
		<g id="&lt;Group&gt;">
			<path id="&lt;Path&gt;" class="s1" d="m277.4 144.5c0 45.3-21.3 71.5-37.9 71.5-16.6 0-37.9-26.2-37.9-71.5 0-45.4 37.9-75.8 37.9-75.8 0 0 37.9 30.4 37.9 75.8z"/>
		</g>
		<g id="&lt;Group&gt;">
			<path id="&lt;Path&gt;" class="s1" d="m196.5 147.4c39.3 22.7 51.3 54.2 43 68.6-8.3 14.3-41.6 19.7-80.9-3-39.2-22.6-46.7-70.6-46.7-70.6 0 0 45.3-17.6 84.6 5z"/>
		</g>
		<g id="&lt;Group&gt;">
			<path id="&lt;Path&gt;" class="s1" d="m158.6 219c39.3-22.7 72.6-17.4 80.9-3 8.3 14.3-3.7 45.9-43 68.5-39.3 22.7-84.6 5.1-84.6 5.1 0 0 7.5-48 46.7-70.6z"/>
		</g>
		<g id="&lt;Group&gt;">
			<path id="&lt;Path&gt;" class="s1" d="m201.6 287.5c0-45.3 21.3-71.5 37.9-71.5 16.6 0 37.9 26.2 37.9 71.5 0 45.4-37.9 75.8-37.9 75.8 0 0-37.9-30.4-37.9-75.8z"/>
		</g>
		<g id="&lt;Group&gt;">
			<path id="&lt;Path&gt;" class="s1" d="m282.5 284.5c-39.3-22.6-51.3-54.2-43-68.5 8.3-14.4 41.6-19.7 80.9 3 39.2 22.6 46.7 70.6 46.7 70.6 0 0-45.3 17.6-84.6-5.1z"/>
		</g>
		<g id="&lt;Group&gt;">
			<path id="&lt;Path&gt;" class="s1" d="m320.4 213c-39.3 22.7-72.6 17.3-80.9 3-8.3-14.4 3.7-45.9 43-68.6 39.3-22.6 84.6-5 84.6-5 0 0-7.5 48-46.7 70.6z"/>
		</g>
		<g id="&lt;Group&gt;">
			<g id="&lt;Group&gt;">
				<path id="&lt;Path&gt;" class="s2" d="m260.7 189.5c0 11.7-9.5 21.1-21.2 21.1-11.7 0-21.2-9.4-21.2-21.1 0-11.7 21.2-31.7 21.2-31.7 0 0 21.2 20 21.2 31.7z"/>
			</g>
			<g id="&lt;Group&gt;">
				<path id="&lt;Path&gt;" class="s2" d="m213.9 193.9c11.7 0 21.2 9.5 21.2 21.2 0 11.7-9.5 21.2-21.2 21.2-11.7 0-31.7-21.2-31.7-21.2 0 0 20-21.2 31.7-21.2z"/>
			</g>
			<g id="&lt;Group&gt;">
				<path id="&lt;Path&gt;" class="s2" d="m218.3 240.7c0-11.7 9.5-21.2 21.2-21.2 11.7 0 21.2 9.5 21.2 21.2 0 11.7-21.2 31.7-21.2 31.7 0 0-21.2-20-21.2-31.7z"/>
			</g>
			<g id="&lt;Group&gt;">
				<path id="&lt;Path&gt;" class="s2" d="m265.1 236.3c-11.7 0-21.2-9.5-21.2-21.2 0-11.7 9.5-21.2 21.2-21.2 11.7 0 31.7 21.2 31.7 21.2 0 0-20 21.2-31.7 21.2z"/>
			</g>
		</g>
		<g id="&lt;Group&gt;">
			<path id="&lt;Path&gt;" class="s3" d="m259.2 215.1c0 10.9-8.8 19.7-19.7 19.7-10.9 0-19.7-8.8-19.7-19.7 0-10.9 8.8-19.7 19.7-19.7 10.9 0 19.7 8.8 19.7 19.7z"/>
		</g>
	</g>
</svg>