<svg version="1.2" xmlns="http://www.w3.org/2000/svg" viewBox="0 0 480 480" width="480" height="480">
	<title>Flower</title>
	<style>
		.s0 { fill: #cc6699 } 
		.s1 { fill: none;stroke: #349b4a;stroke-miterlimit:10;stroke-width: 10 } 
		.s2 { fill: #349b4a } 
		.s3 { fill: #e4c3f8 } 
		.s4 { fill: none;stroke: #ffe3e8;stroke-miterlimit:10;stroke-width: 2.3 } 
		.s5 { fill: #d784ea } 
	</style>
	<g id="&lt;Group&gt;">
		<g id="&lt;Group&gt;">
			<path id="&lt;Path&gt;" class="s0" d="m192.9 79.6c5.9 5.9 4.7 14.1 4.7 14.1 0 0-8.2 1.2-14.1-4.7-6-5.9-7.4-16.8-7.4-16.8 0 0 10.9 1.5 16.8 7.4z"/>
			<path id="&lt;Path&gt;" class="s0" d="m204 80.2c0 8.4-6.7 13.3-6.7 13.3 0 0-6.6-4.9-6.6-13.3 0-8.4 6.6-17.1 6.6-17.1 0 0 6.7 8.7 6.7 17.1z"/>
			<path id="&lt;Path&gt;" class="s0" d="m183.9 100.3c8.4 0 13.3-6.7 13.3-6.7 0 0-4.9-6.6-13.3-6.6-8.4 0-17.1 6.6-17.1 6.6 0 0 8.7 6.7 17.1 6.7z"/>
		</g>
		<g id="&lt;Group&gt;">
			<path id="&lt;Path&gt;" class="s0" d="m248 104.6c-8.2 0-13-6.5-13-6.5 0 0 4.8-6.5 13-6.5 8.2 0 16.6 6.5 16.6 6.5 0 0-8.4 6.5-16.6 6.5z"/>
			<path id="&lt;Path&gt;" class="s0" d="m239.9 111.8c-5.8-5.8-4.6-13.7-4.6-13.7 0 0 8-1.3 13.8 4.5 5.8 5.8 7.2 16.4 7.2 16.4 0 0-10.6-1.4-16.4-7.2z"/>
			<path id="&lt;Path&gt;" class="s0" d="m239.9 84.1c-5.8 5.8-4.6 13.7-4.6 13.7 0 0 8 1.3 13.8-4.5 5.8-5.8 7.2-16.4 7.2-16.4 0 0-10.6 1.4-16.4 7.2z"/>
		</g>
		<g id="&lt;Group&gt;">
			<path id="&lt;Path&gt;" class="s0" d="m224.1 104.9c-5.9 5.9-14.1 4.7-14.1 4.7 0 0-1.2-8.2 4.7-14.1 5.9-5.9 16.8-7.4 16.8-7.4 0 0-1.5 10.9-7.4 16.8z"/>
			<path id="&lt;Path&gt;" class="s0" d="m223.5 116c-8.4 0-13.3-6.7-13.3-6.7 0 0 4.9-6.6 13.3-6.6 8.4 0 17.1 6.6 17.1 6.6 0 0-8.7 6.7-17.1 6.7z"/>
			<path id="&lt;Path&gt;" class="s0" d="m203.4 95.9c0 8.4 6.7 13.3 6.7 13.3 0 0 6.6-4.9 6.6-13.3 0-8.4-6.6-17.1-6.6-17.1 0 0-6.7 8.7-6.7 17.1z"/>
		</g>
		<g id="&lt;Group&gt;">
			<path id="&lt;Path&gt;" class="s0" d="m232.6 74.9c0 8.4-6.6 13.3-6.6 13.3 0 0-6.7-4.9-6.7-13.3 0-8.4 6.7-17.1 6.7-17.1 0 0 6.6 8.7 6.6 17.1z"/>
			<path id="&lt;Path&gt;" class="s0" d="m240 83.2c-5.9 5.9-14 4.7-14 4.7 0 0-1.3-8.2 4.6-14.1 5.9-6 16.8-7.4 16.8-7.4 0 0-1.4 10.9-7.4 16.8z"/>
			<path id="&lt;Path&gt;" class="s0" d="m211.6 83.2c5.9 5.9 14.1 4.7 14.1 4.7 0 0 1.3-8.2-4.7-14.1-5.9-6-16.7-7.4-16.7-7.4 0 0 1.4 10.9 7.3 16.8z"/>
		</g>
		<g id="&lt;Group&gt;">
			<path id="&lt;Path&gt;" class="s0" d="m186.8 109.3c5.9-5.9 14.1-4.7 14.1-4.7 0 0 1.2 8.2-4.7 14.1-5.9 6-16.8 7.4-16.8 7.4 0 0 1.4-10.9 7.4-16.8z"/>
			<path id="&lt;Path&gt;" class="s0" d="m187.4 98.2c8.3 0 13.2 6.7 13.2 6.7 0 0-4.9 6.6-13.2 6.6-8.4 0-17.1-6.6-17.1-6.6 0 0 8.7-6.7 17.1-6.7z"/>
			<path id="&lt;Path&gt;" class="s0" d="m207.5 118.3c0-8.4-6.7-13.3-6.7-13.3 0 0-6.7 4.9-6.7 13.3 0 8.4 6.7 17.1 6.7 17.1 0 0 6.7-8.7 6.7-17.1z"/>
		</g>
		<path id="&lt;Path&gt;" class="s1" d="m229.1 111.8c9.9 33.7 34.6 266.1 34.6 310.6"/>
		<path id="&lt;Path&gt;" class="s1" d="m159.7 210.8c19.9 8.9 89.4 43.5 89.4 43.5 18.5-11.9 82.8-63.7 82.8-63.7"/>
		<path id="&lt;Path&gt;" class="s2" d="m262 351.7c0 0-16.2-2.1-32.7-11-16.5-8.9-27.2-21.2-27.2-21.2 0 0 23.9-12.2 40.4-3.3 16.5 8.9 19.5 35.5 19.5 35.5z"/>
		<path id="&lt;Path&gt;" class="s2" d="m325 251.8c0 0-15.3 5.8-34.1 5.8-18.9 0-34.1-5.8-34.1-5.8 0 0 15.2-22.1 34.1-22.1 18.8 0 34.1 22.1 34.1 22.1z"/>
		<path id="&lt;Path&gt;" class="s2" d="m192.8 221.4c0 0-6.2 13.4-18.3 25.4-12 12.1-25.4 18.3-25.4 18.3 0 0-3.9-23.5 8.1-35.6 12.1-12.1 35.6-8.1 35.6-8.1z"/>
		<path id="&lt;Path&gt;" class="s2" d="m203.7 272.7c0 0-11.4-9.2-20.1-23.9-8.8-14.6-11.4-29.1-11.4-29.1 0 0 23.7 1.9 32.4 16.6 8.7 14.6-0.9 36.4-0.9 36.4z"/>
		<path id="&lt;Path&gt;" class="s2" d="m270.6 144.5c0 0-13.3-5.4-27.4-15.4-14.1-10-23.5-21-23.5-21 0 0 19-2.4 33 7.6 14.1 10.1 17.9 28.8 17.9 28.8z"/>
		<path id="&lt;Path&gt;" class="s2" d="m232.5 113.9c0 0-9.6 10.3-23.6 19.6-14.1 9.3-27.3 14.1-27.3 14.1 0 0 4.4-18.1 18.4-27.4 14.1-9.3 32.5-6.3 32.5-6.3z"/>
		<path id="&lt;Path&gt;" class="s2" d="m229.3 122c0 0 0.4 12-4.8 24.5-5.3 12.4-14.2 20.5-14.2 20.5 0 0-13.5-17.6-8.2-30 5.2-12.4 27.2-15 27.2-15z"/>
		<path id="&lt;Path&gt;" class="s2" d="m303.9 277c0 0-6.4 14.3-19.2 27-12.7 12.8-27 19.2-27 19.2 0 0-4.6-25.3 8.1-38.1 12.8-12.7 38.1-8.1 38.1-8.1z"/>
		<g id="&lt;Group&gt;">
			<path id="&lt;Path&gt;" class="s3" d="m217.3 90.7c0 2.5-4.5 11.9-4.5 11.9 0 0-4.6-9.4-4.6-11.9 0-2.6 2-4.6 4.6-4.6 2.5 0 4.5 2 4.5 4.6z"/>
			<path id="&lt;Path&gt;" class="s3" d="m203.1 94.2c2.4 0.9 9.7 8.4 9.7 8.4 0 0-10.5 1.1-12.8 0.2-2.4-0.8-3.6-3.5-2.8-5.8 0.9-2.4 3.5-3.6 5.9-2.8z"/>
			<path id="&lt;Path&gt;" class="s3" d="m201.6 108.8c1.6-1.9 11.2-6.2 11.2-6.2 0 0-2.6 10.2-4.2 12.1-1.7 2-4.5 2.2-6.5 0.6-1.9-1.6-2.2-4.5-0.5-6.5z"/>
			<path id="&lt;Path&gt;" class="s3" d="m214.8 115.3c-1.3-2.2-2-12.7-2-12.7 0 0 8.6 5.9 9.9 8.1 1.3 2.2 0.5 5-1.7 6.2-2.2 1.3-5 0.5-6.2-1.6z"/>
			<path id="&lt;Path&gt;" class="s3" d="m225.3 105c-2.5 0.5-12.5-2.4-12.5-2.4 0 0 8.5-6.1 10.9-6.6 2.5-0.4 4.9 1.3 5.3 3.7 0.5 2.5-1.2 4.9-3.7 5.3z"/>
			<path id="&lt;Path&gt;" class="s4" d="m202.2 88c2.8 2.1 10.6 14.6 10.6 14.6 0 0 5.6-8.6 11.7-11.1"/>
			<path id="&lt;Path&gt;" class="s4" d="m197.5 106.7c2.1 0.5 15.3-4.1 15.3-4.1-2.7 6-0.6 16-0.6 16"/>
		</g>
		<g id="&lt;Group&gt;">
			<path id="&lt;Path&gt;" class="s3" d="m186.8 81.8c0 2.1-3.9 10.2-3.9 10.2 0 0-4-8.1-4-10.2 0-2.2 1.8-4 4-4 2.1 0 3.9 1.8 3.9 4z"/>
			<path id="&lt;Path&gt;" class="s3" d="m174.6 84.8c2 0.8 8.3 7.2 8.3 7.2 0 0-9 0.9-11 0.2-2.1-0.7-3.1-3-2.4-5 0.8-2.1 3-3.1 5.1-2.4z"/>
			<path id="&lt;Path&gt;" class="s3" d="m173.3 97.4c1.4-1.7 9.6-5.4 9.6-5.4 0 0-2.2 8.8-3.6 10.4-1.4 1.7-3.9 1.9-5.5 0.5-1.7-1.4-1.9-3.9-0.5-5.5z"/>
			<path id="&lt;Path&gt;" class="s3" d="m184.6 102.9c-1.1-1.9-1.7-10.9-1.7-10.9 0 0 7.4 5.1 8.5 7 1.1 1.8 0.4 4.2-1.4 5.3-1.9 1.1-4.3 0.5-5.4-1.4z"/>
			<path id="&lt;Path&gt;" class="s3" d="m193.7 94.1c-2.2 0.4-10.8-2.1-10.8-2.1 0 0 7.3-5.2 9.4-5.6 2.1-0.4 4.2 1 4.5 3.2 0.4 2.1-1 4.1-3.1 4.5z"/>
			<path id="&lt;Path&gt;" class="s4" d="m173.8 79.5c2.4 1.8 9.1 12.5 9.1 12.5 0 0 4.8-7.4 10.1-9.5"/>
			<path id="&lt;Path&gt;" class="s4" d="m169.7 95.5c1.8 0.5 13.2-3.5 13.2-3.5-2.3 5.2-0.5 13.8-0.5 13.8"/>
		</g>
		<g id="&lt;Group&gt;">
			<path id="&lt;Path&gt;" class="s3" d="m198.1 108.3c0 2.2-4 10.3-4 10.3 0 0-3.9-8.1-3.9-10.3 0-2.2 1.8-3.9 3.9-3.9 2.2 0 4 1.7 4 3.9z"/>
			<path id="&lt;Path&gt;" class="s3" d="m185.8 111.4c2.1 0.7 8.3 7.2 8.3 7.2 0 0-8.9 0.9-10.9 0.1-2.1-0.7-3.1-2.9-2.4-5 0.8-2 3-3.1 5-2.3z"/>
			<path id="&lt;Path&gt;" class="s3" d="m184.5 123.9c1.4-1.7 9.6-5.3 9.6-5.3 0 0-2.1 8.7-3.5 10.4-1.4 1.6-3.9 1.8-5.6 0.4-1.6-1.4-1.8-3.8-0.5-5.5z"/>
			<path id="&lt;Path&gt;" class="s3" d="m195.9 129.4c-1.1-1.9-1.8-10.8-1.8-10.8 0 0 7.5 5 8.6 6.9 1.1 1.9 0.4 4.3-1.5 5.4-1.8 1-4.2 0.4-5.3-1.5z"/>
			<path id="&lt;Path&gt;" class="s3" d="m204.9 120.7c-2.1 0.3-10.8-2.1-10.8-2.1 0 0 7.3-5.3 9.5-5.7 2.1-0.4 4.1 1.1 4.5 3.2 0.4 2.1-1 4.2-3.2 4.6z"/>
			<path id="&lt;Path&gt;" class="s4" d="m185.1 106c2.4 1.9 9 12.6 9 12.6 0 0 4.9-7.4 10.2-9.5"/>
			<path id="&lt;Path&gt;" class="s4" d="m181 122c1.8 0.5 13.1-3.4 13.1-3.4-2.2 5.1-0.4 13.7-0.4 13.7"/>
		</g>
		<g id="&lt;Group&gt;">
			<path id="&lt;Path&gt;" class="s3" d="m211.5 63.7c0 2.4-4.3 11.3-4.3 11.3 0 0-4.3-8.9-4.3-11.3 0-2.3 1.9-4.3 4.3-4.3 2.4 0 4.3 2 4.3 4.3z"/>
			<path id="&lt;Path&gt;" class="s3" d="m198.1 67.1c2.3 0.8 9.1 7.9 9.1 7.9 0 0-9.8 1-12 0.2-2.2-0.9-3.4-3.3-2.6-5.5 0.8-2.3 3.3-3.4 5.5-2.6z"/>
			<path id="&lt;Path&gt;" class="s3" d="m196.7 80.8c1.5-1.8 10.5-5.8 10.5-5.8 0 0-2.4 9.5-3.9 11.3-1.5 1.8-4.2 2.1-6.1 0.6-1.8-1.6-2-4.3-0.5-6.1z"/>
			<path id="&lt;Path&gt;" class="s3" d="m209.1 86.8c-1.2-2-1.9-11.8-1.9-11.8 0 0 8.2 5.5 9.3 7.5 1.2 2.1 0.5 4.7-1.5 5.9-2.1 1.2-4.7 0.5-5.9-1.6z"/>
			<path id="&lt;Path&gt;" class="s3" d="m219 77.2c-2.3 0.5-11.8-2.2-11.8-2.2 0 0 8-5.8 10.3-6.2 2.4-0.4 4.6 1.1 5 3.5 0.4 2.3-1.1 4.5-3.5 4.9z"/>
			<path id="&lt;Path&gt;" class="s4" d="m197.3 61.3c2.6 1.9 9.9 13.7 9.9 13.7 0 0 5.3-8.1 11.1-10.4"/>
			<path id="&lt;Path&gt;" class="s4" d="m192.8 78.8c2 0.5 14.4-3.8 14.4-3.8-2.5 5.6-0.5 15-0.5 15"/>
		</g>
		<g id="&lt;Group&gt;">
			<path id="&lt;Path&gt;" class="s3" d="m242.3 65.6c0 2.5-4.6 12.1-4.6 12.1 0 0-4.6-9.6-4.6-12.1 0-2.6 2-4.6 4.6-4.6 2.5 0 4.6 2 4.6 4.6z"/>
			<path id="&lt;Path&gt;" class="s3" d="m227.9 69.2c2.4 0.9 9.8 8.5 9.8 8.5 0 0-10.6 1.1-13 0.2-2.4-0.9-3.6-3.5-2.7-5.9 0.8-2.4 3.5-3.7 5.9-2.8z"/>
			<path id="&lt;Path&gt;" class="s3" d="m226.4 84c1.6-2 11.3-6.3 11.3-6.3 0 0-2.6 10.3-4.3 12.2-1.6 2-4.5 2.3-6.5 0.6-1.9-1.6-2.2-4.6-0.5-6.5z"/>
			<path id="&lt;Path&gt;" class="s3" d="m239.7 90.5c-1.2-2.2-2-12.8-2-12.8 0 0 8.8 5.9 10 8.2 1.3 2.2 0.6 5-1.6 6.3-2.3 1.3-5.1 0.5-6.4-1.7z"/>
			<path id="&lt;Path&gt;" class="s3" d="m250.4 80.1c-2.5 0.5-12.7-2.4-12.7-2.4 0 0 8.6-6.2 11.1-6.7 2.5-0.4 4.9 1.3 5.4 3.8 0.4 2.5-1.3 4.9-3.8 5.3z"/>
			<path id="&lt;Path&gt;" class="s4" d="m227 62.9c2.8 2.1 10.7 14.8 10.7 14.8 0 0 5.7-8.7 11.9-11.2"/>
			<path id="&lt;Path&gt;" class="s4" d="m222.2 81.8c2.1 0.5 15.5-4.1 15.5-4.1-2.7 6-0.6 16.2-0.6 16.2"/>
		</g>
		<g id="&lt;Group&gt;">
			<path id="&lt;Path&gt;" class="s3" d="m244.5 94.3c0 2.3-4.3 11.2-4.3 11.2 0 0-4.3-8.9-4.3-11.2 0-2.4 1.9-4.3 4.3-4.3 2.3 0 4.3 1.9 4.3 4.3z"/>
			<path id="&lt;Path&gt;" class="s3" d="m231.1 97.6c2.2 0.8 9.1 7.9 9.1 7.9 0 0-9.8 1-12 0.2-2.2-0.8-3.4-3.3-2.6-5.5 0.8-2.2 3.3-3.4 5.5-2.6z"/>
			<path id="&lt;Path&gt;" class="s3" d="m229.7 111.3c1.5-1.8 10.5-5.8 10.5-5.8 0 0-2.4 9.5-3.9 11.3-1.6 1.8-4.3 2.1-6.1 0.5-1.8-1.5-2-4.2-0.5-6z"/>
			<path id="&lt;Path&gt;" class="s3" d="m242.1 117.3c-1.2-2-1.9-11.8-1.9-11.8 0 0 8.1 5.5 9.3 7.5 1.2 2.1 0.5 4.7-1.6 5.9-2 1.2-4.7 0.5-5.8-1.6z"/>
			<path id="&lt;Path&gt;" class="s3" d="m251.9 107.7c-2.3 0.5-11.7-2.2-11.7-2.2 0 0 7.9-5.8 10.3-6.2 2.3-0.4 4.5 1.2 4.9 3.5 0.4 2.3-1.1 4.5-3.5 4.9z"/>
			<path id="&lt;Path&gt;" class="s4" d="m230.3 91.8c2.6 2 9.9 13.7 9.9 13.7 0 0 5.2-8.1 11-10.4"/>
			<path id="&lt;Path&gt;" class="s4" d="m225.8 109.3c2 0.5 14.4-3.8 14.4-3.8-2.5 5.6-0.5 15-0.5 15"/>
		</g>
		<g id="&lt;Group&gt;">
			<path id="&lt;Path&gt;" class="s0" d="m323.8 174.6c0 7.9-6.3 12.5-6.3 12.5 0 0-6.3-4.6-6.3-12.5 0-7.9 6.3-16 6.3-16 0 0 6.3 8.1 6.3 16z"/>
			<path id="&lt;Path&gt;" class="s0" d="m330.7 182.4c-5.5 5.5-13.2 4.4-13.2 4.4 0 0-1.2-7.7 4.4-13.3 5.5-5.5 15.7-6.9 15.7-6.9 0 0-1.3 10.2-6.9 15.8z"/>
			<path id="&lt;Path&gt;" class="s0" d="m304 182.4c5.6 5.5 13.3 4.4 13.3 4.4 0 0 1.2-7.7-4.4-13.3-5.6-5.5-15.8-6.9-15.8-6.9 0 0 1.4 10.2 6.9 15.8z"/>
		</g>
		<g id="&lt;Group&gt;">
			<path id="&lt;Path&gt;" class="s0" d="m292.3 185.9c7.9 0 12.5 6.3 12.5 6.3 0 0-4.6 6.3-12.5 6.3-7.8 0-16-6.3-16-6.3 0 0 8.2-6.3 16-6.3z"/>
			<path id="&lt;Path&gt;" class="s0" d="m300.1 179c5.6 5.5 4.4 13.2 4.4 13.2 0 0-7.7 1.2-13.2-4.4-5.6-5.6-7-15.7-7-15.7 0 0 10.2 1.3 15.8 6.9z"/>
			<path id="&lt;Path&gt;" class="s0" d="m300.1 205.7c5.6-5.6 4.4-13.3 4.4-13.3 0 0-7.7-1.2-13.2 4.4-5.6 5.6-7 15.8-7 15.8 0 0 10.2-1.4 15.8-6.9z"/>
		</g>
		<g id="&lt;Group&gt;">
			<path id="&lt;Path&gt;" class="s0" d="m135.4 182.7c5.9 5.8 4.6 13.9 4.6 13.9 0 0-8.1 1.3-13.9-4.6-5.9-5.8-7.3-16.6-7.3-16.6 0 0 10.7 1.4 16.6 7.3z"/>
			<path id="&lt;Path&gt;" class="s0" d="m146.4 183.3c0 8.3-6.6 13.1-6.6 13.1 0 0-6.6-4.8-6.6-13.1 0-8.3 6.6-16.9 6.6-16.9 0 0 6.6 8.6 6.6 16.9z"/>
			<path id="&lt;Path&gt;" class="s0" d="m126.5 203.1c8.3 0 13.1-6.5 13.1-6.5 0 0-4.8-6.6-13.1-6.6-8.3 0-16.8 6.6-16.8 6.6 0 0 8.5 6.5 16.8 6.5z"/>
		</g>
		<g id="&lt;Group&gt;">
			<path id="&lt;Path&gt;" class="s0" d="m165.1 191c5.9 5.8 4.6 13.9 4.6 13.9 0 0-8 1.2-13.9-4.6-5.8-5.9-7.3-16.6-7.3-16.6 0 0 10.8 1.4 16.6 7.3z"/>
			<path id="&lt;Path&gt;" class="s0" d="m176.1 191.6c0 8.2-6.6 13.1-6.6 13.1 0 0-6.6-4.9-6.6-13.1 0-8.3 6.6-16.9 6.6-16.9 0 0 6.6 8.6 6.6 16.9z"/>
			<path id="&lt;Path&gt;" class="s0" d="m156.2 211.4c8.3 0 13.2-6.6 13.2-6.6 0 0-4.9-6.6-13.2-6.6-8.2 0-16.8 6.6-16.8 6.6 0 0 8.6 6.6 16.8 6.6z"/>
		</g>
		<g id="&lt;Group&gt;">
			<path id="&lt;Path&gt;" class="s0" d="m158.7 218.6c5.8 5.8 4.6 13.9 4.6 13.9 0 0-8.1 1.3-13.9-4.6-5.9-5.9-7.3-16.6-7.3-16.6 0 0 10.7 1.4 16.6 7.3z"/>
			<path id="&lt;Path&gt;" class="s0" d="m169.7 219.2c0 8.3-6.6 13.1-6.6 13.1 0 0-6.6-4.8-6.6-13.1 0-8.3 6.6-16.9 6.6-16.9 0 0 6.6 8.6 6.6 16.9z"/>
			<path id="&lt;Path&gt;" class="s0" d="m149.8 239c8.3 0 13.1-6.5 13.1-6.5 0 0-4.8-6.6-13.1-6.6-8.3 0-16.9 6.6-16.9 6.6 0 0 8.6 6.5 16.9 6.5z"/>
		</g>
		<g id="&lt;Group&gt;">
			<path id="&lt;Path&gt;" class="s0" d="m129.2 211.3c8.3 0 13.1 6.6 13.1 6.6 0 0-4.8 6.6-13.1 6.6-8.3 0-16.9-6.6-16.9-6.6 0 0 8.6-6.6 16.9-6.6z"/>
			<path id="&lt;Path&gt;" class="s0" d="m137.4 203.9c5.8 5.9 4.6 14 4.6 14 0 0-8.1 1.2-14-4.6-5.8-5.9-7.2-16.6-7.2-16.6 0 0 10.7 1.4 16.6 7.2z"/>
			<path id="&lt;Path&gt;" class="s0" d="m137.4 232c5.8-5.8 4.6-13.9 4.6-13.9 0 0-8.1-1.2-13.9 4.6-5.9 5.9-7.3 16.6-7.3 16.6 0 0 10.7-1.4 16.6-7.3z"/>
		</g>
		<g id="&lt;Group&gt;">
			<path id="&lt;Path&gt;" class="s5" d="m353.4 225.1c-7.8 0-12.4-6.3-12.4-6.3 0 0 4.6-6.2 12.4-6.2 7.9 0 16.1 6.2 16.1 6.2 0 0-8.2 6.3-16.1 6.3z"/>
			<path id="&lt;Path&gt;" class="s5" d="m345.7 232.1c-5.6-5.6-4.4-13.3-4.4-13.3 0 0 7.6-1.1 13.2 4.4 5.6 5.6 6.9 15.8 6.9 15.8 0 0-10.2-1.4-15.7-6.9z"/>
			<path id="&lt;Path&gt;" class="s5" d="m345.7 205.4c-5.6 5.5-4.4 13.2-4.4 13.2 0 0 7.6 1.2 13.2-4.4 5.6-5.5 6.9-15.7 6.9-15.7 0 0-10.2 1.3-15.7 6.9z"/>
		</g>
		<g id="&lt;Group&gt;">
			<path id="&lt;Path&gt;" class="s5" d="m181.4 202.1c-5.8 5.8-13.9 4.6-13.9 4.6 0 0-1.3-8.1 4.6-13.9 5.8-5.9 16.6-7.3 16.6-7.3 0 0-1.4 10.7-7.3 16.6z"/>
			<path id="&lt;Path&gt;" class="s5" d="m180.8 213.1c-8.3 0-13.1-6.6-13.1-6.6 0 0 4.8-6.6 13.1-6.6 8.3 0 16.9 6.6 16.9 6.6 0 0-8.6 6.6-16.9 6.6z"/>
			<path id="&lt;Path&gt;" class="s5" d="m161 193.2c0 8.3 6.5 13.1 6.5 13.1 0 0 6.6-4.8 6.6-13.1 0-8.3-6.6-16.9-6.6-16.9 0 0-6.5 8.6-6.5 16.9z"/>
		</g>
		<g id="&lt;Group&gt;">
			<path id="&lt;Path&gt;" class="s5" d="m150.2 225.2c5.8-5.8 13.9-4.6 13.9-4.6 0 0 1.2 8.1-4.6 14-5.9 5.8-16.6 7.2-16.6 7.2 0 0 1.4-10.7 7.3-16.6z"/>
			<path id="&lt;Path&gt;" class="s5" d="m150.8 214.3c8.2 0 13.1 6.5 13.1 6.5 0 0-4.9 6.6-13.1 6.6-8.3 0-16.9-6.6-16.9-6.6 0 0 8.6-6.5 16.9-6.5z"/>
			<path id="&lt;Path&gt;" class="s5" d="m170.6 234.1c0-8.3-6.6-13.1-6.6-13.1 0 0-6.6 4.8-6.6 13.1 0 8.3 6.6 16.9 6.6 16.9 0 0 6.6-8.6 6.6-16.9z"/>
		</g>
		<g id="&lt;Group&gt;">
			<path id="&lt;Path&gt;" class="s0" d="m352 189.9c-5.6 5.5-13.3 4.4-13.3 4.4 0 0-1.2-7.7 4.4-13.3 5.6-5.5 15.8-6.9 15.8-6.9 0 0-1.4 10.2-6.9 15.8z"/>
			<path id="&lt;Path&gt;" class="s0" d="m351.4 200.3c-7.9 0-12.5-6.2-12.5-6.2 0 0 4.6-6.3 12.5-6.3 7.9 0 16 6.3 16 6.3 0 0-8.1 6.2-16 6.2z"/>
			<path id="&lt;Path&gt;" class="s0" d="m332.5 181.4c0 7.9 6.3 12.5 6.3 12.5 0 0 6.2-4.6 6.2-12.5 0-7.8-6.2-16-6.2-16 0 0-6.3 8.2-6.3 16z"/>
		</g>
		<g id="&lt;Group&gt;">
			<path id="&lt;Path&gt;" class="s0" d="m317.4 224.5c0-7.9 6.2-12.5 6.2-12.5 0 0 6.3 4.6 6.3 12.5 0 7.9-6.3 16-6.3 16 0 0-6.2-8.1-6.2-16z"/>
			<path id="&lt;Path&gt;" class="s0" d="m310.4 216.7c5.6-5.6 13.2-4.4 13.2-4.4 0 0 1.2 7.7-4.3 13.3-5.6 5.5-15.8 6.9-15.8 6.9 0 0 1.3-10.2 6.9-15.8z"/>
			<path id="&lt;Path&gt;" class="s0" d="m337.1 216.7c-5.6-5.6-13.2-4.4-13.2-4.4 0 0-1.2 7.7 4.4 13.3 5.5 5.5 15.7 6.9 15.7 6.9 0 0-1.3-10.2-6.9-15.8z"/>
		</g>
		<g id="&lt;Group&gt;">
			<path id="&lt;Path&gt;" class="s3" d="m324 198.4c-1.9 1.5-11.5 3.8-11.5 3.8 0 0 4.2-9 6-10.5 1.9-1.4 4.6-1.2 6.1 0.7 1.5 1.8 1.2 4.5-0.6 6z"/>
			<path id="&lt;Path&gt;" class="s3" d="m312.9 190.1c0.8 2.3-0.4 12.1-0.4 12.1 0 0-6.9-7-7.7-9.2-0.8-2.3 0.4-4.7 2.7-5.5 2.2-0.8 4.6 0.4 5.4 2.6z"/>
			<path id="&lt;Path&gt;" class="s3" d="m301.4 197.7c2.3 0 11.1 4.5 11.1 4.5 0 0-8.9 4.1-11.3 4.1-2.3-0.1-4.2-2-4.2-4.4 0.1-2.4 2-4.3 4.4-4.2z"/>
			<path id="&lt;Path&gt;" class="s3" d="m304.5 211.1c0.9-2.2 8-8.9 8-8.9 0 0 0.9 9.8 0 12-0.8 2.2-3.3 3.3-5.5 2.5-2.2-0.9-3.3-3.4-2.5-5.6z"/>
			<path id="&lt;Path&gt;" class="s3" d="m318.2 212.8c-1.8-1.6-5.7-10.6-5.7-10.6 0 0 9.5 2.5 11.3 4.1 1.8 1.5 2 4.2 0.5 6-1.6 1.8-4.3 2-6.1 0.5z"/>
			<path id="&lt;Path&gt;" class="s4" d="m316.9 185.8c0.2 3.3-4.4 16.4-4.4 16.4 0 0 9.7-1 15.1 2"/>
			<path id="&lt;Path&gt;" class="s4" d="m300.5 193.4c0.9 1.8 12 8.8 12 8.8-5.9 1.6-11.9 9-11.9 9"/>
		</g>
		<g id="&lt;Group&gt;">
			<path id="&lt;Path&gt;" class="s3" d="m163 224.3c-1.7 1.7-11.1 5-11.1 5 0 0 3.3-9.4 5-11.1 1.7-1.7 4.4-1.7 6.1 0 1.7 1.7 1.7 4.4 0 6.1z"/>
			<path id="&lt;Path&gt;" class="s3" d="m151 217.1c1 2.2 0.9 12.2 0.9 12.2 0 0-7.8-6.3-8.8-8.5-1-2.2-0.1-4.8 2.1-5.8 2.2-1 4.8-0.1 5.8 2.1z"/>
			<path id="&lt;Path&gt;" class="s3" d="m140.2 225.9c2.3-0.2 11.7 3.4 11.7 3.4 0 0-8.6 5.1-11 5.3-2.4 0.2-4.5-1.5-4.7-3.9-0.2-2.4 1.6-4.5 4-4.8z"/>
			<path id="&lt;Path&gt;" class="s3" d="m144.7 239.2c0.6-2.4 7.2-9.9 7.2-9.9 0 0 1.9 9.8 1.2 12.1-0.6 2.3-3 3.7-5.3 3.1-2.3-0.6-3.7-3-3.1-5.3z"/>
			<path id="&lt;Path&gt;" class="s3" d="m158.7 239.4c-2-1.4-6.8-10.1-6.8-10.1 0 0 9.8 1.6 11.8 3 2 1.3 2.5 4 1.1 6-1.4 2-4.1 2.5-6.1 1.1z"/>
			<path id="&lt;Path&gt;" class="s4" d="m154.6 212.3c0.5 3.4-2.7 17-2.7 17 0 0 9.6-2 15.4 0.5"/>
			<path id="&lt;Path&gt;" class="s4" d="m138.8 221.7c1.1 1.8 13.1 7.6 13.1 7.6-5.8 2.2-11.2 10.4-11.2 10.4"/>
		</g>
		<g id="&lt;Group&gt;">
			<path id="&lt;Path&gt;" class="s3" d="m311.1 174.5c-1.9 1.9-12.1 5.4-12.1 5.4 0 0 3.6-10.2 5.4-12 1.9-1.9 4.8-1.9 6.7 0 1.8 1.8 1.8 4.8 0 6.6z"/>
			<path id="&lt;Path&gt;" class="s3" d="m298.1 166.8c1.1 2.3 0.9 13.1 0.9 13.1 0 0-8.3-6.8-9.4-9.2-1.1-2.3-0.1-5.1 2.2-6.2 2.4-1.1 5.2-0.1 6.3 2.3z"/>
			<path id="&lt;Path&gt;" class="s3" d="m286.4 176.3c2.5-0.2 12.6 3.6 12.6 3.6 0 0-9.2 5.6-11.8 5.8-2.6 0.2-4.9-1.7-5.1-4.3-0.3-2.6 1.7-4.9 4.3-5.1z"/>
			<path id="&lt;Path&gt;" class="s3" d="m291.3 190.6c0.7-2.5 7.7-10.7 7.7-10.7 0 0 2.1 10.6 1.4 13.2-0.7 2.5-3.3 4-5.8 3.3-2.5-0.7-4-3.3-3.3-5.8z"/>
			<path id="&lt;Path&gt;" class="s3" d="m306.4 190.9c-2.1-1.5-7.4-11-7.4-11 0 0 10.7 1.7 12.8 3.2 2.2 1.5 2.7 4.5 1.2 6.6-1.5 2.1-4.4 2.7-6.6 1.2z"/>
			<path id="&lt;Path&gt;" class="s4" d="m302 161.6c0.5 3.6-3 18.3-3 18.3 0 0 10.4-2.1 16.7 0.5"/>
			<path id="&lt;Path&gt;" class="s4" d="m284.9 171.7c1.2 1.9 14.1 8.2 14.1 8.2-6.2 2.5-12 11.3-12 11.3"/>
		</g>
		<g id="&lt;Group&gt;">
			<path id="&lt;Path&gt;" class="s3" d="m145.5 182.9c-1.7 1.7-11 4.9-11 4.9 0 0 3.2-9.2 4.9-10.9 1.7-1.7 4.4-1.7 6.1 0 1.6 1.7 1.6 4.4 0 6z"/>
			<path id="&lt;Path&gt;" class="s3" d="m133.6 175.9c1 2.1 0.9 11.9 0.9 11.9 0 0-7.6-6.2-8.6-8.3-1-2.2-0.1-4.7 2-5.7 2.2-1 4.7-0.1 5.7 2.1z"/>
			<path id="&lt;Path&gt;" class="s3" d="m123 184.5c2.3-0.2 11.5 3.3 11.5 3.3 0 0-8.4 5.1-10.8 5.3-2.4 0.2-4.4-1.5-4.6-3.9-0.3-2.4 1.5-4.4 3.9-4.7z"/>
			<path id="&lt;Path&gt;" class="s3" d="m127.5 197.6c0.6-2.3 7-9.8 7-9.8 0 0 1.8 9.7 1.2 12-0.6 2.3-2.9 3.6-5.2 3-2.3-0.6-3.7-2.9-3-5.2z"/>
			<path id="&lt;Path&gt;" class="s3" d="m141.2 197.8c-1.9-1.4-6.7-10-6.7-10 0 0 9.7 1.6 11.6 3 2 1.3 2.4 4 1.1 5.9-1.4 2-4 2.4-6 1.1z"/>
			<path id="&lt;Path&gt;" class="s4" d="m137.2 171.2c0.4 3.2-2.7 16.6-2.7 16.6 0 0 9.4-1.9 15.2 0.5"/>
			<path id="&lt;Path&gt;" class="s4" d="m121.7 180.4c1 1.7 12.8 7.4 12.8 7.4-5.7 2.3-11 10.3-11 10.3"/>
		</g>
		<g id="&lt;Group&gt;">
			<path id="&lt;Path&gt;" class="s3" d="m170.2 183.7c-1.7 1.7-10.9 4.9-10.9 4.9 0 0 3.2-9.2 4.9-10.8 1.6-1.7 4.3-1.7 6 0 1.6 1.6 1.6 4.3 0 5.9z"/>
			<path id="&lt;Path&gt;" class="s3" d="m158.5 176.8c1 2.1 0.8 11.8 0.8 11.8 0 0-7.5-6.2-8.5-8.3-0.9-2.1 0-4.6 2.1-5.6 2.1-1 4.6-0.1 5.6 2.1z"/>
			<path id="&lt;Path&gt;" class="s3" d="m148 185.3c2.3-0.2 11.3 3.3 11.3 3.3 0 0-8.3 4.9-10.6 5.1-2.3 0.2-4.4-1.5-4.6-3.8-0.2-2.3 1.5-4.4 3.9-4.6z"/>
			<path id="&lt;Path&gt;" class="s3" d="m152.4 198.1c0.6-2.2 6.9-9.5 6.9-9.5 0 0 1.9 9.5 1.3 11.7-0.6 2.3-3 3.6-5.2 3-2.3-0.6-3.6-2.9-3-5.2z"/>
			<path id="&lt;Path&gt;" class="s3" d="m166 198.4c-1.9-1.4-6.7-9.8-6.7-9.8 0 0 9.6 1.5 11.5 2.8 1.9 1.4 2.4 4 1.1 5.9-1.4 1.9-4 2.4-5.9 1.1z"/>
			<path id="&lt;Path&gt;" class="s4" d="m162 172.1c0.5 3.2-2.7 16.5-2.7 16.5 0 0 9.4-2 15 0.4"/>
			<path id="&lt;Path&gt;" class="s4" d="m146.7 181.2c1 1.7 12.6 7.4 12.6 7.4-5.6 2.1-10.8 10.1-10.8 10.1"/>
		</g>
		<g id="&lt;Group&gt;">
			<path id="&lt;Path&gt;" class="s3" d="m180.6 205.9c-1.6 1.7-10.8 4.8-10.8 4.8 0 0 3.2-9.1 4.8-10.8 1.7-1.6 4.4-1.6 6 0 1.7 1.7 1.7 4.3 0 6z"/>
			<path id="&lt;Path&gt;" class="s3" d="m169 198.9c1 2.1 0.8 11.8 0.8 11.8 0 0-7.5-6.1-8.5-8.2-1-2.1-0.1-4.6 2.1-5.6 2.1-1 4.6-0.1 5.6 2z"/>
			<path id="&lt;Path&gt;" class="s3" d="m158.4 207.5c2.4-0.2 11.4 3.2 11.4 3.2 0 0-8.3 5-10.6 5.2-2.3 0.2-4.4-1.5-4.6-3.8-0.2-2.4 1.5-4.4 3.8-4.6z"/>
			<path id="&lt;Path&gt;" class="s3" d="m162.9 220.3c0.6-2.2 6.9-9.6 6.9-9.6 0 0 1.8 9.5 1.2 11.8-0.6 2.3-2.9 3.6-5.1 3-2.3-0.6-3.6-2.9-3-5.2z"/>
			<path id="&lt;Path&gt;" class="s3" d="m176.5 220.5c-2-1.3-6.7-9.8-6.7-9.8 0 0 9.6 1.6 11.5 2.9 1.9 1.3 2.4 4 1 5.9-1.3 1.9-3.9 2.4-5.8 1z"/>
			<path id="&lt;Path&gt;" class="s4" d="m172.5 194.3c0.4 3.2-2.7 16.4-2.7 16.4 0 0 9.3-1.9 15 0.5"/>
			<path id="&lt;Path&gt;" class="s4" d="m157.2 203.4c1 1.7 12.6 7.3 12.6 7.3-5.6 2.2-10.8 10.1-10.8 10.1"/>
		</g>
		<g id="&lt;Group&gt;">
			<path id="&lt;Path&gt;" class="s3" d="m144.2 208.4c-1.7 1.7-11.1 5-11.1 5 0 0 3.3-9.5 5-11.2 1.7-1.7 4.4-1.7 6.1 0 1.7 1.7 1.7 4.5 0 6.2z"/>
			<path id="&lt;Path&gt;" class="s3" d="m132.2 201.2c1.1 2.2 0.9 12.2 0.9 12.2 0 0-7.7-6.3-8.8-8.5-1-2.2 0-4.8 2.2-5.8 2.1-1 4.7-0.1 5.7 2.1z"/>
			<path id="&lt;Path&gt;" class="s3" d="m121.4 210c2.4-0.2 11.7 3.4 11.7 3.4 0 0-8.6 5.1-11 5.3-2.4 0.2-4.5-1.6-4.7-4-0.2-2.4 1.6-4.5 4-4.7z"/>
			<path id="&lt;Path&gt;" class="s3" d="m126 223.2c0.6-2.3 7.1-9.8 7.1-9.8 0 0 1.9 9.8 1.3 12.1-0.7 2.3-3.1 3.7-5.4 3.1-2.3-0.7-3.7-3-3-5.4z"/>
			<path id="&lt;Path&gt;" class="s3" d="m139.9 223.5c-1.9-1.4-6.8-10.1-6.8-10.1 0 0 9.9 1.5 11.8 2.9 2 1.4 2.5 4.1 1.1 6.1-1.4 2-4.1 2.4-6.1 1.1z"/>
			<path id="&lt;Path&gt;" class="s4" d="m135.8 196.4c0.5 3.4-2.7 17-2.7 17 0 0 9.6-2 15.4 0.4"/>
			<path id="&lt;Path&gt;" class="s4" d="m120.1 205.8c1 1.8 13 7.6 13 7.6-5.8 2.2-11.1 10.4-11.1 10.4"/>
		</g>
		<g id="&lt;Group&gt;">
			<path id="&lt;Path&gt;" class="s3" d="m339.1 169.7c-1.6 1.6-10.4 4.6-10.4 4.6 0 0 3-8.8 4.6-10.4 1.6-1.6 4.2-1.6 5.8 0 1.6 1.6 1.6 4.2 0 5.8z"/>
			<path id="&lt;Path&gt;" class="s3" d="m327.8 162.9c1 2.1 0.9 11.4 0.9 11.4 0 0-7.3-5.9-8.3-7.9-0.9-2.1 0-4.5 2-5.4 2.1-1 4.5-0.1 5.4 1.9z"/>
			<path id="&lt;Path&gt;" class="s3" d="m317.7 171.2c2.2-0.2 11 3.1 11 3.1 0 0-8.1 4.8-10.3 5-2.3 0.2-4.2-1.4-4.4-3.7-0.2-2.2 1.4-4.2 3.7-4.4z"/>
			<path id="&lt;Path&gt;" class="s3" d="m322 183.6c0.5-2.2 6.7-9.3 6.7-9.3 0 0 1.7 9.2 1.1 11.4-0.5 2.2-2.8 3.5-5 2.9-2.1-0.6-3.4-2.8-2.8-5z"/>
			<path id="&lt;Path&gt;" class="s3" d="m335.1 183.8c-1.9-1.3-6.4-9.5-6.4-9.5 0 0 9.2 1.5 11 2.8 1.9 1.3 2.3 3.9 1 5.7-1.2 1.8-3.8 2.3-5.6 1z"/>
			<path id="&lt;Path&gt;" class="s4" d="m331.2 158.5c0.5 3.1-2.5 15.8-2.5 15.8 0 0 8.9-1.8 14.4 0.5"/>
			<path id="&lt;Path&gt;" class="s4" d="m316.4 167.2c1 1.7 12.3 7.1 12.3 7.1-5.5 2.1-10.5 9.8-10.5 9.8"/>
		</g>
		<g id="&lt;Group&gt;">
			<path id="&lt;Path&gt;" class="s3" d="m351.4 188.2c-1.7 1.7-11 4.9-11 4.9 0 0 3.3-9.3 4.9-11 1.7-1.7 4.4-1.7 6.1 0 1.7 1.7 1.7 4.4 0 6.1z"/>
			<path id="&lt;Path&gt;" class="s3" d="m339.6 181.1c1 2.1 0.8 12 0.8 12 0 0-7.6-6.2-8.6-8.4-1-2.1-0.1-4.7 2.1-5.7 2.1-1 4.7-0.1 5.7 2.1z"/>
			<path id="&lt;Path&gt;" class="s3" d="m328.9 189.8c2.3-0.2 11.5 3.3 11.5 3.3 0 0-8.4 5-10.8 5.3-2.4 0.2-4.4-1.6-4.6-4-0.2-2.3 1.5-4.4 3.9-4.6z"/>
			<path id="&lt;Path&gt;" class="s3" d="m333.4 202.8c0.6-2.3 7-9.7 7-9.7 0 0 1.9 9.7 1.3 12-0.6 2.3-3 3.6-5.3 3-2.3-0.6-3.6-3-3-5.3z"/>
			<path id="&lt;Path&gt;" class="s3" d="m347.2 203.1c-2-1.4-6.8-10-6.8-10 0 0 9.8 1.6 11.7 2.9 2 1.4 2.4 4.1 1.1 6-1.4 1.9-4.1 2.4-6 1.1z"/>
			<path id="&lt;Path&gt;" class="s4" d="m343.1 176.4c0.5 3.2-2.7 16.7-2.7 16.7 0 0 9.5-2 15.2 0.5"/>
			<path id="&lt;Path&gt;" class="s4" d="m327.6 185.6c1 1.8 12.8 7.5 12.8 7.5-5.7 2.2-11 10.3-11 10.3"/>
		</g>
		<g id="&lt;Group&gt;">
			<path id="&lt;Path&gt;" class="s3" d="m363.8 210.5c-1.7 1.7-11 4.9-11 4.9 0 0 3.3-9.3 4.9-11 1.7-1.6 4.4-1.6 6.1 0 1.7 1.7 1.7 4.4 0 6.1z"/>
			<path id="&lt;Path&gt;" class="s3" d="m352 203.4c1 2.2 0.8 12 0.8 12 0 0-7.6-6.2-8.6-8.3-1-2.2-0.1-4.7 2.1-5.8 2.1-1 4.7 0 5.7 2.1z"/>
			<path id="&lt;Path&gt;" class="s3" d="m341.3 212.1c2.3-0.2 11.5 3.3 11.5 3.3 0 0-8.4 5.1-10.8 5.3-2.4 0.2-4.4-1.5-4.6-3.9-0.3-2.4 1.5-4.5 3.9-4.7z"/>
			<path id="&lt;Path&gt;" class="s3" d="m345.8 225.2c0.6-2.3 7-9.8 7-9.8 0 0 1.9 9.7 1.3 12-0.6 2.3-3 3.7-5.3 3-2.3-0.6-3.6-2.9-3-5.2z"/>
			<path id="&lt;Path&gt;" class="s3" d="m359.6 225.4c-2-1.4-6.8-10-6.8-10 0 0 9.8 1.6 11.7 3 2 1.3 2.4 4 1.1 5.9-1.4 2-4.1 2.5-6 1.1z"/>
			<path id="&lt;Path&gt;" class="s4" d="m355.5 198.7c0.5 3.3-2.7 16.7-2.7 16.7 0 0 9.5-2 15.2 0.5"/>
			<path id="&lt;Path&gt;" class="s4" d="m340 208c1 1.7 12.8 7.4 12.8 7.4-5.7 2.3-11 10.3-11 10.3"/>
		</g>
		<g id="&lt;Group&gt;">
			<path id="&lt;Path&gt;" class="s3" d="m337.7 213.2c-1.7 1.7-11 4.9-11 4.9 0 0 3.3-9.3 4.9-11 1.7-1.7 4.4-1.7 6.1 0 1.7 1.7 1.7 4.4 0 6.1z"/>
			<path id="&lt;Path&gt;" class="s3" d="m325.9 206.1c1 2.1 0.8 12 0.8 12 0 0-7.6-6.2-8.6-8.4-1-2.1-0.1-4.7 2.1-5.7 2.1-1 4.7-0.1 5.7 2.1z"/>
			<path id="&lt;Path&gt;" class="s3" d="m315.2 214.8c2.3-0.2 11.5 3.3 11.5 3.3 0 0-8.4 5-10.8 5.2-2.4 0.3-4.4-1.5-4.7-3.9-0.2-2.3 1.6-4.4 4-4.6z"/>
			<path id="&lt;Path&gt;" class="s3" d="m319.7 227.8c0.6-2.3 7-9.7 7-9.7 0 0 1.9 9.7 1.3 12-0.6 2.2-3 3.6-5.3 3-2.3-0.6-3.6-3-3-5.3z"/>
			<path id="&lt;Path&gt;" class="s3" d="m333.5 228.1c-2-1.4-6.8-10-6.8-10 0 0 9.8 1.6 11.7 2.9 1.9 1.4 2.4 4.1 1.1 6-1.4 1.9-4.1 2.4-6 1.1z"/>
			<path id="&lt;Path&gt;" class="s4" d="m329.4 201.4c0.5 3.2-2.7 16.7-2.7 16.7 0 0 9.5-2 15.2 0.5"/>
			<path id="&lt;Path&gt;" class="s4" d="m313.9 210.6c1 1.8 12.8 7.5 12.8 7.5-5.7 2.2-11 10.3-11 10.3"/>
		</g>
	</g>
</svg>