<svg version="1.2" xmlns="http://www.w3.org/2000/svg" viewBox="0 0 480 480" width="480" height="480">
	<title>Flower</title>
	<style>
		.s0 { fill: none;stroke: #34aa63;stroke-miterlimit:10;stroke-width: 17 } 
		.s1 { fill: #34aa63 } 
		.s2 { fill: #dd005f } 
		.s3 { fill: #d40060 } 
		.s4 { fill: #e2196f } 
		.s5 { fill: #de0563 } 
		.s6 { fill: #ff9f4f } 
		.s7 { fill: none;stroke: #ffd58b;stroke-miterlimit:10;stroke-width: 7 } 
	</style>
	<g id="&lt;Group&gt;">
		<path id="&lt;Path&gt;" class="s0" d="m245 238.5c-4.3 54 1.9 187.3 1.9 187.3"/>
		<g id="&lt;Group&gt;">
			<path id="&lt;Path&gt;" class="s1" d="m366.2 338.8c-0.2 0.1-15.2-28.9-42.3-55.4-26.4-27.3-55.5-42.1-55.4-42.3-0.6 0.1 43.1-2.7 71.7 26 28.9 28.5 25.9 72.3 26 71.7z"/>
			<path id="&lt;Path&gt;" class="s1" d="m395.3 288.2c-0.1 0.2-25.9-19.8-61.7-32.4-35.4-13.6-68.1-14.8-68.1-15-0.5 0.4 38-20.7 76-6.6 38.2 13.6 54 54.6 53.8 54z"/>
			<path id="&lt;Path&gt;" class="s1" d="m219.5 241.1c0.2 0-9.7 31.1-9.3 69.1-0.6 37.9 9.4 69 9.3 69.1 0.5 0.3-32.5-28.6-32.3-69.1-0.3-40.6 32.7-69.5 32.3-69.1z"/>
			<path id="&lt;Path&gt;" class="s2" d="m217 123.5c23.6 8.4 34.7 25 36.2 40.1 2.1 14.9-5.4 28.3-4.9 28.2 0.2 0.1-18.4 0.9-38.7 1.5-20.4 0.4-42.5 0.4-55.2-7.1-26.1-14-39.4-45.7-31.3-68.3 4.5-10.9 14-12.8 30.8-10.8 16.4 2.1 40 8.1 63.1 16.4z"/>
			<path id="&lt;Path&gt;" class="s3" d="m239.1 264.6c-10.6-12.8-11.5-33.2-13.5-51.1-1.4-17.8-4.1-33-4.2-33.1 0.6 0.4 8.9-4 25.6-4.5 16.1-0.4 40.7 3 61 19.8 19.5 16.1 32.7 35.3 35.1 50.2 2.7 15.2-5.6 26.1-20.5 33.6-29.8 15.1-62.2 10.9-83.5-14.9z"/>
			<path id="&lt;Path&gt;" class="s4" d="m166.9 136.3c16-0.1 32.4 12.8 43.9 21.2 11.6 9.1 18.4 13.7 18.2 13.8-0.3-0.2-6.1 12.3-17 28.9-10.7 15.9-26.5 35.7-45.1 35.4-18.5 0.6-34.7-12-45.5-25.5-10.9-13.9-16.3-28.7-16.7-38.8-0.2-10.4 7-17.3 18.5-23.7 11.6-6 27.5-11.6 43.7-11.3z"/>
			<path id="&lt;Path&gt;" class="s4" d="m299.6 232.1c-31 0-59-44.3-59-44.3 0 0 28-44.3 59-44.3 30.9 0 58.9 16.7 58.9 44.3 0 27.6-28 44.3-58.9 44.3z"/>
			<path id="&lt;Path&gt;" class="s3" d="m324.4 156.9c-14.4 9.7-24.4 22.9-41.1 23.3-14.9 2-36.6-8.7-36.4-8.4-0.2-0.3 5.8-5.2 5.1-23 1-16-4.7-44.8 9.8-54.6 14.2-10 22.8-24.5 36.3-28 12.6-4.5 30.1 2 41.2 13.2 8.4 8.4 6.6 17.5 4.8 32.7-2.8 14.3-5.5 34.7-19.7 44.8z"/>
			<path id="&lt;Path&gt;" class="s5" d="m157.1 198.2c24.6-24.5 78.1-15.4 78.1-15.4 0 0 9.1 53.5-15.4 78.1-24.6 24.5-58.6 35-78.1 15.4-19.6-19.5-9.1-53.5 15.4-78.1z"/>
			<path id="&lt;Path&gt;" class="s4" d="m272.9 114.6c7 15.6-0.3 30.5-13.7 41.6-12.6 11-31.2 18-30.6 18-0.6 0-4.1-7-13.6-18-8.9-11.1-23.7-26-30.7-41.6-7-15.7-6.6-30.6 3.3-41.6 9.1-11 27.7-18.1 41-18.1 14.3 0 17.9 7.1 24 18.1 5.3 11 13.3 25.9 20.3 41.6z"/>
			<path id="&lt;Path&gt;" class="s4" d="m192.3 257.9c-7-15.6 0.3-30.5 13.6-41.5 12.6-11 31.2-18.1 30.7-18.1 0.5 0 4.1 7.1 13.6 18.1 8.8 11 23.7 25.9 30.7 41.5 6.9 15.7 6.5 30.6-3.3 41.6-9.2 11-27.8 18.1-41 18.1-14.4 0-17.9-7.1-24-18.1-5.4-11-13.3-25.9-20.3-41.6z"/>
			<path id="&lt;Path&gt;" class="s6" d="m259.6 182.5c0 14.1-11.5 25.5-25.5 25.5-14.1 0-25.5-11.4-25.5-25.5 0-14.1 11.4-25.5 25.5-25.5 14 0 25.5 11.4 25.5 25.5z"/>
			<path id="&lt;Path&gt;" class="s7" d="m246.9 187.8c6.3-0.4 11.4 3.2 11.4 11.7"/>
			<path id="&lt;Path&gt;" class="s7" d="m247.5 178.4c4.6-4.3 10.8-4.9 16.3 1.6"/>
			<path id="&lt;Path&gt;" class="s7" d="m241.9 170.7c0.7-6.2 5.2-10.6 13.5-9.1"/>
			<path id="&lt;Path&gt;" class="s7" d="m232.7 168.5c-3.4-5.2-2.9-11.5 4.5-15.7"/>
			<path id="&lt;Path&gt;" class="s7" d="m224.3 172.7c-6-1.8-9.7-6.9-6.7-14.9"/>
			<path id="&lt;Path&gt;" class="s7" d="m220.5 181.4c-5.8 2.5-11.8 0.9-14.8-7.2"/>
			<path id="&lt;Path&gt;" class="s7" d="m223.1 190.5c-2.8 5.5-8.4 8.2-15.8 4"/>
			<path id="&lt;Path&gt;" class="s7" d="m231 195.7c1.5 6.1-1.2 11.8-9.6 13.2"/>
			<path id="&lt;Path&gt;" class="s7" d="m240.4 194.6c5 3.8 6.7 9.8 1.2 16.4"/>
		</g>
	</g>
</svg>