<svg version="1.2" xmlns="http://www.w3.org/2000/svg" viewBox="0 0 480 480" width="480" height="480">
	<title>Flower</title>
	<style>
		.s0 { fill: none;stroke: #24b341;stroke-miterlimit:10;stroke-width: 11.7 } 
		.s1 { fill: #ff1520 } 
		.s2 { fill: #000000 } 
		.s3 { fill: #eb000c } 
	</style>
	<g id="&lt;Group&gt;">
		<g id="&lt;Group&gt;">
			<path id="&lt;Path&gt;" class="s0" d="m240 190.7c9 13.4 13.9 39.2 14.1 200.5"/>
			<path id="&lt;Path&gt;" class="s1" d="m299.2 136.4c0 28.4-52.2 56.5-52.2 56.5 0 0-52.2-28.1-52.2-56.5 0-28.4 23.3-46.2 52.2-46.2 28.8 0 52.2 17.8 52.2 46.2z"/>
			<path id="&lt;Path&gt;" class="s1" d="m200.2 120c33.2 10.8 50.1 71.1 50.1 71.1 0 0-49.1 38.9-82.3 28.1-33.2-10.7-46.9-39.7-38-67.1 9-27.5 37-42.9 70.2-32.1z"/>
			<path id="&lt;Path&gt;" class="s1" d="m172.7 204.4c17.4-23.9 76.9-17 76.9-17 0 0 25 54.4 7.6 78.4-17.4 23.9-47.2 25.2-70.5 8.2-23.3-16.9-31.3-45.7-14-69.6z"/>
			<path id="&lt;Path&gt;" class="s1" d="m233.9 259.3c-15.2-20.9 12-72.4 12-72.4 0 0 57.3-9.9 72.5 11 15.2 21 5.8 47.9-17.5 64.8-23.3 16.9-51.7 17.5-67-3.4z"/>
			<path id="&lt;Path&gt;" class="s1" d="m310.2 223.7c-25 8.2-66-33.4-66-33.4 0 0 8.8-57.7 33.8-65.8 25-8.2 48 9 56.9 36.4 8.9 27.4 0.4 54.7-24.7 62.8z"/>
			<path id="&lt;Path&gt;" class="s2" d="m248.2 216.3c0 3.5-1.3 6.3-2.9 6.3-1.7 0-3-2.8-3-6.4 0-3.5 1.3-6.3 3-6.3 1.6 0 2.9 2.8 2.9 6.3z"/>
			<path id="&lt;Path&gt;" class="s3" d="m284.5 150.9c0 20-44.5 36.3-44.5 36.3 0 0-44.6-16.3-44.6-36.3 0-20 20-36.3 44.6-36.3 24.6 0 44.5 16.3 44.5 36.3z"/>
			<path id="&lt;Path&gt;" class="s3" d="m182.8 177.1c17.4-10 53.8 20.4 53.8 20.4 0 0 8.2 46.7-9.2 56.7-17.4 10.1-41.4 0.9-53.7-20.4-12.3-21.3-8.2-46.7 9.1-56.7z"/>
			<path id="&lt;Path&gt;" class="s3" d="m256.4 252c-17.4-10-9.2-56.7-9.2-56.7 0 0 36.4-30.4 53.7-20.4 17.4 10 21.5 35.4 9.2 56.7-12.3 21.3-36.4 30.5-53.7 20.4z"/>
			<path id="&lt;Path&gt;" class="s2" d="m259.2 211.3c1.7 3 2 6.1 0.6 7-1.4 0.8-4-1-5.8-4.1-1.7-3-2-6.1-0.6-7 1.4-0.8 4 1 5.8 4.1z"/>
			<path id="&lt;Path&gt;" class="s2" d="m266.2 201.5c3 1.7 4.8 4.3 4 5.7-0.8 1.5-4 1.2-7-0.6-3-1.7-4.8-4.3-4-5.7 0.8-1.4 3.9-1.2 7 0.6z"/>
			<path id="&lt;Path&gt;" class="s2" d="m267.3 189.5c3.5 0 6.4 1.4 6.4 3 0 1.6-2.9 3-6.4 3-3.5 0-6.3-1.4-6.3-3 0-1.6 2.8-3 6.3-3z"/>
			<path id="&lt;Path&gt;" class="s2" d="m262.4 178.6c3-1.8 6.1-2.1 7-0.6 0.8 1.4-1 4-4.1 5.7-3 1.8-6.2 2.1-7 0.6-0.8-1.4 1-4 4.1-5.7z"/>
			<path id="&lt;Path&gt;" class="s2" d="m252.6 171.6c1.7-3.1 4.3-4.9 5.7-4 1.4 0.8 1.2 3.9-0.6 7-1.7 3-4.3 4.8-5.7 4-1.5-0.8-1.2-4 0.6-7z"/>
			<path id="&lt;Path&gt;" class="s2" d="m240.6 170.4c0-3.5 1.3-6.3 3-6.3 1.6 0 2.9 2.8 2.9 6.3 0 3.5-1.3 6.4-2.9 6.4-1.7 0-3-2.9-3-6.4z"/>
			<path id="&lt;Path&gt;" class="s2" d="m229.7 175.4c-1.8-3-2.1-6.2-0.6-7 1.4-0.8 3.9 1 5.7 4 1.8 3.1 2 6.2 0.6 7-1.4 0.9-4-0.9-5.7-4z"/>
			<path id="&lt;Path&gt;" class="s2" d="m222.7 185.2c-3.1-1.8-4.9-4.3-4.1-5.8 0.9-1.4 4-1.1 7 0.6 3.1 1.8 4.9 4.4 4.1 5.8-0.9 1.4-4 1.1-7-0.6z"/>
			<path id="&lt;Path&gt;" class="s2" d="m221.5 197.2c-3.5 0-6.4-1.4-6.4-3 0-1.7 2.9-3 6.4-3 3.5 0 6.4 1.3 6.4 3 0 1.6-2.9 3-6.4 3z"/>
			<path id="&lt;Path&gt;" class="s2" d="m226.5 208.1c-3.1 1.8-6.2 2-7 0.6-0.8-1.4 1-4 4-5.7 3.1-1.8 6.2-2.1 7-0.7 0.8 1.5-1 4-4 5.8z"/>
			<path id="&lt;Path&gt;" class="s2" d="m236.3 215.1c-1.8 3-4.4 4.8-5.8 4-1.4-0.8-1.1-3.9 0.6-7 1.8-3 4.4-4.8 5.8-4 1.4 0.8 1.1 3.9-0.6 7z"/>
			<path id="&lt;Path&gt;" class="s2" d="m254.5 194.2c0 5.7-4.6 10.3-10.3 10.3-5.7 0-10.3-4.6-10.3-10.3 0-5.7 4.6-10.3 10.3-10.3 5.7 0 10.3 4.6 10.3 10.3z"/>
		</g>
	</g>
</svg>