<svg version="1.2" xmlns="http://www.w3.org/2000/svg" viewBox="0 0 480 480" width="480" height="480">
	<title>Flower</title>
	<style>
		.s0 { fill: none;stroke: #3a9b4d;stroke-miterlimit:10;stroke-width: 5.8 } 
		.s1 { fill: none;stroke: #3a9b4d;stroke-miterlimit:10;stroke-width: 12.5 } 
		.s2 { fill: #ffc24d } 
		.s3 { fill: #f5a903 } 
		.s4 { fill: #3a9b4d } 
	</style>
	<g id="&lt;Group&gt;">
		<path id="&lt;Path&gt;" class="s0" d="m270.7 208.5c19-3.4 50.4-22.2 55-26.6"/>
		<path id="&lt;Path&gt;" class="s0" d="m300.5 131c-0.7 26.9-24.2 48.5-27.3 53.3"/>
		<path id="&lt;Path&gt;" class="s1" d="m199.4 185.1c10.6 32.8 20.2 61.6 32.7 95.2-1 24-5.8 66.3-22.1 102.7"/>
		<path id="&lt;Path&gt;" class="s1" d="m232.1 282.2c13.4-26.8 44.1-70 42.2-111.8"/>
		<path id="&lt;Path&gt;" class="s1" d="m269.5 206.4c-12.5-7.7-24.9-49.8-31.7-72.4"/>
		<g id="&lt;Group&gt;">
			<path id="&lt;Path&gt;" class="s2" d="m249.4 127.1c0 10.6-8.6 19.2-19.2 19.2-10.6 0-19.2-8.6-19.2-19.2 0-10.6 8.6-19.2 19.2-19.2 10.6 0 19.2 8.6 19.2 19.2z"/>
			<path id="&lt;Path&gt;" class="s2" d="m232.6 111.7h-4.8v-13.4h4.8z"/>
			<path id="&lt;Path&gt;" class="s2" d="m227.2 111.8l-4.5 1.7-4.6-12.6 4.5-1.7z"/>
			<path id="&lt;Path&gt;" class="s2" d="m222.2 113.8l-3.7 3.1-8.6-10.3 3.6-3.1z"/>
			<path id="&lt;Path&gt;" class="s2" d="m218.1 117.3l-2.4 4.2-11.6-6.7 2.4-4.2z"/>
			<path id="&lt;Path&gt;" class="s2" d="m215.5 122.1l-0.8 4.7-13.3-2.3 0.9-4.8z"/>
			<path id="&lt;Path&gt;" class="s2" d="m214.7 127.4l0.8 4.7-13.2 2.4-0.9-4.8z"/>
			<path id="&lt;Path&gt;" class="s2" d="m215.7 132.7l2.4 4.2-11.6 6.7-2.4-4.2z"/>
			<path id="&lt;Path&gt;" class="s2" d="m218.5 137.3l3.7 3.1-8.7 10.3-3.7-3.1z"/>
			<path id="&lt;Path&gt;" class="s2" d="m222.7 140.7l4.5 1.7-4.6 12.6-4.5-1.7z"/>
			<path id="&lt;Path&gt;" class="s2" d="m227.8 142.5h4.8v13.4h-4.8z"/>
			<path id="&lt;Path&gt;" class="s2" d="m233.2 142.4l4.5-1.7 4.6 12.6-4.5 1.7z"/>
			<path id="&lt;Path&gt;" class="s2" d="m238.2 140.4l3.7-3.1 8.6 10.3-3.6 3.1z"/>
			<path id="&lt;Path&gt;" class="s2" d="m242.3 136.9l2.4-4.2 11.6 6.7-2.4 4.2z"/>
			<path id="&lt;Path&gt;" class="s2" d="m244.9 132.1l0.8-4.7 13.3 2.3-0.9 4.8z"/>
			<path id="&lt;Path&gt;" class="s2" d="m245.7 126.8l-0.8-4.7 13.2-2.4 0.9 4.8z"/>
			<path id="&lt;Path&gt;" class="s2" d="m244.7 121.5l-2.4-4.2 11.6-6.7 2.4 4.2z"/>
			<path id="&lt;Path&gt;" class="s2" d="m241.9 116.9l-3.7-3.1 8.7-10.3 3.7 3.1z"/>
			<path id="&lt;Path&gt;" class="s2" d="m237.7 113.5l-4.5-1.7 4.6-12.6 4.5 1.7z"/>
			<path id="&lt;Path&gt;" class="s3" d="m236.1 127.1c0 3.2-2.7 5.9-5.9 5.9-3.2 0-5.9-2.7-5.9-5.9 0-3.2 2.7-5.9 5.9-5.9 3.2 0 5.9 2.7 5.9 5.9z"/>
		</g>
		<g id="&lt;Group&gt;">
			<path id="&lt;Path&gt;" class="s2" d="m217.4 202.6c0 10.6-8.6 19.2-19.2 19.2-10.6 0-19.2-8.6-19.2-19.2 0-10.6 8.6-19.2 19.2-19.2 10.6 0 19.2 8.6 19.2 19.2z"/>
			<path id="&lt;Path&gt;" class="s2" d="m200.6 187.3h-4.8v-13.5h4.8z"/>
			<path id="&lt;Path&gt;" class="s2" d="m195.2 187.4l-4.5 1.6-4.6-12.6 4.5-1.7z"/>
			<path id="&lt;Path&gt;" class="s2" d="m190.1 189.3l-3.6 3.1-8.7-10.3 3.7-3.1z"/>
			<path id="&lt;Path&gt;" class="s2" d="m186.1 192.9l-2.4 4.1-11.7-6.7 2.4-4.2z"/>
			<path id="&lt;Path&gt;" class="s2" d="m183.5 197.6l-0.9 4.7-13.2-2.3 0.8-4.7z"/>
			<path id="&lt;Path&gt;" class="s2" d="m182.6 202.9l0.9 4.7-13.3 2.4-0.8-4.7z"/>
			<path id="&lt;Path&gt;" class="s2" d="m183.7 208.2l2.4 4.2-11.7 6.7-2.4-4.2z"/>
			<path id="&lt;Path&gt;" class="s2" d="m186.5 212.8l3.6 3.1-8.6 10.3-3.7-3.1z"/>
			<path id="&lt;Path&gt;" class="s2" d="m190.7 216.2l4.5 1.7-4.6 12.6-4.5-1.6z"/>
			<path id="&lt;Path&gt;" class="s2" d="m195.8 218h4.8v13.4h-4.8z"/>
			<path id="&lt;Path&gt;" class="s2" d="m201.2 217.9l4.5-1.7 4.6 12.7-4.5 1.6z"/>
			<path id="&lt;Path&gt;" class="s2" d="m206.2 215.9l3.7-3.1 8.6 10.3-3.6 3.1z"/>
			<path id="&lt;Path&gt;" class="s2" d="m210.3 212.4l2.4-4.2 11.6 6.7-2.4 4.2z"/>
			<path id="&lt;Path&gt;" class="s2" d="m212.9 207.6l0.8-4.7 13.3 2.4-0.9 4.7z"/>
			<path id="&lt;Path&gt;" class="s2" d="m213.7 202.3l-0.8-4.7 13.2-2.3 0.9 4.7z"/>
			<path id="&lt;Path&gt;" class="s2" d="m212.7 197l-2.4-4.1 11.6-6.8 2.4 4.2z"/>
			<path id="&lt;Path&gt;" class="s2" d="m209.9 192.4l-3.7-3.1 8.7-10.3 3.6 3.1z"/>
			<path id="&lt;Path&gt;" class="s2" d="m205.7 189l-4.5-1.6 4.6-12.7 4.5 1.7z"/>
			<path id="&lt;Path&gt;" class="s3" d="m204 202.6c0 3.3-2.6 5.9-5.8 5.9-3.3 0-5.9-2.6-5.9-5.9 0-3.2 2.6-5.8 5.9-5.8 3.2 0 5.8 2.6 5.8 5.8z"/>
		</g>
		<g id="&lt;Group&gt;">
			<path id="&lt;Path&gt;" class="s2" d="m293.6 253.9c0 10.6-8.6 19.2-19.2 19.2-10.6 0-19.2-8.6-19.2-19.2 0-10.6 8.6-19.2 19.2-19.2 10.6 0 19.2 8.6 19.2 19.2z"/>
			<path id="&lt;Path&gt;" class="s2" d="m276.8 238.6h-4.8v-13.5h4.8z"/>
			<path id="&lt;Path&gt;" class="s2" d="m271.4 238.7l-4.5 1.6-4.6-12.6 4.5-1.7z"/>
			<path id="&lt;Path&gt;" class="s2" d="m266.4 240.6l-3.7 3.1-8.6-10.3 3.6-3.1z"/>
			<path id="&lt;Path&gt;" class="s2" d="m262.3 244.2l-2.4 4.1-11.6-6.7 2.4-4.1z"/>
			<path id="&lt;Path&gt;" class="s2" d="m259.7 248.9l-0.8 4.7-13.3-2.3 0.9-4.7z"/>
			<path id="&lt;Path&gt;" class="s2" d="m258.9 254.2l0.8 4.8-13.2 2.3-0.9-4.7z"/>
			<path id="&lt;Path&gt;" class="s2" d="m259.9 259.5l2.4 4.2-11.6 6.7-2.4-4.1z"/>
			<path id="&lt;Path&gt;" class="s2" d="m262.7 264.2l3.7 3-8.7 10.3-3.7-3.1z"/>
			<path id="&lt;Path&gt;" class="s2" d="m266.9 267.5l4.5 1.7-4.6 12.6-4.5-1.6z"/>
			<path id="&lt;Path&gt;" class="s2" d="m272 269.3h4.8v13.4h-4.8z"/>
			<path id="&lt;Path&gt;" class="s2" d="m277.4 269.2l4.5-1.7 4.6 12.7-4.5 1.6z"/>
			<path id="&lt;Path&gt;" class="s2" d="m282.4 267.2l3.7-3 8.6 10.2-3.6 3.1z"/>
			<path id="&lt;Path&gt;" class="s2" d="m286.5 263.7l2.4-4.2 11.6 6.8-2.4 4.1z"/>
			<path id="&lt;Path&gt;" class="s2" d="m289.1 259l0.8-4.8 13.3 2.4-0.9 4.7z"/>
			<path id="&lt;Path&gt;" class="s2" d="m289.9 253.6l-0.8-4.7 13.2-2.3 0.9 4.7z"/>
			<path id="&lt;Path&gt;" class="s2" d="m288.9 248.3l-2.4-4.1 11.6-6.7 2.4 4.1z"/>
			<path id="&lt;Path&gt;" class="s2" d="m286.1 243.7l-3.7-3.1 8.7-10.3 3.6 3.1z"/>
			<path id="&lt;Path&gt;" class="s2" d="m281.9 240.3l-4.5-1.6 4.6-12.7 4.5 1.7z"/>
			<path id="&lt;Path&gt;" class="s3" d="m280.3 253.9c0 3.3-2.7 5.9-5.9 5.9-3.2 0-5.9-2.6-5.9-5.9 0-3.2 2.7-5.8 5.9-5.8 3.2 0 5.9 2.6 5.9 5.8z"/>
		</g>
		<g id="&lt;Group&gt;">
			<path id="&lt;Path&gt;" class="s2" d="m317.8 130.2c-0.3 6.9-9.1 12-19.7 11.5-10.6-0.4-18.9-6.4-18.6-13.2 0.3-6.8 9.1-16.9 19.7-16.4 10.6 0.5 19 11.3 18.6 18.1z"/>
			<path id="&lt;Path&gt;" class="s2" d="m301.5 119.6l-4.8-0.2 0.4-8.7 4.8 0.2z"/>
			<path id="&lt;Path&gt;" class="s2" d="m296.1 119.4l-4.5 0.9-4.3-8.4 4.6-0.9z"/>
			<path id="&lt;Path&gt;" class="s2" d="m291 120.4l-3.7 1.8-8.4-7 3.8-1.8z"/>
			<path id="&lt;Path&gt;" class="s2" d="m286.9 122.5l-2.6 2.6-11.4-4.9 2.5-2.5z"/>
			<path id="&lt;Path&gt;" class="s2" d="m284.1 125.5l-1 3-13.1-2.1 1-3z"/>
			<path id="&lt;Path&gt;" class="s2" d="m283.1 128.9l0.7 3-13.3 0.9-0.7-3z"/>
			<path id="&lt;Path&gt;" class="s2" d="m284 132.3l2.3 2.8-11.8 3.8-2.3-2.8z"/>
			<path id="&lt;Path&gt;" class="s2" d="m286.7 135.4l3.5 2.2-8.9 6.2-3.6-2.1z"/>
			<path id="&lt;Path&gt;" class="s2" d="m290.8 137.8l4.4 1.3-4.9 7.9-4.5-1.3z"/>
			<path id="&lt;Path&gt;" class="s2" d="m295.8 139.2l4.8 0.2-0.4 8.6-4.8-0.2z"/>
			<path id="&lt;Path&gt;" class="s2" d="m301.2 139.3l4.6-0.8 4.2 8.3-4.6 0.9z"/>
			<path id="&lt;Path&gt;" class="s2" d="m306.3 138.3l3.8-1.8 8.3 7-3.8 1.8z"/>
			<path id="&lt;Path&gt;" class="s2" d="m310.5 136.2l2.5-2.6 11.4 4.9-2.5 2.6z"/>
			<path id="&lt;Path&gt;" class="s2" d="m313.2 133.3l1-3 13.1 2.1-0.9 3z"/>
			<path id="&lt;Path&gt;" class="s2" d="m314.2 129.9l-0.7-3.1 13.3-0.9 0.7 3.1z"/>
			<path id="&lt;Path&gt;" class="s2" d="m313.3 126.4l-2.3-2.8 11.9-3.8 2.2 2.8z"/>
			<path id="&lt;Path&gt;" class="s2" d="m310.7 123.3l-3.6-2.1 8.9-6.3 3.6 2.2z"/>
			<path id="&lt;Path&gt;" class="s2" d="m306.6 120.9l-4.5-1.2 5-8 4.4 1.3z"/>
			<path id="&lt;Path&gt;" class="s3" d="m304.5 121.6c-0.1 2.1-2.8 3.7-6 3.6-3.2-0.2-5.8-2-5.7-4.1 0.1-2.1 2.8-3.6 6-3.5 3.3 0.2 5.8 2 5.7 4z"/>
		</g>
		<g id="&lt;Group&gt;">
			<path id="&lt;Path&gt;" class="s2" d="m348 190.7c-5.1 4.6-15 2-22.1-5.8-7.2-7.9-8.9-18-3.8-22.6 5-4.6 18.4-5.4 25.5 2.4 7.2 7.8 5.4 21.4 0.4 26z"/>
			<path id="&lt;Path&gt;" class="s2" d="m343.9 171.6l-3.2-3.6 6.4-5.8 3.3 3.5z"/>
			<path id="&lt;Path&gt;" class="s2" d="m340.3 167.6l-3.9-2.6 3-8.9 3.8 2.7z"/>
			<path id="&lt;Path&gt;" class="s2" d="m335.9 164.8l-3.9-1.4-0.9-10.9 3.9 1.4z"/>
			<path id="&lt;Path&gt;" class="s2" d="m331.5 163.3l-3.6 0.1-4.6-11.6h3.6z"/>
			<path id="&lt;Path&gt;" class="s2" d="m327.5 163.4l-2.8 1.5-7.8-10.8 2.8-1.4z"/>
			<path id="&lt;Path&gt;" class="s2" d="m324.4 165.2l-1.7 2.6-10-8.7 1.7-2.7z"/>
			<path id="&lt;Path&gt;" class="s2" d="m322.6 168.2l-0.4 3.6-11-5.7 0.3-3.5z"/>
			<path id="&lt;Path&gt;" class="s2" d="m322.2 172.3l1.1 4.1-10.8-1.9-1-4.1z"/>
			<path id="&lt;Path&gt;" class="s2" d="m323.5 176.9l2.2 4-9.1 2.1-2.3-4z"/>
			<path id="&lt;Path&gt;" class="s2" d="m326.1 181.4l3.2 3.6-6.4 5.8-3.2-3.5z"/>
			<path id="&lt;Path&gt;" class="s2" d="m329.8 185.3l3.8 2.7-2.9 8.9-3.9-2.7z"/>
			<path id="&lt;Path&gt;" class="s2" d="m334.1 188.2l3.9 1.4 1 10.9-4-1.4z"/>
			<path id="&lt;Path&gt;" class="s2" d="m338.5 189.7l3.6-0.1 4.7 11.6h-3.6z"/>
			<path id="&lt;Path&gt;" class="s2" d="m342.5 189.6l2.8-1.5 7.9 10.8-2.9 1.4z"/>
			<path id="&lt;Path&gt;" class="s2" d="m345.6 187.8l1.7-2.6 10.1 8.7-1.7 2.7z"/>
			<path id="&lt;Path&gt;" class="s2" d="m347.5 184.8l0.3-3.6 11.1 5.7-0.4 3.5z"/>
			<path id="&lt;Path&gt;" class="s2" d="m347.8 180.7l-1-4.1 10.7 1.9 1 4.1z"/>
			<path id="&lt;Path&gt;" class="s2" d="m346.6 176.1l-2.3-4 9.1-2.1 2.3 4z"/>
			<path id="&lt;Path&gt;" class="s3" d="m344.6 175.2c-1.5 1.4-4.6 0.6-6.7-1.8-2.2-2.4-2.7-5.5-1.2-6.9 1.5-1.4 4.6-0.6 6.7 1.8 2.2 2.4 2.7 5.5 1.2 6.9z"/>
		</g>
		<g id="&lt;Group&gt;">
		</g>
		<g id="&lt;Group&gt;">
			<g id="&lt;Group&gt;">
			</g>
		</g>
		<g id="&lt;Group&gt;">
			<g id="&lt;Group&gt;">
			</g>
		</g>
		<g id="&lt;Group&gt;">
			<path id="&lt;Path&gt;" class="s2" d="m292.4 178.5c0 10.6-8.6 19.2-19.2 19.2-10.6 0-19.2-8.6-19.2-19.2 0-10.6 8.6-19.2 19.2-19.2 10.6 0 19.2 8.6 19.2 19.2z"/>
			<path id="&lt;Path&gt;" class="s2" d="m275.6 163.1h-4.8v-13.4h4.8z"/>
			<path id="&lt;Path&gt;" class="s2" d="m270.2 163.2l-4.5 1.7-4.6-12.7 4.5-1.6z"/>
			<path id="&lt;Path&gt;" class="s2" d="m265.1 165.2l-3.6 3.1-8.7-10.3 3.7-3.1z"/>
			<path id="&lt;Path&gt;" class="s2" d="m261.1 168.7l-2.4 4.2-11.7-6.7 2.4-4.2z"/>
			<path id="&lt;Path&gt;" class="s2" d="m258.5 173.5l-0.9 4.7-13.2-2.4 0.8-4.7z"/>
			<path id="&lt;Path&gt;" class="s2" d="m257.6 178.8l0.9 4.7-13.3 2.3-0.8-4.7z"/>
			<path id="&lt;Path&gt;" class="s2" d="m258.7 184.1l2.4 4.1-11.7 6.8-2.4-4.2z"/>
			<path id="&lt;Path&gt;" class="s2" d="m261.5 188.7l3.6 3.1-8.6 10.3-3.7-3.1z"/>
			<path id="&lt;Path&gt;" class="s2" d="m265.7 192.1l4.5 1.6-4.6 12.7-4.5-1.7z"/>
			<path id="&lt;Path&gt;" class="s2" d="m270.8 193.8h4.8v13.5h-4.8z"/>
			<path id="&lt;Path&gt;" class="s2" d="m276.2 193.7l4.5-1.6 4.6 12.6-4.5 1.7z"/>
			<path id="&lt;Path&gt;" class="s2" d="m281.2 191.8l3.7-3.1 8.6 10.3-3.7 3.1z"/>
			<path id="&lt;Path&gt;" class="s2" d="m285.3 188.2l2.4-4.1 11.6 6.7-2.4 4.2z"/>
			<path id="&lt;Path&gt;" class="s2" d="m287.9 183.5l0.8-4.7 13.2 2.3-0.8 4.7z"/>
			<path id="&lt;Path&gt;" class="s2" d="m288.7 178.2l-0.8-4.7 13.2-2.4 0.8 4.7z"/>
			<path id="&lt;Path&gt;" class="s2" d="m287.7 172.9l-2.4-4.2 11.6-6.7 2.4 4.2z"/>
			<path id="&lt;Path&gt;" class="s2" d="m284.9 168.3l-3.7-3.1 8.6-10.3 3.7 3.1z"/>
			<path id="&lt;Path&gt;" class="s2" d="m280.7 164.9l-4.5-1.7 4.6-12.6 4.5 1.6z"/>
			<path id="&lt;Path&gt;" class="s3" d="m279 178.5c0 3.2-2.6 5.8-5.8 5.8-3.3 0-5.9-2.6-5.9-5.8 0-3.3 2.6-5.9 5.9-5.9 3.2 0 5.8 2.6 5.8 5.9z"/>
		</g>
		<path id="&lt;Path&gt;" class="s0" d="m141.9 259.8c45.7 34.8 84 34.1 89.4 33"/>
		<path id="&lt;Path&gt;" class="s4" d="m180.6 283.4c-9 4.6-32.9 3-41.8 15.2 8.2-2 35.2 1 41.8-15.2z"/>
		<path id="&lt;Path&gt;" class="s4" d="m185.7 284.7c-11.8-24.2 0.6-37-18.7-58.1 7.2 17-2.3 34.2 18.7 58.1z"/>
		<path id="&lt;Path&gt;" class="s4" d="m167.8 274.7c-14.4-17.4 2.4-43.4-29.8-55.6 10.6 10.3 8.7 39.9 29.8 55.6z"/>
		<path id="&lt;Path&gt;" class="s4" d="m166.5 275.7c-32.3-7.4-26.1 20.6-57.3 15.3 25.5-2 11.3-27.5 57.3-15.3z"/>
		<path id="&lt;Path&gt;" class="s4" d="m146.3 264.2c-21.7-30-20.3-40.8-55.8-20.5 31.2-9.5 24.2 12.3 55.8 21.3"/>
		<path id="&lt;Path&gt;" class="s4" d="m199.8 290.6c-18.3-2-34.9 1.6-21.5 29.1-4.9-31.1 26.3-29.1 21.5-29.1z"/>
		<path id="&lt;Path&gt;" class="s4" d="m204.7 289c-13.9-14.4-13.9-31.4 1.9-42.1-30.2 4.1-19.6 32.5-1.9 42.1z"/>
		<path id="&lt;Path&gt;" class="s4" d="m152.7 268.8c-16.6-11-33.4-17.3-53.1-1.9 18.7-7.2 41-3.4 53.1 1.9z"/>
	</g>
</svg>