<svg version="1.2" xmlns="http://www.w3.org/2000/svg" viewBox="0 0 480 480" width="480" height="480">
	<title>Flower</title>
	<style>
		.s0 { fill: none;stroke: #52aa2e;stroke-miterlimit:10;stroke-width: 10 } 
		.s1 { fill: #b9a4fb } 
		.s2 { fill: #bec2fb } 
		.s3 { fill: #ced1fc } 
		.s4 { fill: #f1edfe } 
		.s5 { fill: #ffe94d } 
		.s6 { fill: #9887cd } 
		.s7 { fill: #8c68f8 } 
		.s8 { fill: #52aa2e } 
	</style>
	<g id="&lt;Group&gt;">
		<path id="&lt;Path&gt;" class="s0" d="m248.6 194.5c-5.8 18.4-50.1 134.4-55.1 188.8"/>
		<g id="&lt;Group&gt;">
			<path id="&lt;Path&gt;" class="s1" d="m235 115.5c21.2 21.2 17.9 77.8 17.9 77.8 0 0-56.5 3.3-77.7-18-21.3-21.3-25.1-51.9-8.6-68.4 16.5-16.5 47.1-12.7 68.4 8.6z"/>
			<path id="&lt;Path&gt;" class="s1" d="m306.1 175.3c-21.2 21.3-77.7 18-77.7 18 0 0-3.3-56.6 17.9-77.8 21.3-21.3 51.9-25.1 68.4-8.6 16.5 16.5 12.7 47.1-8.6 68.4z"/>
		</g>
		<g id="&lt;Group&gt;">
			<path id="&lt;Path&gt;" class="s2" d="m206.4 157.8c40.6 18.2 44.2 66.6 44.2 66.6 0 0-38.5 29.6-79.2 11.4-40.7-18.3-30.7-35.8-11.6-52.1 1.5-26.1 5.9-44.2 46.6-25.9z"/>
			<path id="&lt;Path&gt;" class="s2" d="m308.7 236c-41.7 15.9-78.5-15.8-78.5-15.8 0 0 6.4-48.2 48-64.1 41.7-15.9 47.1 3.6 45.1 28.6 17.3 19.5 27 35.4-14.6 51.3z"/>
		</g>
		<path id="&lt;Path&gt;" class="s3" d="m176.3 256.7c0-20.7 64.4-46.5 64.4-46.5 0 0 64.3 25.8 64.3 46.5 0 20.6-28.8 37.3-64.3 37.3-35.6 0-64.4-16.7-64.4-37.3z"/>
		<path id="&lt;Path&gt;" class="s4" d="m194.5 245.2c0-15.8 46.2-35.5 46.2-35.5 0 0 46.1 19.7 46.1 35.5 0 15.7-20.7 28.5-46.1 28.5-25.5 0-46.2-12.8-46.2-28.5z"/>
		<path id="&lt;Path&gt;" class="s5" d="m203.7 236c0-11.9 37-26.8 37-26.8 0 0 36.9 14.9 36.9 26.8 0 11.9-14.9 22.3-36.9 4-22.9 18.3-37 7.9-37-4z"/>
		<path id="&lt;Path&gt;" class="s6" d="m248 210.5c0 0-3.3 7.4-7.3 7.4-4.1 0-7.4-7.4-7.4-7.4l7.4-12.6z"/>
		<path id="&lt;Path&gt;" class="s7" d="m261.2 187.5c-4.5 4.5-9.4 7-9.4 7 0 0 2.5-4.8 7.1-9.4 4.5-4.5 9.4-7 9.4-7 0 0-2.5 4.9-7.1 9.4z"/>
		<path id="&lt;Path&gt;" class="s7" d="m271.7 198.7c-6.5 0-11.6-1.6-11.6-1.6 0 0 5.1-1.7 11.6-1.7 6.4 0 11.6 1.7 11.6 1.7 0 0-5.2 1.6-11.6 1.6z"/>
		<path id="&lt;Path&gt;" class="s7" d="m262.6 230c-4.5-4.5-7-9.4-7-9.4 0 0 4.8 2.5 9.4 7.1 4.5 4.5 7 9.4 7 9.4 0 0-4.9-2.5-9.4-7.1z"/>
		<path id="&lt;Path&gt;" class="s7" d="m239.6 247.4c0-6.4 1.6-11.6 1.6-11.6 0 0 1.7 5.2 1.7 11.6 0 6.4-1.7 11.6-1.7 11.6 0 0-1.6-5.2-1.6-11.6z"/>
		<path id="&lt;Path&gt;" class="s7" d="m215.3 228.6c4.5-4.5 9.4-7 9.4-7 0 0-2.5 4.8-7.1 9.4-4.5 4.5-9.3 7-9.3 7 0 0 2.4-4.9 7-9.4z"/>
		<path id="&lt;Path&gt;" class="s7" d="m223.9 237c3.8-5.2 8.2-8.4 8.2-8.4 0 0-1.7 5.2-5.5 10.4-3.7 5.2-8.1 8.4-8.1 8.4 0 0 1.7-5.2 5.4-10.4z"/>
		<path id="&lt;Path&gt;" class="s7" d="m258.1 237c-3.7-5.2-8.1-8.4-8.1-8.4 0 0 1.7 5.2 5.4 10.4 3.8 5.2 8.2 8.4 8.2 8.4 0 0-1.7-5.2-5.5-10.4z"/>
		<path id="&lt;Path&gt;" class="s7" d="m266.8 211.2c-5.8-2.7-9.8-6.4-9.8-6.4 0 0 5.4 0.7 11.2 3.4 5.8 2.7 9.8 6.4 9.8 6.4 0 0-5.4-0.7-11.2-3.4z"/>
		<path id="&lt;Path&gt;" class="s7" d="m219.8 187.5c4.6 4.5 9.4 7 9.4 7 0 0-2.5-4.8-7-9.4-4.5-4.5-9.4-7-9.4-7 0 0 2.5 4.9 7 9.4z"/>
		<path id="&lt;Path&gt;" class="s7" d="m209.4 198.7c6.4 0 11.6-1.6 11.6-1.6 0 0-5.2-1.7-11.6-1.7-6.4 0-11.6 1.7-11.6 1.7 0 0 5.2 1.6 11.6 1.6z"/>
		<path id="&lt;Path&gt;" class="s7" d="m214.3 211.2c5.8-2.7 9.8-6.4 9.8-6.4 0 0-5.4 0.7-11.2 3.4-5.8 2.7-9.9 6.4-9.9 6.4 0 0 5.5-0.7 11.3-3.4z"/>
		<path id="&lt;Path&gt;" class="s8" d="m289.3 331.7c2.4 5.5-22.1 9.3-48.2 20.9-26.2 11.7-42 26-44.4 20.5-2.5-5.5 8.4-35.2 34.6-46.9 26.1-11.7 55.5 0 58 5.5z"/>
	</g>
</svg>