<svg version="1.2" xmlns="http://www.w3.org/2000/svg" viewBox="0 0 480 480" width="480" height="480">
	<title>Flower</title>
	<style>
		.s0 { fill: none;stroke: #88bd40;stroke-miterlimit:10;stroke-width: 20 } 
		.s1 { fill: #f1e8eb } 
		.s2 { fill: #ffffff } 
		.s3 { fill: #88bd40 } 
		.s4 { fill: #ffd71f } 
		.s5 { fill: #ffe157 } 
	</style>
	<g id="&lt;Group&gt;">
		<path id="&lt;Path&gt;" class="s0" d="m238.8 238.6c0 40.4 5.7 111.3 41.6 147.2"/>
		<g id="&lt;Group&gt;">
			<g id="&lt;Group&gt;">
				<path id="&lt;Path&gt;" class="s1" d="m192 280.1c0-8.3 25.2-57.7 44.1-57.7h8.5c18.9 0 44.1 49.4 44.1 57.7v11.3c0 8.3-13.8 50-48.2 49.9-34.4 0-48.5-41.6-48.5-49.9 0-2.8 0-11.3 0-11.3z"/>
			</g>
			<g id="&lt;Group&gt;">
				<path id="&lt;Path&gt;" class="s1" d="m318.3 227.4c-7.2 4.2-62.5 7.1-72-9.3l-4.2-7.3c-9.5-16.5 20.7-62.9 27.9-67.1l9.8-5.6c7.2-4.2 50.2-13.1 67.3 16.7 17.2 29.9-11.7 62.8-18.9 67-2.5 1.4-9.9 5.6-9.9 5.6z"/>
			</g>
			<g id="&lt;Group&gt;">
				<path id="&lt;Path&gt;" class="s1" d="m209.6 144.4c7.2 4.1 37.4 50.6 27.9 67l-4.2 7.3c-9.5 16.4-64.8 13.5-72 9.4l-9.9-5.7c-7.2-4.2-36.4-37-19.1-66.7 17.3-29.8 60.3-21.2 67.5-17 2.4 1.4 9.8 5.7 9.8 5.7z"/>
			</g>
		</g>
		<g id="&lt;Group&gt;">
			<path id="&lt;Path&gt;" class="s1" d="m287.4 156.8c0 8.3-25.2 57.7-44.1 57.7h-8.5c-18.9 0-44.1-49.4-44.1-57.7v-11.4c0-8.3 13.8-50 48.2-49.9 34.4 0.1 48.5 41.6 48.5 49.9 0 2.9 0 11.4 0 11.4z"/>
			<path id="&lt;Path&gt;" class="s1" d="m161.1 209.4c7.2-4.2 62.5-7.1 72 9.3l4.2 7.4c9.5 16.4-20.7 62.8-27.9 67l-9.8 5.7c-7.2 4.1-50.2 13-67.3-16.7-17.2-30 11.7-62.9 18.9-67 2.5-1.4 9.9-5.7 9.9-5.7z"/>
			<path id="&lt;Path&gt;" class="s1" d="m269.8 292.5c-7.2-4.2-37.4-50.7-27.9-67.1l4.2-7.3c9.5-16.4 64.8-13.5 72-9.3l9.8 5.6c7.3 4.2 36.5 37 19.2 66.7-17.3 29.8-60.3 21.2-67.5 17-2.4-1.4-9.8-5.6-9.8-5.6z"/>
		</g>
		<path id="&lt;Path&gt;" class="s2" d="m280.4 218.3c0 22.1-17.9 40-40.1 40-22.1 0-40-17.9-40-40 0-22.1 17.9-40.1 40-40.1 22.2 0 40.1 18 40.1 40.1z"/>
		<path id="&lt;Path&gt;" class="s3" d="m251.9 218.3c0 6.4-5.2 11.5-11.6 11.5-6.3 0-11.5-5.1-11.5-11.5 0-6.4 5.2-11.6 11.5-11.6 6.4 0 11.6 5.2 11.6 11.6z"/>
		<g id="&lt;Group&gt;">
			<path id="&lt;Path&gt;" class="s4" d="m244.7 194.7c0 3.3-2 6-4.4 6-2.5 0-4.4-2.7-4.4-6 0-3.3 1.9-6 4.4-6 2.4 0 4.4 2.7 4.4 6z"/>
			<path id="&lt;Path&gt;" class="s4" d="m232.4 195.8c1.6 2.8 1.2 6.2-0.9 7.4-2.1 1.2-5.1-0.1-6.8-3-1.7-2.9-1.3-6.2 0.8-7.4 2.1-1.2 5.2 0.1 6.9 3z"/>
			<path id="&lt;Path&gt;" class="s4" d="m222.2 202.8c2.9 1.7 4.2 4.8 3 6.9-1.2 2.1-4.6 2.5-7.4 0.8-2.9-1.7-4.2-4.7-3-6.8 1.2-2.1 4.5-2.5 7.4-0.9z"/>
			<path id="&lt;Path&gt;" class="s4" d="m216.9 214c3.3 0 6 2 6 4.5 0 2.4-2.7 4.4-6 4.4-3.3 0-6-2-6-4.4 0-2.5 2.7-4.5 6-4.5z"/>
			<path id="&lt;Path&gt;" class="s4" d="m218 226.4c2.8-1.7 6.1-1.3 7.4 0.8 1.2 2.1-0.1 5.2-3 6.8-2.9 1.7-6.2 1.3-7.4-0.8-1.2-2.1 0.1-5.2 3-6.8z"/>
			<path id="&lt;Path&gt;" class="s4" d="m225 236.6c1.7-2.9 4.8-4.3 6.9-3 2.1 1.2 2.5 4.5 0.8 7.4-1.7 2.8-4.7 4.2-6.8 3-2.1-1.3-2.5-4.6-0.9-7.4z"/>
			<path id="&lt;Path&gt;" class="s4" d="m236.2 241.8c0-3.3 2-6 4.5-6 2.4 0 4.4 2.7 4.4 6 0 3.3-2 6-4.4 6-2.5 0-4.5-2.7-4.5-6z"/>
			<path id="&lt;Path&gt;" class="s4" d="m248.6 240.8c-1.7-2.9-1.3-6.2 0.8-7.4 2.1-1.2 5.2 0.1 6.8 3 1.7 2.8 1.3 6.1-0.8 7.4-2.1 1.2-5.2-0.1-6.8-3z"/>
			<path id="&lt;Path&gt;" class="s4" d="m258.8 233.7c-2.9-1.6-4.3-4.7-3-6.8 1.2-2.1 4.5-2.5 7.4-0.8 2.8 1.6 4.2 4.7 3 6.8-1.3 2.1-4.6 2.5-7.4 0.8z"/>
			<path id="&lt;Path&gt;" class="s4" d="m264 222.5c-3.3 0-6-2-6-4.4 0-2.5 2.7-4.4 6-4.4 3.3 0 6 1.9 6 4.4 0 2.4-2.7 4.4-6 4.4z"/>
			<path id="&lt;Path&gt;" class="s4" d="m263 210.2c-2.9 1.6-6.2 1.2-7.4-0.9-1.2-2.1 0.1-5.1 3-6.8 2.8-1.7 6.1-1.3 7.4 0.8 1.2 2.1-0.1 5.2-3 6.9z"/>
			<path id="&lt;Path&gt;" class="s4" d="m255.9 200c-1.6 2.9-4.7 4.2-6.8 3-2.1-1.2-2.5-4.6-0.8-7.4 1.6-2.9 4.7-4.2 6.8-3 2.1 1.2 2.5 4.5 0.8 7.4z"/>
		</g>
		<g id="&lt;Group&gt;">
			<path id="&lt;Path&gt;" class="s5" d="m252.7 190c-0.9 3.4-3.7 5.7-6.2 5-2.5-0.7-3.8-4-2.9-7.4 0.9-3.5 3.7-5.7 6.2-5 2.5 0.7 3.8 4 2.9 7.4z"/>
			<path id="&lt;Path&gt;" class="s5" d="m236.9 187.7c1 3.4-0.3 6.7-2.9 7.4-2.5 0.7-5.3-1.6-6.2-5-0.9-3.4 0.4-6.7 2.9-7.4 2.5-0.7 5.3 1.6 6.2 5z"/>
			<path id="&lt;Path&gt;" class="s5" d="m222.1 193.5c2.5 2.6 3.1 6.1 1.2 7.9-1.8 1.9-5.4 1.3-7.9-1.2-2.5-2.5-3-6-1.2-7.9 1.9-1.8 5.4-1.3 7.9 1.2z"/>
			<path id="&lt;Path&gt;" class="s5" d="m212.2 206c3.4 1 5.7 3.7 5 6.3-0.7 2.5-4 3.8-7.4 2.9-3.5-0.9-5.7-3.7-5-6.3 0.7-2.5 4-3.8 7.4-2.9z"/>
			<path id="&lt;Path&gt;" class="s5" d="m209.9 221.8c3.4-0.9 6.7 0.4 7.4 2.9 0.7 2.5-1.6 5.3-5 6.2-3.4 1-6.7-0.3-7.4-2.9-0.7-2.5 1.6-5.3 5-6.2z"/>
			<path id="&lt;Path&gt;" class="s5" d="m215.7 236.6c2.6-2.5 6.1-3 7.9-1.2 1.9 1.9 1.3 5.4-1.2 7.9-2.5 2.5-6 3.1-7.9 1.2-1.8-1.8-1.3-5.4 1.2-7.9z"/>
			<path id="&lt;Path&gt;" class="s5" d="m228.2 246.5c1-3.4 3.7-5.6 6.3-4.9 2.5 0.6 3.8 4 2.9 7.4-0.9 3.4-3.7 5.6-6.3 5-2.5-0.7-3.8-4-2.9-7.5z"/>
			<path id="&lt;Path&gt;" class="s5" d="m244 248.9c-0.9-3.5 0.4-6.8 2.9-7.5 2.5-0.6 5.3 1.6 6.2 5 1 3.5-0.3 6.8-2.9 7.4-2.5 0.7-5.3-1.5-6.2-4.9z"/>
			<path id="&lt;Path&gt;" class="s5" d="m258.8 243c-2.5-2.5-3-6-1.2-7.9 1.9-1.8 5.4-1.3 7.9 1.2 2.5 2.5 3.1 6.1 1.2 7.9-1.8 1.8-5.4 1.3-7.9-1.2z"/>
			<path id="&lt;Path&gt;" class="s5" d="m268.7 230.5c-3.4-0.9-5.6-3.7-4.9-6.2 0.6-2.5 4-3.8 7.4-2.9 3.4 0.9 5.6 3.7 5 6.2-0.7 2.5-4 3.8-7.5 2.9z"/>
			<path id="&lt;Path&gt;" class="s5" d="m271.1 214.7c-3.5 1-6.8-0.3-7.5-2.9-0.6-2.5 1.6-5.3 5-6.2 3.5-0.9 6.8 0.4 7.4 2.9 0.7 2.5-1.5 5.3-4.9 6.2z"/>
			<path id="&lt;Path&gt;" class="s5" d="m265.2 199.9c-2.5 2.5-6 3.1-7.9 1.2-1.8-1.8-1.3-5.4 1.2-7.9 2.5-2.5 6.1-3 7.9-1.2 1.8 1.9 1.3 5.4-1.2 7.9z"/>
		</g>
	</g>
</svg>