<svg version="1.2" xmlns="http://www.w3.org/2000/svg" viewBox="0 0 480 480" width="480" height="480">
	<title>Flower</title>
	<style>
		.s0 { fill: #279245 } 
		.s1 { fill: #edeaff } 
		.s2 { fill: #ffdd65 } 
		.s3 { fill: #479f78 } 
	</style>
	<g id="&lt;Group&gt;">
		<g id="&lt;Group&gt;">
			<path id="&lt;Path&gt;" class="s0" d="m274.3 191.5c-0.2-4-0.3-10.2-0.5-17.5-0.6-21-1.4-52.8-3.8-63.8l10.7-2.4c2.6 12.1 3.5 43.2 4.1 65.9 0.2 7.2 0.3 13.4 0.5 17.3z"/>
		</g>
		<g id="&lt;Group&gt;">
			<path id="&lt;Path&gt;" class="s0" d="m187.6 219.9l-9.8-50.1 6.9-1.4 9.8 50.2z"/>
		</g>
		<g id="&lt;Group&gt;">
			<path id="&lt;Path&gt;" class="s0" d="m187.5 219l-50-10.4 1.4-6.8 50 10.4z"/>
		</g>
		<g id="&lt;Group&gt;">
			<path id="&lt;Path&gt;" class="s0" d="m288.7 416.6l-11-0.8c2.5-36.6-0.7-134.3-2.4-186.8-0.5-15.6-0.9-27.4-1-32.8l-38-52.1 8.9-6.5 40.1 55v1.8c0 4 0.4 16.7 1 34.3 1.7 52.7 4.9 150.7 2.4 187.9z"/>
		</g>
		<g id="&lt;Group&gt;">
			<path id="&lt;Path&gt;" class="s0" d="m278.1 315.7c-6-15.3-30-37.6-55.5-61.2-28.1-26.1-57.1-53-70.6-77.7l9.6-5.3c12.7 23.1 41.1 49.5 68.5 74.9 27.5 25.6 51.3 47.7 58.3 65.2z"/>
		</g>
		<g id="&lt;Group&gt;">
			<path id="&lt;Path&gt;" class="s0" d="m285 197.9l-10.4-3.5c2.7-7.8 26.2-44.9 42.7-64.8l8.4 7.1c-16.6 19.9-38.9 55.9-40.7 61.2z"/>
		</g>
		<g id="&lt;Group&gt;">
			<g id="&lt;Group&gt;">
				<path id="&lt;Path&gt;" class="s1" d="m336.7 125.5c0 3-5 8-5 8 0 0-5-5-5-8 0-3 2.3-5.4 5-5.4 2.7 0 5 2.4 5 5.4z"/>
			</g>
			<g id="&lt;Group&gt;">
				<path id="&lt;Path&gt;" class="s1" d="m325.2 126.6c2.9 0.9 6.1 7.2 6.1 7.2 0 0-6.3 3.1-9.1 2.2-2.9-0.9-4.5-3.8-3.6-6.4 0.8-2.6 3.8-3.9 6.6-3z"/>
			</g>
			<g id="&lt;Group&gt;">
				<path id="&lt;Path&gt;" class="s1" d="m322.7 137.8c1.8-2.4 8.8-3.6 8.8-3.6 0 0 1 7-0.7 9.4-1.8 2.4-5 3.1-7.2 1.5-2.2-1.6-2.6-4.9-0.9-7.3z"/>
			</g>
			<g id="&lt;Group&gt;">
				<path id="&lt;Path&gt;" class="s1" d="m332.6 143.6c-1.7-2.4-0.7-9.4-0.7-9.4 0 0 7 1.2 8.8 3.6 1.7 2.4 1.3 5.7-0.9 7.3-2.2 1.6-5.4 0.9-7.2-1.5z"/>
			</g>
			<g id="&lt;Group&gt;">
				<path id="&lt;Path&gt;" class="s1" d="m341.2 136c-2.8 0.9-9.1-2.2-9.1-2.2 0 0 3.2-6.3 6.1-7.2 2.8-0.9 5.8 0.4 6.7 3 0.8 2.6-0.8 5.5-3.7 6.4z"/>
			</g>
			<g id="&lt;Group&gt;">
				<path id="&lt;Path&gt;" class="s2" d="m335.4 133.7c0 2-1.7 3.7-3.7 3.7-2 0-3.7-1.7-3.7-3.7 0-2.1 1.7-3.7 3.7-3.7 2 0 3.7 1.6 3.7 3.7z"/>
			</g>
		</g>
		<g id="&lt;Group&gt;">
			<g id="&lt;Group&gt;">
				<path id="&lt;Path&gt;" class="s1" d="m287.6 147.1c0 3-5 8-5 8 0 0-4.9-5-4.9-8 0-3 2.2-5.4 4.9-5.4 2.8 0 5 2.4 5 5.4z"/>
			</g>
			<g id="&lt;Group&gt;">
				<path id="&lt;Path&gt;" class="s1" d="m276.2 148.2c2.8 0.9 6.1 7.2 6.1 7.2 0 0-6.4 3.1-9.2 2.2-2.8-0.9-4.5-3.8-3.6-6.4 0.8-2.6 3.8-3.9 6.7-3z"/>
			</g>
			<g id="&lt;Group&gt;">
				<path id="&lt;Path&gt;" class="s1" d="m273.7 159.4c1.7-2.4 8.7-3.6 8.7-3.6 0 0 1.1 7-0.7 9.4-1.7 2.4-5 3.1-7.2 1.5-2.2-1.6-2.6-4.9-0.8-7.3z"/>
			</g>
			<g id="&lt;Group&gt;">
				<path id="&lt;Path&gt;" class="s1" d="m283.6 165.2c-1.8-2.4-0.7-9.4-0.7-9.4 0 0 6.9 1.2 8.7 3.6 1.8 2.4 1.4 5.7-0.8 7.3-2.2 1.6-5.5 0.9-7.2-1.5z"/>
			</g>
			<g id="&lt;Group&gt;">
				<path id="&lt;Path&gt;" class="s1" d="m292.2 157.6c-2.9 0.9-9.2-2.2-9.2-2.2 0 0 3.3-6.3 6.1-7.2 2.9-0.9 5.9 0.4 6.7 3 0.8 2.6-0.8 5.5-3.6 6.4z"/>
			</g>
			<g id="&lt;Group&gt;">
				<path id="&lt;Path&gt;" class="s2" d="m286.3 155.3c0 2-1.6 3.7-3.7 3.7-2 0-3.6-1.7-3.6-3.7 0-2.1 1.6-3.7 3.6-3.7 2.1 0 3.7 1.6 3.7 3.7z"/>
			</g>
		</g>
		<g id="&lt;Group&gt;">
			<g id="&lt;Group&gt;">
				<path id="&lt;Path&gt;" class="s1" d="m313.1 140.9c0 2.9-5 8-5 8 0 0-4.9-5.1-4.9-8 0-3 2.2-5.5 4.9-5.5 2.8 0 5 2.5 5 5.5z"/>
			</g>
			<g id="&lt;Group&gt;">
				<path id="&lt;Path&gt;" class="s1" d="m301.7 142c2.8 0.9 6.1 7.2 6.1 7.2 0 0-6.4 3.1-9.2 2.2-2.8-0.9-4.5-3.8-3.6-6.4 0.8-2.6 3.8-4 6.7-3z"/>
			</g>
			<g id="&lt;Group&gt;">
				<path id="&lt;Path&gt;" class="s1" d="m299.2 153.2c1.7-2.4 8.7-3.6 8.7-3.6 0 0 1.1 7-0.7 9.4-1.8 2.4-5 3.1-7.2 1.5-2.2-1.6-2.6-4.9-0.8-7.3z"/>
			</g>
			<g id="&lt;Group&gt;">
				<path id="&lt;Path&gt;" class="s1" d="m309.1 159c-1.8-2.4-0.7-9.4-0.7-9.4 0 0 6.9 1.2 8.7 3.6 1.8 2.4 1.4 5.7-0.8 7.3-2.3 1.6-5.5 0.9-7.2-1.5z"/>
			</g>
			<g id="&lt;Group&gt;">
				<path id="&lt;Path&gt;" class="s1" d="m317.7 151.4c-2.9 0.9-9.2-2.2-9.2-2.2 0 0 3.3-6.3 6.1-7.2 2.8-1 5.8 0.4 6.7 3 0.8 2.6-0.8 5.5-3.6 6.4z"/>
			</g>
			<g id="&lt;Group&gt;">
				<path id="&lt;Path&gt;" class="s2" d="m311.8 149.1c0 2-1.6 3.6-3.7 3.6-2 0-3.7-1.6-3.7-3.6 0-2.1 1.7-3.7 3.7-3.7 2.1 0 3.7 1.6 3.7 3.7z"/>
			</g>
		</g>
		<g id="&lt;Group&gt;">
			<g id="&lt;Group&gt;">
				<path id="&lt;Path&gt;" class="s1" d="m331.3 146.5c0 3-5 8.1-5 8.1 0 0-5-5.1-5-8.1 0-3 2.3-5.4 5-5.4 2.7 0 5 2.4 5 5.4z"/>
			</g>
			<g id="&lt;Group&gt;">
				<path id="&lt;Path&gt;" class="s1" d="m319.8 147.6c2.9 0.9 6.1 7.2 6.1 7.2 0 0-6.3 3.2-9.1 2.2-2.9-0.9-4.5-3.7-3.6-6.3 0.8-2.6 3.8-4 6.6-3.1z"/>
			</g>
			<g id="&lt;Group&gt;">
				<path id="&lt;Path&gt;" class="s1" d="m317.3 158.8c1.8-2.4 8.8-3.6 8.8-3.6 0 0 1 7-0.7 9.5-1.8 2.4-5 3-7.2 1.4-2.2-1.6-2.6-4.9-0.9-7.3z"/>
			</g>
			<g id="&lt;Group&gt;">
				<path id="&lt;Path&gt;" class="s1" d="m327.2 164.7c-1.7-2.5-0.7-9.5-0.7-9.5 0 0 7 1.2 8.8 3.6 1.7 2.4 1.4 5.7-0.9 7.3-2.2 1.6-5.4 1-7.2-1.4z"/>
			</g>
			<g id="&lt;Group&gt;">
				<path id="&lt;Path&gt;" class="s1" d="m335.8 157c-2.8 1-9.1-2.2-9.1-2.2 0 0 3.2-6.3 6.1-7.2 2.8-0.9 5.8 0.5 6.7 3.1 0.8 2.6-0.8 5.4-3.7 6.3z"/>
			</g>
			<g id="&lt;Group&gt;">
				<path id="&lt;Path&gt;" class="s2" d="m330 154.7c0 2-1.7 3.7-3.7 3.7-2 0-3.7-1.7-3.7-3.7 0-2 1.7-3.7 3.7-3.7 2 0 3.7 1.7 3.7 3.7z"/>
			</g>
		</g>
		<g id="&lt;Group&gt;">
			<g id="&lt;Group&gt;">
				<path id="&lt;Path&gt;" class="s1" d="m355 128.6c0 3-5 8.1-5 8.1 0 0-4.9-5.1-4.9-8.1 0-2.9 2.2-5.4 4.9-5.4 2.8 0 5 2.5 5 5.4z"/>
			</g>
			<g id="&lt;Group&gt;">
				<path id="&lt;Path&gt;" class="s1" d="m343.6 129.7c2.8 1 6.1 7.2 6.1 7.2 0 0-6.4 3.2-9.2 2.3-2.8-0.9-4.5-3.8-3.6-6.4 0.8-2.6 3.8-4 6.7-3.1z"/>
			</g>
			<g id="&lt;Group&gt;">
				<path id="&lt;Path&gt;" class="s1" d="m341.1 141c1.7-2.5 8.7-3.6 8.7-3.6 0 0 1.1 7-0.7 9.4-1.8 2.4-5 3.1-7.2 1.4-2.2-1.6-2.6-4.8-0.8-7.2z"/>
			</g>
			<g id="&lt;Group&gt;">
				<path id="&lt;Path&gt;" class="s1" d="m351 146.8c-1.8-2.4-0.7-9.4-0.7-9.4 0 0 6.9 1.1 8.7 3.6 1.8 2.4 1.4 5.6-0.8 7.2-2.2 1.7-5.5 1-7.2-1.4z"/>
			</g>
			<g id="&lt;Group&gt;">
				<path id="&lt;Path&gt;" class="s1" d="m359.6 139.2c-2.9 0.9-9.2-2.3-9.2-2.3 0 0 3.3-6.2 6.1-7.2 2.9-0.9 5.8 0.5 6.7 3.1 0.8 2.6-0.8 5.5-3.6 6.4z"/>
			</g>
			<g id="&lt;Group&gt;">
				<path id="&lt;Path&gt;" class="s2" d="m353.7 136.8c0 2.1-1.6 3.7-3.7 3.7-2 0-3.6-1.6-3.6-3.7 0-2 1.6-3.6 3.6-3.6 2.1 0 3.7 1.6 3.7 3.6z"/>
			</g>
		</g>
		<g id="&lt;Group&gt;">
			<g id="&lt;Group&gt;">
				<path id="&lt;Path&gt;" class="s1" d="m218.3 129.1c0 3-5 8.1-5 8.1 0 0-5-5.1-5-8.1 0-2.9 2.3-5.4 5-5.4 2.7 0 5 2.5 5 5.4z"/>
			</g>
			<g id="&lt;Group&gt;">
				<path id="&lt;Path&gt;" class="s1" d="m206.8 130.2c2.9 1 6.1 7.2 6.1 7.2 0 0-6.3 3.2-9.1 2.3-2.9-0.9-4.5-3.8-3.7-6.4 0.9-2.6 3.9-4 6.7-3.1z"/>
			</g>
			<g id="&lt;Group&gt;">
				<path id="&lt;Path&gt;" class="s1" d="m204.3 141.5c1.8-2.5 8.8-3.6 8.8-3.6 0 0 1 7-0.7 9.4-1.8 2.4-5 3.1-7.2 1.5-2.3-1.7-2.6-4.9-0.9-7.3z"/>
			</g>
			<g id="&lt;Group&gt;">
				<path id="&lt;Path&gt;" class="s1" d="m214.2 147.3c-1.7-2.4-0.7-9.4-0.7-9.4 0 0 7 1.1 8.8 3.6 1.7 2.4 1.3 5.6-0.9 7.3-2.2 1.6-5.4 0.9-7.2-1.5z"/>
			</g>
			<g id="&lt;Group&gt;">
				<path id="&lt;Path&gt;" class="s1" d="m222.8 139.7c-2.8 0.9-9.1-2.3-9.1-2.3 0 0 3.2-6.2 6.1-7.2 2.8-0.9 5.8 0.5 6.6 3.1 0.9 2.6-0.7 5.5-3.6 6.4z"/>
			</g>
			<g id="&lt;Group&gt;">
				<path id="&lt;Path&gt;" class="s2" d="m217 137.3c0 2.1-1.7 3.7-3.7 3.7-2 0-3.7-1.6-3.7-3.7 0-2 1.7-3.6 3.7-3.6 2 0 3.7 1.6 3.7 3.6z"/>
			</g>
		</g>
		<g id="&lt;Group&gt;">
			<g id="&lt;Group&gt;">
				<path id="&lt;Path&gt;" class="s1" d="m294.5 124.5c0 3-5 8.1-5 8.1 0 0-4.9-5.1-4.9-8.1 0-3 2.2-5.4 4.9-5.4 2.8 0 5 2.4 5 5.4z"/>
			</g>
			<g id="&lt;Group&gt;">
				<path id="&lt;Path&gt;" class="s1" d="m283 125.6c2.9 0.9 6.2 7.2 6.2 7.2 0 0-6.4 3.2-9.2 2.3-2.9-1-4.5-3.8-3.6-6.4 0.8-2.6 3.8-4 6.6-3.1z"/>
			</g>
			<g id="&lt;Group&gt;">
				<path id="&lt;Path&gt;" class="s1" d="m280.6 136.8c1.7-2.4 8.7-3.6 8.7-3.6 0 0 1 7.1-0.7 9.5-1.8 2.4-5 3-7.2 1.4-2.2-1.6-2.6-4.8-0.8-7.3z"/>
			</g>
			<g id="&lt;Group&gt;">
				<path id="&lt;Path&gt;" class="s1" d="m290.4 142.7c-1.7-2.4-0.7-9.5-0.7-9.5 0 0 7 1.2 8.8 3.6 1.7 2.5 1.4 5.7-0.9 7.3-2.2 1.6-5.4 1-7.2-1.4z"/>
			</g>
			<g id="&lt;Group&gt;">
				<path id="&lt;Path&gt;" class="s1" d="m299.1 135.1c-2.9 0.9-9.2-2.3-9.2-2.3 0 0 3.2-6.3 6.1-7.2 2.8-0.9 5.8 0.5 6.7 3.1 0.8 2.6-0.8 5.4-3.6 6.4z"/>
			</g>
			<g id="&lt;Group&gt;">
				<path id="&lt;Path&gt;" class="s2" d="m293.2 132.7c0 2.1-1.7 3.7-3.7 3.7-2 0-3.7-1.6-3.7-3.7 0-2 1.7-3.7 3.7-3.7 2 0 3.7 1.7 3.7 3.7z"/>
			</g>
		</g>
		<g id="&lt;Group&gt;">
			<g id="&lt;Group&gt;">
				<path id="&lt;Path&gt;" class="s1" d="m269.1 132.9c0 3-5 8-5 8 0 0-4.9-5-4.9-8 0-3 2.2-5.4 4.9-5.4 2.8 0 5 2.4 5 5.4z"/>
			</g>
			<g id="&lt;Group&gt;">
				<path id="&lt;Path&gt;" class="s1" d="m257.7 134c2.8 0.9 6.1 7.2 6.1 7.2 0 0-6.4 3.2-9.2 2.2-2.8-0.9-4.5-3.8-3.6-6.4 0.8-2.6 3.8-3.9 6.7-3z"/>
			</g>
			<g id="&lt;Group&gt;">
				<path id="&lt;Path&gt;" class="s1" d="m255.2 145.2c1.7-2.4 8.7-3.6 8.7-3.6 0 0 1.1 7-0.7 9.4-1.8 2.5-5 3.1-7.2 1.5-2.2-1.6-2.6-4.9-0.8-7.3z"/>
			</g>
			<g id="&lt;Group&gt;">
				<path id="&lt;Path&gt;" class="s1" d="m265.1 151c-1.8-2.4-0.7-9.4-0.7-9.4 0 0 6.9 1.2 8.7 3.6 1.8 2.4 1.4 5.7-0.8 7.3-2.2 1.6-5.5 1-7.2-1.5z"/>
			</g>
			<g id="&lt;Group&gt;">
				<path id="&lt;Path&gt;" class="s1" d="m273.7 143.4c-2.9 1-9.2-2.2-9.2-2.2 0 0 3.3-6.3 6.1-7.2 2.9-0.9 5.8 0.4 6.7 3 0.8 2.7-0.8 5.5-3.6 6.4z"/>
			</g>
			<g id="&lt;Group&gt;">
				<path id="&lt;Path&gt;" class="s2" d="m267.8 141.1c0 2-1.6 3.7-3.7 3.7-2 0-3.6-1.7-3.6-3.7 0-2 1.6-3.7 3.6-3.7 2.1 0 3.7 1.7 3.7 3.7z"/>
			</g>
		</g>
		<g id="&lt;Group&gt;">
			<g id="&lt;Group&gt;">
				<path id="&lt;Path&gt;" class="s1" d="m245.7 135.9c0 3-4.9 8.1-4.9 8.1 0 0-5-5.1-5-8.1 0-3 2.2-5.4 5-5.4 2.7 0 4.9 2.4 4.9 5.4z"/>
			</g>
			<g id="&lt;Group&gt;">
				<path id="&lt;Path&gt;" class="s1" d="m234.3 137c2.9 0.9 6.1 7.2 6.1 7.2 0 0-6.3 3.2-9.2 2.3-2.8-1-4.4-3.8-3.6-6.4 0.9-2.6 3.9-4 6.7-3.1z"/>
			</g>
			<g id="&lt;Group&gt;">
				<path id="&lt;Path&gt;" class="s1" d="m231.8 148.2c1.8-2.4 8.8-3.6 8.8-3.6 0 0 1 7-0.7 9.5-1.8 2.4-5 3-7.2 1.4-2.3-1.6-2.6-4.8-0.9-7.3z"/>
			</g>
			<g id="&lt;Group&gt;">
				<path id="&lt;Path&gt;" class="s1" d="m241.7 154.1c-1.7-2.5-0.7-9.5-0.7-9.5 0 0 7 1.2 8.7 3.6 1.8 2.5 1.4 5.7-0.8 7.3-2.2 1.6-5.4 1-7.2-1.4z"/>
			</g>
			<g id="&lt;Group&gt;">
				<path id="&lt;Path&gt;" class="s1" d="m250.3 146.5c-2.8 0.9-9.2-2.3-9.2-2.3 0 0 3.3-6.3 6.2-7.2 2.8-0.9 5.8 0.5 6.6 3.1 0.9 2.6-0.7 5.4-3.6 6.4z"/>
			</g>
			<g id="&lt;Group&gt;">
				<path id="&lt;Path&gt;" class="s2" d="m244.5 144.1c0 2-1.7 3.7-3.7 3.7-2 0-3.7-1.7-3.7-3.7 0-2 1.7-3.7 3.7-3.7 2 0 3.7 1.7 3.7 3.7z"/>
			</g>
		</g>
		<g id="&lt;Group&gt;">
			<g id="&lt;Group&gt;">
				<path id="&lt;Path&gt;" class="s1" d="m240.8 143.5c0 3-5 8-5 8 0 0-5-5-5-8 0-3 2.3-5.4 5-5.4 2.7 0 5 2.4 5 5.4z"/>
			</g>
			<g id="&lt;Group&gt;">
				<path id="&lt;Path&gt;" class="s1" d="m229.3 144.6c2.9 0.9 6.1 7.2 6.1 7.2 0 0-6.3 3.1-9.1 2.2-2.9-0.9-4.5-3.8-3.7-6.4 0.9-2.6 3.9-3.9 6.7-3z"/>
			</g>
			<g id="&lt;Group&gt;">
				<path id="&lt;Path&gt;" class="s1" d="m226.8 155.8c1.8-2.4 8.8-3.6 8.8-3.6 0 0 1 7-0.7 9.4-1.8 2.4-5 3.1-7.2 1.5-2.2-1.6-2.6-4.9-0.9-7.3z"/>
			</g>
			<g id="&lt;Group&gt;">
				<path id="&lt;Path&gt;" class="s1" d="m236.7 161.6c-1.7-2.4-0.7-9.4-0.7-9.4 0 0 7 1.2 8.8 3.6 1.7 2.4 1.3 5.7-0.9 7.3-2.2 1.6-5.4 0.9-7.2-1.5z"/>
			</g>
			<g id="&lt;Group&gt;">
				<path id="&lt;Path&gt;" class="s1" d="m245.3 154c-2.8 0.9-9.1-2.2-9.1-2.2 0 0 3.2-6.3 6.1-7.2 2.8-0.9 5.8 0.4 6.6 3 0.9 2.6-0.7 5.5-3.6 6.4z"/>
			</g>
			<g id="&lt;Group&gt;">
				<path id="&lt;Path&gt;" class="s2" d="m239.5 151.7c0 2-1.7 3.7-3.7 3.7-2 0-3.7-1.7-3.7-3.7 0-2.1 1.7-3.7 3.7-3.7 2 0 3.7 1.6 3.7 3.7z"/>
			</g>
		</g>
		<g id="&lt;Group&gt;">
			<g id="&lt;Group&gt;">
				<path id="&lt;Path&gt;" class="s1" d="m150.8 168.2c0 3-5 8-5 8 0 0-4.9-5-4.9-8 0-3 2.2-5.4 4.9-5.4 2.8 0 5 2.4 5 5.4z"/>
			</g>
			<g id="&lt;Group&gt;">
				<path id="&lt;Path&gt;" class="s1" d="m139.4 169.3c2.8 0.9 6.1 7.2 6.1 7.2 0 0-6.4 3.1-9.2 2.2-2.9-0.9-4.5-3.8-3.6-6.4 0.8-2.6 3.8-3.9 6.7-3z"/>
			</g>
			<g id="&lt;Group&gt;">
				<path id="&lt;Path&gt;" class="s1" d="m136.9 180.5c1.7-2.4 8.7-3.6 8.7-3.6 0 0 1.1 7-0.7 9.4-1.8 2.5-5 3.1-7.2 1.5-2.2-1.6-2.6-4.9-0.8-7.3z"/>
			</g>
			<g id="&lt;Group&gt;">
				<path id="&lt;Path&gt;" class="s1" d="m146.8 186.3c-1.8-2.4-0.7-9.4-0.7-9.4 0 0 6.9 1.2 8.7 3.6 1.7 2.4 1.4 5.7-0.8 7.3-2.3 1.6-5.5 1-7.2-1.5z"/>
			</g>
			<g id="&lt;Group&gt;">
				<path id="&lt;Path&gt;" class="s1" d="m155.4 178.7c-2.9 0.9-9.2-2.2-9.2-2.2 0 0 3.3-6.3 6.1-7.2 2.8-0.9 5.8 0.4 6.7 3 0.8 2.6-0.8 5.5-3.6 6.4z"/>
			</g>
			<g id="&lt;Group&gt;">
				<path id="&lt;Path&gt;" class="s2" d="m149.5 176.4c0 2-1.6 3.7-3.7 3.7-2 0-3.7-1.7-3.7-3.7 0-2.1 1.7-3.7 3.7-3.7 2.1 0 3.7 1.6 3.7 3.7z"/>
			</g>
		</g>
		<g id="&lt;Group&gt;">
			<g id="&lt;Group&gt;">
				<path id="&lt;Path&gt;" class="s1" d="m144.8 192.6c0 3-5 8.1-5 8.1 0 0-4.9-5.1-4.9-8.1 0-3 2.2-5.4 4.9-5.4 2.8 0 5 2.4 5 5.4z"/>
			</g>
			<g id="&lt;Group&gt;">
				<path id="&lt;Path&gt;" class="s1" d="m133.3 193.7c2.9 0.9 6.2 7.2 6.2 7.2 0 0-6.4 3.2-9.2 2.2-2.9-0.9-4.5-3.7-3.6-6.3 0.8-2.7 3.8-4 6.6-3.1z"/>
			</g>
			<g id="&lt;Group&gt;">
				<path id="&lt;Path&gt;" class="s1" d="m130.9 204.9c1.7-2.4 8.7-3.6 8.7-3.6 0 0 1 7-0.7 9.5-1.8 2.4-5 3-7.2 1.4-2.2-1.6-2.6-4.9-0.8-7.3z"/>
			</g>
			<g id="&lt;Group&gt;">
				<path id="&lt;Path&gt;" class="s1" d="m140.7 210.8c-1.7-2.5-0.7-9.5-0.7-9.5 0 0 7 1.2 8.8 3.6 1.7 2.4 1.4 5.7-0.9 7.3-2.2 1.6-5.4 1-7.2-1.4z"/>
			</g>
			<g id="&lt;Group&gt;">
				<path id="&lt;Path&gt;" class="s1" d="m149.4 203.1c-2.9 1-9.2-2.2-9.2-2.2 0 0 3.2-6.3 6.1-7.2 2.8-0.9 5.8 0.4 6.7 3.1 0.8 2.6-0.8 5.4-3.6 6.3z"/>
			</g>
			<g id="&lt;Group&gt;">
				<path id="&lt;Path&gt;" class="s2" d="m143.5 200.8c0 2-1.7 3.7-3.7 3.7-2 0-3.7-1.7-3.7-3.7 0-2 1.7-3.7 3.7-3.7 2 0 3.7 1.7 3.7 3.7z"/>
			</g>
		</g>
		<g id="&lt;Group&gt;">
			<g id="&lt;Group&gt;">
				<path id="&lt;Path&gt;" class="s1" d="m144.4 207.1c0 3-4.9 8-4.9 8 0 0-5-5-5-8 0-3 2.2-5.4 5-5.4 2.7 0 4.9 2.4 4.9 5.4z"/>
			</g>
			<g id="&lt;Group&gt;">
				<path id="&lt;Path&gt;" class="s1" d="m133 208.2c2.8 0.9 6.1 7.2 6.1 7.2 0 0-6.3 3.2-9.2 2.2-2.8-0.9-4.4-3.7-3.6-6.3 0.8-2.7 3.8-4 6.7-3.1z"/>
			</g>
			<g id="&lt;Group&gt;">
				<path id="&lt;Path&gt;" class="s1" d="m130.5 219.4c1.8-2.4 8.7-3.6 8.7-3.6 0 0 1.1 7-0.7 9.5-1.7 2.4-5 3-7.2 1.4-2.2-1.6-2.6-4.9-0.8-7.3z"/>
			</g>
			<g id="&lt;Group&gt;">
				<path id="&lt;Path&gt;" class="s1" d="m140.4 225.3c-1.8-2.5-0.7-9.5-0.7-9.5 0 0 7 1.2 8.7 3.6 1.8 2.4 1.4 5.7-0.8 7.3-2.2 1.6-5.5 1-7.2-1.4z"/>
			</g>
			<g id="&lt;Group&gt;">
				<path id="&lt;Path&gt;" class="s1" d="m149 217.6c-2.8 1-9.2-2.2-9.2-2.2 0 0 3.3-6.3 6.1-7.2 2.9-0.9 5.9 0.4 6.7 3.1 0.9 2.6-0.8 5.4-3.6 6.3z"/>
			</g>
			<g id="&lt;Group&gt;">
				<path id="&lt;Path&gt;" class="s2" d="m143.1 215.3c0 2-1.6 3.7-3.6 3.7-2.1 0-3.7-1.7-3.7-3.7 0-2 1.6-3.7 3.7-3.7 2 0 3.6 1.7 3.6 3.7z"/>
			</g>
		</g>
		<g id="&lt;Group&gt;">
			<g id="&lt;Group&gt;">
				<path id="&lt;Path&gt;" class="s1" d="m171 159.9c0 3-4.9 8.1-4.9 8.1 0 0-5-5.1-5-8.1 0-3 2.2-5.4 5-5.4 2.7 0 4.9 2.4 4.9 5.4z"/>
			</g>
			<g id="&lt;Group&gt;">
				<path id="&lt;Path&gt;" class="s1" d="m159.6 161c2.8 1 6.1 7.2 6.1 7.2 0 0-6.3 3.2-9.2 2.3-2.8-1-4.4-3.8-3.6-6.4 0.9-2.6 3.9-4 6.7-3.1z"/>
			</g>
			<g id="&lt;Group&gt;">
				<path id="&lt;Path&gt;" class="s1" d="m157.1 172.2c1.8-2.4 8.8-3.5 8.8-3.5 0 0 1 7-0.8 9.4-1.7 2.4-4.9 3-7.2 1.4-2.2-1.6-2.5-4.8-0.8-7.3z"/>
			</g>
			<g id="&lt;Group&gt;">
				<path id="&lt;Path&gt;" class="s1" d="m167 178.1c-1.7-2.4-0.7-9.4-0.7-9.4 0 0 7 1.1 8.7 3.5 1.8 2.5 1.4 5.7-0.8 7.3-2.2 1.6-5.4 1-7.2-1.4z"/>
			</g>
			<g id="&lt;Group&gt;">
				<path id="&lt;Path&gt;" class="s1" d="m175.6 170.5c-2.8 0.9-9.2-2.3-9.2-2.3 0 0 3.3-6.2 6.1-7.2 2.9-0.9 5.9 0.5 6.7 3.1 0.9 2.6-0.7 5.4-3.6 6.4z"/>
			</g>
			<g id="&lt;Group&gt;">
				<path id="&lt;Path&gt;" class="s2" d="m169.8 168.1c0 2.1-1.7 3.7-3.7 3.7-2.1 0-3.7-1.6-3.7-3.7 0-2 1.6-3.7 3.7-3.7 2 0 3.7 1.7 3.7 3.7z"/>
			</g>
		</g>
		<g id="&lt;Group&gt;">
			<g id="&lt;Group&gt;">
				<path id="&lt;Path&gt;" class="s1" d="m169.8 185.5c0 3-4.9 8-4.9 8 0 0-5-5-5-8 0-3 2.2-5.4 5-5.4 2.7 0 4.9 2.4 4.9 5.4z"/>
			</g>
			<g id="&lt;Group&gt;">
				<path id="&lt;Path&gt;" class="s1" d="m158.4 186.6c2.8 0.9 6.1 7.2 6.1 7.2 0 0-6.3 3.1-9.2 2.2-2.8-0.9-4.4-3.8-3.6-6.4 0.9-2.6 3.9-3.9 6.7-3z"/>
			</g>
			<g id="&lt;Group&gt;">
				<path id="&lt;Path&gt;" class="s1" d="m155.9 197.8c1.8-2.4 8.7-3.6 8.7-3.6 0 0 1.1 7-0.7 9.4-1.7 2.4-4.9 3.1-7.2 1.5-2.2-1.6-2.5-4.9-0.8-7.3z"/>
			</g>
			<g id="&lt;Group&gt;">
				<path id="&lt;Path&gt;" class="s1" d="m165.8 203.6c-1.8-2.4-0.7-9.4-0.7-9.4 0 0 7 1.2 8.7 3.6 1.8 2.4 1.4 5.7-0.8 7.3-2.2 1.6-5.4 0.9-7.2-1.5z"/>
			</g>
			<g id="&lt;Group&gt;">
				<path id="&lt;Path&gt;" class="s1" d="m174.4 196c-2.8 0.9-9.2-2.2-9.2-2.2 0 0 3.3-6.3 6.1-7.2 2.9-0.9 5.9 0.4 6.7 3 0.9 2.6-0.7 5.5-3.6 6.4z"/>
			</g>
			<g id="&lt;Group&gt;">
				<path id="&lt;Path&gt;" class="s2" d="m168.6 193.7c0 2-1.7 3.7-3.7 3.7-2.1 0-3.7-1.7-3.7-3.7 0-2.1 1.6-3.7 3.7-3.7 2 0 3.7 1.6 3.7 3.7z"/>
			</g>
		</g>
		<g id="&lt;Group&gt;">
			<g id="&lt;Group&gt;">
				<path id="&lt;Path&gt;" class="s1" d="m189.4 155.2c0 3-5 8.1-5 8.1 0 0-4.9-5.1-4.9-8.1 0-2.9 2.2-5.4 4.9-5.4 2.8 0 5 2.5 5 5.4z"/>
			</g>
			<g id="&lt;Group&gt;">
				<path id="&lt;Path&gt;" class="s1" d="m177.9 156.3c2.9 1 6.2 7.2 6.2 7.2 0 0-6.4 3.2-9.2 2.3-2.9-1-4.5-3.8-3.6-6.4 0.8-2.6 3.8-4 6.6-3.1z"/>
			</g>
			<g id="&lt;Group&gt;">
				<path id="&lt;Path&gt;" class="s1" d="m175.5 167.6c1.7-2.5 8.7-3.6 8.7-3.6 0 0 1 7-0.7 9.4-1.8 2.4-5 3.1-7.2 1.4-2.2-1.6-2.6-4.8-0.8-7.2z"/>
			</g>
			<g id="&lt;Group&gt;">
				<path id="&lt;Path&gt;" class="s1" d="m185.3 173.4c-1.7-2.4-0.7-9.4-0.7-9.4 0 0 7 1.1 8.8 3.6 1.7 2.4 1.4 5.6-0.9 7.2-2.2 1.7-5.4 1-7.2-1.4z"/>
			</g>
			<g id="&lt;Group&gt;">
				<path id="&lt;Path&gt;" class="s1" d="m194 165.8c-2.9 0.9-9.2-2.3-9.2-2.3 0 0 3.2-6.2 6.1-7.2 2.8-0.9 5.8 0.5 6.7 3.1 0.8 2.6-0.8 5.4-3.6 6.4z"/>
			</g>
			<g id="&lt;Group&gt;">
				<path id="&lt;Path&gt;" class="s2" d="m188.1 163.4c0 2.1-1.7 3.7-3.7 3.7-2 0-3.7-1.6-3.7-3.7 0-2 1.7-3.7 3.7-3.7 2 0 3.7 1.7 3.7 3.7z"/>
			</g>
		</g>
		<g id="&lt;Group&gt;">
			<g id="&lt;Group&gt;">
				<path id="&lt;Path&gt;" class="s1" d="m286 100.8c0 3-5 8.1-5 8.1 0 0-4.9-5.1-4.9-8.1 0-3 2.2-5.4 4.9-5.4 2.8 0 5 2.4 5 5.4z"/>
			</g>
			<g id="&lt;Group&gt;">
				<path id="&lt;Path&gt;" class="s1" d="m274.5 101.9c2.9 0.9 6.2 7.2 6.2 7.2 0 0-6.4 3.2-9.2 2.3-2.9-1-4.5-3.8-3.6-6.4 0.8-2.6 3.8-4 6.6-3.1z"/>
			</g>
			<g id="&lt;Group&gt;">
				<path id="&lt;Path&gt;" class="s1" d="m272.1 113.1c1.7-2.4 8.7-3.6 8.7-3.6 0 0 1 7-0.7 9.5-1.8 2.4-5 3-7.2 1.4-2.2-1.6-2.6-4.9-0.8-7.3z"/>
			</g>
			<g id="&lt;Group&gt;">
				<path id="&lt;Path&gt;" class="s1" d="m282 119c-1.8-2.5-0.8-9.5-0.8-9.5 0 0 7 1.2 8.8 3.6 1.7 2.4 1.4 5.7-0.9 7.3-2.2 1.6-5.4 1-7.1-1.4z"/>
			</g>
			<g id="&lt;Group&gt;">
				<path id="&lt;Path&gt;" class="s1" d="m290.6 111.4c-2.9 0.9-9.2-2.3-9.2-2.3 0 0 3.3-6.3 6.1-7.2 2.8-0.9 5.8 0.5 6.7 3.1 0.8 2.6-0.8 5.4-3.6 6.4z"/>
			</g>
			<g id="&lt;Group&gt;">
				<path id="&lt;Path&gt;" class="s2" d="m284.7 109c0 2-1.6 3.7-3.7 3.7-2 0-3.7-1.7-3.7-3.7 0-2 1.7-3.7 3.7-3.7 2.1 0 3.7 1.7 3.7 3.7z"/>
			</g>
		</g>
		<g id="&lt;Group&gt;">
			<g id="&lt;Group&gt;">
				<path id="&lt;Path&gt;" class="s1" d="m320 113c0 3-5 8.1-5 8.1 0 0-5-5.1-5-8.1 0-2.9 2.3-5.4 5-5.4 2.7 0 5 2.5 5 5.4z"/>
			</g>
			<g id="&lt;Group&gt;">
				<path id="&lt;Path&gt;" class="s1" d="m308.5 114.1c2.9 1 6.1 7.2 6.1 7.2 0 0-6.3 3.2-9.1 2.3-2.9-0.9-4.5-3.8-3.7-6.4 0.9-2.6 3.9-4 6.7-3.1z"/>
			</g>
			<g id="&lt;Group&gt;">
				<path id="&lt;Path&gt;" class="s1" d="m306 125.4c1.8-2.5 8.8-3.6 8.8-3.6 0 0 1 7-0.7 9.4-1.8 2.4-5 3.1-7.2 1.5-2.2-1.7-2.6-4.9-0.9-7.3z"/>
			</g>
			<g id="&lt;Group&gt;">
				<path id="&lt;Path&gt;" class="s1" d="m315.9 131.2c-1.7-2.4-0.7-9.4-0.7-9.4 0 0 7 1.1 8.8 3.6 1.7 2.4 1.3 5.6-0.9 7.3-2.2 1.6-5.4 0.9-7.2-1.5z"/>
			</g>
			<g id="&lt;Group&gt;">
				<path id="&lt;Path&gt;" class="s1" d="m324.5 123.6c-2.8 0.9-9.1-2.3-9.1-2.3 0 0 3.2-6.2 6.1-7.2 2.8-0.9 5.8 0.5 6.7 3.1 0.8 2.6-0.8 5.5-3.7 6.4z"/>
			</g>
			<g id="&lt;Group&gt;">
				<path id="&lt;Path&gt;" class="s2" d="m318.7 121.2c0 2.1-1.7 3.7-3.7 3.7-2 0-3.7-1.6-3.7-3.7 0-2 1.7-3.6 3.7-3.6 2 0 3.7 1.6 3.7 3.6z"/>
			</g>
		</g>
		<g id="&lt;Group&gt;">
			<g id="&lt;Group&gt;">
				<path id="&lt;Path&gt;" class="s1" d="m228.9 116c0 3-5 8-5 8 0 0-4.9-5-4.9-8 0-3 2.2-5.4 4.9-5.4 2.8 0 5 2.4 5 5.4z"/>
			</g>
			<g id="&lt;Group&gt;">
				<path id="&lt;Path&gt;" class="s1" d="m217.5 117.1c2.8 0.9 6.1 7.2 6.1 7.2 0 0-6.4 3.2-9.2 2.2-2.8-0.9-4.5-3.7-3.6-6.4 0.8-2.6 3.8-3.9 6.7-3z"/>
			</g>
			<g id="&lt;Group&gt;">
				<path id="&lt;Path&gt;" class="s1" d="m215 128.3c1.7-2.4 8.7-3.6 8.7-3.6 0 0 1.1 7-0.7 9.4-1.8 2.5-5 3.1-7.2 1.5-2.2-1.6-2.6-4.9-0.8-7.3z"/>
			</g>
			<g id="&lt;Group&gt;">
				<path id="&lt;Path&gt;" class="s1" d="m224.9 134.1c-1.8-2.4-0.7-9.4-0.7-9.4 0 0 6.9 1.2 8.7 3.6 1.8 2.4 1.4 5.7-0.8 7.3-2.3 1.6-5.5 1-7.2-1.5z"/>
			</g>
			<g id="&lt;Group&gt;">
				<path id="&lt;Path&gt;" class="s1" d="m233.5 126.5c-2.9 1-9.2-2.2-9.2-2.2 0 0 3.3-6.3 6.1-7.2 2.9-0.9 5.8 0.4 6.7 3 0.8 2.7-0.8 5.5-3.6 6.4z"/>
			</g>
			<g id="&lt;Group&gt;">
				<path id="&lt;Path&gt;" class="s2" d="m227.6 124.2c0 2-1.6 3.7-3.7 3.7-2 0-3.6-1.7-3.6-3.7 0-2 1.6-3.7 3.6-3.7 2.1 0 3.7 1.7 3.7 3.7z"/>
			</g>
		</g>
		<g id="&lt;Group&gt;">
			<g id="&lt;Group&gt;">
				<path id="&lt;Path&gt;" class="s1" d="m257.5 107c0 3-5 8.1-5 8.1 0 0-4.9-5.1-4.9-8.1 0-2.9 2.2-5.4 4.9-5.4 2.8 0 5 2.5 5 5.4z"/>
			</g>
			<g id="&lt;Group&gt;">
				<path id="&lt;Path&gt;" class="s1" d="m246 108.1c2.9 1 6.2 7.2 6.2 7.2 0 0-6.4 3.2-9.2 2.3-2.9-0.9-4.5-3.8-3.6-6.4 0.8-2.6 3.8-4 6.6-3.1z"/>
			</g>
			<g id="&lt;Group&gt;">
				<path id="&lt;Path&gt;" class="s1" d="m243.6 119.4c1.7-2.5 8.7-3.6 8.7-3.6 0 0 1 7-0.7 9.4-1.8 2.4-5 3.1-7.2 1.5-2.2-1.7-2.6-4.9-0.8-7.3z"/>
			</g>
			<g id="&lt;Group&gt;">
				<path id="&lt;Path&gt;" class="s1" d="m253.5 125.2c-1.8-2.4-0.8-9.4-0.8-9.4 0 0 7 1.1 8.8 3.6 1.7 2.4 1.4 5.6-0.8 7.3-2.3 1.6-5.5 0.9-7.2-1.5z"/>
			</g>
			<g id="&lt;Group&gt;">
				<path id="&lt;Path&gt;" class="s1" d="m262.1 117.6c-2.9 0.9-9.2-2.3-9.2-2.3 0 0 3.3-6.2 6.1-7.2 2.8-0.9 5.8 0.5 6.7 3.1 0.8 2.6-0.8 5.5-3.6 6.4z"/>
			</g>
			<g id="&lt;Group&gt;">
				<path id="&lt;Path&gt;" class="s2" d="m256.2 115.2c0 2.1-1.6 3.7-3.7 3.7-2 0-3.7-1.6-3.7-3.7 0-2 1.7-3.6 3.7-3.6 2.1 0 3.7 1.6 3.7 3.6z"/>
			</g>
		</g>
		<g id="&lt;Group&gt;">
			<g id="&lt;Group&gt;">
				<path id="&lt;Path&gt;" class="s1" d="m293.2 86.4c0 1.4-5 3.6-5 3.6 0 0-4.9-2.2-4.9-3.6 0-1.3 2.2-2.4 4.9-2.4 2.8 0 5 1.1 5 2.4z"/>
			</g>
			<g id="&lt;Group&gt;">
				<path id="&lt;Path&gt;" class="s1" d="m281.8 86.9c2.8 0.4 6.1 3.3 6.1 3.3 0 0-6.4 1.4-9.2 1-2.8-0.5-4.5-1.7-3.6-2.9 0.8-1.2 3.8-1.8 6.7-1.4z"/>
			</g>
			<g id="&lt;Group&gt;">
				<path id="&lt;Path&gt;" class="s1" d="m279.3 92c1.7-1.1 8.7-1.7 8.7-1.7 0 0 1.1 3.2-0.7 4.3-1.7 1.1-5 1.4-7.2 0.6-2.2-0.7-2.6-2.2-0.8-3.2z"/>
			</g>
			<g id="&lt;Group&gt;">
				<path id="&lt;Path&gt;" class="s1" d="m289.2 94.6c-1.8-1.1-0.7-4.3-0.7-4.3 0 0 6.9 0.6 8.7 1.7 1.8 1 1.4 2.5-0.8 3.2-2.2 0.8-5.5 0.5-7.2-0.6z"/>
			</g>
			<g id="&lt;Group&gt;">
				<path id="&lt;Path&gt;" class="s1" d="m297.8 91.2c-2.9 0.4-9.2-1-9.2-1 0 0 3.3-2.9 6.1-3.3 2.9-0.4 5.9 0.2 6.7 1.4 0.8 1.2-0.8 2.4-3.6 2.9z"/>
			</g>
			<g id="&lt;Group&gt;">
				<path id="&lt;Path&gt;" class="s2" d="m291.9 90.1c0 0.9-1.6 1.7-3.7 1.7-2 0-3.6-0.8-3.6-1.7 0-0.9 1.6-1.7 3.6-1.7 2.1 0 3.7 0.8 3.7 1.7z"/>
			</g>
		</g>
		<g id="&lt;Group&gt;">
			<g id="&lt;Group&gt;">
				<path id="&lt;Path&gt;" class="s1" d="m261.6 89.3c0.3 1.3-4.1 4.6-4.1 4.6 0 0-5.3-1.2-5.6-2.5-0.3-1.3 1.6-2.9 4.3-3.4 2.7-0.6 5.1-0.1 5.4 1.3z"/>
			</g>
			<g id="&lt;Group&gt;">
				<path id="&lt;Path&gt;" class="s1" d="m250.5 92.2c2.9-0.2 6.7 1.9 6.7 1.9 0 0-5.9 2.7-8.7 2.9-2.9 0.2-4.8-0.7-4.2-2 0.6-1.3 3.4-2.6 6.2-2.8z"/>
			</g>
			<g id="&lt;Group&gt;">
				<path id="&lt;Path&gt;" class="s1" d="m249.2 97.7c1.5-1.5 8.2-3.5 8.2-3.5 0 0 1.7 2.9 0.2 4.3-1.5 1.4-4.6 2.4-6.9 2.2-2.3-0.2-3-1.6-1.5-3z"/>
			</g>
			<g id="&lt;Group&gt;">
				<path id="&lt;Path&gt;" class="s1" d="m259.4 98.1c-1.9-0.7-1.6-4-1.6-4 0 0 6.9-1 8.9-0.3 1.9 0.7 1.9 2.2-0.1 3.4-2 1.2-5.2 1.6-7.2 0.9z"/>
			</g>
			<g id="&lt;Group&gt;">
				<path id="&lt;Path&gt;" class="s1" d="m267.1 92.9c-2.7 1-9.2 1-9.2 1 0 0 2.6-3.5 5.3-4.5 2.7-1 5.7-1.1 6.8-0.1 1.1 1-0.2 2.6-2.9 3.6z"/>
			</g>
			<g id="&lt;Group&gt;">
				<path id="&lt;Path&gt;" class="s2" d="m261.1 93.1c0.2 0.9-1.2 2-3.2 2.4-2 0.5-3.8 0.1-3.9-0.8-0.2-0.9 1.2-2 3.2-2.4 2-0.4 3.7-0.1 3.9 0.8z"/>
			</g>
		</g>
		<g id="&lt;Group&gt;">
			<g id="&lt;Group&gt;">
				<path id="&lt;Path&gt;" class="s1" d="m324 96.8c-0.5 1.2-6 1.6-6 1.6 0 0-3.8-3.9-3.3-5.2 0.5-1.2 2.9-1.5 5.5-0.5 2.5 1 4.2 2.8 3.8 4.1z"/>
			</g>
			<g id="&lt;Group&gt;">
				<path id="&lt;Path&gt;" class="s1" d="m313.1 93.2c2.5 1.4 4.6 5.2 4.6 5.2 0 0-6.5-1-9-2.4-2.5-1.4-3.5-3.1-2.3-3.9 1.2-0.8 4.2-0.3 6.7 1.1z"/>
			</g>
			<g id="&lt;Group&gt;">
				<path id="&lt;Path&gt;" class="s1" d="m309 97c2-0.4 8.7 1.6 8.7 1.6 0 0-0.1 3.3-2.2 3.7-2 0.4-5.1-0.5-6.9-2-1.8-1.4-1.7-2.9 0.4-3.3z"/>
			</g>
			<g id="&lt;Group&gt;">
				<path id="&lt;Path&gt;" class="s1" d="m317.3 103c-1.3-1.7 0.8-4.3 0.8-4.3 0 0 6.4 3 7.6 4.6 1.3 1.7 0.4 2.9-1.9 2.8-2.3-0.1-5.2-1.5-6.5-3.1z"/>
			</g>
			<g id="&lt;Group&gt;">
				<path id="&lt;Path&gt;" class="s1" d="m326.6 102.8c-2.9-0.6-8.3-4.2-8.3-4.2 0 0 4.1-1.5 6.9-0.8 2.8 0.6 5.4 2.2 5.8 3.6 0.3 1.4-1.6 2-4.4 1.4z"/>
			</g>
			<g id="&lt;Group&gt;">
				<path id="&lt;Path&gt;" class="s2" d="m321.5 99.7c-0.4 0.9-2.2 1-4.1 0.3-1.9-0.7-3.2-2-2.8-2.9 0.3-0.8 2.1-0.9 4-0.2 1.9 0.7 3.2 2 2.9 2.8z"/>
			</g>
		</g>
		<g id="&lt;Group&gt;">
			<g id="&lt;Group&gt;">
				<path id="&lt;Path&gt;" class="s1" d="m346.6 112.7c-0.5 1.2-6 1.1-6 1.1 0 0-3.5-4.2-2.9-5.4 0.6-1.2 3.1-1.2 5.5 0 2.5 1.2 4 3.1 3.4 4.3z"/>
			</g>
			<g id="&lt;Group&gt;">
				<path id="&lt;Path&gt;" class="s1" d="m336.1 108.2c2.4 1.6 4.1 5.6 4.1 5.6 0 0-6.3-1.5-8.7-3.1-2.4-1.6-3.3-3.5-2-4.2 1.3-0.7 4.3 0.1 6.6 1.7z"/>
			</g>
			<g id="&lt;Group&gt;">
				<path id="&lt;Path&gt;" class="s1" d="m331.7 111.6c2-0.2 8.6 2.4 8.6 2.4 0 0-0.5 3.3-2.5 3.5-2.1 0.2-5.1-0.9-6.8-2.5-1.7-1.7-1.4-3.1 0.7-3.4z"/>
			</g>
			<g id="&lt;Group&gt;">
				<path id="&lt;Path&gt;" class="s1" d="m339.5 118.3c-1.1-1.7 1.2-4.1 1.2-4.1 0 0 6 3.5 7.1 5.3 1.1 1.7 0.2 2.9-2.1 2.5-2.4-0.3-5.1-1.9-6.2-3.7z"/>
			</g>
			<g id="&lt;Group&gt;">
				<path id="&lt;Path&gt;" class="s1" d="m348.7 119c-2.7-0.9-7.8-4.9-7.8-4.9 0 0 4.1-1.1 6.9-0.3 2.7 0.9 5.1 2.8 5.4 4.2 0.3 1.4-1.8 1.9-4.5 1z"/>
			</g>
			<g id="&lt;Group&gt;">
				<path id="&lt;Path&gt;" class="s2" d="m343.9 115.5c-0.4 0.8-2.2 0.8-4.1-0.1-1.8-0.9-2.9-2.3-2.5-3.1 0.4-0.8 2.2-0.8 4 0.1 1.8 0.9 3 2.3 2.6 3.1z"/>
			</g>
		</g>
		<g id="&lt;Group&gt;">
			<g id="&lt;Group&gt;">
				<path id="&lt;Path&gt;" class="s1" d="m147 154.7c0.8 1.1-2.1 5.8-2.1 5.8 0 0-5.4 0.8-6.2-0.3-0.7-1.1 0.6-3.3 2.8-4.8 2.3-1.5 4.8-1.8 5.5-0.7z"/>
			</g>
			<g id="&lt;Group&gt;">
				<path id="&lt;Path&gt;" class="s1" d="m137.8 161.4c2.6-1.2 6.8-0.6 6.8-0.6 0 0-4.5 4.6-7.1 5.9-2.6 1.2-4.6 1-4.6-0.4 0.1-1.5 2.3-3.6 4.9-4.9z"/>
			</g>
			<g id="&lt;Group&gt;">
				<path id="&lt;Path&gt;" class="s1" d="m138.5 167c0.8-1.9 6.4-6.2 6.4-6.2 0 0 2.6 2.1 1.7 4-0.9 1.9-3.4 3.9-5.6 4.5-2.3 0.6-3.4-0.4-2.5-2.3z"/>
			</g>
			<g id="&lt;Group&gt;">
				<path id="&lt;Path&gt;" class="s1" d="m148.2 163.7c-2.1 0.1-3-3.1-3-3.1 0 0 6.2-3.4 8.2-3.5 2.1 0 2.6 1.4 1.1 3.2-1.4 1.9-4.3 3.4-6.3 3.4z"/>
			</g>
			<g id="&lt;Group&gt;">
				<path id="&lt;Path&gt;" class="s1" d="m153.5 156.2c-2.2 1.9-8.3 4.2-8.3 4.2 0 0 1.2-4.2 3.4-6.1 2.1-1.9 4.9-3 6.3-2.5 1.3 0.5 0.7 2.4-1.4 4.4z"/>
			</g>
			<g id="&lt;Group&gt;">
				<path id="&lt;Path&gt;" class="s2" d="m148 158.5c0.5 0.8-0.5 2.3-2.2 3.4-1.7 1.1-3.5 1.4-4 0.7-0.5-0.8 0.5-2.3 2.2-3.5 1.7-1.1 3.5-1.4 4-0.6z"/>
			</g>
		</g>
		<g id="&lt;Group&gt;">
			<g id="&lt;Group&gt;">
				<path id="&lt;Path&gt;" class="s1" d="m128.1 178.1c1 0.9-0.7 6.1-0.7 6.1 0 0-5 2.1-6 1.2-1-0.9-0.3-3.2 1.5-5.3 1.9-2 4.2-2.9 5.2-2z"/>
			</g>
			<g id="&lt;Group&gt;">
				<path id="&lt;Path&gt;" class="s1" d="m120.7 186.9c2.3-1.8 6.5-2.3 6.5-2.3 0 0-3.2 5.6-5.4 7.4-2.2 1.8-4.3 2.2-4.6 0.7-0.3-1.4 1.3-4 3.5-5.8z"/>
			</g>
			<g id="&lt;Group&gt;">
				<path id="&lt;Path&gt;" class="s1" d="m122.8 192.1c0.4-2 4.7-7.5 4.7-7.5 0 0 3 1.3 2.6 3.4-0.4 2-2.3 4.6-4.3 5.7-2.1 1.2-3.4 0.5-3-1.6z"/>
			</g>
			<g id="&lt;Group&gt;">
				<path id="&lt;Path&gt;" class="s1" d="m131.4 186.6c-2 0.5-3.6-2.3-3.6-2.3 0 0 5.1-4.8 7.1-5.4 2-0.6 2.8 0.7 1.8 2.8-0.9 2.1-3.3 4.3-5.3 4.9z"/>
			</g>
			<g id="&lt;Group&gt;">
				<path id="&lt;Path&gt;" class="s1" d="m134.7 177.9c-1.6 2.4-7 6.1-7 6.1 0 0 0.2-4.3 1.8-6.7 1.6-2.4 4-4.1 5.5-4 1.4 0.2 1.3 2.2-0.3 4.6z"/>
			</g>
			<g id="&lt;Group&gt;">
				<path id="&lt;Path&gt;" class="s2" d="m129.9 181.5c0.7 0.7 0.1 2.4-1.2 3.9-1.4 1.5-3.1 2.2-3.7 1.6-0.7-0.6-0.1-2.4 1.2-3.9 1.4-1.5 3.1-2.2 3.7-1.6z"/>
			</g>
		</g>
		<g id="&lt;Group&gt;">
			<g id="&lt;Group&gt;">
				<path id="&lt;Path&gt;" class="s1" d="m119.4 204c1.4 0 3.6 5 3.6 5 0 0-2.4 4.9-3.7 4.9-1.4 0-2.4-2.3-2.4-5 0.1-2.7 1.2-4.9 2.5-4.9z"/>
			</g>
			<g id="&lt;Group&gt;">
				<path id="&lt;Path&gt;" class="s1" d="m119.7 215.4c0.5-2.8 3.4-6 3.4-6 0 0 1.3 6.3 0.8 9.2-0.4 2.8-1.7 4.4-2.9 3.5-1.1-0.8-1.7-3.8-1.3-6.7z"/>
			</g>
			<g id="&lt;Group&gt;">
				<path id="&lt;Path&gt;" class="s1" d="m124.7 218c-1-1.8-1.4-8.8-1.4-8.8 0 0 3.1-1 4.2 0.8 1.1 1.8 1.3 5 0.5 7.2-0.7 2.2-2.2 2.6-3.3 0.8z"/>
			</g>
			<g id="&lt;Group&gt;">
				<path id="&lt;Path&gt;" class="s1" d="m127.5 208.1c-1.1 1.8-4.2 0.7-4.2 0.7 0 0 0.6-7 1.7-8.7 1.2-1.8 2.6-1.4 3.3 0.9 0.7 2.2 0.3 5.4-0.8 7.1z"/>
			</g>
			<g id="&lt;Group&gt;">
				<path id="&lt;Path&gt;" class="s1" d="m124.3 199.5c0.3 2.8-1.2 9.1-1.2 9.1 0 0-2.8-3.3-3.1-6.1-0.4-2.9 0.3-5.8 1.4-6.7 1.2-0.8 2.5 0.8 2.9 3.7z"/>
			</g>
			<g id="&lt;Group&gt;">
				<path id="&lt;Path&gt;" class="s2" d="m123.1 205.3c0.9 0 1.6 1.7 1.6 3.7 0 2.1-0.8 3.7-1.7 3.7-0.9 0-1.6-1.7-1.6-3.7 0-2.1 0.8-3.7 1.7-3.7z"/>
			</g>
		</g>
		<g id="&lt;Group&gt;">
			<g id="&lt;Group&gt;">
				<path id="&lt;Path&gt;" class="s1" d="m172.4 145c0.3 1.3-3.9 4.7-3.9 4.7 0 0-5.4-1-5.7-2.3-0.3-1.3 1.6-2.9 4.2-3.6 2.7-0.6 5.1-0.1 5.4 1.2z"/>
			</g>
			<g id="&lt;Group&gt;">
				<path id="&lt;Path&gt;" class="s1" d="m161.4 148.2c2.9-0.3 6.7 1.7 6.7 1.7 0 0-5.8 2.9-8.7 3.1-2.8 0.3-4.7-0.6-4.1-1.9 0.5-1.3 3.3-2.6 6.1-2.9z"/>
			</g>
			<g id="&lt;Group&gt;">
				<path id="&lt;Path&gt;" class="s1" d="m160.2 153.7c1.4-1.5 8.1-3.6 8.1-3.6 0 0 1.8 2.8 0.3 4.2-1.4 1.5-4.5 2.6-6.8 2.4-2.3-0.2-3.1-1.5-1.6-3z"/>
			</g>
			<g id="&lt;Group&gt;">
				<path id="&lt;Path&gt;" class="s1" d="m170.4 153.9c-1.9-0.6-1.7-3.9-1.7-3.9 0 0 7-1.2 8.9-0.5 2 0.6 2 2.1 0 3.4-2 1.2-5.2 1.7-7.2 1z"/>
			</g>
			<g id="&lt;Group&gt;">
				<path id="&lt;Path&gt;" class="s1" d="m178 148.6c-2.7 1-9.2 1.1-9.2 1.1 0 0 2.5-3.5 5.2-4.5 2.7-1.1 5.7-1.2 6.8-0.3 1.1 1-0.1 2.6-2.8 3.7z"/>
			</g>
			<g id="&lt;Group&gt;">
				<path id="&lt;Path&gt;" class="s2" d="m172.1 148.9c0.2 0.9-1.3 2-3.2 2.5-2 0.5-3.8 0.1-4-0.8-0.2-0.8 1.2-2 3.2-2.4 2-0.5 3.7-0.2 4 0.7z"/>
			</g>
		</g>
		<g id="&lt;Group&gt;">
			<g id="&lt;Group&gt;">
				<path id="&lt;Path&gt;" class="s1" d="m231 97.9c0.7 1.1-2.5 5.6-2.5 5.6 0 0-5.4 0.5-6.1-0.6-0.6-1.2 0.7-3.2 3.1-4.6 2.3-1.4 4.8-1.6 5.5-0.4z"/>
			</g>
			<g id="&lt;Group&gt;">
				<path id="&lt;Path&gt;" class="s1" d="m221.4 104.1c2.6-1.1 6.9-0.3 6.9-0.3 0 0-4.8 4.4-7.4 5.5-2.7 1.1-4.7 0.8-4.6-0.7 0.2-1.4 2.4-3.4 5.1-4.5z"/>
			</g>
			<g id="&lt;Group&gt;">
				<path id="&lt;Path&gt;" class="s1" d="m221.8 109.7c1-1.8 6.7-5.8 6.7-5.8 0 0 2.5 2.2 1.5 4-0.9 1.8-3.6 3.7-5.8 4.2-2.3 0.5-3.4-0.6-2.4-2.4z"/>
			</g>
			<g id="&lt;Group&gt;">
				<path id="&lt;Path&gt;" class="s1" d="m231.6 106.9c-2 0-2.7-3.3-2.7-3.3 0 0 6.3-3 8.3-3 2.1 0.1 2.5 1.5 1 3.3-1.6 1.7-4.5 3.1-6.6 3z"/>
			</g>
			<g id="&lt;Group&gt;">
				<path id="&lt;Path&gt;" class="s1" d="m237.3 99.6c-2.2 1.8-8.4 3.8-8.4 3.8 0 0 1.4-4.1 3.6-5.9 2.3-1.8 5.2-2.8 6.5-2.2 1.3 0.6 0.6 2.5-1.7 4.3z"/>
			</g>
			<g id="&lt;Group&gt;">
				<path id="&lt;Path&gt;" class="s2" d="m231.8 101.7c0.4 0.8-0.6 2.2-2.4 3.3-1.7 1-3.5 1.2-4 0.4-0.5-0.8 0.6-2.2 2.3-3.3 1.8-1 3.6-1.2 4.1-0.4z"/>
			</g>
		</g>
		<g id="&lt;Group&gt;">
			<path id="&lt;Path&gt;" class="s3" d="m334.5 274.6c0.1-0.1-19.9 5.3-31.9 18.6-13.3 12-18.7 32-18.6 31.9 0.3 1-5.4-22.5 11-39.5 17-16.4 40.5-10.7 39.5-11z"/>
		</g>
		<g id="&lt;Group&gt;">
			<path id="&lt;Path&gt;" class="s3" d="m353.7 339.7c0 0-35.7 35.8-66.7 66.8-7-7-5.6-14.5 14.4-34 22.1-21.5 52.3-32.8 52.3-32.8z"/>
		</g>
		<g id="&lt;Group&gt;">
			<path id="&lt;Path&gt;" class="s3" d="m214.4 318.2c0 0 35.8 35.7 66.8 66.7 6.9-6.9 5.6-14.5-14.5-34-22.1-21.5-52.3-32.7-52.3-32.7z"/>
		</g>
	</g>
</svg>